<svg xmlns="http://www.w3.org/2000/svg" width="120" height="120" viewBox="0 0 120 120">
  <g id="Grupo_1114730" data-name="Grupo 1114730" transform="translate(-64 -6445)">
    <rect id="Rect치ngulo_402033" data-name="Rect치ngulo 402033" width="120" height="120" rx="8" transform="translate(64 6445)" fill="#0042db"/>
    <g id="Rect치ngulo_412110" data-name="Rect치ngulo 412110" transform="translate(69 6450)" fill="none" stroke="#fff" stroke-width="1">
      <rect width="110" height="110" rx="6" stroke="none"/>
      <rect x="0.5" y="0.5" width="109" height="109" rx="5.5" fill="none"/>
    </g>
    <g id="Grupo_1114985" data-name="Grupo 1114985" transform="translate(73.387 6456.572)">
      <g id="Grupo_1114984" data-name="Grupo 1114984" transform="translate(11.269 9.213)">
        <g id="Grupo_1114979" data-name="Grupo 1114979" transform="translate(0 0)">
          <path id="Trazado_937695" data-name="Trazado 937695" d="M68.769,24.047V76.568c0,4.758-12.118,8.615-27.066,8.615s-27.066-3.857-27.066-8.615V24.047c0-4.758,12.118-8.615,27.066-8.615S68.769,19.289,68.769,24.047Z" transform="translate(-14.637 -15.432)" fill="#8d9ca8" fill-rule="evenodd"/>
          <ellipse id="Elipse_13466" data-name="Elipse 13466" cx="27.066" cy="8.615" rx="27.066" ry="8.615" transform="translate(0 0)" fill="#8d9ca8"/>
          <ellipse id="Elipse_13467" data-name="Elipse 13467" cx="6.125" cy="3.225" rx="6.125" ry="3.225" transform="translate(32.611 5.64)" fill="#8192a5"/>
          <g id="Grupo_1114978" data-name="Grupo 1114978" transform="translate(0 8.615)">
            <path id="Trazado_937696" data-name="Trazado 937696" d="M41.7,76.895c-14.948,0-27.066-3.857-27.066-8.615V81.41c0,3.453,6.384,6.432,15.6,7.806a18.164,18.164,0,0,1,22.931,0c9.217-1.374,15.6-4.352,15.6-7.806V68.28C68.77,73.038,56.652,76.895,41.7,76.895Z" transform="translate(-14.638 -68.28)" fill="#9facba" fill-rule="evenodd"/>
            <path id="Trazado_937697" data-name="Trazado 937697" d="M25.6,196.03c-6.651-1.57-10.961-4.087-10.961-6.924v13.13c0,2.613,3.655,4.954,9.426,6.534A18.232,18.232,0,0,1,25.6,196.03Z" transform="translate(-14.637 -169.41)" fill="#9facba" fill-rule="evenodd"/>
            <path id="Trazado_937698" data-name="Trazado 937698" d="M27.878,317.34c-7.929-1.5-13.241-4.257-13.241-7.408v13.13c0,4.758,12.118,8.615,27.066,8.615a74.609,74.609,0,0,0,14.36-1.311l9.42-16.317a32.526,32.526,0,0,1-9.955,3.29,18.162,18.162,0,0,1-27.65,0Z" transform="translate(-14.637 -270.541)" fill="#9facba" fill-rule="evenodd"/>
            <path id="Trazado_937699" data-name="Trazado 937699" d="M279.48,196.03a18.232,18.232,0,0,1,1.535,12.74c5.771-1.58,9.426-3.921,9.426-6.534v-13.13C290.441,191.943,286.13,194.461,279.48,196.03Z" transform="translate(-236.309 -169.41)" fill="#9facba" fill-rule="evenodd"/>
          </g>
          <path id="Trazado_937700" data-name="Trazado 937700" d="M203.56,24.047V76.568c0,4.758-12.118,8.615-27.066,8.615q-.409,0-.815,0c14.571-.137,26.251-3.939,26.251-8.61V24.047c0-4.671-11.68-8.473-26.251-8.61q.406,0,.815,0C191.442,15.432,203.56,19.289,203.56,24.047Z" transform="translate(-149.428 -15.432)" fill="#8d9ca8" fill-rule="evenodd"/>
        </g>
        <g id="Grupo_1114980" data-name="Grupo 1114980" transform="translate(40.044 44.344)">
          <path id="Trazado_937701" data-name="Trazado 937701" d="M284.032,290.4l12.815,22.2a5.852,5.852,0,0,1-5.068,8.778H266.15a5.852,5.852,0,0,1-5.068-8.778L273.9,290.4a5.852,5.852,0,0,1,10.136,0Z" transform="translate(-260.292 -287.47)" fill="#ffe177" fill-rule="evenodd"/>
          <path id="Trazado_937702" data-name="Trazado 937702" d="M364.766,356.532a1.963,1.963,0,1,1-1.963,1.963A1.963,1.963,0,0,1,364.766,356.532Zm0-3.5a1.532,1.532,0,0,1-1.531-1.477l-.387-10.724a1.532,1.532,0,0,1,1.531-1.587h.775a1.532,1.532,0,0,1,1.531,1.587l-.387,10.724a1.532,1.532,0,0,1-1.531,1.477Z" transform="translate(-346.093 -330.802)" fill="#fe646f" fill-rule="evenodd"/>
          <path id="Trazado_937703" data-name="Trazado 937703" d="M375.725,290.4l12.815,22.2a5.852,5.852,0,0,1-5.068,8.778h-1.63a5.852,5.852,0,0,0,5.068-8.778l-12.815-22.2a5.806,5.806,0,0,0-4.253-2.87,5.968,5.968,0,0,1,.815-.056A5.812,5.812,0,0,1,375.725,290.4Z" transform="translate(-351.984 -287.47)" fill="#ffd064" fill-rule="evenodd"/>
          <path id="Trazado_937704" data-name="Trazado 937704" d="M371.25,356.532a1.963,1.963,0,1,1-.7,3.8,1.963,1.963,0,0,0,0-3.668A1.957,1.957,0,0,1,371.25,356.532Zm0-3.5a1.525,1.525,0,0,1-.7-.169,1.532,1.532,0,0,0,.831-1.308l.387-10.724a1.538,1.538,0,0,0-1.218-1.558,1.617,1.617,0,0,1,.312-.029h.775a1.532,1.532,0,0,1,1.531,1.587l-.387,10.724A1.532,1.532,0,0,1,371.25,353.029Z" transform="translate(-352.577 -330.802)" fill="#fd4755" fill-rule="evenodd"/>
        </g>
        <g id="Grupo_1114983" data-name="Grupo 1114983" transform="translate(1.378 17.954)">
          <g id="Grupo_1114981" data-name="Grupo 1114981">
            <circle id="Elipse_13468" data-name="Elipse 13468" cx="18.161" cy="18.161" r="18.161" transform="translate(0 25.68) rotate(-45)" fill="#ffe177"/>
            <path id="Trazado_937705" data-name="Trazado 937705" d="M176.493,171.711a18.161,18.161,0,0,1,0,36.322c-.273,0-.545-.007-.816-.019a18.16,18.16,0,0,0,0-36.284C175.948,171.718,176.219,171.711,176.493,171.711Z" transform="translate(-150.804 -164.191)" fill="#ffd064" fill-rule="evenodd"/>
            <path id="Trazado_937706" data-name="Trazado 937706" d="M118.131,212.526a13.67,13.67,0,0,1,6.077,10.524.815.815,0,0,1-.813.867H97.713a.815.815,0,0,1-.813-.866,13.706,13.706,0,0,1,6.078-10.527.815.815,0,0,1,1.157.271l6.186,10.714a.8.8,0,0,1,0,.815l-6.185,10.712a.815.815,0,0,0,.343,1.137,13.67,13.67,0,0,0,12.152,0,.815.815,0,0,0,.345-1.138l-6.185-10.713a.8.8,0,0,1,0-.815l6.185-10.712a.814.814,0,0,1,1.156-.271Z" transform="translate(-84.867 -198.236)" fill="#fe646f" fill-rule="evenodd"/>
          </g>
          <g id="Grupo_1114982" data-name="Grupo 1114982" transform="translate(17.66 14.151)">
            <path id="Trazado_937707" data-name="Trazado 937707" d="M147.036,212.527a13.67,13.67,0,0,1,6.077,10.524.815.815,0,0,1-.813.867h-1.63a.815.815,0,0,0,.813-.867,13.675,13.675,0,0,0-5.627-10.212l.023-.041a.815.815,0,0,1,1.157-.272Zm-15.6.31q.222-.161.45-.312a.815.815,0,0,1,1.157.271l5.606,9.71-.58,1a.812.812,0,0,0-.112.408Zm7.9,11.081a.812.812,0,0,1-.112.408l-.58,1,5.605,9.708a.815.815,0,0,1-.345,1.138,13.756,13.756,0,0,1-5.273,1.4,13.742,13.742,0,0,0,6.9-1.4.815.815,0,0,0,.345-1.138L139.7,224.326a.812.812,0,0,1-.112-.408h-.246Z" transform="translate(-131.432 -212.388)" fill="#fd4755" fill-rule="evenodd"/>
          </g>
          <circle id="Elipse_13469" data-name="Elipse 13469" cx="4.46" cy="4.46" r="4.46" transform="translate(19.877 23.265) rotate(-22.514)" fill="#ffd064"/>
          <path id="Trazado_937708" data-name="Trazado 937708" d="M176.5,255.763a4.46,4.46,0,1,1-.815,8.845,4.461,4.461,0,0,0,0-8.771A4.5,4.5,0,0,1,176.5,255.763Z" transform="translate(-150.807 -234.541)" fill="#ffc338" fill-rule="evenodd"/>
        </g>
      </g>
      <path id="Trazado_937709" data-name="Trazado 937709" d="M70.083,63.463a.179.179,0,0,1,.161-.07h.775a.179.179,0,0,1,.161.07.2.2,0,0,1,.069.166l-.391,10.724a.226.226,0,0,1-.23.219.22.22,0,0,1-.223-.22l-.391-10.722a.2.2,0,0,1,.069-.166Zm.545,13.717a2.828,2.828,0,0,0,2.839-2.734l.384-10.722a2.831,2.831,0,0,0-2.831-2.939h-.775a2.831,2.831,0,0,0-2.831,2.939L67.8,74.446a2.826,2.826,0,0,0,2.831,2.734Zm0,4.82a.657.657,0,1,1,.66-.656A.654.654,0,0,1,70.628,82Zm0-3.923A3.266,3.266,0,1,0,73.9,81.344a3.269,3.269,0,0,0-3.268-3.267Zm16.757,5.894a4.507,4.507,0,0,0,0-4.548l-12.813-22.2a4.55,4.55,0,0,0-7.88,0l-12.813,22.2a4.548,4.548,0,0,0,3.936,6.822H83.449A4.5,4.5,0,0,0,87.385,83.971ZM13.222,70.442v-8.78c2.332,1.782,6.169,3.249,11.263,4.253a19.433,19.433,0,0,0,28.995,0,43.456,43.456,0,0,0,6.13-1.641l-7.1,12.3a74.387,74.387,0,0,1-13.534,1.175c-15.959,0-25.757-4.257-25.757-7.31Zm0-15.347v2.217c0,1.581,2.816,3.8,8.931,5.4a19.127,19.127,0,0,1-1.872-4.379,21.838,21.838,0,0,1-7.059-3.237Zm0-13.115a23.054,23.054,0,0,0,7.811,3.438,19.352,19.352,0,0,0-1.519,7.524,18.7,18.7,0,0,0,.161,2.468c-4.719-1.6-6.453-3.456-6.453-4.664Zm0-6.569v2.205c0,1.568,2.793,3.809,9.008,5.42A19.71,19.71,0,0,1,24.723,39.7a36.833,36.833,0,0,1-9.038-2.8A14.6,14.6,0,0,1,13.222,35.41Zm0-13.121a20.9,20.9,0,0,0,6.222,2.965A67.108,67.108,0,0,0,38.978,27.84a67.039,67.039,0,0,0,19.534-2.586,20.862,20.862,0,0,0,6.23-2.965v8.762c0,2.122-4.788,4.985-13.949,6.43a19.421,19.421,0,0,0-23.624,0c-9.161-1.446-13.949-4.308-13.949-6.43ZM38.978,10.61c-15.959,0-25.757,4.257-25.757,7.31s9.8,7.311,25.757,7.311,25.765-4.259,25.765-7.311-9.8-7.31-25.765-7.31ZM55.728,43.035c6.215-1.612,9.015-3.852,9.015-5.42V35.41A14.917,14.917,0,0,1,62.28,36.9a36.909,36.909,0,0,1-9.046,2.8,18.918,18.918,0,0,1,2.494,3.331ZM58.29,55.409a20.148,20.148,0,0,0,.153-2.468,19.348,19.348,0,0,0-1.512-7.524,23.2,23.2,0,0,0,7.811-3.438v8.766c0,1.208-1.734,3.067-6.452,4.664ZM38.978,36.084A16.857,16.857,0,1,1,22.122,52.941,16.873,16.873,0,0,1,38.978,36.084ZM61.812,60.467a26.567,26.567,0,0,1-6,2.245,19.165,19.165,0,0,0,1.872-4.379,22.028,22.028,0,0,0,7.059-3.239v.344c-.107.156-.215.318-.307.486ZM89.64,78.119l-12.813-22.2a7.179,7.179,0,0,0-9.476-2.792V17.92c0-2.958-3.054-5.494-8.839-7.333A66.985,66.985,0,0,0,38.978,8a67.06,67.06,0,0,0-19.534,2.585c-5.777,1.839-8.831,4.376-8.831,7.333V70.442c0,2.958,3.054,5.494,8.831,7.333A67.059,67.059,0,0,0,38.978,80.36a79.769,79.769,0,0,0,12.031-.88,7.165,7.165,0,0,0,6.806,9.373H83.449A7.156,7.156,0,0,0,89.64,78.119ZM50.649,16.25c2.992,0,4.826,1.244,4.826,1.92s-1.834,1.922-4.826,1.922S45.83,18.848,45.83,18.17,47.664,16.25,50.649,16.25Zm0,6.45c4.235,0,7.435-1.948,7.435-4.531s-3.2-4.528-7.435-4.528-7.427,1.947-7.427,4.528S46.413,22.7,50.649,22.7ZM28.26,46.753a12.456,12.456,0,0,0-1.588,4.884h6.7a5.756,5.756,0,0,1,1.68-2.9l-3.353-5.8A12.524,12.524,0,0,0,28.26,46.753Zm13.88,6.188A3.157,3.157,0,1,0,38.978,56.1,3.163,3.163,0,0,0,42.14,52.941Zm4.12-10.005-3.345,5.8a5.755,5.755,0,0,1,1.68,2.9h6.69A12.408,12.408,0,0,0,46.26,42.936ZM44,64.252l-3.345-5.8a5.759,5.759,0,0,1-3.353,0L33.961,64.25A12.432,12.432,0,0,0,44,64.252Zm-8.954-7.1a5.75,5.75,0,0,1-1.68-2.9H25.3a1.3,1.3,0,0,1-1.3-1.3,15,15,0,0,1,7.5-12.98,1.3,1.3,0,0,1,1.78.477l4.036,6.987a5.763,5.763,0,0,1,3.353,0l4.036-6.985a1.305,1.305,0,0,1,1.78-.477,15.047,15.047,0,0,1,7.5,12.977,1.306,1.306,0,0,1-1.3,1.3H44.595a5.752,5.752,0,0,1-1.68,2.9l4.036,6.99a1.28,1.28,0,0,1,.13.991,1.309,1.309,0,0,1-.606.791,15.042,15.042,0,0,1-14.984,0,1.306,1.306,0,0,1-.476-1.782Z" fill="#242222" fill-rule="evenodd"/>
    </g>
  </g>
</svg>
