<svg xmlns="http://www.w3.org/2000/svg" width="85" height="85" viewBox="0 0 85 85">
  <g id="Grupo_1115151" data-name="Grupo 1115151" transform="translate(-179.668 -5521)">
    <rect id="Rectángulo_402006" data-name="Rectángulo 402006" width="85" height="85" rx="5" transform="translate(179.668 5521)" fill="#66d16a"/>
    <path id="Trazado_937821" data-name="Trazado 937821" d="M84.844,43.366A3.2,3.2,0,0,0,80.9,42.24l-1.386.614a3.195,3.195,0,0,0-4.076-3.621,3.189,3.189,0,0,0-1.206-1.787,3.241,3.241,0,0,0-.39-.244,21.2,21.2,0,0,0,3.248-6.972c.128.036.253.07.374.1a2.95,2.95,0,0,0,.664.075,3.007,3.007,0,0,0,.609-.063,14.609,14.609,0,0,0,2.06,1.681.9.9,0,0,0,1.011-1.493A12.878,12.878,0,0,1,80.375,29.4a3.074,3.074,0,0,0,.354-.482c3.645-6.153.952-8.622-.83-10.256-.257-.236-.5-.459-.7-.671a1.715,1.715,0,0,1-.448-1.757,1.5,1.5,0,0,0-2.013-1.794,9.06,9.06,0,0,0-1.369.7,21.227,21.227,0,0,0-2.7-4A.9.9,0,0,0,71.3,12.321a19.412,19.412,0,0,1,2.625,3.954,9.154,9.154,0,0,0-2.642,5.435,8.918,8.918,0,0,0-.093,1.173.9.9,0,0,0,.891.912h.011a.9.9,0,0,0,.9-.891,7.126,7.126,0,0,1,.074-.936A7.014,7.014,0,0,1,76.9,16.349a3.518,3.518,0,0,0,.991,2.881c.245.26.511.5.794.763,1.67,1.531,3.4,3.114.5,8.008-.016.028-.035.053-.053.079a11.621,11.621,0,0,1-2.517-7.055.9.9,0,0,0-1.8.037,13.533,13.533,0,0,0,2.257,7.263,6.847,6.847,0,0,1-3.035-2.161.9.9,0,1,0-1.435,1.092,8.34,8.34,0,0,0,2.811,2.3,19.36,19.36,0,0,1-2.536,5.876L67.59,33.672a2.1,2.1,0,0,0-2.433.857L63.882,36.51a.3.3,0,0,1-.126.11L60.31,38.227a.3.3,0,0,1-.3-.027l-4.248-2.986a.3.3,0,0,1-.1-.366l.633-1.449a.3.3,0,0,1,.2-.171l4.621-1.16a2.1,2.1,0,0,0,1.36-1.081l1.563-3.051a2.115,2.115,0,0,0-.077-2.056l-1.681-2.75a2.116,2.116,0,0,0-1.795-1.006H59.152a2.1,2.1,0,0,0-1.77.967l-2.33,3.629a.3.3,0,0,1-.34.125l-1.884-.571a2.1,2.1,0,0,0-2.111.539l-1.06,1.08a.3.3,0,0,1-.38.04l-2.35-1.555a.3.3,0,0,1-.112-.137l-1.378-3.374a.3.3,0,0,1,.02-.268l2.113-3.542a.3.3,0,0,1,.352-.131L51.494,20.1a2.116,2.116,0,0,0,1.622-.128l5.616-2.893a2.1,2.1,0,0,0,1.135-2.013l-.17-2.5a2.108,2.108,0,0,0-.988-1.643l-1.221-.759a.3.3,0,0,1-.112-.387l1.966-4.039a19.147,19.147,0,0,1,9.188,3.928.9.9,0,1,0,1.113-1.418A20.969,20.969,0,0,0,56.582,3.747a21.317,21.317,0,0,0-4.455.47,3,3,0,0,0-.31-.588,14.591,14.591,0,0,0,.771-2.546A.9.9,0,1,0,50.823.715a12.869,12.869,0,0,1-.5,1.757,3.06,3.06,0,0,0-.58-.144C42.67,1.3,41.412,4.732,40.58,7c-.12.328-.234.637-.354.9a1.715,1.715,0,0,1-1.454,1.083,1.5,1.5,0,0,0-.892,2.545A9.043,9.043,0,0,0,39.288,12.7,20.97,20.97,0,0,0,35.4,24.929a21.221,21.221,0,0,0,.743,5.577,8.943,8.943,0,0,0-2.885,4.72,2.977,2.977,0,0,0-.012,1.272,14.6,14.6,0,0,0-1.682,2.061.9.9,0,1,0,1.493,1.011,12.89,12.89,0,0,1,1.127-1.436,3.057,3.057,0,0,0,.482.354,10.787,10.787,0,0,0,5.378,1.81,5.309,5.309,0,0,0,1.691-.266A21.249,21.249,0,0,0,45.3,42.854,5.88,5.88,0,0,0,44.026,44.5a9.3,9.3,0,0,1-3.191,3.511l-6.3,4.083a.9.9,0,1,0,.98,1.513l6.3-4.083a11.106,11.106,0,0,0,3.811-4.192,4.1,4.1,0,0,1,2.483-2.038l3.617-1.053a4.065,4.065,0,0,1,2.439.049l5.569,1.865a12.92,12.92,0,0,0,4.109.669h6.6a2.158,2.158,0,0,1,0,4.317H62.49a18.15,18.15,0,0,0-4.237.5.9.9,0,1,0,.421,1.753,16.355,16.355,0,0,1,3.816-.452h7.952A3.965,3.965,0,0,0,74.4,47.095l7.234-3.208a1.394,1.394,0,0,1,1.72.491,1.395,1.395,0,0,1-.484,2.008l-14.123,7.73a3.817,3.817,0,0,1-2.1.462L50.984,53.525a.9.9,0,0,0-.608.183l-8.122,6.209a.9.9,0,1,0,1.095,1.432l7.853-6,15.327,1.03a5.635,5.635,0,0,0,3.083-.679l14.123-7.73a3.2,3.2,0,0,0,1.11-4.6Zm-7.6-2.158a1.395,1.395,0,0,1,.117,2.062l-.922.938-.014.015L74.022,45.29a3.988,3.988,0,0,0-1.4-1.613l2.838-2.443a1.394,1.394,0,0,1,1.788-.027ZM73.167,38.9a1.39,1.39,0,0,1,.523,1.481l-3.074,2.645c-.058,0-.116,0-.174,0H67.6A21.323,21.323,0,0,0,72.587,38.8c.037-.043.072-.086.109-.129a1.386,1.386,0,0,1,.471.225ZM41.869,8.647c.147-.325.272-.665.4-1.024.78-2.127,1.587-4.327,7.216-3.51.032,0,.062.012.093.019a11.622,11.622,0,0,1-5.565,5.014.9.9,0,1,0,.72,1.653,13.533,13.533,0,0,0,5.856-4.85A7.26,7.26,0,0,1,50.084,8.9a5.309,5.309,0,0,1-3.847,3.159,7.013,7.013,0,0,1-6.654-1.4A3.517,3.517,0,0,0,41.869,8.647ZM54.736,40.58a5.862,5.862,0,0,0-3.515-.07L47.6,41.563a5.846,5.846,0,0,0-.6.213A19.426,19.426,0,0,1,43.4,39.128a12.215,12.215,0,0,0,1.525-1.471c.236-.257.459-.5.671-.7a1.716,1.716,0,0,1,1.757-.448A1.5,1.5,0,0,0,49.143,34.5a8.593,8.593,0,0,0-4.378-4.616A.9.9,0,1,0,44,31.514a6.766,6.766,0,0,1,3.232,3.14,3.513,3.513,0,0,0-2.88.991c-.26.245-.5.511-.763.794-1.531,1.67-3.114,3.4-8.009.5-.027-.016-.052-.034-.078-.052a11.623,11.623,0,0,1,7.055-2.517.9.9,0,0,0-.018-1.8h-.019a13.534,13.534,0,0,0-7.264,2.257,5.776,5.776,0,0,1,5.228-4.071.9.9,0,0,0-.016-1.8h-.017a7.045,7.045,0,0,0-2.7.572,19.447,19.447,0,0,1-.55-4.59,19.186,19.186,0,0,1,3.7-11.386,8.608,8.608,0,0,0,3.2.6,10.523,10.523,0,0,0,2.577-.334A7.115,7.115,0,0,0,51.748,9.6,8.943,8.943,0,0,0,52.394,6a19.5,19.5,0,0,1,4.187-.455q.422,0,.841.018L55.755,8.994a2.1,2.1,0,0,0,.781,2.707l1.221.759a.3.3,0,0,1,.141.235l.17,2.5a.3.3,0,0,1-.162.288L52.29,18.374a.3.3,0,0,1-.231.018l-3.573-1.178a2.091,2.091,0,0,0-2.465.92l-2.113,3.542a2.114,2.114,0,0,0-.141,1.873l1.378,3.374a2.1,2.1,0,0,0,.787.959l2.35,1.555a2.107,2.107,0,0,0,2.662-.281L52,28.077a.3.3,0,0,1,.3-.077l1.884.571a2.113,2.113,0,0,0,2.38-.877l2.33-3.629a.3.3,0,0,1,.253-.138h1.334a.3.3,0,0,1,.256.144l1.681,2.75a.3.3,0,0,1,.011.294l-1.563,3.051a.3.3,0,0,1-.194.154l-4.621,1.16a2.117,2.117,0,0,0-1.415,1.2l-.633,1.449a2.11,2.11,0,0,0,.717,2.563l4.248,2.986a2.108,2.108,0,0,0,2.1.186l3.447-1.607a2.1,2.1,0,0,0,.879-.768l1.274-1.981a.3.3,0,0,1,.348-.122l4.748,1.581c-.177.223-.356.443-.543.658a19.475,19.475,0,0,1-7.671,5.393,11.113,11.113,0,0,1-3.249-.571Z" transform="translate(163.766 5532.734)" fill="#001a58"/>
  </g>
</svg>
