<svg xmlns="http://www.w3.org/2000/svg" width="80" height="80" viewBox="0 0 80 80">
  <g id="Grupo_1114859" data-name="Grupo 1114859" transform="translate(-704.668 -6155)">
    <rect id="Rect치ngulo_402033" data-name="Rect치ngulo 402033" width="80" height="80" rx="8" transform="translate(704.668 6155)" fill="#0042db"/>
    <g id="Grupo_1115250" data-name="Grupo 1115250" transform="translate(694.757 6162.479)">
      <path id="Trazado_938125" data-name="Trazado 938125" d="M349.417,226.276q-.191,0-.378.009a9.133,9.133,0,1,0,.378-.009Zm0,14.06a4.833,4.833,0,0,1-.8-.065,4.892,4.892,0,0,1,.421-9.7q.187-.014.378-.014a4.892,4.892,0,0,1,0,9.784Z" transform="translate(-279.635 -197.53)" fill="#fee6cc"/>
      <path id="Trazado_938126" data-name="Trazado 938126" d="M344.525,235.509a4.892,4.892,0,0,0,4.093,4.827,17.22,17.22,0,0,1-1.46,4.06,9.168,9.168,0,0,1,1.882-18.045v4.281A4.892,4.892,0,0,0,344.525,235.509Z" transform="translate(-279.635 -197.595)" fill="#fcce99"/>
      <path id="Trazado_938127" data-name="Trazado 938127" d="M151.207,207.106v11.319a17.435,17.435,0,1,1-34.868.189V207.107a1.259,1.259,0,0,1,1.259-1.259h32.351A1.259,1.259,0,0,1,151.207,207.106Z" transform="translate(-84.17 -179.698)" fill="#fee6cc"/>
      <g id="Grupo_1115247" data-name="Grupo 1115247" transform="translate(32.169 35.323)">
        <path id="Trazado_938128" data-name="Trazado 938128" d="M130.6,342.544a7.316,7.316,0,0,1-.712,1.1A17.453,17.453,0,0,1,118.409,330.2a5.727,5.727,0,0,1,1.221.617,5.9,5.9,0,0,1,2.116,2.567,11.023,11.023,0,0,1,1.7-.135c3.951,0,7.147,2.193,7.77,5.33A5.986,5.986,0,0,1,130.6,342.544Z" transform="translate(-118.146 -323.571)" fill="#fcce99"/>
        <path id="Trazado_938129" data-name="Trazado 938129" d="M151.208,278.052v3.594a17.434,17.434,0,0,1-34.868,0v-3.594a17.434,17.434,0,0,0,34.868,0Z" transform="translate(-116.34 -278.052)" fill="#fcce99"/>
        <rect id="Rect치ngulo_412504" data-name="Rect치ngulo 412504" width="27.889" height="4.586" transform="translate(3.49 24.181)" fill="#fcce99"/>
      </g>
      <path id="Trazado_938130" data-name="Trazado 938130" d="M113.9,378.45a7.147,7.147,0,0,1-5,3.345c-3.475.69-6.7-.777-7.193-3.281,0-.022-.008-.042-.011-.064-.446-2.482,1.958-5.033,5.4-5.718,3.475-.69,6.7.777,7.193,3.281A3.667,3.667,0,0,1,113.9,378.45Z" transform="translate(-71.345 -325.232)" fill="#e2780e"/>
      <g id="Grupo_1115248" data-name="Grupo 1115248" transform="translate(30.303 49.832)">
        <path id="Trazado_938131" data-name="Trazado 938131" d="M114.269,418.911a7.147,7.147,0,0,1-5,3.345c-3.475.69-6.7-.777-7.193-3.281,0-.022-.008-.042-.011-.064h12.2Z" transform="translate(-102.014 -415.526)" fill="#a85000"/>
        <path id="Trazado_938132" data-name="Trazado 938132" d="M108.906,398.993c-3.474.691-6.694-.778-7.192-3.28a3.35,3.35,0,0,1-.046-1.007c1.023,1.91,3.842,2.93,6.85,2.332s5.222-2.619,5.437-4.775a3.351,3.351,0,0,1,.342.948C114.794,395.714,112.38,398.3,108.906,398.993Z" transform="translate(-101.65 -392.263)" fill="#a85000"/>
      </g>
      <path id="Trazado_938133" data-name="Trazado 938133" d="M57.584,354.181a9.085,9.085,0,0,1-.614.815c-1.992,2.348-4.878,3.231-6.791,1.951A3.66,3.66,0,0,1,48.749,355a7.125,7.125,0,0,1,1.154-5.948c1.969-2.947,5.284-4.184,7.4-2.766S59.553,351.236,57.584,354.181Z" transform="translate(-24.952 -301.778)" fill="#e2780e"/>
      <g id="Grupo_1115249" data-name="Grupo 1115249" transform="translate(23.797 44.075)">
        <path id="Trazado_938134" data-name="Trazado 938134" d="M58.659,418.912c-1.992,2.348-4.878,3.231-6.791,1.951a3.66,3.66,0,0,1-1.431-1.951Z" transform="translate(-50.438 -409.77)" fill="#a85000"/>
        <path id="Trazado_938135" data-name="Trazado 938135" d="M63.983,355.274c-1.968,2.945-5.284,4.184-7.405,2.766a3.354,3.354,0,0,1-.745-.679c2.074.627,4.789-.645,6.493-3.194s1.841-5.544.468-7.221a3.349,3.349,0,0,1,.913.428C65.828,348.792,65.951,352.329,63.983,355.274Z" transform="translate(-55.148 -346.946)" fill="#a85000"/>
      </g>
      <path id="Trazado_938136" data-name="Trazado 938136" d="M27.415,436.056v2.278l14.736,2.8H70.141l14.736-2.8v-2.278Z" transform="translate(-6.543 -380.661)" fill="#fee6cc"/>
      <path id="Trazado_938137" data-name="Trazado 938137" d="M78.334,227.587h-9.2a.953.953,0,1,0,0,1.906h8.247v.537l-13.873,2.635H35.7L21.826,230.03v-.537H65.6a.953.953,0,1,0,0-1.906H59.451a18.44,18.44,0,0,0,6.528-7.148,10.018,10.018,0,0,0,3.8.74A10.12,10.12,0,1,0,67.99,201.1v-.545a2.214,2.214,0,0,0-2.212-2.212H61.272a.953.953,0,0,0,0,1.906h4.506a.306.306,0,0,1,.306.306v1.62H33.122v-1.62a.306.306,0,0,1,.306-.306h24.3a.953.953,0,1,0,0-1.906h-24.3a2.214,2.214,0,0,0-2.212,2.212v11.507a18.436,18.436,0,0,0,.5,4.246,6.049,6.049,0,0,0-5.085,1.055.953.953,0,1,0,1.076,1.573,4.36,4.36,0,0,1,3.223-.861l-3.47,5.192a.953.953,0,1,0,1.584,1.059l3.471-5.194a3.712,3.712,0,0,1,.567,2.049h0s0,0,0,.005a6.919,6.919,0,0,1-1.238,3.834,7.489,7.489,0,0,1-1.628,1.766,6.005,6.005,0,0,1-1.342.8H25.86c-.034-.021-.069-.041-.1-.064-1.586-1.059-1.687-3.8-.229-6.238a.953.953,0,1,0-1.635-.978,8.567,8.567,0,0,0-1.278,4.876,5.617,5.617,0,0,0,.685,2.4H20.873a.953.953,0,0,0-.953.953v2.279a.953.953,0,0,0,.775.936l14.011,2.661v2.82a.953.953,0,0,0,.953.953H63.547a.953.953,0,0,0,.953-.953v-2.819l14.012-2.661a.953.953,0,0,0,.775-.936V228.54A.953.953,0,0,0,78.334,227.587ZM67.99,207.553a3.939,3.939,0,1,1-.158,6.926,18.665,18.665,0,0,0,.158-2.419v-4.508Zm1.793-4.709a8.215,8.215,0,0,1,0,16.43,8.133,8.133,0,0,1-3.021-.577,18.172,18.172,0,0,0,.709-2.27,5.845,5.845,0,1,0,.52-10.933v-2.359s0-.006,0-.01,0-.006,0-.01v-.075A8.221,8.221,0,0,1,69.782,202.844Zm-3.7,1.235v7.982a16.379,16.379,0,0,1-4.826,11.655,16.585,16.585,0,0,1-6.115,3.871H44.065c-.307-.109-.613-.227-.915-.356a4.758,4.758,0,0,0,.735-3.487v-.01a4.993,4.993,0,0,0-3.017-3.513,8.758,8.758,0,0,0-5.295-.511q-.256.051-.507.115a16.466,16.466,0,0,1-1.943-7.765v-7.982H66.084Zm-32.659,22a9.07,9.07,0,0,0,1.533-4.234,7.948,7.948,0,0,1,.985-.265c2.424-.481,4.762.248,5.694,1.636l-6.123,1.217a.953.953,0,1,0,.371,1.869l6.127-1.218a3.7,3.7,0,0,1-1.031,1.832l0,0a5.739,5.739,0,0,1-.785.667H32.181A9.627,9.627,0,0,0,33.425,226.078Zm29.17,10.205H36.611V234.57H62.594Z" transform="translate(0 -173.145)"/>
      <path id="Trazado_938138" data-name="Trazado 938138" d="M270.133,19.041a.953.953,0,1,0,1.015,1.613A6.529,6.529,0,0,0,272.183,10.4,6.529,6.529,0,0,0,271.147.146a.953.953,0,1,0-1.015,1.613,4.624,4.624,0,0,1,0,7.834.963.963,0,0,0,0,1.613,4.624,4.624,0,0,1,0,7.835Z" transform="translate(-218.037 0)"/>
      <path id="Trazado_938139" data-name="Trazado 938139" d="M322.915,83.962a.953.953,0,1,0,1.015,1.613,6.53,6.53,0,0,0,0-11.06.953.953,0,1,0-1.015,1.613,4.624,4.624,0,0,1,0,7.834Z" transform="translate(-264.114 -64.92)"/>
      <path id="Trazado_938140" data-name="Trazado 938140" d="M213.03,83.961a.953.953,0,1,0,1.015,1.613,6.53,6.53,0,0,0,0-11.06.953.953,0,1,0-1.015,1.613,4.624,4.624,0,0,1,0,7.835Z" transform="translate(-168.188 -64.92)"/>
    </g>
  </g>
</svg>
