<svg xmlns="http://www.w3.org/2000/svg" width="60" height="60" viewBox="0 0 60 60">
  <g id="Grupo_1115802" data-name="Grupo 1115802" transform="translate(-175 -1103)">
    <g id="Grupo_1114831" data-name="Grupo 1114831" transform="translate(-1061.5 643)">
      <g id="Elipse_12108" data-name="Elipse 12108" transform="translate(1241.5 465)" fill="#8bc34a" stroke="rgba(255,255,255,0.4)" stroke-width="5">
        <circle cx="25" cy="25" r="25" stroke="none"/>
        <circle cx="25" cy="25" r="27.5" fill="none"/>
      </g>
      <g id="Artboard441" transform="translate(1244.196 467.67)">
        <path id="Trazado_938107" data-name="Trazado 938107" d="M23.53,34.514H7.494A.494.494,0,0,1,7,34.02V7.522a.494.494,0,0,1,.494-.494H24.626a.494.494,0,0,1,.349.145l3.313,3.313a.494.494,0,0,1,.145.349v2.351a6.452,6.452,0,0,1,3.186,9.357l1.277,1.24a1.041,1.041,0,0,1,1.129.206h0L37.3,27.163a1.037,1.037,0,0,1,.021,1.463h0l-1.18,1.215h0a1.039,1.039,0,0,1-1.462.024l0,0L31.4,26.692a1.037,1.037,0,0,1-.243-1.123L29.94,24.383a6.434,6.434,0,0,1-1.507.831v2.563a4.952,4.952,0,0,1,.588-.035,4.807,4.807,0,0,1,.8.069.494.494,0,0,1,.409.527,4.881,4.881,0,0,1-1.8,3.4V34.02a.494.494,0,0,1-.494.494h-2.2a3.115,3.115,0,0,1,1.985,2.573.494.494,0,0,1-.491.546h-5.2a.494.494,0,0,1-.491-.546,3.113,3.113,0,0,1,1.986-2.573Zm3.916-21.622V11.329h-2.82a.494.494,0,0,1-.494-.494V8.015H7.987V33.526H24.144v-.709q-.113.006-.229.006a4.9,4.9,0,0,1-4.686-3.482h-.913a.494.494,0,0,1,0-.987h.725v-.015a.494.494,0,0,1,.409-.527,4.815,4.815,0,0,1,.805-.069,4.883,4.883,0,0,1,3.89,1.928V28.1a5.182,5.182,0,0,1-.414-.41h0q-.089-.1-.17-.2H18.316a.494.494,0,1,1,0-.987h4.63a4.336,4.336,0,0,1-.393-1.921,6.481,6.481,0,0,1-1.727-1.68H18.316a.494.494,0,0,1,0-.987h1.939a6.4,6.4,0,0,1-.328-.863H18.316a.494.494,0,0,1,0-.987h1.4a6.5,6.5,0,0,1-.057-.864,6.423,6.423,0,0,1,.607-2.735H18.316a.494.494,0,0,1,0-.987h2.523a6.48,6.48,0,0,1,.733-.863H18.316a.494.494,0,0,1,0-.987h4.545a6.471,6.471,0,0,1,4.585-.734Zm-.7-2.551L25.119,8.714v1.628Zm4.289,13.012q-.166.2-.347.38l1.1,1.071.358-.369Zm-3.591,2.154a6.442,6.442,0,0,1-.9.125,4.606,4.606,0,0,1-1.41,2.46v1.573A4.9,4.9,0,0,1,27.445,28Zm-1.915.114q-.2-.018-.4-.048v.979A3.511,3.511,0,0,0,25.53,25.622Zm-1.386-.278q-.3-.094-.578-.215a3.456,3.456,0,0,0,.578,1.495Zm3.3,7.012a4.876,4.876,0,0,1-2.089.467q-.112,0-.224-.006v.709h2.314Zm-1.25-.611a3.907,3.907,0,0,0,2.984-3.012q-.079,0-.157,0a3.9,3.9,0,0,0-3.581,2.343l1.445-1.051a.494.494,0,1,1,.581.8Zm-6.1-2.993a3.911,3.911,0,0,0,2.982,2.993l-1.273-.924a.494.494,0,0,1,.58-.8l1.447,1.051a3.907,3.907,0,0,0-3.578-2.343q-.081,0-.162,0v0l0,.016Zm15.331.4,1.18-1.215a.048.048,0,0,0,0-.067h0L33.339,24.7a.048.048,0,0,0-.067,0h0l-1.18,1.216h0a.046.046,0,0,0,0,.064l0,0,3.268,3.173a.049.049,0,0,0,.067,0ZM26.1,13.74a5.46,5.46,0,1,0,5.46,5.46A5.46,5.46,0,0,0,26.1,13.74Zm0,.668A4.792,4.792,0,1,1,21.313,19.2,4.792,4.792,0,0,1,26.1,14.408Zm0,.987a3.8,3.8,0,1,0,3.8,3.8,3.8,3.8,0,0,0-3.8-3.8Zm-3.445,21.25h3.953a2.124,2.124,0,0,0-3.953,0ZM11.423,12.3H15a.963.963,0,0,1,.96.96v3.576a.963.963,0,0,1-.96.96H11.423a.963.963,0,0,1-.96-.96V13.257A.963.963,0,0,1,11.423,12.3Zm.027.987v3.522h3.522V13.284Zm.46,2.018a.494.494,0,1,1,.7-.7l.4.4.773-.956a.494.494,0,1,1,.768.621l-1.118,1.383a.494.494,0,0,1-.733.039Zm-.487,3.432H15a.963.963,0,0,1,.96.96v3.576a.963.963,0,0,1-.96.96H11.423a.963.963,0,0,1-.96-.96V19.695A.963.963,0,0,1,11.423,18.734Zm.027.987v3.522h3.522V19.722Zm.46,2.018a.494.494,0,0,1,.7-.7l.4.4.773-.956a.494.494,0,1,1,.768.621l-1.118,1.383a.494.494,0,0,1-.733.039Zm-.487,3.432H15a.965.965,0,0,1,.96.962V29.71a.963.963,0,0,1-.96.96H11.423a.963.963,0,0,1-.96-.96V26.133A.965.965,0,0,1,11.423,25.171Zm.027.987v3.524h3.522V26.159Zm.46,2.02a.494.494,0,1,1,.7-.7l.4.4.773-.956a.494.494,0,1,1,.768.621l-1.118,1.383a.494.494,0,0,1-.733.039Z" transform="translate(0)" fill="#001a58" fill-rule="evenodd"/>
      </g>
    </g>
  </g>
</svg>
