<svg xmlns="http://www.w3.org/2000/svg" width="85" height="85" viewBox="0 0 85 85">
  <g id="Grupo_1114922" data-name="Grupo 1114922" transform="translate(-199.571 -497)">
    <rect id="Rect치ngulo_412256" data-name="Rect치ngulo 412256" width="85" height="85" rx="5" transform="translate(199.571 497)" fill="#8bc34a"/>
    <g id="FILLED_OUTLINE" data-name="FILLED OUTLINE" transform="translate(191.294 488.935)">
      <path id="Trazado_937551" data-name="Trazado 937551" d="M312,291.421V298.6a19.054,19.054,0,0,0,12.542,17.907h0A19.054,19.054,0,0,0,337.085,298.6v-7.178L324.542,288Z" transform="translate(-253.812 -232.956)" fill="#9ba3a8"/>
      <path id="Trazado_937552" data-name="Trazado 937552" d="M386.678,304.405l-4.629-1.262-.041.611a33.138,33.138,0,0,1-12.172,23.517,19.035,19.035,0,0,0,4.3,2.219h0a19.054,19.054,0,0,0,12.542-17.906Z" transform="translate(-303.406 -245.941)" fill="#7c8286"/>
      <path id="Trazado_937553" data-name="Trazado 937553" d="M190.849,49.331l-.529-.4a4.49,4.49,0,0,1-.623-6.772h0a4.4,4.4,0,0,0-.611-6.642l-.9-.683a5.606,5.606,0,0,1-2.224-3.77l-.4-3.3A4.509,4.509,0,0,0,180.948,24h-.812a4.509,4.509,0,0,0-4.614,3.765l-.4,3.3a5.606,5.606,0,0,1-2.224,3.77l-.9.683a4.4,4.4,0,0,0-.611,6.642h0a4.49,4.49,0,0,1-.623,6.772l-.529.4A5.479,5.479,0,0,0,168,53.682v.466a5.467,5.467,0,0,0,5.7,5.2h13.682a5.467,5.467,0,0,0,5.7-5.2v-.466A5.479,5.479,0,0,0,190.849,49.331Z" transform="translate(-130.336 -6.583)" fill="#264066"/>
      <path id="Trazado_937554" data-name="Trazado 937554" d="M222.787,87.04l-1.613-1.613-3.184,3.184v-5.9l4.227-4.227L220.6,76.876l-2.614,2.614V74.734l3.087-3.087-1.613-1.613-1.474,1.474V64h-2.28V76.07l-3.755-3.755-1.613,1.613,5.367,5.367v7.037L213.1,83.717l-1.613,1.613,4.227,4.227v21.192h2.28V91.837Z" transform="translate(-166.644 -40.882)" fill="#d0d5d8"/>
      <path id="Trazado_937555" data-name="Trazado 937555" d="M358.57,351.023l-4.227-4.227,1.613-1.613,2.614,2.614,9.456-9.456,1.613,1.613Z" transform="translate(-290.12 -276.124)" fill="#d0d5d8"/>
      <rect id="Rect치ngulo_412452" data-name="Rect치ngulo 412452" width="27.365" height="4.561" rx="2.28" transform="translate(17.14 61.885)" fill="#1f3856"/>
      <path id="Trazado_937556" data-name="Trazado 937556" d="M60.542,280H55.981A7.981,7.981,0,0,0,48,287.981H68.524A7.981,7.981,0,0,0,60.542,280Z" transform="translate(-27.439 -226.096)" fill="#264066"/>
      <path id="Trazado_937557" data-name="Trazado 937557" d="M54.97,372.561H54.8V368H34.28v4.561h-.166A2.114,2.114,0,0,0,32,374.675h0a2.114,2.114,0,0,0,1.169,1.891l1.112.556.088.307A10.581,10.581,0,0,0,44.542,385.1h0a10.581,10.581,0,0,0,10.174-7.674l.088-.307,1.112-.556a2.114,2.114,0,0,0,1.169-1.891h0a2.114,2.114,0,0,0-2.114-2.114Z" transform="translate(-13.72 -301.554)" fill="#a8b3ba"/>
      <path id="Trazado_937558" data-name="Trazado 937558" d="M106.28,256a2.28,2.28,0,0,0-2.28,2.28v4.561h4.561V258.28a2.28,2.28,0,0,0-2.28-2.28Z" transform="translate(-75.458 -205.517)" fill="#1f3856"/>
      <path id="Trazado_937559" data-name="Trazado 937559" d="M48.093,89.344c-.062-.783-.093-1.581-.093-2.37A29.627,29.627,0,0,1,68.159,58.879l.729,2.161A27.348,27.348,0,0,0,50.28,86.974c0,.73.029,1.467.086,2.19Z" transform="translate(-27.439 -36.491)" fill="#d0d5d8"/>
      <path id="Trazado_937560" data-name="Trazado 937560" d="M220.3,443.74a29.877,29.877,0,0,1-5.934-.594l.46-2.234a27.59,27.59,0,0,0,13.137-.54l.637,2.19A29.687,29.687,0,0,1,220.3,443.74Z" transform="translate(-170.093 -363.612)" fill="#d0d5d8"/>
      <path id="Trazado_937561" data-name="Trazado 937561" d="M338.118,90.53l-2.264-.271a27.77,27.77,0,0,0,.2-3.285A27.348,27.348,0,0,0,317.441,61.04l.729-2.161a29.627,29.627,0,0,1,20.159,28.095,30.061,30.061,0,0,1-.211,3.555Z" transform="translate(-258.478 -36.491)" fill="#d0d5d8"/>
      <path id="Trazado_937562" data-name="Trazado 937562" d="M442.764,343.172l2.693-2.693-1.526-1.526A33.117,33.117,0,0,1,442.764,343.172Z" transform="translate(-365.939 -276.647)" fill="#85888a"/>
      <path id="Trazado_937563" data-name="Trazado 937563" d="M120,385.1h0a10.581,10.581,0,0,0,10.174-7.674l.088-.307,1.112-.556a2.114,2.114,0,0,0-.945-4h-.166V368h-3.421v2.5A19.013,19.013,0,0,1,120,385.1Z" transform="translate(-89.177 -301.554)" fill="#868f95"/>
      <path id="Trazado_937564" data-name="Trazado 937564" d="M166.593,340.561a2.28,2.28,0,0,0,2.28-2.28h0a2.28,2.28,0,0,0-2.28-2.28H161.04a11.006,11.006,0,0,1,.992,4.561Z" transform="translate(-124.368 -274.115)" fill="#192d45"/>
      <path id="Trazado_937565" data-name="Trazado 937565" d="M137.336,284.757a11.005,11.005,0,0,1,2.233,3.225h4.413A7.981,7.981,0,0,0,136,280h0v3.421Z" transform="translate(-102.897 -226.096)" fill="#1e3352"/>
      <path id="Trazado_937566" data-name="Trazado 937566" d="M268.542,54.148v-.466a5.479,5.479,0,0,0-2.235-4.351l-.529-.4a4.49,4.49,0,0,1-.623-6.772h0a4.4,4.4,0,0,0-.611-6.641l-.9-.683a5.606,5.606,0,0,1-2.224-3.77l-.4-3.3A4.509,4.509,0,0,0,256.406,24H256l1.744,3.488a38.812,38.812,0,0,1,3.707,11.869L261.7,41.1l.84,3.079a14.082,14.082,0,0,1-5.4,15.164h5.7A5.467,5.467,0,0,0,268.542,54.148Z" transform="translate(-205.794 -6.583)" fill="#1e3352"/>
      <path id="Trazado_937567" data-name="Trazado 937567" d="M162.17,32.125A5.517,5.517,0,0,0,163.7,36.4a3.351,3.351,0,0,1,.939,2.592,3.488,3.488,0,0,1-1.422,2.491l-.529.4A6.6,6.6,0,0,0,160,47.146v.466a6.612,6.612,0,0,0,6.841,6.338h5.7V69.913h2.28V53.95h5.7a6.612,6.612,0,0,0,6.841-6.338v-.466a6.6,6.6,0,0,0-2.686-5.259l-.529-.4a3.488,3.488,0,0,1-1.422-2.491,3.351,3.351,0,0,1,.939-2.592,5.517,5.517,0,0,0,1.527-4.277,5.651,5.651,0,0,0-2.279-4.054l-.9-.683a4.45,4.45,0,0,1-1.782-3l-.4-3.3a5.643,5.643,0,0,0-5.746-4.768h-.812a5.643,5.643,0,0,0-5.746,4.768l-.4,3.3a4.45,4.45,0,0,1-1.782,3l-.9.683a5.651,5.651,0,0,0-2.279,4.054Zm3.658-2.238.9-.683a6.712,6.712,0,0,0,2.666-4.54l.4-3.3a3.368,3.368,0,0,1,3.482-2.763h.812a3.368,3.368,0,0,1,3.482,2.763l.4,3.3a6.712,6.712,0,0,0,2.666,4.54l.9.683a3.4,3.4,0,0,1,1.386,2.428,3.265,3.265,0,0,1-.916,2.525,5.6,5.6,0,0,0-1.55,4.343,5.74,5.74,0,0,0,2.315,4.117l.529.4a4.334,4.334,0,0,1,1.785,3.443v.466a4.336,4.336,0,0,1-4.561,4.058h-5.7V51l4.8-4.8-1.613-1.613-3.184,3.184v-5.9l4.227-4.227-1.612-1.613-2.614,2.614V33.9l3.087-3.087L176.3,29.2l-1.474,1.474V23.164h-2.28v12.07l-3.755-3.755-1.612,1.613,5.367,5.367V45.5l-2.614-2.614-1.612,1.613,4.227,4.227v2.948h-5.7a4.336,4.336,0,0,1-4.561-4.058v-.466a4.334,4.334,0,0,1,1.785-3.443l.529-.4a5.74,5.74,0,0,0,2.315-4.117,5.6,5.6,0,0,0-1.551-4.343,3.265,3.265,0,0,1-.915-2.525,3.4,3.4,0,0,1,1.386-2.428Z" transform="translate(-123.476)"/>
      <path id="Trazado_937568" data-name="Trazado 937568" d="M317.682,280.031,304,283.763v8.049a20.256,20.256,0,0,0,13.293,18.978l.39.142.39-.142a20.256,20.256,0,0,0,13.293-18.978v-8.049Zm11.4,11.78a17.971,17.971,0,0,1-11.4,16.688,17.971,17.971,0,0,1-11.4-16.688V285.5l11.4-3.11,11.4,3.11Z" transform="translate(-246.953 -226.123)"/>
      <path id="Trazado_937569" data-name="Trazado 937569" d="M355.956,345.507l-1.613,1.613,4.227,4.227,11.068-11.068-1.613-1.613-9.456,9.456Z" transform="translate(-290.12 -276.401)"/>
      <path id="Trazado_937570" data-name="Trazado 937570" d="M42.225,269v-2.429a3.421,3.421,0,1,0,0-6.841h-.074a9.137,9.137,0,0,0-7.908-7.908v-.074a3.421,3.421,0,0,0-6.841,0v.074a9.137,9.137,0,0,0-7.908,7.908h-.074a3.421,3.421,0,1,0,0,6.841V269a3.254,3.254,0,0,0-.482,6.016l.665.333a11.721,11.721,0,0,0,22.437,0l.665-.333A3.255,3.255,0,0,0,42.225,269ZM27.4,254.121V256.3h2.28v-4.561a1.14,1.14,0,0,1,2.28,0V256.3h2.28v-2.184a6.856,6.856,0,0,1,5.6,5.6H21.8a6.856,6.856,0,0,1,5.6-5.6Zm-9.122,9.025a1.141,1.141,0,0,1,1.14-1.14h22.8a1.14,1.14,0,1,1,0,2.28h-22.8A1.142,1.142,0,0,1,18.28,263.146Zm23.406,9.826-1.56.78-.226.789a9.441,9.441,0,0,1-18.155,0l-.226-.789-1.56-.78a.974.974,0,0,1,.435-1.845H21.7v-4.561H39.944v4.561h1.307a.974.974,0,0,1,.436,1.845Z" transform="translate(0 -198.934)"/>
      <path id="Trazado_937571" data-name="Trazado 937571" d="M50.367,89.487c-.057-.724-.086-1.461-.086-2.19A27.348,27.348,0,0,1,68.888,61.363L68.159,59.2A29.627,29.627,0,0,0,48,87.3c0,.79.031,1.587.093,2.37Z" transform="translate(-27.439 -36.768)"/>
      <path id="Trazado_937572" data-name="Trazado 937572" d="M220.336,441.783a27.57,27.57,0,0,1-5.474-.547l-.454,2.235a29.869,29.869,0,0,0,14.228-.585L228,440.7A27.406,27.406,0,0,1,220.336,441.783Z" transform="translate(-170.13 -363.889)"/>
      <path id="Trazado_937573" data-name="Trazado 937573" d="M336.049,87.3a27.768,27.768,0,0,1-.195,3.284l2.264.272a30.066,30.066,0,0,0,.211-3.556A29.627,29.627,0,0,0,318.17,59.2l-.729,2.161A27.348,27.348,0,0,1,336.049,87.3Z" transform="translate(-258.478 -36.768)"/>
    </g>
  </g>
</svg>
