<svg xmlns="http://www.w3.org/2000/svg" width="60" height="60" viewBox="0 0 60 60">
  <g id="Grupo_1115883" data-name="Grupo 1115883" transform="translate(-210.422 -3009)">
    <g id="Trazado_940627" data-name="Trazado 940627" transform="translate(215.422 3014)" fill="#fff">
      <path d="M 25 52.5 C 21.28861999511719 52.5 17.68693923950195 51.77256011962891 14.29498958587646 50.337890625 C 11.02000999450684 48.95269012451172 8.079310417175293 46.97018051147461 5.55456018447876 44.44543838500977 C 3.029819965362549 41.92068862915039 1.047309994697571 38.97998809814453 -0.3378899991512299 35.70500946044922 C -1.772560000419617 32.31306076049805 -2.5 28.71138000488281 -2.5 25 C -2.5 21.28861999511719 -1.772560000419617 17.68693923950195 -0.3378899991512299 14.29498958587646 C 1.047309994697571 11.02000999450684 3.029819965362549 8.079310417175293 5.55456018447876 5.55456018447876 C 8.079310417175293 3.029819965362549 11.02000999450684 1.047309994697571 14.29498958587646 -0.3378899991512299 C 17.68693923950195 -1.772560000419617 21.28861999511719 -2.5 25 -2.5 C 28.71138000488281 -2.5 32.31306076049805 -1.772560000419617 35.70500946044922 -0.3378899991512299 C 38.97998809814453 1.047309994697571 41.92068862915039 3.029819965362549 44.44543838500977 5.55456018447876 C 46.97018051147461 8.079310417175293 48.95269012451172 11.02000999450684 50.337890625 14.29498958587646 C 51.77256011962891 17.68693923950195 52.5 21.28861999511719 52.5 25 C 52.5 28.71138000488281 51.77256011962891 32.31306076049805 50.337890625 35.70500946044922 C 48.95269012451172 38.97998809814453 46.97018051147461 41.92068862915039 44.44543838500977 44.44543838500977 C 41.92068862915039 46.97018051147461 38.97998809814453 48.95269012451172 35.70500946044922 50.337890625 C 32.31306076049805 51.77256011962891 28.71138000488281 52.5 25 52.5 Z" stroke="none"/>
      <path d="M 25 0 C 11.19287872314453 0 0 11.19287872314453 0 25 C 0 38.80712127685547 11.19287872314453 50 25 50 C 38.80712127685547 50 50 38.80712127685547 50 25 C 50 11.19287872314453 38.80712127685547 0 25 0 M 25 -5 C 29.04777717590332 -5 32.97711944580078 -4.206111907958984 36.67889022827148 -2.640399932861328 C 40.25186538696289 -1.129154205322266 43.45966720581055 1.033267974853516 46.21319961547852 3.786800384521484 C 48.96673202514648 6.540332794189453 51.12915420532227 9.748134613037109 52.64039993286133 13.32110977172852 C 54.20611190795898 17.02287673950195 55 20.95222282409668 55 25 C 55 29.04777717590332 54.20611190795898 32.97711944580078 52.64039993286133 36.67889022827148 C 51.12915420532227 40.25186538696289 48.96673202514648 43.45966720581055 46.21319961547852 46.21319961547852 C 43.45966720581055 48.96673202514648 40.25186538696289 51.12915420532227 36.67889022827148 52.64039993286133 C 32.97711944580078 54.20611190795898 29.04777717590332 55 25 55 C 20.95222282409668 55 17.02287673950195 54.20611190795898 13.32110977172852 52.64039993286133 C 9.748134613037109 51.12915420532227 6.540332794189453 48.96673202514648 3.786800384521484 46.21319961547852 C 1.033267974853516 43.45966720581055 -1.129154205322266 40.25186538696289 -2.640399932861328 36.67889022827148 C -4.206111907958984 32.97711944580078 -5 29.04777717590332 -5 25 C -5 20.95222282409668 -4.206111907958984 17.02287673950195 -2.640399932861328 13.32110977172852 C -1.129154205322266 9.748134613037109 1.033267974853516 6.540332794189453 3.786800384521484 3.786800384521484 C 6.540332794189453 1.033267974853516 9.748134613037109 -1.129154205322266 13.32110977172852 -2.640399932861328 C 17.02287673950195 -4.206111907958984 20.95222282409668 -5 25 -5 Z" stroke="none" fill="#8bc34a"/>
    </g>
    <path id="Trazado_940628" data-name="Trazado 940628" d="M5.25-17.5H1.425V0h2.65V-7.25H5.25c2.85,0,4.4-1.55,4.4-4.425v-1.4C9.65-15.95,8.1-17.5,5.25-17.5Zm-.1,2.45c1.275,0,1.85.675,1.85,2.15v1.05C7-10.375,6.425-9.7,5.15-9.7H4.075v-5.35ZM18.775-17.5h-8.3V-15H13.3V0h2.65V-15h2.825Zm4.775-.25a3.575,3.575,0,0,0-3.95,3.925v.375c0,2.05.825,3.5,3.25,5.55,1.775,1.5,2.3,2.375,2.3,3.475v.575q0,1.65-1.5,1.65t-1.5-1.65V-5.1l-2.55.25v1.175c0,2.5,1.475,3.925,4.1,3.925s4.1-1.425,4.1-3.925V-4.55c0-2.1-.9-3.55-3.325-5.6-1.775-1.5-2.225-2.375-2.225-3.4v-.225c0-1,.475-1.525,1.35-1.525s1.35.525,1.35,1.525v.65l2.55-.25v-.45A3.575,3.575,0,0,0,23.55-17.75Zm11.325.25H31.5L28.475,0h2.65L31.7-3.975h2.925L35.2,0h2.7ZM33.2-13.75l1.075,7.375H32.05l1.075-7.375Z" transform="translate(221.422 3048)" fill="#0042db"/>
  </g>
</svg>
