<svg xmlns="http://www.w3.org/2000/svg" width="100" height="100" viewBox="0 0 100 100">
  <g id="Grupo_1115823" data-name="Grupo 1115823" transform="translate(-285.754 -8115.086)">
    <g id="Grupo_156312" data-name="Grupo 156312" transform="translate(285.754 8115.086)">
      <path id="Elipse_5845" data-name="Elipse 5845" d="M50,0A50,50,0,1,1,0,50,50,50,0,0,1,50,0Z" transform="translate(0 0)" fill="#66d16a"/>
    </g>
    <g id="Grupo_1115831" data-name="Grupo 1115831" transform="translate(293.681 8135.017)">
      <g id="Grupo_1115826" data-name="Grupo 1115826" transform="translate(13.601 17.226)">
        <g id="Grupo_1115825" data-name="Grupo 1115825" transform="translate(0)">
          <path id="Trazado_940617" data-name="Trazado 940617" d="M69.37,187.218H66.794V149.812a3.161,3.161,0,0,0-3.158-3.158H57.878a3.161,3.161,0,0,0-3.158,3.158v37.406H48.179V166.759a3.161,3.161,0,0,0-3.158-3.158H39.263a3.161,3.161,0,0,0-3.158,3.158v20.458H29.564v-10.6a3.161,3.161,0,0,0-3.158-3.158H20.648a3.161,3.161,0,0,0-3.158,3.158v10.6H14.776a1.175,1.175,0,1,0,0,2.349H69.37a1.175,1.175,0,1,0,0-2.349Zm-42.155,0H19.84v-10.6a.809.809,0,0,1,.808-.808h5.758a.809.809,0,0,1,.808.808v10.6Zm18.615,0H38.455V166.759a.809.809,0,0,1,.808-.808h5.758a.809.809,0,0,1,.808.808Zm18.615,0H57.07V149.812a.809.809,0,0,1,.808-.808h5.758a.809.809,0,0,1,.808.808v37.406Z" transform="translate(-13.601 -146.654)" fill="#001a58"/>
        </g>
      </g>
      <g id="Grupo_1115828" data-name="Grupo 1115828" transform="translate(23.672)">
        <g id="Grupo_1115827" data-name="Grupo 1115827">
          <path id="Trazado_940618" data-name="Trazado 940618" d="M142.465,1.235A1.17,1.17,0,0,0,141.232,0l-.057,0h-7.106a1.175,1.175,0,0,0,0,2.349h4.388L126.846,13.961l-4.379-4.379a1.175,1.175,0,0,0-1.661,0L99.69,30.7a1.175,1.175,0,0,0,1.661,1.661l20.285-20.285,4.379,4.379a1.175,1.175,0,0,0,1.661,0L140.118,4.01V7.982a1.175,1.175,0,0,0,2.349,0V1.292C142.467,1.273,142.465,1.254,142.465,1.235Z" transform="translate(-99.346)" fill="#001a58"/>
        </g>
      </g>
      <g id="Grupo_1115830" data-name="Grupo 1115830" transform="translate(19.713 34.452)">
        <g id="Grupo_1115829" data-name="Grupo 1115829" transform="translate(0)">
          <circle id="Elipse_13509" data-name="Elipse 13509" cx="1.175" cy="1.175" r="1.175" fill="#001a58"/>
        </g>
      </g>
    </g>
  </g>
</svg>
