<svg xmlns="http://www.w3.org/2000/svg" width="120" height="120" viewBox="0 0 120 120">
  <g id="Grupo_1114820" data-name="Grupo 1114820" transform="translate(-64 -6445)">
    <rect id="Rect치ngulo_402033" data-name="Rect치ngulo 402033" width="120" height="120" rx="8" transform="translate(64 6445)" fill="#0042db"/>
    <g id="Rect치ngulo_412110" data-name="Rect치ngulo 412110" transform="translate(69 6450)" fill="none" stroke="#fff" stroke-width="1">
      <rect width="110" height="110" rx="6" stroke="none"/>
      <rect x="0.5" y="0.5" width="109" height="109" rx="5.5" fill="none"/>
    </g>
    <g id="Grupo_1115221" data-name="Grupo 1115221" transform="translate(84 6454.591)">
      <g id="Grupo_1115219" data-name="Grupo 1115219" transform="translate(1.172 13.507)">
        <g id="Grupo_1115218" data-name="Grupo 1115218" transform="translate(0 0)">
          <g id="Grupo_1115211" data-name="Grupo 1115211" transform="translate(0 48.68)">
            <g id="Grupo_1115210" data-name="Grupo 1115210" transform="translate(7.445)">
              <g id="Grupo_1115208" data-name="Grupo 1115208" transform="translate(11.4)">
                <path id="Trazado_938069" data-name="Trazado 938069" d="M144.153,345.776H128.112V333.294a1.917,1.917,0,0,1,1.914-1.914,6.285,6.285,0,0,1,6.283,6.286v.266Z" transform="translate(-128.112 -331.38)" fill="#fdb0a0"/>
              </g>
              <g id="Grupo_1115209" data-name="Grupo 1115209">
                <path id="Trazado_938070" data-name="Trazado 938070" d="M71.19,345.776H59.8l-4.655-4.655v-7.827a1.917,1.917,0,0,1,1.914-1.914,6.285,6.285,0,0,1,6.283,6.286v.266Z" transform="translate(-55.149 -331.38)" fill="#ffcec0"/>
              </g>
            </g>
            <path id="Trazado_938071" data-name="Trazado 938071" d="M61.537,345.3a3.838,3.838,0,0,1-3.388-1.359,8.144,8.144,0,0,0-6.224-2.891H50.162a9.814,9.814,0,0,1-6.939-2.874l-5.434-5.434a4.631,4.631,0,0,0-6.549,0,3.163,3.163,0,0,0,0,4.473l6.287,6.287a6.159,6.159,0,0,1,1.443,2.278H23.542L15.7,337.936v-.267a6.284,6.284,0,0,0-6.284-6.284A1.914,1.914,0,0,0,7.5,333.3v6.456a3.306,3.306,0,0,0,.968,2.338l12.883,12.883a5.226,5.226,0,0,0,3.7,1.531H85.156V342.452Z" transform="translate(-7.5 -331.384)" fill="#ffdfd0"/>
            <path id="Trazado_938072" data-name="Trazado 938072" d="M470.577,402.855V416.27h5.3V402.216Z" transform="translate(-398.222 -391.148)" fill="#ffcec0"/>
          </g>
          <g id="Grupo_1115217" data-name="Grupo 1115217" transform="translate(11.347)">
            <g id="Grupo_1115212" data-name="Grupo 1115212">
              <path id="Trazado_938073" data-name="Trazado 938073" d="M130.46,24.451a15.79,15.79,0,0,0-22.33,0l-.526.526-.526-.526a15.79,15.79,0,1,0-22.33,22.33l21.47,21.47a1.961,1.961,0,0,0,2.773,0l21.47-21.47A15.79,15.79,0,0,0,130.46,24.451Z" transform="translate(-80.124 -19.826)" fill="#fb3a82"/>
              <path id="Trazado_938074" data-name="Trazado 938074" d="M257.754,46.858l-21.47,21.469a1.96,1.96,0,0,1-2.772,0l-2.522-2.522L251.5,45.294a15.8,15.8,0,0,0-4.278-25.376,15.788,15.788,0,0,1,10.533,26.94Z" transform="translate(-207.417 -19.904)" fill="#e01058"/>
            </g>
            <g id="Grupo_1115216" data-name="Grupo 1115216" transform="translate(36.579 24.353)">
              <g id="Grupo_1115213" data-name="Grupo 1115213">
                <path id="Trazado_938075" data-name="Trazado 938075" d="M336.935,177.6a.775.775,0,0,0-.546-.688,47.465,47.465,0,0,0-21.445,0,.775.775,0,0,0-.546.688c-.564,8.135-.353,18.634,11.012,22.686a.766.766,0,0,0,.514,0C337.288,196.232,337.5,185.733,336.935,177.6Z" transform="translate(-314.228 -175.683)" fill="#27d1b3"/>
              </g>
              <g id="Grupo_1115214" data-name="Grupo 1115214" transform="translate(8.975 0.34)">
                <path id="Trazado_938076" data-name="Trazado 938076" d="M374.389,202.117a.754.754,0,0,1-.513,0,20.006,20.006,0,0,1-2.206-.934c9.216-4.684,9.362-15.264,8.837-22.843a.8.8,0,0,0-.215-.484,26.763,26.763,0,0,1,4.562.888.773.773,0,0,1,.546.688C385.966,187.567,385.754,198.066,374.389,202.117Z" transform="translate(-371.67 -177.856)" fill="#20b69f"/>
              </g>
              <path id="Trazado_938077" data-name="Trazado 938077" d="M337.213,183.338h-7.995v-7.557c-1.032-.061-2.169-.1-3.418-.1s-2.387.037-3.418.1v7.557h-7.995a25.459,25.459,0,0,0,1.08,6.837h6.915v8.664a19.313,19.313,0,0,0,3.161,1.446.766.766,0,0,0,.514,0,19.308,19.308,0,0,0,3.161-1.446v-8.664h6.915A25.452,25.452,0,0,0,337.213,183.338Z" transform="translate(-314.362 -175.683)" fill="#e8edf1"/>
              <g id="Grupo_1115215" data-name="Grupo 1115215" transform="translate(8.975 7.655)">
                <path id="Trazado_938078" data-name="Trazado 938078" d="M374.389,299.658a19.31,19.31,0,0,0,3.162-1.446V293.46a14.818,14.818,0,0,1-5.881,5.264,19.952,19.952,0,0,0,2.206.934A.753.753,0,0,0,374.389,299.658Z" transform="translate(-371.67 -282.712)" fill="#c5d3dd"/>
                <path id="Trazado_938079" data-name="Trazado 938079" d="M427.255,224.675h-4.938a26.723,26.723,0,0,1-1.214,6.837h5.072A25.446,25.446,0,0,0,427.255,224.675Z" transform="translate(-413.379 -224.675)" fill="#c5d3dd"/>
              </g>
            </g>
          </g>
        </g>
      </g>
      <g id="Grupo_1115220" data-name="Grupo 1115220" transform="translate(0 12.337)">
        <path id="Trazado_938080" data-name="Trazado 938080" d="M23.883,349H18.719a4.028,4.028,0,0,1-2.867-1.188L2.969,334.933a2.119,2.119,0,0,1-.625-1.509v-6.456a.743.743,0,0,1,.742-.742A5.118,5.118,0,0,1,8.2,331.339v.267a1.172,1.172,0,0,0,.343.829l7.844,7.844a1.172,1.172,0,0,0,.829.343H31.748a5.039,5.039,0,0,1,.083.9,1.172,1.172,0,1,0,2.344,0,7.283,7.283,0,0,0-2.147-5.184l-6.287-6.287a1.994,1.994,0,0,1,0-2.816,3.459,3.459,0,0,1,4.892,0l5.434,5.434a10.914,10.914,0,0,0,7.768,3.217H45.6a6.958,6.958,0,0,1,5.329,2.475,5,5,0,0,0,4.424,1.767l23.619-2.848a1.172,1.172,0,0,0-.281-2.327l-23.619,2.848a2.664,2.664,0,0,1-2.352-.951,9.3,9.3,0,0,0-7.12-3.307H43.834a8.585,8.585,0,0,1-6.11-2.531l-5.434-5.434a5.806,5.806,0,0,0-7.023-.913,7.44,7.44,0,0,0-3.335-.788,3.089,3.089,0,0,0-3.086,3.086v5.012l-.863-.863a7.465,7.465,0,0,0-7.452-7.234,3.091,3.091,0,0,0-2.744,1.675,7.42,7.42,0,0,0-4.7-1.674A3.089,3.089,0,0,0,0,326.968v6.456a4.449,4.449,0,0,0,1.312,3.166L14.2,349.474a6.357,6.357,0,0,0,4.524,1.874h5.164a1.172,1.172,0,1,0,0-2.344Zm-2.693-22.037a.745.745,0,0,1,.742-.742,5.118,5.118,0,0,1,1.482.221,4.343,4.343,0,0,0,.67,5.267L30.37,338c.09.09.174.183.256.278H25.144l-3.955-3.955v-7.355Zm-11.18-.527a.729.729,0,0,1,.521-.215,5.119,5.119,0,0,1,5.112,5.114v.266a1.172,1.172,0,0,0,.343.829l5.844,5.844H17.7l-7.161-7.161a7.4,7.4,0,0,0-.75-3.037v-1.112a.734.734,0,0,1,.221-.526Z" transform="translate(0 -275.203)"/>
        <path id="Trazado_938081" data-name="Trazado 938081" d="M229.168,484.666H179.353a1.172,1.172,0,1,0,0,2.344h49.815a1.172,1.172,0,1,0,0-2.344Z" transform="translate(-150.34 -410.865)"/>
        <path id="Trazado_938082" data-name="Trazado 938082" d="M317.129,99.708a1.172,1.172,0,0,0-1.172,1.172v.986h-.986a1.172,1.172,0,0,0,0,2.344h.986v.986a1.172,1.172,0,0,0,2.344,0v-.986h.986a1.172,1.172,0,1,0,0-2.344H318.3v-.986A1.172,1.172,0,0,0,317.129,99.708Z" transform="translate(-264.768 -86.056)"/>
        <path id="Trazado_938083" data-name="Trazado 938083" d="M86.632,50.287a1.172,1.172,0,0,0,1.657-1.657l-5.8-5.8h6.422a1.172,1.172,0,0,0,1.138-.891L91.658,35.4l5.3,16.5a1.172,1.172,0,0,0,1.115.813q.044,0,.089,0a1.172,1.172,0,0,0,1.069-.982l3.332-20.651,2.332,10.5a1.172,1.172,0,0,0,1.144.918h3.23a30.776,30.776,0,0,0,1.1,10.108l-8.5,8.5a.789.789,0,0,1-1.115,0l-8.845-8.845a1.172,1.172,0,1,0-1.657,1.657L99.1,62.76a3.136,3.136,0,0,0,4.43,0l7.771-7.771a15.87,15.87,0,0,0,6.467,6.991,1.167,1.167,0,0,0,.138.081,20.377,20.377,0,0,0,3.3,1.5,1.944,1.944,0,0,0,1.3,0,20.368,20.368,0,0,0,3.3-1.5,1.167,1.167,0,0,0,.138-.081,16,16,0,0,0,7.262-8.955c.036-.105.07-.211.1-.317l0-.013c1.361-4.271,1.264-8.959.984-13a1.958,1.958,0,0,0-1.373-1.728,28.209,28.209,0,0,0-4.813-.934A16.964,16.964,0,0,0,110.189,12.57a1.172,1.172,0,1,0,.388,2.311A14.619,14.619,0,0,1,125.555,36.8c-1.11-.071-2.343-.113-3.7-.113a39.084,39.084,0,0,0-11.064,1.278,1.957,1.957,0,0,0-1.373,1.728q-.016.229-.031.46h-2.406L103.526,24.6a1.172,1.172,0,0,0-2.3.068L97.7,46.534,92.627,30.749a1.172,1.172,0,0,0-1.115-.813h-.041a1.171,1.171,0,0,0-1.1.89l-2.384,9.656H80.141l-.849-.849A14.618,14.618,0,0,1,99.964,18.96l.526.526a1.172,1.172,0,0,0,1.657,0l.526-.526a14.632,14.632,0,0,1,3.429-2.55,1.172,1.172,0,1,0-1.108-2.065,16.951,16.951,0,0,0-3.675,2.663A16.962,16.962,0,0,0,77.634,41.29Zm26.581,3.235h4.052v5.3A13.3,13.3,0,0,1,113.213,53.523Zm13.232,5.3v-5.3H130.5A13.3,13.3,0,0,1,126.445,58.821Zm5.667-14.478h-5.667V39.216a30.019,30.019,0,0,1,5.528.914C132.067,41.546,132.123,42.957,132.112,44.342ZM124.1,39.073v6.441a1.172,1.172,0,0,0,1.172,1.172h6.75a24.136,24.136,0,0,1-.718,4.493h-6.032a1.172,1.172,0,0,0-1.172,1.172v7.972a18.62,18.62,0,0,1-2.246.985,18.622,18.622,0,0,1-2.246-.985V52.351a1.172,1.172,0,0,0-1.172-1.172h-6.031a24.134,24.134,0,0,1-.718-4.493h6.749a1.172,1.172,0,0,0,1.172-1.172V39.073c.7-.027,1.451-.042,2.246-.042s1.543.016,2.246.042ZM111.737,40.13a30.034,30.034,0,0,1,5.528-.914v5.127H111.6C111.587,42.957,111.643,41.546,111.737,40.13Z" transform="translate(-61.319 -12.337)"/>
      </g>
    </g>
  </g>
</svg>
