<svg xmlns="http://www.w3.org/2000/svg" width="120" height="120" viewBox="0 0 120 120">
  <g id="Grupo_1114792" data-name="Grupo 1114792" transform="translate(-64 -6445)">
    <rect id="Rect치ngulo_402033" data-name="Rect치ngulo 402033" width="120" height="120" rx="8" transform="translate(64 6445)" fill="#0042db"/>
    <g id="Rect치ngulo_412110" data-name="Rect치ngulo 412110" transform="translate(69 6450)" fill="none" stroke="#fff" stroke-width="1">
      <rect width="110" height="110" rx="6" stroke="none"/>
      <rect x="0.5" y="0.5" width="109" height="109" rx="5.5" fill="none"/>
    </g>
    <g id="Grupo_1115193" data-name="Grupo 1115193" transform="translate(59 6421.796)">
      <path id="Trazado_937948" data-name="Trazado 937948" d="M149.906,87.406c.152-.22.322-.457.508-.745a4.23,4.23,0,0,0,.339-3.388,4.763,4.763,0,0,1,1.44-5.828c7.691-6.709,6.946-14.637,6.946-14.637a8.428,8.428,0,0,0-2.507-6.167c-1.016-1.338-5.37-2.8-5.37-2.8a16.63,16.63,0,0,1-5.4-2.27c-3.913-1.83-10.3-.424-10.3-.424-2.338,1.3-9.165.017-9.165.017a14.863,14.863,0,0,0-7.2-.61,6.911,6.911,0,0,0-4.811,3.32,15.445,15.445,0,0,1-1.66,2.253,6.457,6.457,0,0,1-3.964,2.152,8.065,8.065,0,0,0-6.15,4.913,4.374,4.374,0,0,1-2.626,2.338A23.957,23.957,0,0,1,93.712,66.7c-5.032.271-.322,2.88-.322,2.88s4.506-.068,7.759.271c.712.068,1.423.119,2.135.119a22.554,22.554,0,0,1,3.2.339,2.483,2.483,0,0,1,2.067,2.016,4.357,4.357,0,0,0,2.575,3.371,2.642,2.642,0,0,1,1.576,2.219,14.248,14.248,0,0,0,.949,4.625,2.035,2.035,0,0,1,.186,1.3c-.186,1.2-.983,2.694-.237,4.168a6.005,6.005,0,0,1,.525,1.389,13.165,13.165,0,0,1,.407,4.777c-.407,2.236,2.694,0,2.694,0h2.033a14.961,14.961,0,0,0,.034-5.523s-.271-1.83,3.456-3.456a5.766,5.766,0,0,0,3.829-4.184.152.152,0,0,1,.2-.1.164.164,0,0,1,.119.136l.017.169a16.2,16.2,0,0,0,1.271,6.4,6.689,6.689,0,0,1,.542,1.677,18.349,18.349,0,0,1,.407,5.032c-.356,1.576,1.779.136,2.321.136s2.948.017,2.948.017a45.523,45.523,0,0,1-.22-5.286,3.769,3.769,0,0,1,.542-1.762,26.7,26.7,0,0,1,4.354-5.3c.525-.491,3.049-7.319,2.423-4.252-1.254,6.133-.051,9.03.559,10.029a7.475,7.475,0,0,1,.745,1.525,10.351,10.351,0,0,1,.712,4.506c-.339,2.423,2.3.559,2.846.627.542.051,2.355-.136,2.44-.593a6.962,6.962,0,0,0-.186-1.22A7.24,7.24,0,0,1,149.906,87.406Z" transform="translate(-55.142 -4.74)" fill="#f4977a"/>
      <path id="Trazado_937949" data-name="Trazado 937949" d="M109.638,97.171a3.031,3.031,0,0,1-.966-2.3,1.366,1.366,0,0,0-1.44-1.288.33.33,0,0,0-.136.017c-2.44.373-2.27-1.694-2.27-1.694-.457-2.931,2.677-3.863,2.677-3.863,2.829-.627,4.489-3.287,5.4-5.54l-.288.339a6.457,6.457,0,0,1-3.964,2.152,8.065,8.065,0,0,0-6.15,4.913,4.374,4.374,0,0,1-2.626,2.338,23.957,23.957,0,0,1-6.268,1.169c-5.032.271-.322,2.88-.322,2.88s4.489-.068,7.742.271c.712.068,1.44.119,2.152.119a22.555,22.555,0,0,1,3.2.339,2.483,2.483,0,0,1,2.067,2.016,4.357,4.357,0,0,0,2.575,3.371,2.642,2.642,0,0,1,1.576,2.219,8.621,8.621,0,0,0-.627-4.388,6.644,6.644,0,0,0-2.338-3.066Z" transform="translate(-55.059 -31.43)" fill="#d67a62"/>
      <path id="Trazado_937950" data-name="Trazado 937950" d="M206.29,118.81a5.864,5.864,0,0,0,2.1-2.168,1.145,1.145,0,0,1,1.525-.508,1.105,1.105,0,0,1,.356.271c.152.186.3.373.44.576a1.112,1.112,0,0,1-.39,1.542,1.576,1.576,0,0,1-.169.085c-.576.237-1.338.661-1,1.118.034.068.085.119.119.186a1.122,1.122,0,0,1-.762,1.813,2.074,2.074,0,0,1-1.3-.339,4.065,4.065,0,0,1-1.2-.932,1.137,1.137,0,0,1,.237-1.592Q206.239,118.835,206.29,118.81Z" transform="translate(-150.152 -59.27)" fill="#d67a62"/>
      <path id="Trazado_937951" data-name="Trazado 937951" d="M253.746,158.463a4.976,4.976,0,0,0-.085.864,1.429,1.429,0,0,1-1.254,1.423c-1.694.186-2.168-1.508-2.3-2.456a2.6,2.6,0,0,0-.44-1.152,5.961,5.961,0,0,1-1.118-3.642.246.246,0,0,0-.237-.254.241.241,0,0,0-.2.1,13.556,13.556,0,0,1-3.134,2.711,3.839,3.839,0,0,1-3.032.762,2.384,2.384,0,0,1-1.864-1.338.77.77,0,0,0-1.016-.39,4.048,4.048,0,0,0-2.1,2.168,1.446,1.446,0,0,1-2.406.457,4.312,4.312,0,0,1-.9-1.83.747.747,0,0,0-.915-.542.59.59,0,0,0-.254.119l-.017.017a3.143,3.143,0,0,0-1.1,1.609c-1.135,3.761-6.031,5.167-7.624,5.54a2.368,2.368,0,0,1-1.372-.068,1.889,1.889,0,0,1-1.2-1.982,1.581,1.581,0,0,0-1.118-1.508,2.435,2.435,0,0,1-1.05-.695,7.988,7.988,0,0,0,.644,2.185,2.035,2.035,0,0,1,.186,1.3c-.186,1.2-.983,2.694-.237,4.168a6,6,0,0,1,.525,1.389,13.165,13.165,0,0,1,.407,4.777c-.407,2.236,2.694,0,2.694,0h2.033a14.962,14.962,0,0,0,.034-5.523s-.271-1.83,3.456-3.456a5.766,5.766,0,0,0,3.829-4.184.152.152,0,0,1,.2-.1.164.164,0,0,1,.119.136l.017.169a16.2,16.2,0,0,0,1.271,6.4,6.688,6.688,0,0,1,.542,1.677,18.35,18.35,0,0,1,.407,5.032c-.356,1.576,1.779.136,2.321.136s2.948.017,2.948.017a45.525,45.525,0,0,1-.22-5.286,3.769,3.769,0,0,1,.542-1.762,26.7,26.7,0,0,1,4.354-5.3c.525-.491,3.049-7.319,2.423-4.252-1.254,6.133-.051,9.03.559,10.029a7.474,7.474,0,0,1,.745,1.525,10.351,10.351,0,0,1,.712,4.506c-.339,2.423,2.3.559,2.846.627.542.051,2.355-.136,2.44-.593a6.961,6.961,0,0,0-.186-1.22,7.131,7.131,0,0,1,1.271-5.336q.229-.33.508-.762a4.192,4.192,0,0,0,.322-3.371,4.763,4.763,0,0,1,1.44-5.828,19.824,19.824,0,0,0,6.675-11.181c-2.389,4.134-6.709,8.267-8.826,10.148A7.084,7.084,0,0,0,253.746,158.463Z" transform="translate(-161.134 -82.76)" fill="#d67a62"/>
      <path id="Trazado_937952" data-name="Trazado 937952" d="M221.3,311.1h6.624v9.911H221.3Z" transform="translate(-163.044 -221.302)" fill="#373e3d"/>
      <path id="Trazado_937953" data-name="Trazado 937953" d="M306.3,311.1h6.624v9.911H306.3Z" transform="translate(-233.644 -221.302)" fill="#373e3d"/>
      <path id="Trazado_937954" data-name="Trazado 937954" d="M391.3,311.1h6.624v9.911H391.3Z" transform="translate(-304.244 -221.302)" fill="#373e3d"/>
      <path id="Trazado_937955" data-name="Trazado 937955" d="M156.8,350.2h54.974v24.361H156.8Z" transform="translate(-109.471 -253.778)" fill="#9b5262"/>
      <path id="Trazado_937956" data-name="Trazado 937956" d="M79.246,137.9v4.557a1.117,1.117,0,0,1-1.118,1.118H77.7a1.724,1.724,0,0,0-1.728,1.728v8.979H69.2v-10.5a5.864,5.864,0,0,1,5.862-5.862h4.184Z" transform="translate(-36.712 -77.445)" fill="#373e3d"/>
      <path id="Trazado_937957" data-name="Trazado 937957" d="M212.9,297.8h9.436v3.049a.759.759,0,0,1-.762.762h-7.912a.759.759,0,0,1-.762-.762Z" transform="translate(-156.067 -210.256)" fill="#373e3d"/>
      <path id="Trazado_937958" data-name="Trazado 937958" d="M297.817,297.8h9.436v3.151a.662.662,0,0,1-.661.661h-8.132a.662.662,0,0,1-.661-.661V297.8Z" transform="translate(-226.584 -210.256)" fill="#373e3d"/>
      <path id="Trazado_937959" data-name="Trazado 937959" d="M382.917,297.8h9.436v3.134a.68.68,0,0,1-.678.678h-8.1a.68.68,0,0,1-.678-.678Z" transform="translate(-297.267 -210.256)" fill="#373e3d"/>
      <path id="Trazado_937960" data-name="Trazado 937960" d="M30.7,206.1H53.791v48.774H30.7Z" transform="translate(-4.734 -134.091)" fill="#b4727d"/>
      <path id="Trazado_937961" data-name="Trazado 937961" d="M57,233.5h4.574v4.574H57Z" transform="translate(-26.579 -156.849)" fill="#373e3d"/>
      <path id="Trazado_937962" data-name="Trazado 937962" d="M113.7,233.2h4.574v4.574H113.7Z" transform="translate(-73.673 -156.6)" fill="#373e3d"/>
      <path id="Trazado_937963" data-name="Trazado 937963" d="M57,286.3h4.574v4.574H57Z" transform="translate(-26.579 -200.704)" fill="#373e3d"/>
      <path id="Trazado_937964" data-name="Trazado 937964" d="M113.7,285.9h4.574v4.574H113.7Z" transform="translate(-73.673 -200.372)" fill="#373e3d"/>
      <path id="Trazado_937965" data-name="Trazado 937965" d="M57,339.3h4.574v4.574H57Z" transform="translate(-26.579 -244.725)" fill="#373e3d"/>
      <path id="Trazado_937966" data-name="Trazado 937966" d="M113.7,339h4.574v4.574H113.7Z" transform="translate(-73.673 -244.476)" fill="#373e3d"/>
      <path id="Trazado_937967" data-name="Trazado 937967" d="M57,392.6h4.574v4.574H57Z" transform="translate(-26.579 -288.995)" fill="#373e3d"/>
      <path id="Trazado_937968" data-name="Trazado 937968" d="M113.7,392.3h4.574v4.574H113.7Z" transform="translate(-73.673 -288.746)" fill="#373e3d"/>
      <path id="Trazado_937969" data-name="Trazado 937969" d="M206.4,383.8h4.574v4.574H206.4Z" transform="translate(-150.669 -281.686)" fill="#373e3d"/>
      <path id="Trazado_937970" data-name="Trazado 937970" d="M263.1,383.5h4.574v4.574H263.1Z" transform="translate(-197.763 -281.437)" fill="#373e3d"/>
      <path id="Trazado_937971" data-name="Trazado 937971" d="M206.4,436.8h4.574v4.574H206.4Z" transform="translate(-150.669 -325.707)" fill="#373e3d"/>
      <path id="Trazado_937972" data-name="Trazado 937972" d="M263.1,436.5h4.574v4.574H263.1Z" transform="translate(-197.763 -325.458)" fill="#373e3d"/>
      <path id="Trazado_937973" data-name="Trazado 937973" d="M351.2,383.8h4.574v4.574H351.2Z" transform="translate(-270.938 -281.686)" fill="#373e3d"/>
      <path id="Trazado_937974" data-name="Trazado 937974" d="M407.9,383.5h4.574v4.574H407.9Z" transform="translate(-318.032 -281.437)" fill="#373e3d"/>
      <path id="Trazado_937975" data-name="Trazado 937975" d="M351.2,436.8h4.574v4.574H351.2Z" transform="translate(-270.938 -325.707)" fill="#373e3d"/>
      <path id="Trazado_937976" data-name="Trazado 937976" d="M407.9,436.5h4.574v4.574H407.9Z" transform="translate(-318.032 -325.458)" fill="#373e3d"/>
      <path id="Trazado_937977" data-name="Trazado 937977" d="M66.4,444.7H77.513v8.352H66.4Z" transform="translate(-34.386 -332.269)" fill="#373e3d"/>
      <path id="Trazado_937978" data-name="Trazado 937978" d="M356.941,96.182c-.3-.712-1.169-1.914-3.642-2.677a.677.677,0,0,1,.017-1.3,10.191,10.191,0,0,1,4.608-.3,9.68,9.68,0,0,0,4.557,2.118.583.583,0,0,1,.542.61.63.63,0,0,1-.169.373,9.226,9.226,0,0,0-2.067,2.778,1.2,1.2,0,0,1-1.542.644,1.608,1.608,0,0,1-.288-.169l-1.1-.9a3.06,3.06,0,0,1-.915-1.169Z" transform="translate(-272.274 -39.115)" fill="#d67a62"/>
      <g id="Grupo_1115192" data-name="Grupo 1115192" transform="translate(25 44.659)">
        <path id="Trazado_937979" data-name="Trazado 937979" d="M102.3,168.266H94.628V165.1h.457a.947.947,0,0,0,.949-.949v-3.812a.947.947,0,0,0-.949-.949H85.65a.947.947,0,0,0-.949.949v3.812a.947.947,0,0,0,.949.949h.457v3.168H80.228V165.1h.457a.947.947,0,0,0,.949-.949v-3.812a.947.947,0,0,0-.949-.949H71.25a.947.947,0,0,0-.949.949v3.812a.947.947,0,0,0,.949.949h.457v3.168H65.828V165.1h.457a.947.947,0,0,0,.949-.949v-3.812a.947.947,0,0,0-.949-.949H56.849a.947.947,0,0,0-.949.949v3.812a.947.947,0,0,0,.949.949h.457v3.168H50.022V144.8a.947.947,0,0,0-.949-.949H40.247v-3.219a.759.759,0,0,1,.762-.762h.424a2.075,2.075,0,0,0,2.067-2.067v-4.557a.947.947,0,0,0-.949-.949H38.367a6.811,6.811,0,0,0-6.81,6.81v4.744H25.966a.947.947,0,0,0-.949.949v41.709a.957.957,0,0,0,1.914,0V145.768H48.125v46.859H44.11v-7.4a.947.947,0,0,0-.949-.949H32.014a.947.947,0,0,0-.949.949v7.4H26.914v-2.084a.957.957,0,0,0-1.914,0v3.049a.947.947,0,0,0,.949.949c.119-.017,76.32-.017,76.354,0a.947.947,0,0,0,.949-.949V169.215a.937.937,0,0,0-.949-.949ZM33.437,139.11a4.9,4.9,0,0,1,4.9-4.9h3.236v3.608a.17.17,0,0,1-.169.169,2.734,2.734,0,0,0-3.1,2.677v3.219H33.437Zm-.474,53.517V186.19h9.2v6.438ZM86.6,161.3h7.539v1.9H86.6ZM88,165.1h4.71v3.168H88ZM72.2,161.3H79.72v1.9H72.181v-1.9ZM73.6,165.1h4.71v3.168H73.6ZM57.8,161.3H65.32v1.9H57.781v-1.9ZM59.2,165.1h4.71v3.168H59.2Zm42.15,27.529H50.005V170.164h51.349Z" transform="translate(-25 -117.453)" fill="#2f2f2f"/>
        <path id="Trazado_937980" data-name="Trazado 937980" d="M142.268,61.285a5.364,5.364,0,0,0,2.27-2.44,7.1,7.1,0,0,1,5.421-4.371A7.442,7.442,0,0,0,154.5,52a16.658,16.658,0,0,0,1.779-2.406,5.869,5.869,0,0,1,4.134-2.863,14.16,14.16,0,0,1,6.878.61c.728.136,7.014,1.254,9.673-.051.864-.169,6.217-1.135,9.521.356a17.439,17.439,0,0,0,5.624,2.372c1.813.627,4.3,1.677,4.964,2.575a7.65,7.65,0,0,1,2.2,5.557c.034.3.576,7.556-6.624,13.841a5.728,5.728,0,0,0-1.694,6.9,3.293,3.293,0,0,1-.254,2.524,11.1,11.1,0,0,0-1.609,2.948.954.954,0,0,0,1.813.593,6.5,6.5,0,0,1,.864-1.711c.169-.254.356-.508.542-.8a5.177,5.177,0,0,0,.424-4.235,3.839,3.839,0,0,1,1.186-4.76c7.657-6.675,7.352-14.451,7.285-15.366a9.261,9.261,0,0,0-2.761-6.793c-1.3-1.525-5.015-2.812-5.912-3.083a16.383,16.383,0,0,1-5.065-2.168.424.424,0,0,0-.119-.068c-4.337-1.965-10.741-.593-11.181-.407-1.474.813-5.929.39-8.471-.068a15.606,15.606,0,0,0-7.59-.627,7.785,7.785,0,0,0-5.489,3.778c-1.084,1.83-2.643,3.676-4.93,3.947a9.041,9.041,0,0,0-6.878,5.455,3.49,3.49,0,0,1-1.474,1.576.952.952,0,0,0,.932,1.66Z" transform="translate(-121.227 -44.659)" fill="#2f2f2f"/>
        <path id="Trazado_937981" data-name="Trazado 937981" d="M346.7,214.731a6.691,6.691,0,0,1,.661,1.355.954.954,0,1,0,1.8-.644,9.378,9.378,0,0,0-.83-1.711c-.525-.864-1.643-3.507-.44-9.335.119-.593.322-1.592-.576-1.88-.881-.288-1.288.559-1.609,1.237-.491.983-1.423,3.3-1.864,4.049a28.222,28.222,0,0,0-4.473,5.455,4.726,4.726,0,0,0-.627,1.643.954.954,0,0,0,1.88.322,2.793,2.793,0,0,1,.373-.966,25.25,25.25,0,0,1,4.184-5.1,1.7,1.7,0,0,0,.271-.339A10.957,10.957,0,0,0,346.7,214.731Z" transform="translate(-285.573 -175.726)" fill="#2f2f2f"/>
        <path id="Trazado_937982" data-name="Trazado 937982" d="M255.4,231.107a6.372,6.372,0,0,0,3.1-2.168,14.975,14.975,0,0,0,1.152,4.083,7.1,7.1,0,0,1,.373,1,.955.955,0,1,0,1.847-.491c-.745-2.3-1.525-3.066-1.66-7.336a1.157,1.157,0,0,0-1-1.237,1.092,1.092,0,0,0-1.186.8,4.841,4.841,0,0,1-3.134,3.524c-4.286,1.711-4.3,4.286-4.168,4.659a.96.96,0,1,0,1.88-.373C252.583,233.462,252.736,232.293,255.4,231.107Zm-2.829,2.423v0Z" transform="translate(-212.449 -194.406)" fill="#2f2f2f"/>
        <path id="Trazado_937983" data-name="Trazado 937983" d="M158.628,174.955a3.074,3.074,0,0,0-.288-1.9,13.275,13.275,0,0,1-.847-4.269,3.59,3.59,0,0,0-2.152-3.016,3.381,3.381,0,0,1-2.016-2.677,3.478,3.478,0,0,0-2.863-2.778,24.457,24.457,0,0,0-3.354-.339,17.964,17.964,0,0,1-1.88-.1.954.954,0,0,0-.2,1.9h.017a44.384,44.384,0,0,1,5.116.424,1.588,1.588,0,0,1,1.288,1.254,5.314,5.314,0,0,0,3.151,4.083,1.669,1.669,0,0,1,.983,1.423,14.872,14.872,0,0,0,1.05,5,2.179,2.179,0,0,1-.1,1.559,5.256,5.256,0,0,0,.068,3.9,1.044,1.044,0,0,0,1.406.779c.695-.339.661-1.033.3-1.626C157.747,177.462,158.442,176.141,158.628,174.955Z" transform="translate(-123.983 -140.354)" fill="#2f2f2f"/>
        <path id="Trazado_937984" data-name="Trazado 937984" d="M52.346,234.472H56.92a.947.947,0,0,0,.949-.949v-4.574A.947.947,0,0,0,56.92,228H52.346a.947.947,0,0,0-.949.949v4.574A.926.926,0,0,0,52.346,234.472ZM53.3,229.9h2.677v2.677H53.3Z" transform="translate(-46.925 -196.94)" fill="#2f2f2f"/>
        <path id="Trazado_937985" data-name="Trazado 937985" d="M109.046,234.172h4.574a.947.947,0,0,0,.949-.949v-4.574a.947.947,0,0,0-.949-.949h-4.574a.947.947,0,0,0-.949.949v4.574A.937.937,0,0,0,109.046,234.172ZM110,229.6h2.677v2.677H110Z" transform="translate(-94.02 -196.691)" fill="#2f2f2f"/>
        <path id="Trazado_937986" data-name="Trazado 937986" d="M51.3,286.223a.947.947,0,0,0,.949.949h4.574a.947.947,0,0,0,.949-.949v-4.574a.947.947,0,0,0-.949-.949H52.266a.947.947,0,0,0-.949.949Zm1.914-3.625h2.677v2.677H53.214Z" transform="translate(-46.844 -240.712)" fill="#2f2f2f"/>
        <path id="Trazado_937987" data-name="Trazado 937987" d="M108,285.923a.947.947,0,0,0,.949.949h4.574a.947.947,0,0,0,.949-.949v-4.574a.947.947,0,0,0-.949-.949h-4.574a.947.947,0,0,0-.949.949Zm1.914-3.625h2.677v2.677h-2.677Z" transform="translate(-93.939 -240.463)" fill="#2f2f2f"/>
        <path id="Trazado_937988" data-name="Trazado 937988" d="M51.3,339.223a.947.947,0,0,0,.949.949h4.574a.947.947,0,0,0,.949-.949v-4.574a.947.947,0,0,0-.949-.949H52.266a.947.947,0,0,0-.949.949Zm1.914-3.625h2.677v2.677H53.214Z" transform="translate(-46.844 -284.733)" fill="#2f2f2f"/>
        <path id="Trazado_937989" data-name="Trazado 937989" d="M108,338.923a.947.947,0,0,0,.949.949h4.574a.947.947,0,0,0,.949-.949v-4.574a.947.947,0,0,0-.949-.949h-4.574a.947.947,0,0,0-.949.949Zm1.914-3.625h2.677v2.677h-2.677Z" transform="translate(-93.939 -284.484)" fill="#2f2f2f"/>
        <path id="Trazado_937990" data-name="Trazado 937990" d="M51.3,392.623a.947.947,0,0,0,.949.949h4.574a.947.947,0,0,0,.949-.949v-4.574a.947.947,0,0,0-.949-.949H52.266a.947.947,0,0,0-.949.949Zm1.914-3.642h2.677v2.677H53.214Z" transform="translate(-46.844 -329.086)" fill="#2f2f2f"/>
        <path id="Trazado_937991" data-name="Trazado 937991" d="M108,392.223a.947.947,0,0,0,.949.949h4.574a.947.947,0,0,0,.949-.949v-4.574a.947.947,0,0,0-.949-.949h-4.574a.947.947,0,0,0-.949.949Zm1.914-3.625h2.677v2.677h-2.677Z" transform="translate(-93.939 -328.754)" fill="#2f2f2f"/>
        <path id="Trazado_937992" data-name="Trazado 937992" d="M201.749,384.672h4.574a.947.947,0,0,0,.949-.949v-4.574a.947.947,0,0,0-.949-.949h-4.574a.947.947,0,0,0-.949.949v4.574A.947.947,0,0,0,201.749,384.672Zm.949-4.574h2.677v2.677H202.7Z" transform="translate(-171.017 -321.694)" fill="#2f2f2f"/>
        <path id="Trazado_937993" data-name="Trazado 937993" d="M258.449,384.372h4.574a.947.947,0,0,0,.949-.949v-4.574a.947.947,0,0,0-.949-.949h-4.574a.947.947,0,0,0-.949.949v4.574A.947.947,0,0,0,258.449,384.372Zm.966-4.574h2.677v2.677h-2.677Z" transform="translate(-218.112 -321.445)" fill="#2f2f2f"/>
        <path id="Trazado_937994" data-name="Trazado 937994" d="M201.749,437.772h4.574a.947.947,0,0,0,.949-.949v-4.574a.947.947,0,0,0-.949-.949h-4.574a.947.947,0,0,0-.949.949v4.574A.958.958,0,0,0,201.749,437.772Zm.949-4.591h2.677v2.677H202.7Z" transform="translate(-171.017 -365.798)" fill="#2f2f2f"/>
        <path id="Trazado_937995" data-name="Trazado 937995" d="M258.449,437.372h4.574a.947.947,0,0,0,.949-.949v-4.574a.947.947,0,0,0-.949-.949h-4.574a.947.947,0,0,0-.949.949v4.574A.947.947,0,0,0,258.449,437.372Zm.966-4.574h2.677v2.677h-2.677Z" transform="translate(-218.112 -365.466)" fill="#2f2f2f"/>
        <path id="Trazado_937996" data-name="Trazado 937996" d="M346.546,384.672h4.574a.947.947,0,0,0,.949-.949v-4.574a.947.947,0,0,0-.949-.949h-4.574a.947.947,0,0,0-.949.949v4.574A.926.926,0,0,0,346.546,384.672Zm.949-4.574h2.677v2.677H347.5Z" transform="translate(-291.284 -321.694)" fill="#2f2f2f"/>
        <path id="Trazado_937997" data-name="Trazado 937997" d="M403.246,384.372h4.574a.947.947,0,0,0,.949-.949v-4.574a.947.947,0,0,0-.949-.949h-4.574a.947.947,0,0,0-.949.949v4.574A.937.937,0,0,0,403.246,384.372Zm.949-4.574h2.677v2.677H404.2Z" transform="translate(-338.378 -321.445)" fill="#2f2f2f"/>
        <path id="Trazado_937998" data-name="Trazado 937998" d="M346.546,437.772h4.574a.947.947,0,0,0,.949-.949v-4.574a.947.947,0,0,0-.949-.949h-4.574a.947.947,0,0,0-.949.949v4.574A.936.936,0,0,0,346.546,437.772Zm.949-4.591h2.677v2.677H347.5Z" transform="translate(-291.284 -365.798)" fill="#2f2f2f"/>
        <path id="Trazado_937999" data-name="Trazado 937999" d="M403.246,437.372h4.574a.947.947,0,0,0,.949-.949v-4.574a.947.947,0,0,0-.949-.949h-4.574a.947.947,0,0,0-.949.949v4.574A.937.937,0,0,0,403.246,437.372Zm.949-4.574h2.677v2.677H404.2Z" transform="translate(-338.378 -365.466)" fill="#2f2f2f"/>
        <path id="Trazado_938000" data-name="Trazado 938000" d="M232.265,153.108a.974.974,0,0,0-1.135.728,7.66,7.66,0,0,0,1.389,5.9c1.643,2.1,4.456,3.219,8.386,3.354a.958.958,0,1,0,.051-1.914c-3.32-.1-5.641-.983-6.929-2.609a5.866,5.866,0,0,1-1.05-4.337A.932.932,0,0,0,232.265,153.108Z" transform="translate(-196.113 -134.72)" fill="#2f2f2f"/>
        <path id="Trazado_938001" data-name="Trazado 938001" d="M426.786,105.8a.948.948,0,0,0,.983-.915c.288-7.725-4.828-10.266-5.048-10.368a.94.94,0,0,0-1.271.44.954.954,0,0,0,.44,1.271h.017c.034.017,4.2,2.1,3.964,8.589A.948.948,0,0,0,426.786,105.8Z" transform="translate(-354.209 -85.984)" fill="#2f2f2f"/>
        <path id="Trazado_938002" data-name="Trazado 938002" d="M266.112,86.617a.952.952,0,0,0-1.254-.508c-.881.373-2.677-.034-4.828-1.084a4.639,4.639,0,0,0-6.522,2.914.954.954,0,0,0,1.864.407,2.747,2.747,0,0,1,3.829-1.609c1.914.932,4.574,1.88,6.387,1.118A.936.936,0,0,0,266.112,86.617Z" transform="translate(-214.78 -77.784)" fill="#2f2f2f"/>
      </g>
    </g>
  </g>
</svg>
