<svg xmlns="http://www.w3.org/2000/svg" width="60" height="60" viewBox="0 0 60 60">
  <g id="Grupo_1115800" data-name="Grupo 1115800" transform="translate(-175 -923)">
    <g id="Grupo_1114829" data-name="Grupo 1114829" transform="translate(-1061.5 463)">
      <g id="Elipse_12108" data-name="Elipse 12108" transform="translate(1241.5 465)" fill="#8bc34a" stroke="rgba(255,255,255,0.4)" stroke-width="5">
        <circle cx="25" cy="25" r="25" stroke="none"/>
        <circle cx="25" cy="25" r="27.5" fill="none"/>
      </g>
      <g id="Grupo_1115227" data-name="Grupo 1115227" transform="translate(1250.02 416.811)">
        <g id="Grupo_1115226" data-name="Grupo 1115226" transform="translate(0 60.61)">
          <path id="Trazado_938096" data-name="Trazado 938096" d="M32.818,220.287l-1.839-1.839a.483.483,0,0,0-.683.683l1.015,1.015H27.579a2.434,2.434,0,0,0-4.771,0H17.565a2.434,2.434,0,0,0-4.771,0H7.55a2.434,2.434,0,0,0-4.771,0H.483a.483.483,0,0,0,0,.966h2.3a2.434,2.434,0,0,0,4.771,0h5.244a2.434,2.434,0,0,0,4.771,0h5.244a2.434,2.434,0,0,0,4.771,0h3.732L30.3,222.127a.483.483,0,0,0,.683.683l1.839-1.839a.483.483,0,0,0,0-.683ZM5.165,222.1a1.468,1.468,0,1,1,1.468-1.468A1.47,1.47,0,0,1,5.165,222.1Zm10.015,0a1.468,1.468,0,1,1,1.468-1.468,1.47,1.47,0,0,1-1.468,1.468Zm10.014,0a1.468,1.468,0,1,1,1.468-1.468A1.47,1.47,0,0,1,25.194,222.1Z" transform="translate(0 -208.051)" fill="#001a58"/>
          <path id="Trazado_938097" data-name="Trazado 938097" d="M38.493,93.418a.483.483,0,0,0-.483-.483h-5.2a.483.483,0,1,0,0,.966h5.2A.483.483,0,0,0,38.493,93.418Z" transform="translate(-30.244 -90.854)" fill="#001a58"/>
          <path id="Trazado_938098" data-name="Trazado 938098" d="M32.808,125.26a.483.483,0,1,0,0,.966h2.72a.483.483,0,0,0,0-.966Z" transform="translate(-30.244 -121.098)" fill="#001a58"/>
          <path id="Trazado_938099" data-name="Trazado 938099" d="M1.133,67.819H3.481l.9,1.194a1.134,1.134,0,0,0,1.813,0l.9-1.194H9.2a1.135,1.135,0,0,0,1.133-1.134V61.743A1.134,1.134,0,0,0,9.2,60.61H5.762a.483.483,0,0,0,0,.966H9.2a.168.168,0,0,1,.167.167v4.942a.168.168,0,0,1-.167.168H6.844a.483.483,0,0,0-.386.193l-1.04,1.387a.169.169,0,0,1-.269,0l-1.04-1.387a.483.483,0,0,0-.386-.193H1.133a.168.168,0,0,1-.167-.168V61.743a.168.168,0,0,1,.167-.167H3.508a.483.483,0,0,0,0-.966H1.133A1.134,1.134,0,0,0,0,61.743v4.942a1.135,1.135,0,0,0,1.133,1.134Z" transform="translate(0 -60.61)" fill="#001a58"/>
          <path id="Trazado_938100" data-name="Trazado 938100" d="M349.623,93.418a.483.483,0,0,0-.483-.483h-5.2a.483.483,0,0,0,0,.966h5.2A.483.483,0,0,0,349.623,93.418Z" transform="translate(-321.345 -90.854)" fill="#001a58"/>
          <path id="Trazado_938101" data-name="Trazado 938101" d="M343.938,125.26a.483.483,0,1,0,0,.966h2.72a.483.483,0,0,0,0-.966Z" transform="translate(-321.345 -121.098)" fill="#001a58"/>
          <path id="Trazado_938102" data-name="Trazado 938102" d="M312.262,67.819h2.348l.9,1.194a1.134,1.134,0,0,0,1.813,0l.9-1.194h2.111a1.135,1.135,0,0,0,1.133-1.134V65.038a.483.483,0,1,0-.966,0v1.647a.168.168,0,0,1-.167.168h-2.352a.483.483,0,0,0-.386.193l-1.04,1.387a.169.169,0,0,1-.269,0l-1.04-1.387a.483.483,0,0,0-.386-.193h-2.59a.168.168,0,0,1-.167-.168V61.743a.168.168,0,0,1,.167-.167h8.064a.168.168,0,0,1,.167.167v1.042a.483.483,0,0,0,.966,0V61.743a1.134,1.134,0,0,0-1.133-1.133h-8.064a1.134,1.134,0,0,0-1.133,1.133v4.942A1.135,1.135,0,0,0,312.262,67.819Z" transform="translate(-291.1 -60.61)" fill="#001a58"/>
          <path id="Trazado_938103" data-name="Trazado 938103" d="M194.059,372.223a.483.483,0,0,0-.483-.483h-5.2a.483.483,0,0,0,0,.966h5.2A.483.483,0,0,0,194.059,372.223Z" transform="translate(-175.796 -351.711)" fill="#001a58"/>
          <path id="Trazado_938104" data-name="Trazado 938104" d="M188.374,404.065a.483.483,0,0,0,0,.966h2.72a.483.483,0,1,0,0-.966Z" transform="translate(-175.796 -381.955)" fill="#001a58"/>
          <path id="Trazado_938105" data-name="Trazado 938105" d="M164.768,315.472h-2.348l-.9-1.194a1.133,1.133,0,0,0-1.813,0l-.9,1.194H156.7a1.135,1.135,0,0,0-1.133,1.134v4.942a1.134,1.134,0,0,0,1.133,1.133h4.379a.483.483,0,0,0,0-.966H156.7a.168.168,0,0,1-.167-.167v-4.942a.168.168,0,0,1,.167-.168h2.352a.483.483,0,0,0,.386-.193l1.04-1.387a.168.168,0,0,1,.268,0l1.041,1.387a.483.483,0,0,0,.386.193h2.59a.168.168,0,0,1,.167.168v4.942a.168.168,0,0,1-.167.167h-1.431a.483.483,0,1,0,0,.966h1.431a1.134,1.134,0,0,0,1.133-1.133v-4.942A1.135,1.135,0,0,0,164.768,315.472Z" transform="translate(-145.556 -297.524)" fill="#001a58"/>
        </g>
      </g>
    </g>
  </g>
</svg>
