<svg xmlns="http://www.w3.org/2000/svg" width="61.854" height="62" viewBox="0 0 61.854 62">
  <g id="probabilidad" transform="translate(-1.146 -1)">
    <path id="Trazado_938160" data-name="Trazado 938160" d="M15,36a1,1,0,0,0,1-1V23a1,1,0,0,0-1-1H3a1,1,0,0,0-1,1V35a1,1,0,0,0,1,1ZM4,24H14V34H4Z" fill="#001a58"/>
    <path id="Trazado_938161" data-name="Trazado 938161" d="M45.65,36a1,1,0,0,0,.85.47h13a1,1,0,0,0,.89-1.45l-6.5-13a1,1,0,0,0-1.78,0l-6.5,13A1,1,0,0,0,45.65,36ZM53,24.74l4.88,9.76H48.12Z" fill="#001a58"/>
    <path id="Trazado_938162" data-name="Trazado 938162" d="M1.65,60a1,1,0,0,0,.85.47h13a1,1,0,0,0,.89-1.45l-6.5-13a1,1,0,0,0-1.78,0l-6.5,13a1,1,0,0,0,.04.98ZM9,48.74l4.88,9.76H4.12Z" fill="#001a58"/>
    <path id="Trazado_938163" data-name="Trazado 938163" d="M21,30H38.5l-1.6,1.2,1.2,1.6,4-3a1,1,0,0,0,0-1.6l-4-3-1.2,1.6L38.5,28H21Z" fill="#001a58"/>
    <path id="Trazado_938164" data-name="Trazado 938164" d="M21,54H35l-1.6,1.2,1.2,1.6,4-3a1,1,0,0,0,0-1.6l-4-3-1.2,1.6L35,52H21Z" fill="#001a58"/>
    <path id="Trazado_938165" data-name="Trazado 938165" d="M59,15a1,1,0,0,0,1-1V2a1,1,0,0,0-1-1H47a1,1,0,0,0-1,1V14a1,1,0,0,0,1,1ZM48,3H58V13H48Z" fill="#001a58"/>
    <path id="Trazado_938166" data-name="Trazado 938166" d="M16.87,7.5l-3.47-6a1,1,0,0,0-.86-.5H5.61a1,1,0,0,0-.87.5l-3.46,6a1,1,0,0,0,0,1l3.46,6a1,1,0,0,0,.87.5h6.93a1,1,0,0,0,.86-.5l3.47-6A1,1,0,0,0,16.87,7.5ZM12,13H6.19L3.3,8,6.19,3H12l2.89,5Z" fill="#001a58"/>
    <path id="Trazado_938167" data-name="Trazado 938167" d="M21,9H38.5l-1.6,1.2,1.2,1.6,4-3a1,1,0,0,0,0-1.6l-4-3L36.9,5.8,38.5,7H21Z" fill="#001a58"/>
    <path id="Trazado_938168" data-name="Trazado 938168" d="M53,47a3.5,3.5,0,0,0-3.5,3.5h2A1.5,1.5,0,1,1,53,52a1,1,0,0,0-1,1v2.5h2V53.85A3.5,3.5,0,0,0,53,47Z" fill="#001a58"/>
    <path id="Trazado_938169" data-name="Trazado 938169" d="M52,57h2v2H52Z" fill="#001a58"/>
    <path id="Trazado_938170" data-name="Trazado 938170" d="M53,43A10,10,0,1,0,63,53,10,10,0,0,0,53,43Zm0,18a8,8,0,1,1,8-8A8,8,0,0,1,53,61Z" fill="#001a58"/>
  </g>
</svg>
