<svg xmlns="http://www.w3.org/2000/svg" width="60" height="60" viewBox="0 0 60 60">
  <g id="Grupo_1115797" data-name="Grupo 1115797" transform="translate(-179.422 -3218)">
    <g id="Grupo_1115257" data-name="Grupo 1115257" transform="translate(4 180)">
      <g id="Elipse_12108" data-name="Elipse 12108" transform="translate(180.422 3043)" fill="#fff" stroke="#8bc34a" stroke-width="5">
        <circle cx="25" cy="25" r="25" stroke="none"/>
        <circle cx="25" cy="25" r="27.5" fill="none"/>
      </g>
      <g id="Grupo_1115259" data-name="Grupo 1115259" transform="translate(182.809 3045.387)">
        <path id="path545" d="M37.75,17.538a.44.44,0,0,0-.274.2,1.29,1.29,0,0,1-2.188,0,.44.44,0,0,0-.607-.138L25.9,23.11a.44.44,0,0,0-.14.6,1.3,1.3,0,0,1,0,1.378.44.44,0,0,0,.14.6l8.722,5.477a.44.44,0,0,0,.623-.168,1.29,1.29,0,0,1,2.278,0,.44.44,0,0,0,.623.168l8.582-5.384a.44.44,0,0,0,.125-.627,1.3,1.3,0,0,1-.245-.757,1.267,1.267,0,0,1,.242-.754.44.44,0,0,0-.122-.631l-8.643-5.428a.44.44,0,0,0-.333-.056Zm-2.879.976a1.97,1.97,0,0,0,3.022,0L45.988,23.6a2.074,2.074,0,0,0-.261.81,2.047,2.047,0,0,0,.259.809L37.97,30.245a1.972,1.972,0,0,0-3.175,0L26.63,25.119a2.076,2.076,0,0,0,.2-.713,2.085,2.085,0,0,0-.205-.717Z" transform="translate(-13.27 -8.697)" fill="#0042db"/>
        <path id="path547" d="M24.494,34.324a.44.44,0,0,0-.606.137,1.289,1.289,0,0,1-1.1.609.44.44,0,0,0-.44.44V45.68a.44.44,0,0,0,.44.44,1.283,1.283,0,0,1,1.293,1.294,1.3,1.3,0,0,1-.151.608.44.44,0,0,0,.155.577l8.722,5.477a.44.44,0,0,0,.607-.138,1.29,1.29,0,0,1,2.188,0,.44.44,0,0,0,.607.141l8.779-5.507a.44.44,0,0,0,.138-.608,1.229,1.229,0,0,1-.192-.671A1.291,1.291,0,0,1,46.231,46a.44.44,0,0,0,.44-.44V35.5a.44.44,0,0,0-.5-.436,1.061,1.061,0,0,1-.144.009,1.293,1.293,0,0,1-1.052-.54.44.44,0,0,0-.589-.114L35.806,39.8a.44.44,0,0,0-.152.583,1.25,1.25,0,0,1,.153.6,1.293,1.293,0,1,1-2.435-.608.44.44,0,0,0-.155-.578Zm-.189.919,8.186,5.14a2.057,2.057,0,0,0-.15.6,2.173,2.173,0,0,0,4.346,0,2.045,2.045,0,0,0-.154-.6l8.057-5.054a2.11,2.11,0,0,0,1.2.564v9.314a2.151,2.151,0,0,0-1.733,2.083,2.062,2.062,0,0,0,.2.7l-8.236,5.167a1.97,1.97,0,0,0-3.022,0l-8.186-5.139a2.057,2.057,0,0,0,.15-.6,2.149,2.149,0,0,0-1.733-2.084V35.835a2.088,2.088,0,0,0,1.074-.591Z" transform="translate(-11.4 -18.068)" fill="#0042db"/>
        <path id="path549" d="M24.494,34.324a.44.44,0,0,0-.606.137,1.289,1.289,0,0,1-1.1.609.44.44,0,0,0-.44.44V45.68a.44.44,0,0,0,.44.44,1.283,1.283,0,0,1,1.293,1.294,1.3,1.3,0,0,1-.151.608.44.44,0,0,0,.155.577l8.722,5.477a.44.44,0,0,0,.607-.138,1.29,1.29,0,0,1,2.188,0,.44.44,0,0,0,.607.141l8.779-5.507a.44.44,0,0,0,.138-.608,1.229,1.229,0,0,1-.192-.671A1.291,1.291,0,0,1,46.231,46a.44.44,0,0,0,.44-.44V35.5a.44.44,0,0,0-.5-.436,1.061,1.061,0,0,1-.144.009,1.293,1.293,0,0,1-1.052-.54.44.44,0,0,0-.589-.114L35.806,39.8a.44.44,0,0,0-.152.583,1.25,1.25,0,0,1,.153.6,1.293,1.293,0,1,1-2.435-.608.44.44,0,0,0-.155-.578Zm-.189.919,8.186,5.14a2.057,2.057,0,0,0-.15.6,2.173,2.173,0,0,0,4.346,0,2.045,2.045,0,0,0-.154-.6l8.057-5.054a2.11,2.11,0,0,0,1.2.564v9.314a2.151,2.151,0,0,0-1.733,2.083,2.062,2.062,0,0,0,.2.7l-8.236,5.167a1.97,1.97,0,0,0-3.022,0l-8.186-5.139a2.057,2.057,0,0,0,.15-.6,2.149,2.149,0,0,0-1.733-2.084V35.835a2.088,2.088,0,0,0,1.074-.591Z" transform="translate(-11.4 -18.068)" fill="#0042db"/>
        <path id="path551" d="M37.75,17.538a.44.44,0,0,0-.274.2,1.29,1.29,0,0,1-2.188,0,.44.44,0,0,0-.607-.138L25.9,23.11a.44.44,0,0,0-.14.6,1.3,1.3,0,0,1,0,1.378.44.44,0,0,0,.14.6l8.722,5.477a.44.44,0,0,0,.623-.168,1.29,1.29,0,0,1,2.278,0,.44.44,0,0,0,.623.168l8.582-5.384a.44.44,0,0,0,.125-.627,1.3,1.3,0,0,1-.245-.757,1.267,1.267,0,0,1,.242-.754.44.44,0,0,0-.122-.631l-8.643-5.428a.44.44,0,0,0-.333-.056Zm-2.879.976a1.97,1.97,0,0,0,3.022,0L45.988,23.6a2.074,2.074,0,0,0-.261.81,2.047,2.047,0,0,0,.259.809L37.97,30.245a1.972,1.972,0,0,0-3.175,0L26.63,25.119a2.076,2.076,0,0,0,.2-.713,2.085,2.085,0,0,0-.205-.717Z" transform="translate(-13.27 -8.697)" fill="#0042db"/>
        <path id="polyline553" d="M65.052,38.713a.44.44,0,0,0-.469.745l-.005,0a.433.433,0,0,0,.866-.033V39.2a.44.44,0,0,0-.206-.372Z" transform="translate(-34.94 -20.526)" fill="#0042db"/>
        <path id="line555" d="M65.241,44.17a.44.44,0,0,0-.44.44v.418a.44.44,0,1,0,.88,0V44.61A.44.44,0,0,0,65.241,44.17Zm0,2.511a.44.44,0,0,0-.44.44v.418a.44.44,0,1,0,.88,0v-.418A.44.44,0,0,0,65.241,46.681Z" transform="translate(-35.177 -23.621)" fill="#0042db"/>
        <path id="polyline557" d="M65,55.59a.44.44,0,0,0-.426.407l.005,0a.44.44,0,0,0,.469.745l.186-.117a.44.44,0,0,0,.206-.372v-.22a.44.44,0,0,0-.44-.44Z" transform="translate(-34.94 -30.018)" fill="#0042db"/>
        <path id="line559" d="M57.068,59.127a.44.44,0,0,0-.332.057l-.387.242a.44.44,0,1,0,.467.746l.387-.243a.44.44,0,0,0-.136-.8ZM54.415,60.64l-.387.242a.44.44,0,1,0,.467.746l.387-.243a.44.44,0,1,0-.467-.745Z" transform="translate(-29.027 -31.993)" fill="#0042db"/>
        <path id="polyline561" d="M48.919,65.761a.44.44,0,0,0-.137.8l.186.117a.44.44,0,0,0,.469,0l.186-.117a.427.427,0,0,0-.393-.758l.021.013-.048-.009-.048.009.021-.013A.44.44,0,0,0,48.919,65.761Z" transform="translate(-26.09 -35.713)" fill="#0042db"/>
        <path id="line563" d="M38.364,59.127a.44.44,0,0,0-.136.8l.387.243a.44.44,0,0,0,.468-.746l-.387-.242A.44.44,0,0,0,38.364,59.127Zm2.654,1.514a.44.44,0,0,0-.468.745l.387.243a.44.44,0,0,0,.468-.745Z" transform="translate(-20.177 -31.993)" fill="#0042db"/>
        <path id="polyline565" d="M33.639,55.59a.44.44,0,0,0-.44.44v.22a.44.44,0,0,0,.206.372l.186.117a.437.437,0,0,0,.488-.724v.015l0-.02-.015-.016.014.009a.44.44,0,0,0-.435-.413Z" transform="translate(-17.476 -30.018)" fill="#0042db"/>
        <path id="line567" d="M33.639,44.17a.44.44,0,0,0-.44.44v.418a.44.44,0,0,0,.88,0V44.61A.44.44,0,0,0,33.639,44.17Zm0,2.511a.44.44,0,0,0-.44.44v.418a.44.44,0,0,0,.88,0v-.418A.44.44,0,0,0,33.639,46.681Z" transform="translate(-17.476 -23.621)" fill="#0042db"/>
        <path id="polyline569" d="M33.923,38.656a.44.44,0,0,0-.332.057l-.186.117a.44.44,0,0,0-.206.372v.22a.433.433,0,0,0,.866.033l-.005,0,.007-.008.012-.028v.015a.436.436,0,0,0-.155-.781Z" transform="translate(-17.476 -20.526)" fill="#0042db"/>
        <path id="line571" d="M41.268,32.031a.44.44,0,0,0-.332.056l-.387.243a.44.44,0,1,0,.467.745l.387-.242a.44.44,0,0,0-.135-.8Zm-2.322,1.457a.44.44,0,0,0-.332.056l-.387.243a.44.44,0,1,0,.467.745l.387-.242a.44.44,0,0,0-.136-.8Z" transform="translate(-20.177 -16.815)" fill="#0042db"/>
        <path id="polyline573" d="M48.968,29.06l-.186.117a.59.59,0,1,0,.84,0l-.186-.117a.44.44,0,0,0-.469,0Z" transform="translate(-26.09 -15.12)" fill="#0042db"/>
        <path id="line575" d="M54.163,32.031a.44.44,0,0,0-.136.8l.387.243a.44.44,0,1,0,.468-.745l-.387-.243a.44.44,0,0,0-.332-.056Zm2.321,1.457a.44.44,0,0,0-.136.8l.387.242a.44.44,0,0,0,.467-.745l-.387-.243A.44.44,0,0,0,56.484,33.488Z" transform="translate(-29.028 -16.815)" fill="#0042db"/>
        <g id="Grupo_1115258" data-name="Grupo 1115258" transform="translate(2 2)">
          <path id="line581" d="M49.442,52.5a.44.44,0,0,0-.44.44v10.17a.44.44,0,0,0,.88,0V52.936A.44.44,0,0,0,49.442,52.5Z" transform="translate(-28.328 -30.285)" fill="#0042db"/>
          <path id="circle583" d="M47.233,11.5a2.173,2.173,0,1,0,2.173,2.173A2.179,2.179,0,0,0,47.233,11.5Zm0,.88a1.293,1.293,0,1,1-1.293,1.293A1.286,1.286,0,0,1,47.233,12.38Z" transform="translate(-26.12 -7.321)" fill="#0042db"/>
          <path id="circle585" d="M20.587,28.227A2.173,2.173,0,1,0,22.76,30.4,2.179,2.179,0,0,0,20.587,28.227Zm0,.88A1.293,1.293,0,1,1,19.294,30.4,1.287,1.287,0,0,1,20.587,29.106Z" transform="translate(-11.194 -16.691)" fill="#0042db"/>
          <path id="circle587" d="M47.233,44.617a2.173,2.173,0,1,0,2.173,2.173A2.179,2.179,0,0,0,47.233,44.617Zm0,.88A1.293,1.293,0,1,1,45.94,46.79,1.286,1.286,0,0,1,47.233,45.5Z" transform="translate(-26.12 -25.872)" fill="#0042db"/>
          <path id="circle589" d="M73.415,28.227A2.173,2.173,0,1,0,75.587,30.4,2.179,2.179,0,0,0,73.415,28.227Zm0,.88A1.293,1.293,0,1,1,72.122,30.4,1.286,1.286,0,0,1,73.415,29.106Z" transform="translate(-40.785 -16.691)" fill="#0042db"/>
          <path id="circle591" d="M20.587,59.229A2.173,2.173,0,1,0,22.76,61.4,2.179,2.179,0,0,0,20.587,59.229Zm0,.88A1.293,1.293,0,1,1,19.294,61.4,1.287,1.287,0,0,1,20.587,60.108Z" transform="translate(-11.194 -34.056)" fill="#0042db"/>
          <path id="circle593" d="M47.233,75.619a2.173,2.173,0,1,0,2.173,2.174,2.18,2.18,0,0,0-2.173-2.174Zm0,.88a1.293,1.293,0,1,1-1.293,1.294A1.287,1.287,0,0,1,47.233,76.5Z" transform="translate(-26.12 -43.237)" fill="#0042db"/>
          <path id="circle595" d="M73.879,58.951a2.173,2.173,0,1,0,2.173,2.174,2.181,2.181,0,0,0-2.173-2.174Zm0,.88a1.293,1.293,0,1,1-1.294,1.294,1.287,1.287,0,0,1,1.294-1.294Z" transform="translate(-41.045 -33.901)" fill="#0042db"/>
          <path id="line599" d="M81.171,15.895l-.936.936a.44.44,0,0,0,.622.622l.936-.936a.44.44,0,0,0-.622-.622Z" transform="translate(-45.75 -9.711)" fill="#0042db"/>
          <path id="line601" d="M17.142,80.105a.44.44,0,0,0-.311.129l-.936.936a.44.44,0,0,0,.622.622l.936-.936a.44.44,0,0,0-.311-.751Z" transform="translate(-9.711 -45.75)" fill="#0042db"/>
          <path id="line603" d="M93.43,49a.44.44,0,0,0,0,.88h1.324a.44.44,0,0,0,0-.88Z" transform="translate(-52.967 -28.327)" fill="#0042db"/>
          <path id="line605" d="M2.44,49a.44.44,0,1,0,0,.88H3.764a.44.44,0,1,0,0-.88Z" transform="translate(-2 -28.327)" fill="#0042db"/>
          <path id="line607" d="M49.44,2a.44.44,0,0,0-.44.44V3.764a.44.44,0,1,0,.88,0V2.44A.44.44,0,0,0,49.44,2Z" transform="translate(-28.327 -2)" fill="#0042db"/>
          <path id="line609" d="M49.44,92.99a.44.44,0,0,0-.44.44v1.324a.44.44,0,0,0,.88,0V93.43A.44.44,0,0,0,49.44,92.99Z" transform="translate(-28.327 -52.967)" fill="#0042db"/>
          <path id="line611" d="M80.234,80.234a.44.44,0,0,0,0,.622l.936.936a.44.44,0,1,0,.622-.622l-.936-.936A.44.44,0,0,0,80.234,80.234Z" transform="translate(-45.75 -45.75)" fill="#0042db"/>
          <path id="line613" d="M16.206,15.766a.44.44,0,0,0-.311.751l.936.936a.44.44,0,1,0,.622-.622l-.936-.936a.44.44,0,0,0-.311-.129Z" transform="translate(-9.711 -9.711)" fill="#0042db"/>
        </g>
      </g>
    </g>
  </g>
</svg>
