<svg xmlns="http://www.w3.org/2000/svg" width="70" height="70" viewBox="0 0 70 70">
  <g id="Grupo_1114916" data-name="Grupo 1114916" transform="translate(-269 -958)">
    <circle id="Elipse_5614" data-name="Elipse 5614" cx="35" cy="35" r="35" transform="translate(269 958)" fill="#fff"/>
    <path id="Trazado_940237" data-name="Trazado 940237" d="M56.215,31.3,53,28.091V31.3Zm9.4,32.175L63.55,65.251,67.012,70a1.342,1.342,0,0,0,.953.532,2.007,2.007,0,0,0,2.195-1.883,1.333,1.333,0,0,0-.382-1.023Zm-2.789-1.16a8.181,8.181,0,0,0,.814-.8l1.168,1.162-1.928,1.654L61.907,63a8.285,8.285,0,0,0,.918-.683Zm-5.792.081c.162.012.324.019.482.019a6.292,6.292,0,1,0-4.1-11.066A6.292,6.292,0,0,0,57.033,62.4ZM52.933,50.8a7.026,7.026,0,0,0,4.041,12.338c.181.013.363.021.54.021a7.027,7.027,0,0,0,.529-14.034c-.181-.014-.363-.021-.544-.021a6.974,6.974,0,0,0-4.566,1.7Zm-.567,4.94a5.168,5.168,0,0,1,5.141-4.767c.131,0,.263,0,.394.015a5.159,5.159,0,1,1-5.535,4.752Zm4.578,1.656V56.283a1.5,1.5,0,0,1,.872-1.37.718.718,0,1,0-1.023-.651.567.567,0,0,1-1.133,0,1.851,1.851,0,1,1,2.634,1.677.364.364,0,0,0-.216.345v1.108a.567.567,0,1,1-1.133,0Zm.567,1.318a.567.567,0,1,1-.567.567A.567.567,0,0,1,57.511,58.709ZM37.955,55.694h-5.26a.188.188,0,0,0-.185.186v5.26a.188.188,0,0,0,.185.186h5.26a.188.188,0,0,0,.185-.186V55.88A.189.189,0,0,0,37.955,55.694ZM34.892,58.7l1.581-1.581a.567.567,0,1,1,.8.8L35.293,59.9a.563.563,0,0,1-.8,0l-1.122-1.12a.567.567,0,1,1,.8-.8Zm3.062-12.669h-5.26a.188.188,0,0,0-.185.187v5.26a.188.188,0,0,0,.185.186h5.26a.188.188,0,0,0,.185-.186v-5.26A.188.188,0,0,0,37.955,46.031Zm-3.062,3,1.581-1.581a.567.567,0,0,1,.8.8l-1.982,1.981a.563.563,0,0,1-.8,0l-1.122-1.12a.567.567,0,1,1,.8-.8Zm3.248-7.223v-5.26a.188.188,0,0,0-.185-.186h-5.26a.188.188,0,0,0-.185.186v5.26a.188.188,0,0,0,.185.186h5.26A.188.188,0,0,0,38.14,41.813Zm-.864-3.219-1.982,1.981a.563.563,0,0,1-.8,0l-1.122-1.12a.567.567,0,1,1,.8-.8l.718.72,1.581-1.581a.567.567,0,0,1,.8.8Zm15.16-6.156h4.582V47.982a8.16,8.16,0,0,0-.127,16.281c.042,0,.085,0,.127.008v2.279H26.91V27.29H51.869v4.581A.566.566,0,0,0,52.436,32.438Zm-9.723,4.838a.567.567,0,0,0,0,1.133h9.271a.567.567,0,1,0,0-1.133Zm0,2.682a.567.567,0,0,0,0,1.133h5.692a.567.567,0,0,0,0-1.133Zm0,6.982a.567.567,0,0,0,0,1.133h9.271a.567.567,0,1,0,0-1.133Zm-4.758,7.622a1.319,1.319,0,0,1,1.319,1.319v5.26a1.319,1.319,0,0,1-1.319,1.319h-5.26a1.322,1.322,0,0,1-1.319-1.319V55.88a1.322,1.322,0,0,1,1.319-1.319Zm10.451,4.723H42.713a.567.567,0,0,0,0,1.133h5.692a.567.567,0,0,0,0-1.133Zm-5.692-9.663a.567.567,0,0,0,0,1.133h5.692a.567.567,0,0,0,0-1.133Zm-.567,7.548a.568.568,0,0,0,.567.567H48A.567.567,0,0,0,48,56.6H42.713A.567.567,0,0,0,42.147,57.169ZM37.955,44.9a1.32,1.32,0,0,1,1.319,1.319v5.26A1.32,1.32,0,0,1,37.955,52.8h-5.26a1.322,1.322,0,0,1-1.319-1.319v-5.26A1.322,1.322,0,0,1,32.695,44.9Zm1.318-8.344v5.26a1.319,1.319,0,0,1-1.319,1.319h-5.26a1.322,1.322,0,0,1-1.319-1.319v-5.26a1.322,1.322,0,0,1,1.319-1.319h5.26A1.318,1.318,0,0,1,39.273,36.554Zm7.563-4.282a.567.567,0,1,0,0-1.133H31.942a.567.567,0,0,0,0,1.133Z" transform="translate(255.464 944.085)" fill="#0042db" fill-rule="evenodd"/>
  </g>
</svg>
