<svg xmlns="http://www.w3.org/2000/svg" width="120" height="120" viewBox="0 0 120 120">
  <g id="Grupo_1114799" data-name="Grupo 1114799" transform="translate(-64 -6445)">
    <rect id="Rectángulo_402033" data-name="Rectángulo 402033" width="120" height="120" rx="8" transform="translate(64 6445)" fill="#0042db"/>
    <g id="Rectángulo_412110" data-name="Rectángulo 412110" transform="translate(69 6450)" fill="none" stroke="#fff" stroke-width="1">
      <rect width="110" height="110" rx="6" stroke="none"/>
      <rect x="0.5" y="0.5" width="109" height="109" rx="5.5" fill="none"/>
    </g>
    <g id="Grupo_1115195" data-name="Grupo 1115195" transform="translate(80 6459.286)">
      <path id="Trazado_938003" data-name="Trazado 938003" d="M30.57,75.857H15.144a7.143,7.143,0,0,1-7.118-6.55L5,33H40.714L37.689,69.307a7.143,7.143,0,0,1-7.118,6.55Z" transform="translate(0.429 14.143)" fill="#fff"/>
      <path id="Trazado_938004" data-name="Trazado 938004" d="M12.9,40.5a15.951,15.951,0,0,0-7.192,1.486L7.721,66.1a7.143,7.143,0,0,0,7.118,6.55H30.265a7.143,7.143,0,0,0,7.118-6.55l2.081-24.973c-3.534,1.022-5.07,2.952-10.852,2.952-7.855,0-7.855-3.571-15.709-3.571Z" transform="translate(0.734 17.355)" fill="#d2f3fd"/>
      <path id="Trazado_938005" data-name="Trazado 938005" d="M69.286,45.062V24.081a5.714,5.714,0,0,0-1.674-4.041l-9.755-9.755V6H46.429v4.286L36.674,20.04A5.714,5.714,0,0,0,35,24.081v20.98A5.714,5.714,0,0,0,36.674,49.1l.938.938a5.714,5.714,0,0,1,1.674,4.041v9.552a5.714,5.714,0,0,1-1.674,4.041l-.938.938A5.714,5.714,0,0,0,35,72.653V84.571a2.857,2.857,0,0,0,2.857,2.857h2.52a2.857,2.857,0,0,0,2.556-1.579,2.311,2.311,0,0,1,4.135,0,2.857,2.857,0,0,0,2.556,1.579h5.04a2.857,2.857,0,0,0,2.556-1.579,2.311,2.311,0,0,1,4.135,0,2.857,2.857,0,0,0,2.556,1.579h2.52a2.857,2.857,0,0,0,2.857-2.857V72.653a5.714,5.714,0,0,0-1.674-4.041l-.938-.938A5.714,5.714,0,0,1,65,63.633V54.081a5.714,5.714,0,0,1,1.674-4.041l.938-.938a5.714,5.714,0,0,0,1.674-4.041Z" transform="translate(13.286 2.571)" fill="#fff"/>
      <g id="Grupo_1115194" data-name="Grupo 1115194" transform="translate(50.548 8.571)">
        <path id="Trazado_938006" data-name="Trazado 938006" d="M61.531,50.041l.938-.938a5.714,5.714,0,0,0,1.674-4.041V24.081a5.714,5.714,0,0,0-1.674-4.041l-9.755-9.754V6H47V9.347a5.714,5.714,0,0,0,1.674,4.041l6.653,6.652A5.715,5.715,0,0,1,57,24.081V45.062A5.714,5.714,0,0,1,55.326,49.1l-.938.938a5.714,5.714,0,0,0-1.674,4.041v9.552a5.714,5.714,0,0,0,1.674,4.041l.938.938A5.714,5.714,0,0,1,57,72.653V84.571a2.836,2.836,0,0,1-.532,1.651,2.836,2.836,0,0,0,2.3,1.206h2.52a2.857,2.857,0,0,0,2.857-2.857V72.653a5.714,5.714,0,0,0-1.674-4.041l-.938-.938a5.714,5.714,0,0,1-1.674-4.041V54.081a5.714,5.714,0,0,1,1.674-4.041Z" transform="translate(-32.119 -6)" fill="#d2f3fd"/>
        <path id="Trazado_938007" data-name="Trazado 938007" d="M50.887,61a2.311,2.311,0,0,0-2.067,1.278,2.857,2.857,0,0,1-2.556,1.579h3.571a2.857,2.857,0,0,0,2.556-1.579A2.311,2.311,0,0,1,54.458,61Z" transform="translate(-32.434 17.571)" fill="#d2f3fd"/>
        <path id="Trazado_938008" data-name="Trazado 938008" d="M38.683,62.278a2.835,2.835,0,0,1-2.1,1.515,2.859,2.859,0,0,0,.6.064H39.7a2.857,2.857,0,0,0,2.556-1.579A2.311,2.311,0,0,1,44.321,61H40.75a2.311,2.311,0,0,0-2.067,1.278Z" transform="translate(-36.583 17.571)" fill="#d2f3fd"/>
      </g>
      <path id="Trazado_938009" data-name="Trazado 938009" d="M0,0H34.286V17.143H0Z" transform="translate(82.571 45.714) rotate(180)" fill="#5a8def"/>
      <path id="Trazado_938010" data-name="Trazado 938010" d="M55,31.357,47.143,23.5,35,35.643H50.714Z" transform="translate(13.286 10.071)" fill="#b6ccf8"/>
      <path id="Trazado_938011" data-name="Trazado 938011" d="M54,20h7.143V37.143H54Z" transform="translate(21.429 8.571)" fill="#4880ed"/>
      <rect id="Rectángulo_412496" data-name="Rectángulo 412496" width="14.286" height="7.143" rx="1" transform="translate(58.286 1.429)" fill="#5a8def"/>
      <path id="Trazado_938012" data-name="Trazado 938012" d="M52.286,1H48a1.429,1.429,0,0,1,1.429,1.429V6.714A1.429,1.429,0,0,1,48,8.143h4.286a1.429,1.429,0,0,0,1.429-1.429V2.429A1.429,1.429,0,0,0,52.286,1Z" transform="translate(18.857 0.429)" fill="#4880ed"/>
      <path id="Trazado_938013" data-name="Trazado 938013" d="M46,34.786,55.286,25.5l9.286,9.286Z" transform="translate(18 10.929)" fill="#b6ccf8"/>
      <path id="Trazado_938014" data-name="Trazado 938014" d="M54,34.143h7.143L54,27Z" transform="translate(21.429 11.571)" fill="#96b6f5"/>
      <path id="Trazado_938015" data-name="Trazado 938015" d="M28.182,33c0,.04.018.078.014.119L25.171,69.426a8.584,8.584,0,0,1-3.857,6.431h2.265a7.143,7.143,0,0,0,7.118-6.55L33.723,33Z" transform="translate(7.42 14.143)" fill="#d2f3fd"/>
      <path id="Trazado_938016" data-name="Trazado 938016" d="M27.075,43.187l-1.9,22.839a8.584,8.584,0,0,1-3.857,6.431h2.265a7.143,7.143,0,0,0,7.118-6.55l2.081-24.973c-2.172.628-3.591,1.6-5.7,2.253Z" transform="translate(7.42 17.543)" fill="#b9e4f2"/>
      <path id="Trazado_938017" data-name="Trazado 938017" d="M43,6H54.429V8.857H43Z" transform="translate(16.714 2.571)" fill="#d2f3fd"/>
      <path id="Trazado_938018" data-name="Trazado 938018" d="M47,6h5.714V8.857H47Z" transform="translate(18.429 2.571)" fill="#b9e4f2"/>
      <path id="Trazado_938019" data-name="Trazado 938019" d="M41.143,32H5.429A1.429,1.429,0,0,0,4,33.547L7.031,69.854a8.622,8.622,0,0,0,8.541,7.86H31a8.622,8.622,0,0,0,8.541-7.86l3.026-36.307A1.429,1.429,0,0,0,41.143,32Zm-4.45,37.617A5.748,5.748,0,0,1,31,74.857H15.572a5.748,5.748,0,0,1-5.694-5.24L7.956,46.547a14.535,14.535,0,0,1,5.681-.975A15.066,15.066,0,0,1,20.9,47.229a17.688,17.688,0,0,0,8.446,1.914,17.759,17.759,0,0,0,8.459-1.913c.263-.119.523-.229.782-.343ZM38.853,43.7c-.813.29-1.53.614-2.228.93a15.138,15.138,0,0,1-7.28,1.657,15.065,15.065,0,0,1-7.263-1.657,17.692,17.692,0,0,0-8.447-1.914A17.783,17.783,0,0,0,7.71,43.6l-.728-8.74H39.59Z" transform="translate(0 13.714)"/>
      <path id="Trazado_938020" data-name="Trazado 938020" d="M23.151,52.59a1.428,1.428,0,0,0-2.02,0L17.09,56.631a1.428,1.428,0,0,0,0,2.02l4.041,4.041a1.428,1.428,0,0,0,2.02,0l4.041-4.041a1.428,1.428,0,0,0,0-2.02Zm-1.01,7.071L20.12,57.641l2.021-2.021,2.021,2.021Z" transform="translate(5.431 22.359)"/>
      <path id="Trazado_938021" data-name="Trazado 938021" d="M17.643,46H11.929A1.429,1.429,0,0,0,10.5,47.429v5.714a1.429,1.429,0,0,0,1.429,1.429h5.714a1.429,1.429,0,0,0,1.429-1.429V47.429A1.429,1.429,0,0,0,17.643,46Zm-1.429,5.714H13.357V48.857h2.857Z" transform="translate(2.786 19.714)"/>
      <path id="Trazado_938022" data-name="Trazado 938022" d="M68.112,53.622l.939-.939a7.1,7.1,0,0,0,2.092-5.05V26.652A7.1,7.1,0,0,0,69.051,21.6l-9.337-9.336V9.6a2.848,2.848,0,0,0,1.429-2.46V2.857A2.86,2.86,0,0,0,58.286,0H46.857A2.86,2.86,0,0,0,44,2.857V7.143A2.848,2.848,0,0,0,45.429,9.6v2.663L36.091,21.6A7.1,7.1,0,0,0,34,26.652V47.633a7.1,7.1,0,0,0,2.092,5.05l.939.939a4.317,4.317,0,0,1,1.255,3.03V66.2a4.317,4.317,0,0,1-1.255,3.03l-.939.939A7.1,7.1,0,0,0,34,75.224V87.143a4.29,4.29,0,0,0,4.286,4.286h2.52a4.263,4.263,0,0,0,3.833-2.37.916.916,0,0,1,1.579,0,4.263,4.263,0,0,0,3.833,2.369h5.041a4.263,4.263,0,0,0,3.833-2.37.916.916,0,0,1,1.579,0,4.263,4.263,0,0,0,3.833,2.369h2.52a4.29,4.29,0,0,0,4.286-4.286V75.224a7.1,7.1,0,0,0-2.092-5.05l-.939-.939a4.317,4.317,0,0,1-1.255-3.03V56.652a4.317,4.317,0,0,1,1.255-3.03ZM46.857,2.857H58.286l0,4.286H46.857Zm-10,23.8a4.26,4.26,0,0,1,1.255-3.031l9.755-9.755a1.429,1.429,0,0,0,.419-1.01V10h8.571v2.857a1.428,1.428,0,0,0,.418,1.01l9.755,9.755a4.258,4.258,0,0,1,1.256,3.031v.49H36.857Zm0,3.348H68.286V42.266l-6.847-6.847a1.428,1.428,0,0,0-2.02,0l-3.99,3.99-6.847-6.847a1.428,1.428,0,0,0-2.02,0l-9.7,9.7ZM66.266,44.286H54.592l5.837-5.837ZM53.408,41.429l-2.857,2.857H38.877l8.694-8.694ZM66.092,71.255l.939.939a4.317,4.317,0,0,1,1.255,3.03V87.143a1.43,1.43,0,0,1-1.429,1.429h-2.52a1.421,1.421,0,0,1-1.277-.789,3.74,3.74,0,0,0-6.691,0,1.421,1.421,0,0,1-1.277.789H50.051a1.421,1.421,0,0,1-1.277-.789,3.74,3.74,0,0,0-6.691,0,1.421,1.421,0,0,1-1.277.789h-2.52a1.43,1.43,0,0,1-1.429-1.429V75.224a4.317,4.317,0,0,1,1.255-3.03l.939-.939a7.1,7.1,0,0,0,2.092-5.05V56.652a7.1,7.1,0,0,0-2.092-5.05l-.939-.939a4.317,4.317,0,0,1-1.255-3.03v-.49H68.286v.49a4.317,4.317,0,0,1-1.255,3.03l-.939.939A7.1,7.1,0,0,0,64,56.652V66.2A7.094,7.094,0,0,0,66.092,71.255Z" transform="translate(12.857 0)"/>
    </g>
  </g>
</svg>
