<svg xmlns="http://www.w3.org/2000/svg" width="60" height="60" viewBox="0 0 60 60">
  <g id="Grupo_1115801" data-name="Grupo 1115801" transform="translate(-175 -1013)">
    <g id="Grupo_1114830" data-name="Grupo 1114830" transform="translate(-1061.5 553)">
      <g id="Elipse_12108" data-name="Elipse 12108" transform="translate(1241.5 465)" fill="#8bc34a" stroke="rgba(255,255,255,0.4)" stroke-width="5">
        <circle cx="25" cy="25" r="25" stroke="none"/>
        <circle cx="25" cy="25" r="27.5" fill="none"/>
      </g>
      <g id="Artboard_03" data-name="Artboard 03" transform="translate(1242.868 471.666)">
        <path id="Trazado_938106" data-name="Trazado 938106" d="M25.794,16.719a9.077,9.077,0,0,0-.471-2.027,3.279,3.279,0,0,0,.861-1.245c1.915-1.1,4.465-2.927,5.412-6.138a10.711,10.711,0,0,0,0-5.9A.559.559,0,0,0,31.062,1h-.574a.582.582,0,0,0-.12.013,11.305,11.305,0,0,0-4.815,2.355,10.8,10.8,0,0,0-2.086,2.364,7.93,7.93,0,0,0-3.914-1.7l-5.919-.795a.559.559,0,0,0-.625.654l.677,3.747a9.584,9.584,0,0,0,2.2,4.585,9.463,9.463,0,0,0,6.1,3.208l.776.086a3.22,3.22,0,0,0,1.591-.224,7.916,7.916,0,0,1,.311,1.365,9.5,9.5,0,1,0,1.133.056Zm.478-12.495A10.169,10.169,0,0,1,30.55,2.118h.076a9.554,9.554,0,0,1-.1,4.875,9.053,9.053,0,0,1-4.1,5v-.068A8.053,8.053,0,0,0,26.155,9.9a12.114,12.114,0,0,1,2.86-3.441L28.3,5.6a13.043,13.043,0,0,0-2.628,2.95A7.948,7.948,0,0,0,24.3,6.511a9.709,9.709,0,0,1,1.976-2.287ZM22.883,14.407l-.776-.087a8.345,8.345,0,0,1-5.382-2.83,8.465,8.465,0,0,1-1.94-4.049l-.54-2.99,5.159.692a6.822,6.822,0,0,1,5.9,6.783v.3a2.2,2.2,0,0,1-.47,1.361,8,8,0,0,0-.462-.769q-.144-.208-.3-.416a9.009,9.009,0,0,0-4.173-2.981l-.366,1.057a7.894,7.894,0,0,1,3.656,2.611q.141.182.266.364a6.817,6.817,0,0,1,.476.81,2.15,2.15,0,0,1-1.043.147ZM16.355,26.164a8.337,8.337,0,0,1,.969-3.9l1.234.827a1.673,1.673,0,0,0,.931.28h3.672a.559.559,0,0,1,.4.164L24.9,24.874a.559.559,0,0,1,.105.645l-.447.9a.555.555,0,0,1-.5.309H21.292a1.678,1.678,0,0,0-1.186,2.864,6.248,6.248,0,0,1,1.841,4.443v.03A8.4,8.4,0,0,1,16.355,26.164Zm8.388,8.388a8.421,8.421,0,0,1-1.678-.168v-.351A7.357,7.357,0,0,0,20.9,28.8a.559.559,0,0,1,.4-.956h2.76a1.669,1.669,0,0,0,1.5-.927l.447-.9a1.678,1.678,0,0,0-.314-1.936l-1.342-1.339a1.665,1.665,0,0,0-1.182-.492H19.489a.556.556,0,0,1-.31-.094l-1.266-.844a8.346,8.346,0,0,1,11.043-2.389l-1.22,1.22a2.6,2.6,0,0,0-.757,1.827v2.237a2.6,2.6,0,0,0,.757,1.827l1.609,1.609a1.477,1.477,0,0,1,.429,1.037,2.6,2.6,0,0,0,.757,1.827l.813.813a8.372,8.372,0,0,1-6.6,3.232Zm7.241-4.174-.66-.66a1.477,1.477,0,0,1-.429-1.037,2.6,2.6,0,0,0-.757-1.827l-1.609-1.609a1.477,1.477,0,0,1-.429-1.037V21.97a1.477,1.477,0,0,1,.429-1.037L29.9,19.562a8.343,8.343,0,0,1,2.085,10.815Z" transform="translate(0 0)" fill="#001a58"/>
      </g>
    </g>
  </g>
</svg>
