<svg xmlns="http://www.w3.org/2000/svg" width="70" height="70" viewBox="0 0 70 70">
  <g id="Grupo_1114918" data-name="Grupo 1114918" transform="translate(-269 -958)">
    <circle id="Elipse_5614" data-name="Elipse 5614" cx="35" cy="35" r="35" transform="translate(269 958)" fill="#fff"/>
    <path id="Trazado_940245" data-name="Trazado 940245" d="M33.244,30.686l-2.581,2.588L32.4,35l2.581-2.588ZM24.365,15.871A11.757,11.757,0,0,0,35.544,27.017l-12.1,12.134L12.266,28.005Zm14.5-.724.372-.373A1.866,1.866,0,0,0,36.6,12.138l-4.4,4.417L33.485,17.9h0q.675.674,1.351,1.286Zm3.889,8.633c-.579.169-1.682-.2-3.074-.981a26.146,26.146,0,0,1-4.124-2.97l3.647-3.657A23.755,23.755,0,0,1,42.563,21c.558,1.146.779,2.027.57,2.474Q42.947,23.63,42.757,23.78ZM26.749,9.883A10.8,10.8,0,0,0,41.523,24.616c-2.686-.667-6.483-3.765-8.717-6.03h0c-2.29-2.29-5.366-5.962-6.054-8.7Zm1.137-1.611c.445-.213,1.328.005,2.479.561A23.717,23.717,0,0,1,35.2,12.177l-3.648,3.658a26.115,26.115,0,0,1-2.981-4.114c-.786-1.395-1.16-2.5-.988-3.078.1-.125.2-.248.3-.371ZM10.4,37.345c0,.008.008.016.012.024a7.9,7.9,0,0,0,12.341,2.454L11.6,28.7a7.9,7.9,0,0,0-1.2,8.647Zm2.686,4.246a8.911,8.911,0,0,1-3.231-3.222l-.287.288A2.281,2.281,0,0,0,12.8,41.88Zm29.413.228,3.264-3.274-2.144-2.138-3.264,3.274Zm-3.944,3.955-2.144-2.138,3.264-3.274L41.822,42.5ZM42.5,43.179l-3.264,3.274L40.993,48.2h0a.552.552,0,0,0,.78,0h0l2.874-2.882Zm3.943-3.955L48.2,40.971a.555.555,0,0,1,0,.781l-2.874,2.882L43.183,42.5Zm-9.6-3.039-2.144-2.138,2.875-2.883a.555.555,0,0,1,.781,0l1.752,1.747Zm-3.943,3.955-1.753-1.748a.554.554,0,0,1,0-.781l2.874-2.882,2.144,2.138Zm3.945-2.595-3.264,3.274,2.144,2.138L39,39.682ZM40.8,33.59l2.144,2.138L39.676,39l-2.144-2.138ZM17.681,17.745l-1.292,1.3,1.733,1.728L20.7,18.181,18.97,16.453ZM14.513,13.91l3.264-3.274L15.634,8.5,12.37,11.773Zm-3.944,3.955,3.264-3.274L11.69,12.454,8.426,15.727Zm3.945-2.594L11.25,18.545,13,20.292h0a.553.553,0,0,0,.78,0h0l2.874-2.882Zm3.944-3.955L15.194,14.59l2.144,2.138,2.874-2.882a.554.554,0,0,0,0-.781Zm-9.6-3.039L12.127,5,10.375,3.256a.554.554,0,0,0-.781,0L6.719,6.139ZM4.919,12.232,3.167,10.485h0a.553.553,0,0,1,0-.78h0L6.04,6.82,8.183,8.958ZM8.865,9.637l2.144,2.138L7.744,15.049,5.6,12.911Zm3.944-3.955,2.144,2.138-3.264,3.274L9.544,8.956Zm22.658.6a6.8,6.8,0,0,1,9.626,9.6.481.481,0,0,0,.682.678A7.759,7.759,0,1,0,34.786,5.607.481.481,0,0,0,35.467,6.286ZM37.39,8.2a.481.481,0,0,1-.682-.678,5.043,5.043,0,0,1,7.143,7.121.481.481,0,0,1-.682-.678A4.081,4.081,0,0,0,37.39,8.2ZM39.25,10.06a.482.482,0,1,1-.653-.71,2.418,2.418,0,0,1,3.389.024h0a2.421,2.421,0,0,1,0,3.418.481.481,0,0,1-.682-.678,1.45,1.45,0,0,0,0-2.057h0a1.451,1.451,0,0,0-2.056.005Z" transform="translate(278.317 967.273)" fill="#0042db" fill-rule="evenodd"/>
  </g>
</svg>
