<svg xmlns="http://www.w3.org/2000/svg" width="100" height="100" viewBox="0 0 100 100">
  <g id="Grupo_1114896" data-name="Grupo 1114896" transform="translate(-285.754 -8115.086)">
    <g id="Grupo_156312" data-name="Grupo 156312" transform="translate(285.754 8115.086)">
      <path id="Elipse_5845" data-name="Elipse 5845" d="M50,0A50,50,0,1,1,0,50,50,50,0,0,1,50,0Z" transform="translate(0 0)" fill="#66d16a"/>
    </g>
    <g id="Grupo_1115506" data-name="Grupo 1115506" transform="translate(304.332 8134.509)">
      <path id="Trazado_938866" data-name="Trazado 938866" d="M56.985,35.961a4.363,4.363,0,0,0,2.722-1.254A2.432,2.432,0,0,1,61.414,34H63V32H61.414a4.382,4.382,0,0,0-3.121,1.293,2.425,2.425,0,0,1-1.515.688A6.653,6.653,0,0,0,55,30.909V28.693a2.962,2.962,0,0,1,1.872-2.764A4.953,4.953,0,0,0,60,21.308a9.019,9.019,0,0,0-.465-2.864l-.586-1.76-1.9.632.586,1.76A7.05,7.05,0,0,1,58,21.308a2.962,2.962,0,0,1-1.872,2.764A4.953,4.953,0,0,0,53,28.693v.865a6.626,6.626,0,0,0-5.115-.087l-1.327-1.327A1.923,1.923,0,0,1,46,26.8,3.885,3.885,0,0,0,43.841,23.3l-.394-.2-.9,1.789.394.2A1.9,1.9,0,0,1,44,26.8a3.88,3.88,0,0,0,1.144,2.762l.964.964c-.163.135-.32.277-.472.428l-3.572,3.572A5.787,5.787,0,0,1,41,31.171V31H39v.171a7.762,7.762,0,0,0,1.636,4.779l-4.362,4.362-1.167-2.334A5.358,5.358,0,0,0,30.289,35h-.126a3.383,3.383,0,0,1-3.213-2.316l-1.9.633A5.377,5.377,0,0,0,30.162,37h.126a3.371,3.371,0,0,1,3.03,1.873l1.465,2.93-3.112,3.112-4.475-.9L26.8,45.981l3.317.663a6.631,6.631,0,0,0-1.079,4.424,4.443,4.443,0,0,0-3.573,3.493,2.425,2.425,0,0,1-1.907,1.907l-2.757.551L21.2,58.98l2.757-.551a4.42,4.42,0,0,0,3.476-3.476,2.432,2.432,0,0,1,2.138-1.932,6.678,6.678,0,0,0,4.362,3.743,2.363,2.363,0,0,1-.984,1.4A4.36,4.36,0,0,0,31,61.8V63h2V61.8a2.364,2.364,0,0,1,1.055-1.971,4.349,4.349,0,0,0,1.865-2.845,6.6,6.6,0,0,0,4.444-1.937L41.5,53.914l.757.757A2.52,2.52,0,0,1,43,56.464,4.541,4.541,0,0,0,47.536,61H49V59H47.536A2.539,2.539,0,0,1,45,56.464a4.5,4.5,0,0,0-1.329-3.207l-.757-.757L46.4,49.011a5.78,5.78,0,0,1,3.89,1.7l1.414-1.414a7.767,7.767,0,0,0-3.554-2.032l4.175-4.175,2.538.507a3.021,3.021,0,0,1,2.123,1.622A5.013,5.013,0,0,0,61.5,48H63V46H61.5a3.023,3.023,0,0,1-2.719-1.68,5.005,5.005,0,0,0-3.519-2.688l-1.231-.246,1.022-1.022a6.6,6.6,0,0,0,1.935-4.4ZM53.636,38.95,38.95,53.636a4.657,4.657,0,0,1-6.586-6.586L47.05,32.364a4.657,4.657,0,0,1,6.586,6.586Z" transform="translate(-1 -1)" fill="#001a58"/>
      <path id="Trazado_938867" data-name="Trazado 938867" d="M54,51a3,3,0,1,0,3,3A3,3,0,0,0,54,51Zm0,4a1,1,0,1,1,1-1A1,1,0,0,1,54,55Z" transform="translate(-1 -1)" fill="#001a58"/>
      <path id="Trazado_938868" data-name="Trazado 938868" d="M43,42h2v2H43Z" transform="translate(-1 -1)" fill="#001a58"/>
      <path id="Trazado_938869" data-name="Trazado 938869" d="M13,45h2v2H13Z" transform="translate(-1 -1)" fill="#001a58"/>
      <path id="Trazado_938870" data-name="Trazado 938870" d="M22.067,53.481l1.226,1.226,1.414-1.414-1.226-1.226A1.633,1.633,0,0,1,23,50.9a3.631,3.631,0,0,0-2.269-3.362A4.935,4.935,0,0,0,21,46a5,5,0,0,0-.1-1.009,4.586,4.586,0,0,0,4-2.544l-1.789-.9A2.6,2.6,0,0,1,20.764,43h-.79a4.991,4.991,0,0,0-2.944-1.891,2.421,2.421,0,0,1,.676-1.4A4.379,4.379,0,0,0,19,36.586V35H17v1.586a2.432,2.432,0,0,1-.707,1.707A4.371,4.371,0,0,0,15.04,41H13V37H11v4H10a4.967,4.967,0,0,0-3.729,1.7l-.147-.049A1.642,1.642,0,0,1,5,41.1a3.619,3.619,0,0,0-1.067-2.576L2.707,37.293,1.293,38.707l1.226,1.226A1.633,1.633,0,0,1,3,41.1a3.631,3.631,0,0,0,2.269,3.362A4.935,4.935,0,0,0,5,46a5,5,0,0,0,.1,1.009,4.586,4.586,0,0,0-4,2.544l1.789.9A2.6,2.6,0,0,1,5.236,49h.79A4.991,4.991,0,0,0,8.97,50.891a2.421,2.421,0,0,1-.676,1.4A4.379,4.379,0,0,0,7,55.414V57H9V55.414a2.432,2.432,0,0,1,.707-1.707A4.371,4.371,0,0,0,10.96,51H13v4h2V51h1a4.967,4.967,0,0,0,3.729-1.7l.147.049A1.642,1.642,0,0,1,21,50.9a3.619,3.619,0,0,0,1.067,2.576ZM16,49H10a2.993,2.993,0,0,1-1-5.816V45h2V43h5a3,3,0,0,1,0,6Z" transform="translate(-1 -1)" fill="#001a58"/>
      <path id="Trazado_938871" data-name="Trazado 938871" d="M41,11h2v2H41Z" transform="translate(-1 -1)" fill="#001a58"/>
      <path id="Trazado_938872" data-name="Trazado 938872" d="M35.707,17.707a2.421,2.421,0,0,1,1.4-.676A4.994,4.994,0,0,0,39,19.975v.79a2.6,2.6,0,0,1-1.447,2.341l.9,1.789a4.588,4.588,0,0,0,2.544-4A5.06,5.06,0,0,0,42,21a4.935,4.935,0,0,0,1.543-.269A3.631,3.631,0,0,0,46.9,23a1.633,1.633,0,0,1,1.162.481l1.226,1.226,1.414-1.414-1.226-1.226A3.619,3.619,0,0,0,46.9,21a1.642,1.642,0,0,1-1.559-1.123l-.049-.148A4.966,4.966,0,0,0,47,16V15h4V13H47V10.96a4.36,4.36,0,0,0,2.707-1.253A2.432,2.432,0,0,1,51.414,9H53V7H51.414a4.382,4.382,0,0,0-3.121,1.293,2.421,2.421,0,0,1-1.4.676A4.992,4.992,0,0,0,45,6.026v-.79A2.6,2.6,0,0,1,46.447,2.9l-.9-1.789a4.588,4.588,0,0,0-2.544,4A4.987,4.987,0,0,0,42,5a4.935,4.935,0,0,0-1.543.269A3.631,3.631,0,0,0,37.1,3a1.633,1.633,0,0,1-1.162-.481L34.707,1.293,33.293,2.707l1.226,1.226A3.619,3.619,0,0,0,37.1,5a1.642,1.642,0,0,1,1.559,1.124l.049.147A4.967,4.967,0,0,0,37,10v1H33v2h4v2.04a4.36,4.36,0,0,0-2.707,1.253A2.432,2.432,0,0,1,32.586,17H31v2h1.586a4.382,4.382,0,0,0,3.121-1.293ZM45,10v6a3,3,0,0,1-6,0V10a3,3,0,0,1,6,0Z" transform="translate(-1 -1)" fill="#001a58"/>
      <path id="Trazado_938873" data-name="Trazado 938873" d="M9,9h2v2H9Z" transform="translate(-1 -1)" fill="#001a58"/>
      <path id="Trazado_938874" data-name="Trazado 938874" d="M13,13h2v2H13Z" transform="translate(-1 -1)" fill="#001a58"/>
      <path id="Trazado_938875" data-name="Trazado 938875" d="M2.707,13.707a5.807,5.807,0,0,1,3.1-1.594,4.551,4.551,0,0,0,.518.63L7.405,13.82a5.475,5.475,0,0,0-1.876,2.937,3.478,3.478,0,0,1-1.821,2.27l-.156.078.9,1.789.156-.078A5.476,5.476,0,0,0,7.47,17.242a3.465,3.465,0,0,1,1.375-1.983l2.412,2.412c.029.029.064.049.094.077A10.872,10.872,0,0,0,10,23h2a8.858,8.858,0,0,1,1.1-4.232A4.493,4.493,0,0,0,14.464,19,4.525,4.525,0,0,0,15,18.946v.31A2.747,2.747,0,0,0,17.744,22a.742.742,0,0,1,.7.508,5.561,5.561,0,0,0,2.808,3.238l.3.148.9-1.788-.3-.148a3.58,3.58,0,0,1-1.806-2.082A2.74,2.74,0,0,0,17.744,20,.744.744,0,0,1,17,19.256V18.223A4.526,4.526,0,0,0,18.268,12h1.318a2.432,2.432,0,0,1,1.707.707A4.382,4.382,0,0,0,24.414,14H25V12h-.586a2.432,2.432,0,0,1-1.707-.707A4.382,4.382,0,0,0,19.586,10H16.414L13.3,6.888a6.736,6.736,0,0,0,2.435-3.714l.233-.932-1.94-.484L13.8,2.69a4.724,4.724,0,0,1-2.125,2.867,4.42,4.42,0,0,0-4.549.152l-.8-.8A1.117,1.117,0,0,1,6,4.121,3.124,3.124,0,0,0,2.879,1H2V3h.879A1.122,1.122,0,0,1,4,4.121a3.1,3.1,0,0,0,.914,2.207l.8.8A4.5,4.5,0,0,0,5,9.536a4.553,4.553,0,0,0,.066.672,7.836,7.836,0,0,0-3.773,2.085ZM9.536,7a2.52,2.52,0,0,1,1.793.743l4.929,4.929a2.536,2.536,0,0,1-3.587,3.585L7.742,11.328A2.536,2.536,0,0,1,9.536,7Z" transform="translate(-1 -1)" fill="#001a58"/>
      <path id="Trazado_938876" data-name="Trazado 938876" d="M5,33a4,4,0,1,0-4-4A4,4,0,0,0,5,33Zm0-6a2,2,0,1,1-2,2A2,2,0,0,1,5,27Z" transform="translate(-1 -1)" fill="#001a58"/>
      <path id="Trazado_938877" data-name="Trazado 938877" d="M12,57a3,3,0,1,0,3,3A3,3,0,0,0,12,57Zm0,4a1,1,0,1,1,1-1A1,1,0,0,1,12,61Z" transform="translate(-1 -1)" fill="#001a58"/>
      <path id="Trazado_938878" data-name="Trazado 938878" d="M28,27a3,3,0,1,0-3-3A3,3,0,0,0,28,27Zm0-4a1,1,0,1,1-1,1A1,1,0,0,1,28,23Z" transform="translate(-1 -1)" fill="#001a58"/>
      <path id="Trazado_938879" data-name="Trazado 938879" d="M34,50h2v2H34Z" transform="translate(-1 -1)" fill="#001a58"/>
      <path id="Trazado_938880" data-name="Trazado 938880" d="M36,46h2v2H36Z" transform="translate(-1 -1)" fill="#001a58"/>
      <path id="Trazado_938881" data-name="Trazado 938881" d="M51,36h2v2H51Z" transform="translate(-1 -1)" fill="#001a58"/>
      <path id="Trazado_938882" data-name="Trazado 938882" d="M47,34h2v2H47Z" transform="translate(-1 -1)" fill="#001a58"/>
      <path id="Trazado_938883" data-name="Trazado 938883" d="M58,13a3,3,0,1,0-3-3A3,3,0,0,0,58,13Zm0-4a1,1,0,1,1-1,1A1,1,0,0,1,58,9Z" transform="translate(-1 -1)" fill="#001a58"/>
    </g>
  </g>
</svg>
