<svg xmlns="http://www.w3.org/2000/svg" width="120" height="120" viewBox="0 0 120 120">
  <g id="Grupo_1114756" data-name="Grupo 1114756" transform="translate(-64 -6445)">
    <rect id="Rect치ngulo_402033" data-name="Rect치ngulo 402033" width="120" height="120" rx="8" transform="translate(64 6445)" fill="#0042db"/>
    <g id="Rect치ngulo_412110" data-name="Rect치ngulo 412110" transform="translate(69 6450)" fill="none" stroke="#fff" stroke-width="1">
      <rect width="110" height="110" rx="6" stroke="none"/>
      <rect x="0.5" y="0.5" width="109" height="109" rx="5.5" fill="none"/>
    </g>
    <g id="Grupo_1114987" data-name="Grupo 1114987" transform="translate(83 6464.195)">
      <path id="Trazado_937710" data-name="Trazado 937710" d="M22.645,8v6.452a15.909,15.909,0,0,1,10.323,14.9V71.226a6.452,6.452,0,0,1-6.452,6.452H8.452A6.452,6.452,0,0,1,2,71.226V29.347a15.909,15.909,0,0,1,10.323-14.9V8Z" transform="translate(0.29 2.032)" fill="#c7e2fb"/>
      <path id="Trazado_937711" data-name="Trazado 937711" d="M2,24.7V62.8l30.968-.08V24.7c0-.236-.017-.468-.027-.7H2.027c-.01.234-.027.466-.027.7Z" transform="translate(0.29 6.677)" fill="#66aad7"/>
      <path id="Trazado_937712" data-name="Trazado 937712" d="M29.951,24H2.027c-.01.234-.027.466-.027.7V54.328C16.381,51.484,27.648,39.321,29.951,24Z" transform="translate(0.29 6.677)" fill="#85bbdf"/>
      <circle id="Elipse_13470" data-name="Elipse 13470" cx="14.193" cy="14.193" r="14.193" transform="translate(44.871 10.032)" fill="#7dbd83"/>
      <path id="Trazado_937713" data-name="Trazado 937713" d="M35,22.193a14.173,14.173,0,0,0,6.586,11.969,22.678,22.678,0,0,0,16.64-21.646c0-.446-.043-.883-.068-1.324A14.19,14.19,0,0,0,35,22.193Z" transform="translate(9.871 2.032)" fill="#97ca9c"/>
      <path id="Trazado_937714" data-name="Trazado 937714" d="M50.581,61.226,48,38H66.064L63.484,61.226Z" transform="translate(13.645 10.742)" fill="#c7e2fb"/>
      <path id="Trazado_937715" data-name="Trazado 937715" d="M64.548,45.29l-.378-.378a3.115,3.115,0,0,0-4.405,0l-.756.756a3.115,3.115,0,0,1-4.405,0l-.756-.756a3.115,3.115,0,0,0-4.405,0l-.378.378h-.286l1.577,14.193h12.9L64.835,45.29Z" transform="translate(13.871 12.484)" fill="#edf4ff"/>
      <path id="Trazado_937716" data-name="Trazado 937716" d="M8,2H23.484V9.742H8Z" transform="translate(2.032 0.29)" fill="#a3a2a4"/>
      <path id="Trazado_937717" data-name="Trazado 937717" d="M21.046,41.086a5.946,5.946,0,0,1-4.864,8.944c-.24.022-.484.034-.73.034s-.49-.012-.732-.034a5.947,5.947,0,0,1-4.864-8.944L15.452,32Z" transform="translate(2.322 9)" fill="#edf4ff"/>
      <path id="Trazado_937718" data-name="Trazado 937718" d="M30,56H71.29v7.742H30Z" transform="translate(8.419 15.967)" fill="#a3a2a4"/>
      <path id="Trazado_937719" data-name="Trazado 937719" d="M32.581,61.226,30,38H48.064L45.484,61.226Z" transform="translate(8.419 10.742)" fill="#c7e2fb"/>
      <path id="Trazado_937720" data-name="Trazado 937720" d="M46.548,45.29l-.378-.378a3.115,3.115,0,0,0-4.405,0l-.756.756a3.115,3.115,0,0,1-4.405,0l-.756-.756a3.115,3.115,0,0,0-4.405,0l-.378.378h-.286l1.577,14.193h12.9L46.835,45.29Z" transform="translate(8.645 12.484)" fill="#edf4ff"/>
      <g id="Grupo_1114986" data-name="Grupo 1114986" transform="translate(1 1)">
        <path id="Trazado_937721" data-name="Trazado 937721" d="M24.226,15.615V11.323h1.29a1.291,1.291,0,0,0,1.29-1.29V2.29A1.291,1.291,0,0,0,25.516,1H10.032a1.291,1.291,0,0,0-1.29,1.29v7.742a1.291,1.291,0,0,0,1.29,1.29h1.29v4.293A17.285,17.285,0,0,0,1,31.379V73.258A7.75,7.75,0,0,0,8.742,81H26.806a7.75,7.75,0,0,0,7.742-7.742V31.379A17.287,17.287,0,0,0,24.226,15.615ZM11.323,3.581h12.9V8.742h-12.9Zm1.743,14.112a1.293,1.293,0,0,0,.837-1.209V11.323h7.742v5.161a1.293,1.293,0,0,0,.837,1.209,14.69,14.69,0,0,1,9.339,11.694H3.726a14.688,14.688,0,0,1,9.339-11.694Zm18.9,14.275V68.1H3.581V31.968ZM26.806,78.419H8.742a5.166,5.166,0,0,1-5.161-5.161V70.677H31.968v2.581A5.166,5.166,0,0,1,26.806,78.419Z" transform="translate(-1 -1)"/>
        <path id="Trazado_937722" data-name="Trazado 937722" d="M8.752,47.5A7.542,7.542,0,0,0,14.894,51.6c.277.027.561.04.848.04s.57-.013.849-.039a7.542,7.542,0,0,0,6.142-4.092,6.974,6.974,0,0,0-.3-6.814L16.842,31.6a1.341,1.341,0,0,0-2.2,0L9.05,40.691a6.958,6.958,0,0,0-.3,6.813Zm2.493-5.461,4.5-7.3,4.5,7.3a4.348,4.348,0,0,1,.186,4.306,4.983,4.983,0,0,1-4.07,2.677,6.945,6.945,0,0,1-1.226,0,4.981,4.981,0,0,1-4.07-2.677,4.348,4.348,0,0,1,.186-4.306Z" transform="translate(1.033 7.719)"/>
        <path id="Trazado_937723" data-name="Trazado 937723" d="M71.58,60.226H70.441l2.422-21.793A1.291,1.291,0,0,0,71.58,37H53.516a1.291,1.291,0,0,0-1.283,1.432l2.422,21.793h-7.44l2.422-21.793A1.291,1.291,0,0,0,48.355,37H30.29a1.291,1.291,0,0,0-1.283,1.432L31.43,60.226H30.29A1.291,1.291,0,0,0,29,61.516v7.742a1.291,1.291,0,0,0,1.29,1.29H71.58a1.291,1.291,0,0,0,1.29-1.29V61.516A1.291,1.291,0,0,0,71.58,60.226ZM70.139,39.581l-.621,5.584a4.517,4.517,0,0,0-4.924.867l-.756.756a1.89,1.89,0,0,1-2.581,0l-.756-.756a4.517,4.517,0,0,0-4.924-.867l-.621-5.584ZM55.9,48.054l.2-.2a1.89,1.89,0,0,1,2.581,0l.756.756a4.4,4.4,0,0,0,6.23,0l.756-.756a1.89,1.89,0,0,1,2.581,0l.2.2L67.845,60.226H57.251Zm-8.986-8.474-.621,5.584a4.517,4.517,0,0,0-4.924.867l-.756.756a1.89,1.89,0,0,1-2.581,0l-.756-.756a4.517,4.517,0,0,0-4.924-.867l-.621-5.584Zm-14.24,8.474.2-.2a1.89,1.89,0,0,1,2.581,0l.756.756a4.4,4.4,0,0,0,6.23,0l.756-.756a1.89,1.89,0,0,1,2.581,0l.2.2L44.619,60.226H34.026ZM70.29,67.968H31.581V62.806H70.29Z" transform="translate(7.129 9.451)"/>
        <path id="Trazado_937724" data-name="Trazado 937724" d="M49.484,37.968A15.484,15.484,0,1,0,34,22.484,15.5,15.5,0,0,0,49.484,37.968Zm0-28.387a12.9,12.9,0,1,1-12.9,12.9A12.918,12.918,0,0,1,49.484,9.581Z" transform="translate(8.58 0.742)"/>
        <path id="Trazado_937725" data-name="Trazado 937725" d="M46.12,28.324h.05a1.292,1.292,0,0,0,1.1-.712l6.452-12.9-2.308-1.155-5.4,10.8-2.662-4.436-2.213,1.328L45.014,27.7a1.288,1.288,0,0,0,1.106.627Z" transform="translate(10.654 2.644)"/>
      </g>
    </g>
  </g>
</svg>
