<svg xmlns="http://www.w3.org/2000/svg" width="120" height="120" viewBox="0 0 120 120">
  <g id="Grupo_1114749" data-name="Grupo 1114749" transform="translate(-64 -6445)">
    <rect id="Rectángulo_402033" data-name="Rectángulo 402033" width="120" height="120" rx="8" transform="translate(64 6445)" fill="#0042db"/>
    <g id="Rectángulo_412110" data-name="Rectángulo 412110" transform="translate(69 6450)" fill="none" stroke="#fff" stroke-width="1">
      <rect width="110" height="110" rx="6" stroke="none"/>
      <rect x="0.5" y="0.5" width="109" height="109" rx="5.5" fill="none"/>
    </g>
    <g id="Layer_24" data-name="Layer 24" transform="translate(83.447 6464.293)">
      <path id="Trazado_937630" data-name="Trazado 937630" d="M21.951,16h3.843a25.506,25.506,0,0,1,15.461,5.19l7.592,9.239a25.519,25.519,0,0,1,2.569,11.193h0l.027,5.124A12.906,12.906,0,0,0,54.929,55.5l-24.1.128a10.136,10.136,0,0,0,3.957-8.087l-.028-5.917h0a7.687,7.687,0,0,0-7.687-7.687H21.951Z" transform="translate(6.015 4.222)" fill="#8adef9"/>
      <path id="Trazado_937631" data-name="Trazado 937631" d="M80.427,66.778H79.146a10.86,10.86,0,0,1-4.854-1.145l-.541-.272A10.861,10.861,0,0,0,68.9,64.216h0a10.86,10.86,0,0,0-4.854,1.145l-.541.272a10.861,10.861,0,0,1-4.854,1.145h0A10.86,10.86,0,0,1,53.8,65.633l-.541-.272A10.861,10.861,0,0,0,48.4,64.216h0a10.86,10.86,0,0,0-4.854,1.145l-.541.272a10.861,10.861,0,0,1-4.854,1.145h0A10.86,10.86,0,0,1,33.3,65.633l-.541-.272A10.861,10.861,0,0,0,27.9,64.216h0a10.861,10.861,0,0,0-4.854,1.145l-.541.272a10.861,10.861,0,0,1-4.854,1.145h0A10.86,10.86,0,0,1,12.8,65.633l-.541-.272a10.861,10.861,0,0,0-4.854-1.145h0a10.86,10.86,0,0,0-4.854,1.145L1,66.138V46.922l1.551-.776A10.861,10.861,0,0,1,7.405,45h0a10.861,10.861,0,0,1,4.854,1.145l.541.272a10.861,10.861,0,0,0,4.854,1.145h0a10.86,10.86,0,0,0,4.854-1.145l.541-.272A10.861,10.861,0,0,1,27.9,45h0a10.861,10.861,0,0,1,4.854,1.145l.541.272a10.861,10.861,0,0,0,4.854,1.145h0a10.86,10.86,0,0,0,4.854-1.145l.541-.272A10.861,10.861,0,0,1,48.4,45h0a10.861,10.861,0,0,1,4.854,1.145l.541.272a10.861,10.861,0,0,0,4.854,1.145h0A10.86,10.86,0,0,0,63.5,46.417l.541-.272A10.861,10.861,0,0,1,68.9,45h0a10.861,10.861,0,0,1,4.854,1.145l.541.272a10.861,10.861,0,0,0,4.854,1.145h1.281" transform="translate(0.126 12.373)" fill="#8adef9"/>
      <path id="Trazado_937632" data-name="Trazado 937632" d="M80.553,56.119H79.272a12.2,12.2,0,0,1-5.427-1.281l-.541-.27a9.736,9.736,0,0,0-8.563,0l-.541.27a12.337,12.337,0,0,1-10.853,0l-.541-.27a9.736,9.736,0,0,0-8.563,0l-.541.27a12.337,12.337,0,0,1-10.853,0l-.541-.27a9.736,9.736,0,0,0-8.563,0l-.541.27a12.337,12.337,0,0,1-10.853,0l-.541-.27a9.736,9.736,0,0,0-8.563,0L1.7,55.351.553,53.057,2.1,52.276a12.337,12.337,0,0,1,10.853,0l.541.27a9.736,9.736,0,0,0,8.563,0l.541-.27a12.337,12.337,0,0,1,10.853,0l.541.27a9.736,9.736,0,0,0,8.563,0l.541-.27a12.337,12.337,0,0,1,10.853,0l.541.27a9.736,9.736,0,0,0,8.563,0l.541-.27a12.337,12.337,0,0,1,10.853,0l.541.27a9.614,9.614,0,0,0,4.281,1.011h1.281Z" transform="translate(0 14.065)" fill="#43b6e5"/>
      <path id="Trazado_937633" data-name="Trazado 937633" d="M80.553,64.119H79.272a12.2,12.2,0,0,1-5.427-1.281l-.541-.27a9.736,9.736,0,0,0-8.563,0l-.541.27a12.337,12.337,0,0,1-10.853,0l-.541-.27a9.736,9.736,0,0,0-8.563,0l-.541.27a12.337,12.337,0,0,1-10.853,0l-.541-.27a9.736,9.736,0,0,0-8.563,0l-.541.27a12.337,12.337,0,0,1-10.853,0l-.541-.27a9.736,9.736,0,0,0-8.563,0L1.7,63.351.553,61.057,2.1,60.276a12.337,12.337,0,0,1,10.853,0l.541.27a9.736,9.736,0,0,0,8.563,0l.541-.27a12.337,12.337,0,0,1,10.853,0l.541.27a9.736,9.736,0,0,0,8.563,0l.541-.27a12.337,12.337,0,0,1,10.853,0l.541.27a9.736,9.736,0,0,0,8.563,0l.541-.27a12.337,12.337,0,0,1,10.853,0l.541.27a9.615,9.615,0,0,0,4.281,1.011h1.281Z" transform="translate(0 16.314)" fill="#43b6e5"/>
      <path id="Trazado_937634" data-name="Trazado 937634" d="M80.553,49.119H79.272a12.2,12.2,0,0,1-5.427-1.281l-.541-.27a9.736,9.736,0,0,0-8.563,0l-.541.27a12.337,12.337,0,0,1-10.853,0l-.541-.27a9.736,9.736,0,0,0-8.563,0l-.541.27a12.337,12.337,0,0,1-10.853,0l-.541-.27a9.736,9.736,0,0,0-8.563,0l-.541.27a12.337,12.337,0,0,1-10.853,0l-.541-.27a9.736,9.736,0,0,0-8.563,0L1.7,48.351.553,46.057,2.1,45.276a12.337,12.337,0,0,1,10.853,0l.541.27a9.736,9.736,0,0,0,8.563,0l.541-.27a12.337,12.337,0,0,1,10.853,0l.541.27a9.736,9.736,0,0,0,8.563,0l.541-.27a12.337,12.337,0,0,1,10.853,0l.541.27a9.736,9.736,0,0,0,8.563,0l.541-.27a12.337,12.337,0,0,1,10.853,0l.541.27a9.615,9.615,0,0,0,4.281,1.011h1.281Z" transform="translate(0 12.097)" fill="#43b6e5"/>
      <rect id="Rectángulo_412459" data-name="Rectángulo 412459" width="12.811" height="30.746" transform="translate(15.155 13.816)" fill="#785349"/>
      <rect id="Rectángulo_412460" data-name="Rectángulo 412460" width="14.029" height="23.06" transform="translate(1.126 17.66)" fill="#785349"/>
      <path id="Trazado_937635" data-name="Trazado 937635" d="M15,28.783a9.114,9.114,0,0,0,8.9,9.109V11H15Z" transform="translate(4.061 2.816)" fill="#916658"/>
      <rect id="Rectángulo_412461" data-name="Rectángulo 412461" width="14.029" height="19.216" transform="translate(1.126 21.503)" fill="#916658"/>
      <path id="Trazado_937636" data-name="Trazado 937636" d="M52.654,2A16.654,16.654,0,0,0,38.866,27.993L36,36.589l10.249-2.562A16.654,16.654,0,1,0,52.654,2Z" transform="translate(9.964 0.287)" fill="#0059be"/>
      <path id="Trazado_937637" data-name="Trazado 937637" d="M65.073,29.073a16.644,16.644,0,0,0-23.4-23.4,16.644,16.644,0,0,0,23.4,23.4Z" transform="translate(10.526 0.287)" fill="#006bdb"/>
      <rect id="Rectángulo_412462" data-name="Rectángulo 412462" width="2.562" height="2.562" transform="translate(69.023 24.065)" fill="#719301"/>
      <rect id="Rectángulo_412463" data-name="Rectángulo 412463" width="2.562" height="2.562" transform="translate(51.088 12.535)" fill="#719301"/>
      <rect id="Rectángulo_412464" data-name="Rectángulo 412464" width="2.562" height="2.562" transform="translate(74.148 16.378)" fill="#719301"/>
      <rect id="Rectángulo_412465" data-name="Rectángulo 412465" width="2.562" height="4.971" transform="translate(57.493 17.66)" fill="#719301"/>
      <rect id="Rectángulo_412466" data-name="Rectángulo 412466" width="5.124" height="2.562" transform="translate(51.088 24.065)" fill="#719301"/>
      <rect id="Rectángulo_412467" data-name="Rectángulo 412467" width="2.562" height="5.124" transform="translate(57.493 27.908)" fill="#719301"/>
      <rect id="Rectángulo_412468" data-name="Rectángulo 412468" width="5.258" height="2.562" transform="translate(61.203 24.065)" fill="#719301"/>
      <rect id="Rectángulo_412469" data-name="Rectángulo 412469" width="4.53" height="2.562" transform="translate(59.79 22.519) rotate(-45)" fill="#8dbf00"/>
      <rect id="Rectángulo_412470" data-name="Rectángulo 412470" width="2.562" height="4.53" transform="translate(52.744 21.128) rotate(-45)" fill="#8dbf00"/>
      <rect id="Rectángulo_412471" data-name="Rectángulo 412471" width="4.53" height="2.562" transform="translate(52.744 29.565) rotate(-45)" fill="#8dbf00"/>
      <rect id="Rectángulo_412472" data-name="Rectángulo 412472" width="2.562" height="4.53" transform="translate(59.791 28.174) rotate(-45)" fill="#8dbf00"/>
      <circle id="Elipse_13464" data-name="Elipse 13464" cx="3.843" cy="3.843" r="3.843" transform="translate(54.931 21.503)" fill="#719301"/>
      <path id="Trazado_937638" data-name="Trazado 937638" d="M46.562,17a3.8,3.8,0,0,0-1.991.571A3.8,3.8,0,0,0,44,19.562a3.843,3.843,0,0,0,3.843,3.843,3.8,3.8,0,0,0,1.991-.571,3.8,3.8,0,0,0,.571-1.991A3.843,3.843,0,0,0,46.562,17Z" transform="translate(12.212 4.503)" fill="#82ab00"/>
      <rect id="Rectángulo_412473" data-name="Rectángulo 412473" width="2.562" height="4.971" transform="translate(65.18 3.568)" fill="#719301"/>
      <rect id="Rectángulo_412474" data-name="Rectángulo 412474" width="5.124" height="2.562" transform="translate(58.775 9.973)" fill="#719301"/>
      <rect id="Rectángulo_412475" data-name="Rectángulo 412475" width="2.562" height="5.124" transform="translate(65.18 13.816)" fill="#719301"/>
      <rect id="Rectángulo_412476" data-name="Rectángulo 412476" width="5.258" height="2.562" transform="translate(68.89 9.973)" fill="#719301"/>
      <rect id="Rectángulo_412477" data-name="Rectángulo 412477" width="4.53" height="2.562" transform="translate(67.476 8.427) rotate(-45)" fill="#8dbf00"/>
      <rect id="Rectángulo_412478" data-name="Rectángulo 412478" width="2.562" height="4.53" transform="translate(60.431 7.036) rotate(-45)" fill="#8dbf00"/>
      <rect id="Rectángulo_412479" data-name="Rectángulo 412479" width="4.53" height="2.562" transform="translate(60.43 15.473) rotate(-45)" fill="#8dbf00"/>
      <rect id="Rectángulo_412480" data-name="Rectángulo 412480" width="2.562" height="4.53" transform="translate(67.476 14.082) rotate(-45)" fill="#8dbf00"/>
      <circle id="Elipse_13465" data-name="Elipse 13465" cx="3.843" cy="3.843" r="3.843" transform="translate(62.618 7.411)" fill="#719301"/>
      <path id="Trazado_937639" data-name="Trazado 937639" d="M52.562,6a3.8,3.8,0,0,0-1.991.571A3.8,3.8,0,0,0,50,8.562a3.843,3.843,0,0,0,3.843,3.843,3.8,3.8,0,0,0,1.991-.571,3.8,3.8,0,0,0,.571-1.991A3.843,3.843,0,0,0,52.562,6Z" transform="translate(13.899 1.411)" fill="#82ab00"/>
      <path id="Trazado_937640" data-name="Trazado 937640" d="M74.991,60.546l-.541-.27a12.337,12.337,0,0,0-10.853,0l-.541.27a9.736,9.736,0,0,1-8.563,0l-.541-.27a12.337,12.337,0,0,0-10.853,0l-.541.27a9.736,9.736,0,0,1-8.563,0l-.541-.27a12.337,12.337,0,0,0-10.853,0l-.541.27a9.736,9.736,0,0,1-8.563,0l-.541-.27a12.337,12.337,0,0,0-10.853,0l-1.551.769L1.7,63.338l1.551-.776a9.736,9.736,0,0,1,8.563,0l.541.277a12.337,12.337,0,0,0,10.853,0l.541-.27a9.736,9.736,0,0,1,8.563,0l.541.27a12.337,12.337,0,0,0,10.853,0l.541-.27a9.736,9.736,0,0,1,8.563,0l.541.27a12.337,12.337,0,0,0,10.853,0l.541-.27a9.736,9.736,0,0,1,8.563,0l.541.27a12.205,12.205,0,0,0,5.427,1.281h1.281V61.557H79.272A9.614,9.614,0,0,1,74.991,60.546Z" transform="translate(0 16.314)"/>
      <path id="Trazado_937641" data-name="Trazado 937641" d="M74.991,52.546l-.541-.27a12.337,12.337,0,0,0-10.853,0l-.541.27a9.736,9.736,0,0,1-8.563,0l-.541-.27a12.337,12.337,0,0,0-10.853,0l-.541.27a9.736,9.736,0,0,1-8.563,0l-.541-.27a12.337,12.337,0,0,0-10.853,0l-.541.27a9.736,9.736,0,0,1-8.563,0l-.541-.27a12.337,12.337,0,0,0-10.853,0l-1.551.769L1.7,55.338l1.551-.776a9.736,9.736,0,0,1,8.563,0l.541.277a12.337,12.337,0,0,0,10.853,0l.541-.27a9.736,9.736,0,0,1,8.563,0l.541.27a12.337,12.337,0,0,0,10.853,0l.541-.27a9.736,9.736,0,0,1,8.563,0l.541.27a12.337,12.337,0,0,0,10.853,0l.541-.27a9.736,9.736,0,0,1,8.563,0l.541.27a12.2,12.2,0,0,0,5.427,1.281h1.281V53.557H79.272a9.615,9.615,0,0,1-4.281-1.011Z" transform="translate(0 14.065)"/>
      <rect id="Rectángulo_412481" data-name="Rectángulo 412481" width="2.562" height="8.968" transform="translate(51.088 45.843)"/>
      <rect id="Rectángulo_412482" data-name="Rectángulo 412482" width="2.562" height="2.562" transform="translate(51.088 40.719)"/>
      <path id="Trazado_937642" data-name="Trazado 937642" d="M43.289,24.273l-1.632,1.632,1.811,1.811L45.1,26.084a5.015,5.015,0,0,0,1.305.544v2.744h2.562V26.629a5.015,5.015,0,0,0,1.305-.544l1.632,1.632,1.811-1.811-1.632-1.632a5.016,5.016,0,0,0,.544-1.305h2.744V20.405H52.629a5.016,5.016,0,0,0-.544-1.305l1.632-1.632-1.811-1.811-1.632,1.632a5.016,5.016,0,0,0-1.305-.544V14H46.405v2.744a5.015,5.015,0,0,0-1.305.544l-1.632-1.632-1.811,1.811L43.289,19.1a5.015,5.015,0,0,0-.544,1.305H40v2.562h2.744a5.015,5.015,0,0,0,.544,1.305Zm4.4-5.149a2.562,2.562,0,1,1-2.562,2.562A2.562,2.562,0,0,1,47.687,19.124Z" transform="translate(11.088 3.66)"/>
      <rect id="Rectángulo_412483" data-name="Rectángulo 412483" width="2.562" height="2.562" transform="translate(69.023 24.065)"/>
      <rect id="Rectángulo_412484" data-name="Rectángulo 412484" width="2.562" height="2.562" transform="translate(51.088 12.535)"/>
      <rect id="Rectángulo_412485" data-name="Rectángulo 412485" width="2.562" height="2.562" transform="translate(74.148 16.378)"/>
      <path id="Trazado_937643" data-name="Trazado 937643" d="M80.553,18.941A17.935,17.935,0,1,0,45.03,22.428a26.661,26.661,0,0,0-13.222-3.487H29.245V13.816a1.281,1.281,0,0,0-1.281-1.281H15.154a1.281,1.281,0,0,0-1.281,1.281v2.562H1.126v2.562H13.872v20.5H1.126V42H13.872v2.562a1.281,1.281,0,0,0,1.281,1.281H27.964a1.281,1.281,0,0,0,1.281-1.281V39.438h3.843a6.414,6.414,0,0,1,6.405,6.412l.031,5.91a8.909,8.909,0,0,1-3.035,6.7A9.394,9.394,0,0,1,34,57.644l-.541-.27a12.337,12.337,0,0,0-10.853,0l-.541.27a9.736,9.736,0,0,1-8.563,0l-.541-.27a12.337,12.337,0,0,0-10.853,0l-1.551.769L1.7,60.435l1.551-.776a9.736,9.736,0,0,1,8.563,0l.541.277a12.337,12.337,0,0,0,10.853,0l.541-.27a9.736,9.736,0,0,1,8.563,0l.541.27a12.337,12.337,0,0,0,10.853,0l.541-.27a9.736,9.736,0,0,1,8.563,0l.541.27a12.337,12.337,0,0,0,10.853,0l.541-.27a9.736,9.736,0,0,1,8.563,0l.541.27a12.2,12.2,0,0,0,5.427,1.281h1.281V58.654H79.272a9.615,9.615,0,0,1-4.281-1.011l-.541-.27a12.337,12.337,0,0,0-10.853,0l-.541.27a9.224,9.224,0,0,1-1.665.623,11.567,11.567,0,0,1-2.651-7.31l-.029-5.113a26.658,26.658,0,0,0-1.91-9.957,17.774,17.774,0,0,0,5.817.989A17.954,17.954,0,0,0,80.553,18.941ZM26.683,43.281H16.435V15.1H26.683ZM66.461,13.816a2.562,2.562,0,1,1,2.562-2.562A2.562,2.562,0,0,1,66.461,13.816Zm2.587-6.96a5.015,5.015,0,0,0-1.305-.544V4.464a15.334,15.334,0,0,1,2.533,1.165Zm-6.43-3.289A15.355,15.355,0,0,1,65.18,3.8V6.312a5.016,5.016,0,0,0-1.305.544L62.242,5.224,60.431,7.035l1.632,1.632a5.016,5.016,0,0,0-.544,1.305H58.775v2.562h2.744a5.016,5.016,0,0,0,.544,1.305l-1.632,1.632,1.811,1.811,1.632-1.632a5.015,5.015,0,0,0,1.305.544v2.744h2.562V16.2a5.015,5.015,0,0,0,1.305-.544l1.632,1.632,1.811-1.811-1.632-1.632a5.016,5.016,0,0,0,.544-1.305h2.744V9.973H71.4a5.016,5.016,0,0,0-.544-1.305l1.56-1.56A15.373,15.373,0,0,1,56.7,33.131a1.281,1.281,0,0,0-.8-.06l-7.985,2,2.128-6.382a1.281,1.281,0,0,0-.156-1.124A15.373,15.373,0,0,1,62.618,3.568ZM53.953,57.373a12.337,12.337,0,0,0-10.853,0l-.541.27a9.4,9.4,0,0,1-2.661.843,11.482,11.482,0,0,0,2.189-6.74l-.031-5.9a8.978,8.978,0,0,0-8.968-8.968H29.245V21.5h2.562a24.116,24.116,0,0,1,14.429,4.748,17.888,17.888,0,0,0,1.181,2.211l-2.669,8.009a1.281,1.281,0,0,0,1.524,1.647l7.862-1.965a24.113,24.113,0,0,1,2.013,9.7l.028,5.124a14.132,14.132,0,0,0,2.292,7.648,9.551,9.551,0,0,1-3.971-.975Z" transform="translate(0 0)"/>
    </g>
  </g>
</svg>
