<svg xmlns="http://www.w3.org/2000/svg" width="120" height="120" viewBox="0 0 120 120">
  <g id="Grupo_1114749" data-name="Grupo 1114749" transform="translate(-64 -6445)">
    <rect id="Rect치ngulo_402033" data-name="Rect치ngulo 402033" width="120" height="120" rx="8" transform="translate(64 6445)" fill="#0042db"/>
    <g id="Rect치ngulo_412110" data-name="Rect치ngulo 412110" transform="translate(69 6450)" fill="none" stroke="#fff" stroke-width="1">
      <rect width="110" height="110" rx="6" stroke="none"/>
      <rect x="0.5" y="0.5" width="109" height="109" rx="5.5" fill="none"/>
    </g>
    <g id="Grupo_1115191" data-name="Grupo 1115191" transform="translate(83.477 6464.594)">
      <g id="Grupo_1115189" data-name="Grupo 1115189" transform="translate(2.4 2.262)">
        <g id="Grupo_1115157" data-name="Grupo 1115157" transform="translate(48.289 66.08)">
          <path id="Trazado_937913" data-name="Trazado 937913" d="M67.957,54V64.166H40V54H67.957Z" transform="translate(-40 -54)" fill="#cf9e76"/>
        </g>
        <g id="Grupo_1115158" data-name="Grupo 1115158" transform="translate(0 66.08)">
          <path id="Trazado_937914" data-name="Trazado 937914" d="M29.957,54V64.166H2V54H29.957Z" transform="translate(-2 -54)" fill="#cf9e76"/>
        </g>
        <g id="Grupo_1115159" data-name="Grupo 1115159" transform="translate(2.542 53.372)">
          <path id="Trazado_937915" data-name="Trazado 937915" d="M4,44H29.415V56.708H4Z" transform="translate(-4 -44)" fill="#e6e9ed"/>
        </g>
        <g id="Grupo_1115160" data-name="Grupo 1115160" transform="translate(48.289 53.372)">
          <path id="Trazado_937916" data-name="Trazado 937916" d="M40,44H65.415V56.708H40Z" transform="translate(-40 -44)" fill="#e6e9ed"/>
        </g>
        <g id="Grupo_1115161" data-name="Grupo 1115161" transform="translate(2.542 35.582)">
          <path id="Trazado_937917" data-name="Trazado 937917" d="M4,30H29.415V42.708H4Z" transform="translate(-4 -30)" fill="#e6e9ed"/>
        </g>
        <g id="Grupo_1115162" data-name="Grupo 1115162" transform="translate(48.289 35.582)">
          <path id="Trazado_937918" data-name="Trazado 937918" d="M40,30H65.415V42.708H40Z" transform="translate(-40 -30)" fill="#e6e9ed"/>
        </g>
        <g id="Grupo_1115163" data-name="Grupo 1115163" transform="translate(2.542 17.791)">
          <path id="Trazado_937919" data-name="Trazado 937919" d="M4,16H29.415V28.708H4Z" transform="translate(-4 -16)" fill="#e6e9ed"/>
        </g>
        <g id="Grupo_1115164" data-name="Grupo 1115164" transform="translate(48.289 17.791)">
          <path id="Trazado_937920" data-name="Trazado 937920" d="M40,16H65.415V28.708H40Z" transform="translate(-40 -16)" fill="#e6e9ed"/>
        </g>
        <g id="Grupo_1115165" data-name="Grupo 1115165" transform="translate(48.289 30.498)">
          <path id="Trazado_937921" data-name="Trazado 937921" d="M67.957,26v5.083H40V26H67.957Z" transform="translate(-40 -26)" fill="#ccd1d9"/>
        </g>
        <g id="Grupo_1115166" data-name="Grupo 1115166" transform="translate(48.289 48.289)">
          <path id="Trazado_937922" data-name="Trazado 937922" d="M67.957,40v5.083H40V40H67.957Z" transform="translate(-40 -40)" fill="#ccd1d9"/>
        </g>
        <g id="Grupo_1115167" data-name="Grupo 1115167" transform="translate(0 48.289)">
          <path id="Trazado_937923" data-name="Trazado 937923" d="M29.957,40v5.083H2V40H29.957Z" transform="translate(-2 -40)" fill="#ccd1d9"/>
        </g>
        <g id="Grupo_1115168" data-name="Grupo 1115168" transform="translate(0 30.498)">
          <path id="Trazado_937924" data-name="Trazado 937924" d="M29.957,26v5.083H2V26H29.957Z" transform="translate(-2 -26)" fill="#ccd1d9"/>
        </g>
        <g id="Grupo_1115169" data-name="Grupo 1115169" transform="translate(27.957 25.415)">
          <path id="Trazado_937925" data-name="Trazado 937925" d="M44.332,62.665V72.831H39.249V60.123a5.083,5.083,0,1,0-10.166,0V72.831H24V22H44.332V62.665ZM39.249,47.415V39.791H29.083v7.625Zm0-12.708V27.083H29.083v7.625Z" transform="translate(-24 -22)" fill="#ecc19c"/>
        </g>
        <g id="Grupo_1115170" data-name="Grupo 1115170" transform="translate(44.68 5.083)">
          <path id="Trazado_937926" data-name="Trazado 937926" d="M63.643,6l5.083,12.708H42.04l1.271-7.625C41.188,9.482,39.13,7.8,37.16,6Z" transform="translate(-37.16 -6)" fill="#ff826e"/>
        </g>
        <g id="Grupo_1115171" data-name="Grupo 1115171" transform="translate(0 5.083)">
          <path id="Trazado_937927" data-name="Trazado 937927" d="M7.083,6H33.566c-1.97,1.8-4.028,3.482-6.151,5.083l1.271,7.625H2Z" transform="translate(-2 -6)" fill="#ff826e"/>
        </g>
        <g id="Grupo_1115172" data-name="Grupo 1115172" transform="translate(53.372 58.455)">
          <path id="Trazado_937928" data-name="Trazado 937928" d="M44,48h5.083v7.625H44Z" transform="translate(-44 -48)" fill="#aab2bd"/>
        </g>
        <g id="Grupo_1115173" data-name="Grupo 1115173" transform="translate(63.538 58.455)">
          <path id="Trazado_937929" data-name="Trazado 937929" d="M52,48h5.083v7.625H52Z" transform="translate(-52 -48)" fill="#aab2bd"/>
        </g>
        <g id="Grupo_1115174" data-name="Grupo 1115174" transform="translate(63.538 40.665)">
          <path id="Trazado_937930" data-name="Trazado 937930" d="M52,34h5.083v7.625H52Z" transform="translate(-52 -34)" fill="#aab2bd"/>
        </g>
        <g id="Grupo_1115175" data-name="Grupo 1115175" transform="translate(53.372 40.665)">
          <path id="Trazado_937931" data-name="Trazado 937931" d="M44,34h5.083v7.625H44Z" transform="translate(-44 -34)" fill="#aab2bd"/>
        </g>
        <g id="Grupo_1115176" data-name="Grupo 1115176" transform="translate(63.538 22.874)">
          <path id="Trazado_937932" data-name="Trazado 937932" d="M52,20h5.083v7.625H52Z" transform="translate(-52 -20)" fill="#aab2bd"/>
        </g>
        <g id="Grupo_1115177" data-name="Grupo 1115177" transform="translate(53.372 22.874)">
          <path id="Trazado_937933" data-name="Trazado 937933" d="M44,20h5.083v7.625H44Z" transform="translate(-44 -20)" fill="#aab2bd"/>
        </g>
        <g id="Grupo_1115178" data-name="Grupo 1115178" transform="translate(7.625 22.874)">
          <path id="Trazado_937934" data-name="Trazado 937934" d="M8,20h5.083v7.625H8Z" transform="translate(-8 -20)" fill="#aab2bd"/>
        </g>
        <g id="Grupo_1115179" data-name="Grupo 1115179" transform="translate(17.791 22.874)">
          <path id="Trazado_937935" data-name="Trazado 937935" d="M16,20h5.083v7.625H16Z" transform="translate(-16 -20)" fill="#aab2bd"/>
        </g>
        <g id="Grupo_1115180" data-name="Grupo 1115180" transform="translate(17.791 40.665)">
          <path id="Trazado_937936" data-name="Trazado 937936" d="M16,34h5.083v7.625H16Z" transform="translate(-16 -34)" fill="#aab2bd"/>
        </g>
        <g id="Grupo_1115181" data-name="Grupo 1115181" transform="translate(7.625 40.665)">
          <path id="Trazado_937937" data-name="Trazado 937937" d="M8,34h5.083v7.625H8Z" transform="translate(-8 -34)" fill="#aab2bd"/>
        </g>
        <g id="Grupo_1115182" data-name="Grupo 1115182" transform="translate(17.791 58.455)">
          <path id="Trazado_937938" data-name="Trazado 937938" d="M16,48h5.083v7.625H16Z" transform="translate(-16 -48)" fill="#aab2bd"/>
        </g>
        <g id="Grupo_1115183" data-name="Grupo 1115183" transform="translate(7.625 58.455)">
          <path id="Trazado_937939" data-name="Trazado 937939" d="M8,48h5.083v7.625H8Z" transform="translate(-8 -48)" fill="#aab2bd"/>
        </g>
        <g id="Grupo_1115184" data-name="Grupo 1115184" transform="translate(33.04 58.455)">
          <path id="Trazado_937940" data-name="Trazado 937940" d="M38.166,53.083V65.791H28V53.083a5.083,5.083,0,0,1,10.166,0Z" transform="translate(-28 -48)" fill="#aab2bd"/>
        </g>
        <g id="Grupo_1115185" data-name="Grupo 1115185" transform="translate(33.04 43.206)">
          <path id="Trazado_937941" data-name="Trazado 937941" d="M28,36H38.166v7.625H28Z" transform="translate(-28 -36)" fill="#69d6f4"/>
        </g>
        <g id="Grupo_1115186" data-name="Grupo 1115186" transform="translate(33.04 30.498)">
          <path id="Trazado_937942" data-name="Trazado 937942" d="M28,26H38.166v7.625H28Z" transform="translate(-28 -26)" fill="#69d6f4"/>
        </g>
        <g id="Grupo_1115187" data-name="Grupo 1115187" transform="translate(25.415 10.166)">
          <path id="Trazado_937943" data-name="Trazado 937943" d="M47.415,10l-1.271,7.625-1.271,7.625H24.542l-1.271-7.625L22,10Z" transform="translate(-22 -10)" fill="#69d6f4"/>
        </g>
        <g id="Grupo_1115188" data-name="Grupo 1115188" transform="translate(25.415 0)">
          <path id="Trazado_937944" data-name="Trazado 937944" d="M28.151,7.083c1.169-1.029,2.313-2.109,3.431-3.228l.953-.953a3.068,3.068,0,0,1,4.346,0l.953.953c1.118,1.118,2.262,2.2,3.431,3.228,1.97,1.8,4.028,3.482,6.151,5.083H22C24.122,10.565,26.181,8.888,28.151,7.083Z" transform="translate(-22 -2)" fill="#fc6e51"/>
        </g>
      </g>
      <g id="Grupo_1115190" data-name="Grupo 1115190" transform="translate(0.523 1.033)">
        <path id="Trazado_937945" data-name="Trazado 937945" d="M39.708,25H27V35.166H39.708Zm-2.542,7.625H29.542V27.542h7.625Z" transform="translate(6.646 5.456)"/>
        <path id="Trazado_937946" data-name="Trazado 937946" d="M39.708,35H27V45.166H39.708Zm-2.542,7.625H29.542V37.542h7.625Z" transform="translate(6.646 8.164)"/>
        <path id="Trazado_937947" data-name="Trazado 937947" d="M77.375,21.323h3.148l-6.1-15.249H47.559c-1.023-.93-2.031-1.876-3.005-2.849l-.962-.963a4.446,4.446,0,0,0-6.137,0l-.962.963c-.975.973-1.982,1.919-3.005,2.849H6.623L.523,21.323H3.671V31.489H1.129v7.625H3.671V49.28H1.129V56.9H3.671V67.071H1.129V79.779H79.917V67.071H77.375V56.9h2.542V49.28H77.375V39.114h2.542V31.489H77.375ZM74.834,31.489H72.292V23.865H64.668v7.625H62.126V23.865H54.5v7.625H51.96V27.781l1.076-6.458h21.8Zm-5.083,0H67.209V26.406h2.542Zm-10.166,0H57.043V26.406h2.542ZM44.335,77.237H36.711V65.8a3.812,3.812,0,1,1,7.625,0ZM40.523,59.446A6.361,6.361,0,0,0,34.169,65.8V77.237H31.628V28.948H49.418V77.237H46.877V65.8A6.361,6.361,0,0,0,40.523,59.446Zm5.083-33.04V23.865h4.43l-.423,2.542Zm-14.173,0-.423-2.542h4.43v2.542Zm4.007-5.083H30.586l-.423-2.542H35.44Zm2.542-2.542h5.083v2.542H37.981Zm0,5.083h5.083v2.542H37.981ZM50.46,21.323H45.606V18.782h5.278Zm.846-5.083h-5.7V13.7h6.125Zm-8.242,0H37.981V13.7h5.083Zm-7.625,0h-5.7L29.316,13.7H35.44ZM72.7,8.616l4.066,10.166H53.459l1.151-6.908-.618-.463c-1.195-.9-2.361-1.836-3.514-2.8ZM38.29,5.022l.962-.963a1.837,1.837,0,0,1,2.54,0l.963.963a91.218,91.218,0,0,0,6.792,6.135H31.5A91.218,91.218,0,0,0,38.29,5.022ZM8.343,8.616H30.567c-1.153.959-2.319,1.9-3.514,2.8l-.618.463,1.151,6.908H4.277ZM6.212,21.323h21.8l1.076,6.458v3.708H26.545V23.865H18.92v7.625H16.378V23.865H8.754v7.625H6.212ZM24,31.489H21.461V26.406H24Zm-10.166,0H11.3V26.406h2.542ZM3.671,34.031H29.086v2.542H3.671Zm2.542,5.083H29.086V49.28H26.545V41.656H18.92V49.28H16.378V41.656H8.754V49.28H6.212ZM24,49.28H21.461V44.2H24Zm-10.166,0H11.3V44.2h2.542ZM3.671,51.822H29.086v2.542H3.671ZM6.212,56.9H29.086V67.071H26.545V59.446H18.92v7.625H16.378V59.446H8.754v7.625H6.212ZM24,67.071H21.461V61.988H24Zm-10.166,0H11.3V61.988h2.542ZM3.671,69.613H29.086v7.625H3.671Zm73.7,7.625H51.96V69.613H77.375ZM59.585,67.071H57.043V61.988h2.542Zm10.166,0H67.209V61.988h2.542Zm5.083,0H72.292V59.446H64.668v7.625H62.126V59.446H54.5v7.625H51.96V56.9H74.834Zm2.542-12.708H51.96V51.822H77.375ZM59.585,49.28H57.043V44.2h2.542Zm10.166,0H67.209V44.2h2.542Zm5.083,0H72.292V41.656H64.668V49.28H62.126V41.656H54.5V49.28H51.96V39.114H74.834Zm2.542-12.708H51.96V34.031H77.375Z" transform="translate(-0.523 -1.033)"/>
      </g>
    </g>
  </g>
</svg>
