<svg xmlns="http://www.w3.org/2000/svg" width="70" height="70" viewBox="0 0 70 70">
  <g id="Grupo_1114919" data-name="Grupo 1114919" transform="translate(-269 -958)">
    <circle id="Elipse_5614" data-name="Elipse 5614" cx="35" cy="35" r="35" transform="translate(269 958)" fill="#fff"/>
    <g id="Grupo_1115551" data-name="Grupo 1115551" transform="translate(-368 897.087)">
      <g id="SOLID">
        <path id="Trazado_940246" data-name="Trazado 940246" d="M658.318,111.323a5.335,5.335,0,0,1,1.682,3.92,2.288,2.288,0,0,1-1.351,2,9.184,9.184,0,0,1-7.3,0,2.289,2.289,0,0,1-1.351-2,5.288,5.288,0,0,1,2.522-4.553A3,3,0,1,1,658,109c0,.045,0,.089,0,.133l5.169-3.446A10,10,0,0,1,671,91.049v-5.1a7.1,7.1,0,0,1-2.649-.709,2.289,2.289,0,0,1-1.351-2,5.288,5.288,0,0,1,2.522-4.553,3,3,0,1,1,4.956,0A5.288,5.288,0,0,1,677,83.243a2.288,2.288,0,0,1-1.351,2,7.1,7.1,0,0,1-2.649.709v5.1a10,10,0,0,1,7.834,14.638L686,109.133c0-.044,0-.088,0-.133a3,3,0,1,1,5.478,1.69A5.288,5.288,0,0,1,694,115.243a2.288,2.288,0,0,1-1.351,2,9.184,9.184,0,0,1-7.3,0,2.289,2.289,0,0,1-1.351-2,5.335,5.335,0,0,1,1.682-3.92l-5.959-3.973a10,10,0,0,1-15.446,0ZM672,78a1,1,0,1,0-1-1A1,1,0,0,0,672,78Zm17,32a1,1,0,1,0-1-1A1,1,0,0,0,689,110Zm-34,0a1,1,0,1,0-1-1A1,1,0,0,0,655,110Zm14-14v7.131l-1.445-.963a1,1,0,0,0-1.11,1.664l3,2A1,1,0,0,0,671,105V96a1,1,0,0,0-2,0Zm6,9V97.869l1.445.963a1,1,0,0,0,1.11-1.664l-3-2A1,1,0,0,0,673,96v9a1,1,0,0,0,2,0Z" fill="#0042db" fill-rule="evenodd"/>
      </g>
    </g>
  </g>
</svg>
