<svg xmlns="http://www.w3.org/2000/svg" width="120" height="120" viewBox="0 0 120 120">
  <g id="Grupo_1114729" data-name="Grupo 1114729" transform="translate(-64 -6445)">
    <rect id="Rect치ngulo_402033" data-name="Rect치ngulo 402033" width="120" height="120" rx="8" transform="translate(64 6445)" fill="#0042db"/>
    <g id="Rect치ngulo_412110" data-name="Rect치ngulo 412110" transform="translate(69 6450)" fill="none" stroke="#fff" stroke-width="1">
      <rect width="110" height="110" rx="6" stroke="none"/>
      <rect x="0.5" y="0.5" width="109" height="109" rx="5.5" fill="none"/>
    </g>
    <g id="Grupo_1114977" data-name="Grupo 1114977" transform="translate(79.141 6459.194)">
      <g id="Grupo_1114972" data-name="Grupo 1114972" transform="translate(5.662 7.766)">
        <g id="Grupo_1114925" data-name="Grupo 1114925" transform="translate(0 55.002)">
          <path id="Trazado_937644" data-name="Trazado 937644" d="M19.918,187.532l-.016.353-.2,4.682-.2,4.685-.2,4.682H7.36V180.857l10.359,5.507Z" transform="translate(-7.36 -180.857)" fill="#efbf27"/>
        </g>
        <g id="Grupo_1114926" data-name="Grupo 1114926" transform="translate(20.792 55.002)">
          <path id="Trazado_937645" data-name="Trazado 937645" d="M83.9,184.288l-.132,3.135-.3,7.256-.3,7.256h-10.3l-.2-4.682-.2-4.685-.2-4.682-.122-2.908,2.3,1.223,2.994,1.589v-6.932l4.259,2.262Z" transform="translate(-72.15 -180.857)" fill="#efbf27"/>
        </g>
        <g id="Grupo_1114927" data-name="Grupo 1114927" transform="translate(45.859 55.002)">
          <path id="Trazado_937646" data-name="Trazado 937646" d="M165.857,185.793l-.209,4.9-.234,5.622-.235,5.62H150.992l-.3-7.256-.3-7.256-.125-2.985,2.3,1.223,4.005,2.128v-6.932l7.092,3.768Z" transform="translate(-150.26 -180.857)" fill="#efbf27"/>
        </g>
        <g id="Grupo_1114928" data-name="Grupo 1114928" transform="translate(71.491 58.343)">
          <path id="Trazado_937647" data-name="Trazado 937647" d="M237.033,194.935V209h-6.162l-.234-5.619-.234-5.622-.234-5.619-.039-.876,2.3,1.223Z" transform="translate(-230.13 -191.267)" fill="#efbf27"/>
        </g>
        <g id="Grupo_1114929" data-name="Grupo 1114929" transform="translate(29.557 57.265)">
          <path id="Trazado_937648" data-name="Trazado 937648" d="M100.246,187.907l2.2,1.168-.132,3.135-.3,7.256-.3,7.256H99.46S100.192,189.2,100.246,187.907Z" transform="translate(-99.46 -187.907)" fill="#ce9320"/>
        </g>
        <g id="Grupo_1114930" data-name="Grupo 1114930" transform="translate(45.859 58.584)">
          <path id="Trazado_937649" data-name="Trazado 937649" d="M153.238,209.513h-2.246l-.3-7.256-.3-7.256-.125-2.985,2.3,1.223C152.564,193.311,153.238,209.443,153.238,209.513Z" transform="translate(-150.26 -192.017)" fill="#ce9320"/>
        </g>
        <g id="Grupo_1114931" data-name="Grupo 1114931" transform="translate(31.803 32.544)">
          <path id="Trazado_937650" data-name="Trazado 937650" d="M121.248,154.413H106.46l.3-7.256.3-7.256.132-3.135.173-4.121.3-7.256.3-7.256.3-7.256h11.149l.3,7.256.3,7.256.3,7.256.177,4.271.125,2.985.3,7.256Z" transform="translate(-106.46 -110.877)" fill="#eee"/>
        </g>
        <g id="Grupo_1114932" data-name="Grupo 1114932" transform="translate(41.973 60.766)">
          <path id="Trazado_937651" data-name="Trazado 937651" d="M139.254,207.678a.8.8,0,0,1-.8-.769l-.3-7.256a.8.8,0,0,1,1.6-.067l.3,7.256A.8.8,0,0,1,139.254,207.678Z" transform="translate(-138.151 -198.817)" fill="#fff"/>
        </g>
        <g id="Grupo_1114933" data-name="Grupo 1114933" transform="translate(40.892 34.95)">
          <path id="Trazado_937652" data-name="Trazado 937652" d="M134.951,123.258l-.17-4.047a.8.8,0,0,1,1.6-.067l.17,4.047a.8.8,0,0,1-1.6.067Z" transform="translate(-134.781 -118.375)" fill="#fff"/>
        </g>
        <g id="Grupo_1114934" data-name="Grupo 1114934" transform="translate(41.363 46.253)">
          <path id="Trazado_937653" data-name="Trazado 937653" d="M136.555,161.688l-.3-7.256a.8.8,0,0,1,1.6-.067l.3,7.256a.8.8,0,0,1-1.6.067Z" transform="translate(-136.25 -153.595)" fill="#fff"/>
        </g>
        <g id="Grupo_1114935" data-name="Grupo 1114935" transform="translate(31.803 68.824)">
          <path id="Trazado_937654" data-name="Trazado 937654" d="M121.248,231.183H106.46l.3-7.256h14.181Z" transform="translate(-106.46 -223.927)" fill="#fb5c3c"/>
        </g>
        <g id="Grupo_1114936" data-name="Grupo 1114936" transform="translate(42.274 68.021)">
          <path id="Trazado_937655" data-name="Trazado 937655" d="M140.062,227.077a.8.8,0,0,1-.8-.769l-.17-4.047a.8.8,0,0,1,.768-.835.791.791,0,0,1,.836.768l.17,4.047A.8.8,0,0,1,140.062,227.077Z" transform="translate(-139.09 -221.425)" fill="#ffcac2"/>
        </g>
        <g id="Grupo_1114937" data-name="Grupo 1114937" transform="translate(32.41 54.312)">
          <path id="Trazado_937656" data-name="Trazado 937656" d="M121.925,185.963H108.35l.132-3.135.173-4.121h12.968l.177,4.271Z" transform="translate(-108.35 -178.707)" fill="#fb5c3c"/>
        </g>
        <g id="Grupo_1114938" data-name="Grupo 1114938" transform="translate(41.668 53.509)">
          <path id="Trazado_937657" data-name="Trazado 937657" d="M137.506,184.3l-.3-7.256a.8.8,0,0,1,1.6-.067l.3,7.256a.8.8,0,0,1-1.6.067Z" transform="translate(-137.201 -176.206)" fill="#ffcac2"/>
        </g>
        <g id="Grupo_1114939" data-name="Grupo 1114939" transform="translate(33.016 39.8)">
          <path id="Trazado_937658" data-name="Trazado 937658" d="M122.6,140.743H110.24l.3-7.256H122.3Z" transform="translate(-110.24 -133.487)" fill="#fb5c3c"/>
        </g>
        <g id="Grupo_1114940" data-name="Grupo 1114940" transform="translate(41.061 38.998)">
          <path id="Trazado_937659" data-name="Trazado 937659" d="M135.612,139.078l-.3-7.256a.8.8,0,0,1,1.6-.067l.3,7.256a.8.8,0,0,1-1.6.067Z" transform="translate(-135.31 -130.987)" fill="#ffcac2"/>
        </g>
        <g id="Grupo_1114941" data-name="Grupo 1114941" transform="translate(58.533 58.77)">
          <path id="Trazado_937660" data-name="Trazado 937660" d="M190.476,192.6l2.2,1.168-.209,4.9-.234,5.622-.235,5.62h-2.246c0-.12.72-17.19.725-17.31Z" transform="translate(-189.751 -192.597)" fill="#ce9320"/>
        </g>
        <g id="Grupo_1114942" data-name="Grupo 1114942" transform="translate(71.491 58.343)">
          <path id="Trazado_937661" data-name="Trazado 937661" d="M233.118,209h-2.246l-.234-5.619-.234-5.622-.234-5.619-.039-.876,2.3,1.223c.176,4.285.687,16.514.687,16.514Z" transform="translate(-230.13 -191.267)" fill="#ce9320"/>
        </g>
        <g id="Grupo_1114943" data-name="Grupo 1114943" transform="translate(60.779 42.358)">
          <path id="Trazado_937662" data-name="Trazado 937662" d="M208.2,175.179H196.75l.235-5.62.234-5.622.209-4.9.029-.719.234-5.619.234-5.622.234-5.619h8.636l.234,5.619.234,5.622.2,4.743.038.876.234,5.619.234,5.622Z" transform="translate(-196.75 -141.457)" fill="#eee"/>
        </g>
        <g id="Grupo_1114944" data-name="Grupo 1114944" transform="translate(67.28 52.797)">
          <path id="Trazado_937663" data-name="Trazado 937663" d="M217.245,180.442l-.234-5.619a.8.8,0,0,1,1.6-.067l.234,5.619a.8.8,0,0,1-1.6.067Z" transform="translate(-217.01 -173.987)" fill="#fff"/>
        </g>
        <g id="Grupo_1114945" data-name="Grupo 1114945" transform="translate(66.943 44.765)">
          <path id="Trazado_937664" data-name="Trazado 937664" d="M216.861,152.972a.8.8,0,0,1-.8-.769l-.1-2.41a.8.8,0,0,1,.769-.835.812.812,0,0,1,.835.769l.1,2.41A.8.8,0,0,1,216.861,152.972Z" transform="translate(-215.96 -148.957)" fill="#fff"/>
        </g>
        <g id="Grupo_1114946" data-name="Grupo 1114946" transform="translate(67.749 64.036)">
          <path id="Trazado_937665" data-name="Trazado 937665" d="M218.7,215.465l-.234-5.622a.8.8,0,0,1,1.6-.067l.234,5.622a.8.8,0,0,1-1.6.067Z" transform="translate(-218.47 -209.007)" fill="#fff"/>
        </g>
        <g id="Grupo_1114947" data-name="Grupo 1114947" transform="translate(60.779 70.46)">
          <path id="Trazado_937666" data-name="Trazado 937666" d="M208.2,234.644H196.75l.235-5.62H207.97Z" transform="translate(-196.75 -229.024)" fill="#fb5c3c"/>
        </g>
        <g id="Grupo_1114948" data-name="Grupo 1114948" transform="translate(67.983 69.659)">
          <path id="Trazado_937667" data-name="Trazado 937667" d="M219.338,230.656l-.138-3.293a.8.8,0,1,1,1.6-.067l.138,3.293a.8.8,0,1,1-1.6.067Z" transform="translate(-219.2 -226.527)" fill="#fff"/>
        </g>
        <g id="Grupo_1114949" data-name="Grupo 1114949" transform="translate(61.247 59.219)">
          <path id="Trazado_937668" data-name="Trazado 937668" d="M208.726,199.616H198.21l.209-4.9.029-.719h10.045Z" transform="translate(-198.21 -193.997)" fill="#fb5c3c"/>
        </g>
        <g id="Grupo_1114950" data-name="Grupo 1114950" transform="translate(67.515 58.416)">
          <path id="Trazado_937669" data-name="Trazado 937669" d="M217.975,197.951l-.234-5.619a.8.8,0,0,1,.768-.835.794.794,0,0,1,.835.768l.234,5.619a.8.8,0,0,1-1.6.067Z" transform="translate(-217.741 -191.496)" fill="#fff"/>
        </g>
        <g id="Grupo_1114951" data-name="Grupo 1114951" transform="translate(61.717 47.978)">
          <path id="Trazado_937670" data-name="Trazado 937670" d="M209.25,164.591h-9.575l.236-5.621h9.105Z" transform="translate(-199.675 -158.97)" fill="#fb5c3c"/>
        </g>
        <g id="Grupo_1114952" data-name="Grupo 1114952" transform="translate(67.043 47.174)">
          <path id="Trazado_937671" data-name="Trazado 937671" d="M217.309,163.692a.8.8,0,0,1-.8-.769l-.237-5.622a.8.8,0,0,1,1.6-.068l.237,5.622A.8.8,0,0,1,217.309,163.692Z" transform="translate(-216.27 -156.464)" fill="#fff"/>
        </g>
        <g id="Grupo_1114953" data-name="Grupo 1114953" transform="translate(9.708 60.509)">
          <path id="Trazado_937672" data-name="Trazado 937672" d="M38.261,198.017l2.2,1.168-.016.353-.2,4.682-.2,4.685-.2,4.682H37.61c0-.086.648-15.485.651-15.571Z" transform="translate(-37.61 -198.017)" fill="#ce9320"/>
        </g>
        <g id="Grupo_1114954" data-name="Grupo 1114954" transform="translate(20.792 59.123)">
          <path id="Trazado_937673" data-name="Trazado 937673" d="M75.106,210.654H72.859l-.2-4.682-.2-4.685-.2-4.682L72.15,193.7l2.3,1.223C74.449,194.945,75.106,210.628,75.106,210.654Z" transform="translate(-72.15 -193.697)" fill="#ce9320"/>
        </g>
        <g id="Grupo_1114955" data-name="Grupo 1114955" transform="translate(11.954 47.977)">
          <path id="Trazado_937674" data-name="Trazado 937674" d="M54.157,187.07H44.61l.2-4.682L45,177.7l.2-4.682.016-.353.18-4.332.2-4.682.2-4.685h7.2l.2,4.685.2,4.682.074,1.778.122,2.908.2,4.682.2,4.685Z" transform="translate(-44.61 -158.967)" fill="#eee"/>
        </g>
        <g id="Grupo_1114956" data-name="Grupo 1114956" transform="translate(16.704 56.542)">
          <path id="Trazado_937675" data-name="Trazado 937675" d="M60.408,191.946a.8.8,0,0,1-.8-.769l-.2-4.685a.8.8,0,0,1,.768-.835.8.8,0,0,1,.835.768l.2,4.685A.8.8,0,0,1,60.408,191.946Z" transform="translate(-59.411 -185.656)" fill="#fff"/>
        </g>
        <g id="Grupo_1114957" data-name="Grupo 1114957" transform="translate(16.447 50.384)">
          <path id="Trazado_937676" data-name="Trazado 937676" d="M59.473,169.547a.8.8,0,0,1-.8-.769l-.061-1.476a.8.8,0,0,1,1.6-.066l.061,1.476A.8.8,0,0,1,59.473,169.547Z" transform="translate(-58.611 -166.467)" fill="#fff"/>
        </g>
        <g id="Grupo_1114958" data-name="Grupo 1114958" transform="translate(17.095 65.91)">
          <path id="Trazado_937677" data-name="Trazado 937677" d="M61.627,221.136a.8.8,0,0,1-.8-.769l-.2-4.685a.8.8,0,1,1,1.6-.067l.2,4.685A.8.8,0,0,1,61.627,221.136Z" transform="translate(-60.63 -214.846)" fill="#fff"/>
        </g>
        <g id="Grupo_1114959" data-name="Grupo 1114959" transform="translate(11.954 71.398)">
          <path id="Trazado_937678" data-name="Trazado 937678" d="M54.157,236.629H44.61l.2-4.682h9.156Z" transform="translate(-44.61 -231.947)" fill="#fb5c3c"/>
        </g>
        <g id="Grupo_1114960" data-name="Grupo 1114960" transform="translate(17.291 70.595)">
          <path id="Trazado_937679" data-name="Trazado 937679" d="M62.1,232.524a.8.8,0,0,1-.8-.769l-.061-1.473a.8.8,0,0,1,1.6-.066l.061,1.473A.8.8,0,0,1,62.1,232.524Z" transform="translate(-61.241 -229.446)" fill="#ffcac2"/>
        </g>
        <g id="Grupo_1114961" data-name="Grupo 1114961" transform="translate(12.346 62.029)">
          <path id="Trazado_937680" data-name="Trazado 937680" d="M54.593,207.437H45.831l.2-4.683H54.4Z" transform="translate(-45.831 -202.754)" fill="#fb5c3c"/>
        </g>
        <g id="Grupo_1114962" data-name="Grupo 1114962" transform="translate(16.899 61.227)">
          <path id="Trazado_937681" data-name="Trazado 937681" d="M61.017,206.543a.8.8,0,0,1-.8-.769l-.2-4.682a.8.8,0,1,1,1.6-.067l.2,4.682A.8.8,0,0,1,61.017,206.543Z" transform="translate(-60.02 -200.255)" fill="#ffcac2"/>
        </g>
        <g id="Grupo_1114963" data-name="Grupo 1114963" transform="translate(12.737 52.663)">
          <path id="Trazado_937682" data-name="Trazado 937682" d="M55.031,178.249H47.05l.2-4.682h7.59Z" transform="translate(-47.05 -173.567)" fill="#fb5c3c"/>
        </g>
        <g id="Grupo_1114964" data-name="Grupo 1114964" transform="translate(16.508 51.86)">
          <path id="Trazado_937683" data-name="Trazado 937683" d="M59.8,177.353a.8.8,0,0,1-.8-.769l-.2-4.682a.8.8,0,0,1,1.6-.067l.2,4.682A.8.8,0,0,1,59.8,177.353Z" transform="translate(-58.8 -171.066)" fill="#ffcac2"/>
        </g>
        <g id="Grupo_1114965" data-name="Grupo 1114965" transform="translate(0.001 0)">
          <path id="Trazado_937684" data-name="Trazado 937684" d="M85.757,28.228a5.929,5.929,0,0,1-5.95,5.86,3.189,3.189,0,0,0-3.187,3.19V51.825h-5.5V37.278a3.19,3.19,0,0,0-3.19-3.19H53.386a3.19,3.19,0,0,0-3.19,3.19v4.734H42.924V37.278a3.19,3.19,0,0,0-3.19-3.19H29.372a3.19,3.19,0,0,0-3.19,3.19V57.444H22V37.278a3.19,3.19,0,0,0-3.19-3.19H13.294a5.9,5.9,0,0,1-5.927-5.934,5.783,5.783,0,0,1,8.241-5.083,7.393,7.393,0,0,1,8.893-3.36A12.307,12.307,0,0,1,48.746,19.6a7.4,7.4,0,0,1,9.387,5.9,4.548,4.548,0,0,1,4.044-.138A8.439,8.439,0,0,1,78.52,22.708a5.78,5.78,0,0,1,7.237,5.52Z" transform="translate(-7.365 -9.467)" fill="#aeaeae"/>
        </g>
        <g id="Grupo_1114966" data-name="Grupo 1114966" transform="translate(2.409 12.257)">
          <path id="Trazado_937685" data-name="Trazado 937685" d="M15.67,54.972h-.02a.8.8,0,0,1-.783-.822,3.394,3.394,0,0,1,3.374-3.289c1.251,0,1.446.554,2.458.554a2.412,2.412,0,0,0,2.1-1.227,4.99,4.99,0,0,1,1.294-1.5.8.8,0,0,1,.984,1.268,3.389,3.389,0,0,0-.88,1.02,4.018,4.018,0,0,1-3.5,2.044c-1.381,0-1.653-.554-2.458-.554a1.779,1.779,0,0,0-1.771,1.723.8.8,0,0,1-.8.783Zm12.6-5.539a3.414,3.414,0,0,0-.757-.172.8.8,0,0,1,.172-1.6,4.985,4.985,0,0,1,1.116.253.8.8,0,1,1-.531,1.514Z" transform="translate(-14.867 -47.661)" fill="#eee"/>
        </g>
        <g id="Grupo_1114967" data-name="Grupo 1114967" transform="translate(35.561 30.298)">
          <path id="Trazado_937686" data-name="Trazado 937686" d="M118.17,103.877h7.272v2.246H118.17Z" transform="translate(-118.17 -103.877)" fill="#868686"/>
        </g>
        <g id="Grupo_1114968" data-name="Grupo 1114968" transform="translate(63.754 40.112)">
          <path id="Trazado_937687" data-name="Trazado 937687" d="M206.02,134.457h5.5V136.7h-5.5Z" transform="translate(-206.02 -134.457)" fill="#868686"/>
        </g>
        <g id="Grupo_1114969" data-name="Grupo 1114969" transform="translate(14.637 45.731)">
          <path id="Trazado_937688" data-name="Trazado 937688" d="M52.97,151.967h4.182v2.246H52.97Z" transform="translate(-52.97 -151.967)" fill="#868686"/>
        </g>
        <g id="Grupo_1114970" data-name="Grupo 1114970" transform="translate(28.468 2.407)">
          <path id="Trazado_937689" data-name="Trazado 937689" d="M114.409,31.231a3.32,3.32,0,0,0-.213-.744.8.8,0,1,1,1.481-.617,4.926,4.926,0,0,1,.315,1.1.8.8,0,0,1-1.584.258Zm-1.994-2.552a3.338,3.338,0,0,0-2.3-.144,4.009,4.009,0,0,1-5.078-3.142,8.281,8.281,0,0,0-8.165-6.823.8.8,0,1,1,0-1.6,9.884,9.884,0,0,1,9.744,8.145A2.4,2.4,0,0,0,109.661,27a4.947,4.947,0,0,1,3.4.215.8.8,0,0,1-.648,1.468Z" transform="translate(-96.068 -16.966)" fill="#eee"/>
        </g>
        <g id="Grupo_1114971" data-name="Grupo 1114971" transform="translate(62.442 10.148)">
          <path id="Trazado_937690" data-name="Trazado 937690" d="M213.872,49.752a1.767,1.767,0,0,0-.13-.644.8.8,0,1,1,1.486-.606,3.353,3.353,0,0,1,.249,1.231.8.8,0,1,1-1.6.02Zm-6.986-4.173a4.448,4.448,0,0,0-4.152-2.886.8.8,0,0,1,0-1.6,6.06,6.06,0,0,1,5.656,3.931,2.411,2.411,0,0,0,2.86,1.491,3.509,3.509,0,0,1,.635-.1.8.8,0,1,1,.112,1.6,1.906,1.906,0,0,0-.345.057A4.018,4.018,0,0,1,206.886,45.579Z" transform="translate(-201.932 -41.089)" fill="#eee"/>
        </g>
      </g>
      <g id="Grupo_1114973" data-name="Grupo 1114973" transform="translate(28.128 8.53)">
        <path id="Trazado_937691" data-name="Trazado 937691" d="M77.775,11.946h0a.8.8,0,0,0,.786,1.4h0a.8.8,0,0,0,.308-1.091A.823.823,0,0,0,77.775,11.946Z" transform="translate(-77.366 -11.849)"/>
      </g>
      <g id="Grupo_1114974" data-name="Grupo 1114974" transform="translate(4.86 6.962)">
        <path id="Trazado_937692" data-name="Trazado 937692" d="M11.593,33.187h5.517A2.4,2.4,0,0,1,19.5,35.575V54.941h-.706a.8.8,0,0,0-.8.769L17.47,68.136,6.039,62.06a.8.8,0,0,0-.754,1.417L17.4,69.914l-.581,13.9a.8.8,0,0,0,1.6.067l.164-3.914H26.2l.164,3.914a.8.8,0,0,0,1.6-.067l-.65-15.558,4.055,2.154a.8.8,0,0,0,1.178-.709V64.1l4.831,2.567-.717,17.142a.8.8,0,0,0,1.6.067l.271-6.486H40.98a.8.8,0,1,0,0-1.6H38.606l.236-5.653H50.878l.236,5.653H47.4a.8.8,0,1,0,0,1.6H51.18l.271,6.485a.8.8,0,0,0,1.6-.067c-.075-1.793-.366-8.749-.673-16.1l5.07,2.692A.8.8,0,0,0,58.63,69.7V64.1l.279.151a.8.8,0,0,0,.754-1.418L58.2,62.06a.8.8,0,0,0-1.178.709v5.6l-4.721-2.508c-.209-4.991-.854-20.426-1.069-25.582a.8.8,0,0,0-.8-.769H49.3V35.576a2.39,2.39,0,0,1,2.387-2.387H66.228a2.39,2.39,0,0,1,2.387,2.387V49.322h-.764a.8.8,0,0,0-.8.769L66.368,66.4l-1.036-.55a.8.8,0,1,0-.751,1.415l1.713.91c-.063,1.517-.589,14.105-.653,15.64a.8.8,0,0,0,1.6.067l.2-4.852h9.445l.2,4.852a.8.8,0,0,0,1.6-.067c-.061-1.466-.6-14.351-.683-16.338l5.666,3.011a.8.8,0,1,0,.753-1.417l-6.5-3.452c-.158-3.789-.525-12.565-.649-15.526a.8.8,0,0,0-.8-.769h-.764V35.575a2.4,2.4,0,0,1,2.384-2.388,6.718,6.718,0,0,0,6.752-6.672,6.578,6.578,0,0,0-7.551-6.425A9.24,9.24,0,0,0,59.77,22.578,5.355,5.355,0,0,0,57,22.69a8.217,8.217,0,0,0-9.345-5.767,13.119,13.119,0,0,0-15.953-9.56A.8.8,0,1,0,32.1,8.92a11.509,11.509,0,0,1,14.156,9.117.8.8,0,0,0,1.014.626,6.616,6.616,0,0,1,8.37,5.263.8.8,0,0,0,1.175.574,3.784,3.784,0,0,1,3.331-.112.8.8,0,0,0,1.133-.7,7.6,7.6,0,0,1,7.628-7.378h0a7.675,7.675,0,0,1,7.16,4.981.817.817,0,0,0,.953.5,4.973,4.973,0,0,1,6.232,4.753,5.13,5.13,0,0,1-5.148,5.048,4,4,0,0,0-3.989,3.989V49.322h-3.9V35.576a4,4,0,0,0-3.992-3.992H51.687A4,4,0,0,0,47.7,35.576v3.932H42.026V35.576a4,4,0,0,0-3.992-3.992H27.67a4,4,0,0,0-3.992,3.992V54.941H21.1V35.575a4,4,0,0,0-3.992-3.989H11.593a5.1,5.1,0,0,1-5.125-5.112,4.982,4.982,0,0,1,7.1-4.377.823.823,0,0,0,1.043-.334,6.593,6.593,0,0,1,7.927-2.994.808.808,0,0,0,1.059-.626,11.412,11.412,0,0,1,3.331-6.329.8.8,0,0,0,.016-1.133.819.819,0,0,0-1.133-.019A13.114,13.114,0,0,0,22.186,17a8.194,8.194,0,0,0-8.6,3.376,6.584,6.584,0,0,0-8.719,6.059,6.686,6.686,0,0,0,6.73,6.755ZM75.716,50.926l.168,4.016H68.452l.168-4.016Zm.637,15.256H67.982l.168-4.016h8.036Zm-8.137-5.62.168-4.016h7.566l.168,4.016Zm-.3,7.225H76.42l.168,4.015H67.747Zm-.4,9.636.168-4.017h8.975l.168,4.017ZM25.22,56.545l.129,3.081H19.431l.129-3.081Zm.324,7.763H19.236l.129-3.078h6.051ZM18.973,70.6h6.834l.129,3.079H18.845Zm.067-1.6.129-3.08h6.442l.129,3.08Zm-.392,9.369.129-3.08H26l.129,3.08Zm20.8-22.737H50.27l.236,5.651h-11.3ZM50.2,54.02H39.515l.236-5.651H49.968Zm-11.3,14.512.236-5.651H50.574l.236,5.651ZM49.9,46.764H39.818l.236-5.651h9.61ZM25.283,35.576a2.39,2.39,0,0,1,2.387-2.387H38.033a2.39,2.39,0,0,1,2.387,2.387v3.932H39.285a.8.8,0,0,0-.8.769L37.455,64.892l-5.332-2.833a.8.8,0,0,0-1.179.709v5.6L27.238,66.4,26.791,55.71a.8.8,0,0,0-.8-.769h-.706Z" transform="translate(-4.86 -6.962)"/>
      </g>
      <g id="Grupo_1114975" data-name="Grupo 1114975" transform="translate(61.318 64.246)">
        <path id="Trazado_937693" data-name="Trazado 937693" d="M182.3,186.64a.8.8,0,1,0-1.085.334A.8.8,0,0,0,182.3,186.64Z" transform="translate(-180.787 -185.462)"/>
      </g>
      <g id="Grupo_1114976" data-name="Grupo 1114976" transform="translate(43.386 75.789)">
        <path id="Trazado_937694" data-name="Trazado 937694" d="M126.515,222.231a.8.8,0,1,0-.8.806A.8.8,0,0,0,126.515,222.231Z" transform="translate(-124.91 -221.432)"/>
      </g>
    </g>
  </g>
</svg>
