<svg xmlns="http://www.w3.org/2000/svg" width="100" height="100" viewBox="0 0 100 100">
  <g id="Grupo_1114779" data-name="Grupo 1114779" transform="translate(-285.332 -8115.087)">
    <g id="Grupo_156312" data-name="Grupo 156312" transform="translate(285.332 8115.087)">
      <path id="Elipse_5845" data-name="Elipse 5845" d="M50,0A50,50,0,1,1,0,50,50,50,0,0,1,50,0Z" transform="translate(0 0)" fill="#66d16a"/>
    </g>
    <path id="Trazado_937912" data-name="Trazado 937912" d="M73.03,28.51V48.845a.706.706,0,0,1-.052.288A121.423,121.423,0,0,1,61.794,72.825l.8,6.044a.934.934,0,0,1-.787,1.036c-.039,0-.079.013-.118.013a.908.908,0,0,1-.9-.8l-.839-6.359a.894.894,0,0,1,.131-.6A120.136,120.136,0,0,0,71.221,48.7V28.51a.113.113,0,0,0-.1-.1A3.611,3.611,0,0,0,67.6,31.971l-.787,13.7a.943.943,0,0,1-.17.485l-6.477,8.85-1.429,6.411a.913.913,0,0,1-1.783-.393L59.88,47.612a2.085,2.085,0,0,0-1.049-2.53c-.892-.367-2.19-.118-2.95,1.744L49.47,62.572a15.832,15.832,0,0,0-.983,7.486l.629,8.863a.92.92,0,1,1-1.836.131l-.629-8.863a17.586,17.586,0,0,1,1.114-8.312l6.411-15.746c1.18-2.9,3.592-3.461,5.349-2.753a3.876,3.876,0,0,1,2.163,4.615l-.564,2.57,3.868-5.284.774-13.426a5.418,5.418,0,0,1,5.336-5.3A1.953,1.953,0,0,1,73.03,28.51ZM26.853,46.131c-1.18-2.9-3.592-3.461-5.336-2.753a3.863,3.863,0,0,0-2.163,4.615l.564,2.57L16.05,45.279l-.774-13.426A5.406,5.406,0,0,0,9.94,26.569,1.936,1.936,0,0,0,8,28.51V48.845a.706.706,0,0,0,.052.288A120.622,120.622,0,0,0,19.236,72.825l-.8,6.044a.934.934,0,0,0,.787,1.036c.039,0,.079.013.118.013a.908.908,0,0,0,.9-.8l.839-6.359a.894.894,0,0,0-.131-.6A119.344,119.344,0,0,1,9.809,48.7V28.51a.113.113,0,0,1,.1-.1,3.611,3.611,0,0,1,3.514,3.566l.787,13.7a.943.943,0,0,0,.17.485l6.477,8.85,1.4,6.411a.913.913,0,0,0,1.783-.393L21.124,47.612a2.085,2.085,0,0,1,1.049-2.53c.892-.367,2.19-.118,2.95,1.744l6.411,15.746a15.832,15.832,0,0,1,.983,7.486l-.629,8.863a.92.92,0,0,0,1.836.131l.629-8.863a17.587,17.587,0,0,0-1.114-8.312ZM40.935,57.786a.892.892,0,0,1-.839,0,24.909,24.909,0,0,1-8.758-6.9,10.134,10.134,0,0,1-2.2-6.8,7.8,7.8,0,0,1,.511-2.216h-9.2a.912.912,0,0,1-.918-.918V33.059a5.21,5.21,0,0,1,5.061-5.048,7.451,7.451,0,0,1-1.364-4.379,4.9,4.9,0,1,1,9.807,0,7.451,7.451,0,0,1-1.364,4.379,5.656,5.656,0,0,1,1.849.42,5.932,5.932,0,0,1,3.37-1.167,7.836,7.836,0,0,1-1.534-4.772,5.192,5.192,0,1,1,10.384,0A7.836,7.836,0,0,1,44.2,27.264a5.932,5.932,0,0,1,3.369,1.167,5.848,5.848,0,0,1,1.836-.42,7.36,7.36,0,0,1-1.364-4.379,4.89,4.89,0,1,1,9.781,0,7.451,7.451,0,0,1-1.364,4.379,5.2,5.2,0,0,1,5.061,5.048v7.893a.912.912,0,0,1-.918.918H51.4a7.8,7.8,0,0,1,.511,2.216,10.273,10.273,0,0,1-2.2,6.8,24.968,24.968,0,0,1-8.771,6.9ZM56.143,29.834H49.693a3.777,3.777,0,0,0-.774.079,5.023,5.023,0,0,1,.774,2.688v6.634a7.712,7.712,0,0,1,.682.787h5.153V35.013a.918.918,0,1,1,1.836,0v5.008H59.67V33.046A3.371,3.371,0,0,0,56.143,29.834Zm-6.293-6.2c0,1.809.944,4.366,3.068,4.366s3.068-2.557,3.068-4.366a3.068,3.068,0,1,0-6.136,0ZM37.159,22.479c0,1.98,1.049,4.772,3.356,4.772s3.356-2.793,3.356-4.772a3.356,3.356,0,1,0-6.713,0ZM33.173,32.614V37.95a7.188,7.188,0,0,1,.734-.3,6.937,6.937,0,0,1,1.232-.275V33.387a.918.918,0,0,1,1.836,0v4.091a5.657,5.657,0,0,1,3,1.862l.538.6.538-.6a5.874,5.874,0,0,1,3-1.862V33.387a.918.918,0,1,1,1.836,0v3.986a5.358,5.358,0,0,1,1.232.275,5.084,5.084,0,0,1,.734.3V32.614a3.713,3.713,0,0,0-3.868-3.527H37.054A3.717,3.717,0,0,0,33.173,32.614Zm-8.129-8.981c0,1.809.944,4.366,3.068,4.366s3.068-2.557,3.068-4.366a3.068,3.068,0,1,0-6.136,0Zm5.611,16.4a9.771,9.771,0,0,1,.682-.787V32.614a5.186,5.186,0,0,1,.774-2.7,3.777,3.777,0,0,0-.774-.079H24.887a3.392,3.392,0,0,0-3.54,3.212v6.975h2.308V35.013a.918.918,0,1,1,1.836,0v5.008h5.166Zm19.417,4.182a5.462,5.462,0,0,0-3.527-4.825,3.72,3.72,0,0,0-4.117,1.167l-1.219,1.39a.914.914,0,0,1-.695.315.934.934,0,0,1-.695-.315L38.6,40.559a3.714,3.714,0,0,0-4.117-1.167,5.462,5.462,0,0,0-3.527,4.825c-.315,4.051,3.16,8.3,9.558,11.708,6.4-3.409,9.873-7.657,9.558-11.708Zm-4.471,1.9v3a.912.912,0,0,1-.918.918H42.927v1.757a.912.912,0,0,1-.918.918h-3a.912.912,0,0,1-.918-.918V50.038H36.333a.912.912,0,0,1-.918-.918v-3a.912.912,0,0,1,.918-.918h1.757V43.443a.912.912,0,0,1,.918-.918h3a.912.912,0,0,1,.918.918V45.2h1.757A.912.912,0,0,1,45.6,46.118Zm-1.836.918H42.01a.912.912,0,0,1-.918-.918V44.361H39.925v1.757a.912.912,0,0,1-.918.918H37.25V48.2h1.757a.912.912,0,0,1,.918.918v1.757h1.167V49.12a.912.912,0,0,1,.918-.918h1.757Z" transform="translate(294.817 8116.479)" fill="#001a58"/>
  </g>
</svg>
