<svg xmlns="http://www.w3.org/2000/svg" width="100" height="100" viewBox="0 0 100 100">
  <g id="Grupo_1114630" data-name="Grupo 1114630" transform="translate(-285.043 -8115.281)">
    <g id="Grupo_156312" data-name="Grupo 156312" transform="translate(285.043 8115.281)">
      <path id="Elipse_5845" data-name="Elipse 5845" d="M50,0A50,50,0,1,1,0,50,50,50,0,0,1,50,0Z" fill="#66d16a"/>
    </g>
    <g id="Grupo_1115156" data-name="Grupo 1115156" transform="translate(303.335 8132.578)">
      <path id="Trazado_937878" data-name="Trazado 937878" d="M5.438,208.281a3.746,3.746,0,0,0-5.122,3.853l1.845,18.15a5.388,5.388,0,0,0,1.247,2.943l6.256,7.418-1.847,3.693,1.937.969,2.165-4.331a1.084,1.084,0,0,0-.141-1.182l-6.716-7.962a3.23,3.23,0,0,1-.748-1.767l-1.843-18.15a1.586,1.586,0,0,1,.865-1.572,1.58,1.58,0,0,1,2.194.88l4.218,11.812a3.361,3.361,0,0,0,.526,2.172l4.108,6.161,1.8-1.2-4.108-6.161a1.2,1.2,0,0,1-.061-1.255,1.259,1.259,0,0,1,2.031-.186l5.077,6.346c1.614,2.016,2.413,7.761,2.1,10.536L19.662,244.5l2.069.639,1.591-5.149a1.179,1.179,0,0,0,.04-.185c.39-3.122-.428-9.6-2.548-12.249l-5.077-6.346a3.373,3.373,0,0,0-4.577-.658L7.569,210.5a3.749,3.749,0,0,0-2.131-2.215Zm0,0" transform="translate(-0.297 -179.859)" fill="#001a58"/>
      <path id="Trazado_937879" data-name="Trazado 937879" d="M329.21,230.285l1.844-18.15A3.744,3.744,0,0,0,323.8,210.5l-3.592,10.057a3.373,3.373,0,0,0-4.577.658l-5.077,6.346c-2.12,2.651-2.937,9.129-2.548,12.249a1.118,1.118,0,0,0,.04.185l1.592,5.149,2.069-.639-1.563-5.055c-.314-2.774.486-8.519,2.1-10.536l5.077-6.346a1.257,1.257,0,0,1,2.031.187,1.2,1.2,0,0,1-.06,1.255l-4.108,6.161,1.8,1.2,4.108-6.161a3.353,3.353,0,0,0,.526-2.171l4.218-11.813a1.58,1.58,0,0,1,2.193-.88,1.588,1.588,0,0,1,.865,1.571l-1.845,18.152a3.234,3.234,0,0,1-.748,1.766l-6.716,7.962a1.079,1.079,0,0,0-.141,1.182l2.165,4.331,1.936-.969-1.847-3.693,6.256-7.417a5.389,5.389,0,0,0,1.249-2.945Zm0,0" transform="translate(-266.283 -179.86)" fill="#001a58"/>
      <path id="Trazado_937880" data-name="Trazado 937880" d="M112.11,50.569a1.082,1.082,0,0,0-1.083,1.083v1.083a6.5,6.5,0,0,0,12.993,0V51.652a1.082,1.082,0,0,0-1.083-1.083h-1.415l-2.436-6.5h8.182V66.81H125.1v2.165h6.5V66.81h-2.165V44.073h8.182l-2.436,6.5h-1.415a1.082,1.082,0,0,0-1.083,1.083v1.083a6.5,6.5,0,1,0,12.993,0V51.652a1.082,1.082,0,0,0-1.083-1.083h-1.415l-2.985-7.96a1.083,1.083,0,0,0-1.013-.7H129.7l2.761-3.681a1.08,1.08,0,0,0,0-1.3L129.216,32.6a1.121,1.121,0,0,0-1.732,0l-3.248,4.331a1.08,1.08,0,0,0,0,1.3L127,41.907h-9.474a1.085,1.085,0,0,0-1.014.7l-2.984,7.96Zm31.4,2.165a4.331,4.331,0,0,1-8.662,0Zm-2.645-2.165h-3.372l1.686-4.5ZM126.456,37.576l1.895-2.526,1.895,2.526L128.35,40.1Zm-4.6,15.158a4.331,4.331,0,0,1-8.662,0Zm-4.331-6.661,1.686,4.5h-3.372Zm0,0" transform="translate(-96.041 -27.831)" fill="#001a58"/>
      <path id="Trazado_937881" data-name="Trazado 937881" d="M166.707,10.586a22.511,22.511,0,0,0-2.114.915l.962,1.941a20.332,20.332,0,0,1,1.911-.828Zm0,0" transform="translate(-142.358 -9.153)" fill="#001a58"/>
      <path id="Trazado_937882" data-name="Trazado 937882" d="M264.152,2.29a22.724,22.724,0,0,0-2.256-.454l-.317,2.143c.681.1,1.368.239,2.041.409Zm0,0" transform="translate(-226.217 -1.588)" fill="#001a58"/>
      <path id="Trazado_937883" data-name="Trazado 937883" d="M214.1,318.293l-.323,2.143c.756.113,1.526.19,2.29.227l.106-2.163c-.693-.035-1.39-.1-2.073-.207Zm0,0" transform="translate(-184.885 -275.215)" fill="#001a58"/>
      <path id="Trazado_937884" data-name="Trazado 937884" d="M232.211,2.189l.1-2.163C231.954.009,231.594,0,231.235,0c-.423,0-.818.01-1.223.03l.113,2.163c.349-.019.7-.028,1.057-.028S231.87,2.174,232.211,2.189Zm0,0" transform="translate(-198.922 0)" fill="#001a58"/>
      <path id="Trazado_937885" data-name="Trazado 937885" d="M198.689,2a22.107,22.107,0,0,0-2.255.468l.549,2.1a20.2,20.2,0,0,1,2.036-.423Zm0,0" transform="translate(-169.889 -1.726)" fill="#001a58"/>
      <path id="Trazado_937886" data-name="Trazado 937886" d="M248.962,318.25a20.182,20.182,0,0,1-2.071.209l.109,2.163a22.74,22.74,0,0,0,2.291-.233Zm0,0" transform="translate(-213.516 -275.178)" fill="#001a58"/>
      <path id="Trazado_937887" data-name="Trazado 937887" d="M104.328,256.672a20.57,20.57,0,0,1-1.279-1.645l-1.776,1.241c.438.625.913,1.237,1.414,1.818Zm0,0" transform="translate(-87.608 -220.512)" fill="#001a58"/>
      <path id="Trazado_937888" data-name="Trazado 937888" d="M71.14,170.626l2.154-.222a20.776,20.776,0,0,1-.108-2.08l-2.165,0c0,.767.042,1.54.12,2.3Zm0,0" transform="translate(-61.448 -145.543)" fill="#001a58"/>
      <path id="Trazado_937889" data-name="Trazado 937889" d="M126.54,279.688a20.685,20.685,0,0,1-1.582-1.355l-1.49,1.571a22.827,22.827,0,0,0,1.748,1.5Zm0,0" transform="translate(-106.799 -240.663)" fill="#001a58"/>
      <path id="Trazado_937890" data-name="Trazado 937890" d="M87.632,230.063a20.6,20.6,0,0,1-.921-1.868l-1.988.859a22.987,22.987,0,0,0,1.019,2.064Zm0,0" transform="translate(-73.297 -197.311)" fill="#001a58"/>
      <path id="Trazado_937891" data-name="Trazado 937891" d="M378.516,102a20.41,20.41,0,0,1,.731,1.95l2.064-.655a22.53,22.53,0,0,0-.809-2.156Zm0,0" transform="translate(-327.328 -87.453)" fill="#001a58"/>
      <path id="Trazado_937892" data-name="Trazado 937892" d="M150.355,298.966a22.8,22.8,0,0,0,2.013,1.116l.953-1.946a20.418,20.418,0,0,1-1.822-1.01Zm0,0" transform="translate(-130.046 -256.913)" fill="#001a58"/>
      <path id="Trazado_937893" data-name="Trazado 937893" d="M137.726,25.652c-.648.408-1.283.853-1.883,1.321l1.331,1.709a20.524,20.524,0,0,1,1.706-1.2Zm0,0" transform="translate(-117.499 -22.181)" fill="#001a58"/>
      <path id="Trazado_937894" data-name="Trazado 937894" d="M181.629,310.66l-.746,2.032a22.686,22.686,0,0,0,2.2.685l.538-2.1A20.432,20.432,0,0,1,181.629,310.66Zm0,0" transform="translate(-156.443 -268.615)" fill="#001a58"/>
      <path id="Trazado_937895" data-name="Trazado 937895" d="M74.5,199.344a22.56,22.56,0,0,0,.58,2.229l2.064-.652a20.685,20.685,0,0,1-.524-2.015Zm0,0" transform="translate(-64.457 -171.987)" fill="#001a58"/>
      <path id="Trazado_937896" data-name="Trazado 937896" d="M343.355,47.4a20.369,20.369,0,0,1,1.441,1.5l1.638-1.417a22.715,22.715,0,0,0-1.592-1.663Zm0,0" transform="translate(-296.926 -39.626)" fill="#001a58"/>
      <path id="Trazado_937897" data-name="Trazado 937897" d="M292.1,10.227l-.745,2.032c.651.239,1.295.514,1.916.816l.948-1.946a22.609,22.609,0,0,0-2.12-.9Zm0,0" transform="translate(-251.963 -8.843)" fill="#001a58"/>
      <path id="Trazado_937898" data-name="Trazado 937898" d="M322.014,26.426a22.824,22.824,0,0,0-1.893-1.309l-1.141,1.839c.587.365,1.164.763,1.714,1.187Zm0,0" transform="translate(-275.85 -21.718)" fill="#001a58"/>
      <path id="Trazado_937899" data-name="Trazado 937899" d="M332.133,279.484l1.328,1.711a22.8,22.8,0,0,0,1.745-1.5l-1.492-1.569c-.5.476-1.033.933-1.581,1.359Zm0,0" transform="translate(-287.222 -240.484)" fill="#001a58"/>
      <path id="Trazado_937900" data-name="Trazado 937900" d="M111.273,48.218l1.647,1.407c.45-.527.933-1.036,1.432-1.514l-1.5-1.565A22.956,22.956,0,0,0,111.273,48.218Zm0,0" transform="translate(-96.254 -40.247)" fill="#001a58"/>
      <path id="Trazado_937901" data-name="Trazado 937901" d="M387.82,133.975a20.492,20.492,0,0,1,.32,2.056l2.153-.224a22.785,22.785,0,0,0-.355-2.275Zm0,0" transform="translate(-335.373 -115.459)" fill="#001a58"/>
      <path id="Trazado_937902" data-name="Trazado 937902" d="M390.362,167.609a20.714,20.714,0,0,1-.1,2.08l2.155.218q.113-1.136.115-2.317l-.66-.042Zm0,0" transform="translate(-337.48 -144.871)" fill="#001a58"/>
      <path id="Trazado_937903" data-name="Trazado 937903" d="M363.484,72.752a20.394,20.394,0,0,1,1.109,1.764l1.889-1.06a22.945,22.945,0,0,0-1.227-1.948Zm0,0" transform="translate(-314.33 -61.83)" fill="#001a58"/>
      <path id="Trazado_937904" data-name="Trazado 937904" d="M354.4,256.432l1.646,1.408c.5-.584.973-1.2,1.408-1.819l-1.777-1.24C355.284,255.348,354.856,255.9,354.4,256.432Zm0,0" transform="translate(-306.478 -220.3)" fill="#001a58"/>
      <path id="Trazado_937905" data-name="Trazado 937905" d="M386.739,199.027l-2.121-.434a20.712,20.712,0,0,1-.521,2.017l2.067.646A22.9,22.9,0,0,0,386.739,199.027Zm0,0" transform="translate(-332.154 -171.716)" fill="#001a58"/>
      <path id="Trazado_937906" data-name="Trazado 937906" d="M71.844,136.845l2.154.214c.068-.69.172-1.382.309-2.061l-2.123-.428a22.961,22.961,0,0,0-.34,2.275Zm0,0" transform="translate(-62.161 -116.358)" fill="#001a58"/>
      <path id="Trazado_937907" data-name="Trazado 937907" d="M371.98,229.792l1.894,1.052c.372-.672.714-1.369,1.014-2.067l-1.99-.854c-.272.631-.58,1.261-.918,1.87Zm0,0" transform="translate(-321.677 -197.075)" fill="#001a58"/>
      <path id="Trazado_937908" data-name="Trazado 937908" d="M91.914,74.32l1.895,1.047c.336-.605.705-1.2,1.1-1.768l-1.779-1.235a22.783,22.783,0,0,0-1.215,1.957Zm0,0" transform="translate(-79.515 -62.57)" fill="#001a58"/>
      <path id="Trazado_937909" data-name="Trazado 937909" d="M78.57,104.262l2.068.643c.2-.654.446-1.313.719-1.957l-1.994-.847C79.063,102.811,78.8,103.538,78.57,104.262Zm0,0" transform="translate(-67.977 -88.283)" fill="#001a58"/>
      <path id="Trazado_937910" data-name="Trazado 937910" d="M279.259,310.539a20.5,20.5,0,0,1-1.986.624l.541,2.1a22.57,22.57,0,0,0,2.2-.69Zm0,0" transform="translate(-239.787 -268.511)" fill="#001a58"/>
      <path id="Trazado_937911" data-name="Trazado 937911" d="M309.042,298.807l-1.15-1.835a20.807,20.807,0,0,1-1.818,1.013l.955,1.943A22.9,22.9,0,0,0,309.042,298.807Zm0,0" transform="translate(-264.691 -256.78)" fill="#001a58"/>
    </g>
  </g>
</svg>
