<svg xmlns="http://www.w3.org/2000/svg" width="60" height="60" viewBox="0 0 60 60">
  <g id="Grupo_1115798" data-name="Grupo 1115798" transform="translate(-175 -743)">
    <g id="Grupo_1114776" data-name="Grupo 1114776" transform="translate(-1061.5 283)">
      <g id="Elipse_12108" data-name="Elipse 12108" transform="translate(1241.5 465)" fill="#8bc34a" stroke="rgba(255,255,255,0.4)" stroke-width="5">
        <circle cx="25" cy="25" r="25" stroke="none"/>
        <circle cx="25" cy="25" r="27.5" fill="none"/>
      </g>
      <path id="Trazado_938093" data-name="Trazado 938093" d="M60.694,23.523a3.851,3.851,0,1,0-3.851,3.851A3.855,3.855,0,0,0,60.694,23.523Zm-6.871,0a3.021,3.021,0,1,1,3.021,3.021A3.024,3.024,0,0,1,53.823,23.523Zm17.481.056a.414.414,0,0,0-.386-.043l-6.29,2.474a8.112,8.112,0,0,0,.739-2.486,8.523,8.523,0,1,0-17.047,0,4.5,4.5,0,0,0,.252,1.246L42.1,27.313a.414.414,0,0,0-.263.386V47.946a.415.415,0,0,0,.568.386l9.453-3.718,9.453,3.718a.413.413,0,0,0,.152.029.422.422,0,0,0,.152-.03h0l9.6-3.778a.414.414,0,0,0,.263-.386V23.922A.416.416,0,0,0,71.3,23.579ZM56.844,15.831a7.7,7.7,0,0,1,7.692,7.692c0,1.541-3.914,8.863-5.795,12.382-.534,1-.956,1.788-1.211,2.291a.771.771,0,0,1-1.373,0c-.3-.583-.792-1.5-1.366-2.563-1.971-3.65-5.64-10.444-5.64-12.11a7.7,7.7,0,0,1,7.692-7.692ZM42.671,38.887a6.02,6.02,0,0,1,1.959-1.355.415.415,0,1,0-.315-.769,6.362,6.362,0,0,0-1.644,1V27.983l6.177-2.429a59.683,59.683,0,0,0,2.6,5.545v6.5l-.172-.068a.415.415,0,1,0-.3.772l.476.19v5.389l-8.774,3.452Zm9.6,5V38.833c.3.121.6.244.908.368a.415.415,0,1,0,.309-.771q-.5-.2-.988-.4l-.228-.093V32.691c.575,1.091,1.179,2.214,1.785,3.337.571,1.058,1.065,1.971,1.356,2.544a1.6,1.6,0,0,0,2.854,0c.252-.495.671-1.281,1.2-2.276s1.064-1.995,1.577-2.97V40.4c-.336-.024-.673-.057-1.009-.1a.415.415,0,1,0-.107.824c.371.048.744.084,1.116.109v6.1Zm9.606,3.451V41.274c.107,0,.215,0,.322,0h0a.415.415,0,0,0,0-.831c-.108,0-.217,0-.325,0V31.733c.883-1.71,1.676-3.3,2.281-4.648l6.493-2.554V38.453c-.651.3-1.3.575-1.944.808a.415.415,0,0,0,.143.806A.423.423,0,0,0,69,40.042c.547-.2,1.1-.426,1.659-.676v4.518ZM58.175,40.4a.415.415,0,0,1-.4.317.444.444,0,0,1-.1-.012c-.723-.176-1.46-.394-2.252-.664a.415.415,0,0,1,.269-.786c.769.262,1.483.473,2.181.644a.414.414,0,0,1,.3.5Zm8.866-.169a.414.414,0,0,1-.3.5,19.373,19.373,0,0,1-2.265.415.42.42,0,0,1-.051,0,.415.415,0,0,1-.05-.828,18.456,18.456,0,0,0,2.168-.4A.417.417,0,0,1,67.041,40.229ZM49.3,37.258a.415.415,0,0,1-.4.3.406.406,0,0,1-.114-.016,8.653,8.653,0,0,0-2.115-.365.415.415,0,0,1,.025-.831,9.454,9.454,0,0,1,2.318.4A.415.415,0,0,1,49.3,37.258Z" transform="translate(1209.837 458.319)" fill="#001a58"/>
    </g>
  </g>
</svg>
