<svg xmlns="http://www.w3.org/2000/svg" width="70" height="70" viewBox="0 0 70 70">
  <g id="Grupo_1114917" data-name="Grupo 1114917" transform="translate(-269 -958)">
    <circle id="Elipse_5614" data-name="Elipse 5614" cx="35" cy="35" r="35" transform="translate(269 958)" fill="#fff"/>
    <g id="Grupo_1115550" data-name="Grupo 1115550" transform="translate(281.746 970.747)">
      <path id="Trazado_940238" data-name="Trazado 940238" d="M36.956,18.29V6.447A1.447,1.447,0,0,0,35.51,5H29V6.447h5.063A1.447,1.447,0,0,1,35.51,7.893V18.02A4.023,4.023,0,0,1,36.956,18.29Z" transform="translate(-7.47 -0.83)" fill="#0042db"/>
      <path id="Trazado_940239" data-name="Trazado 940239" d="M16,16.893V18.34h2.17a.723.723,0,0,1,.723.723v2.17H20.34v-2.17a.723.723,0,0,1,.723-.723h2.17V16.893h-2.17a.723.723,0,0,1-.723-.723V14H18.893v2.17a.723.723,0,0,1-.723.723Z" transform="translate(-3.874 -3.32)" fill="#0042db"/>
      <path id="Trazado_940240" data-name="Trazado 940240" d="M13.233,23.466H24.159l1.573-2.459A4.069,4.069,0,0,1,27.7,19.4V9H22.435a1.442,1.442,0,0,1-1.246.723H12.51A1.442,1.442,0,0,1,11.264,9H6V37.933h8.9l1.389-2.17H13.233a.723.723,0,1,1,0-1.447h3.978l1.389-2.17H13.233a.723.723,0,1,1,0-1.447h6.293l1.389-2.17H13.233a.723.723,0,1,1,0-1.447h8.611l1.389-2.17h-10a.723.723,0,1,1,0-1.447Zm-2.893,12.3H8.893a.723.723,0,1,1,0-1.447H10.34a.723.723,0,0,1,0,1.447Zm0-3.617H8.893a.723.723,0,1,1,0-1.447H10.34a.723.723,0,0,1,0,1.447Zm0-3.617H8.893a.723.723,0,1,1,0-1.447H10.34a.723.723,0,0,1,0,1.447Zm0-3.617H8.893a.723.723,0,1,1,0-1.447H10.34a.723.723,0,0,1,0,1.447Zm1.447-7.956V15.51a1.447,1.447,0,0,1,1.447-1.447H14.68V12.617a1.447,1.447,0,0,1,1.447-1.447h1.447a1.447,1.447,0,0,1,1.447,1.447v1.447h1.447a1.447,1.447,0,0,1,1.447,1.447v1.447A1.447,1.447,0,0,1,20.466,18.4H19.02V19.85A1.447,1.447,0,0,1,17.573,21.3H16.126A1.447,1.447,0,0,1,14.68,19.85V18.4H13.233A1.447,1.447,0,0,1,11.787,16.956Z" transform="translate(-1.107 -1.937)" fill="#0042db"/>
      <path id="Trazado_940241" data-name="Trazado 940241" d="M46.59,47.5a2.7,2.7,0,0,0-.094-2.79L34.661,26.215a2.591,2.591,0,0,0-4.391,0L18.433,44.706a2.7,2.7,0,0,0-.094,2.79,2.584,2.584,0,0,0,2.291,1.374H44.3A2.584,2.584,0,0,0,46.59,47.5Zm-14.125-.072a2.17,2.17,0,1,1,2.17-2.17A2.17,2.17,0,0,1,32.465,47.423Zm2.17-7.956a2.17,2.17,0,0,1-4.34,0v-8.68a2.17,2.17,0,1,1,4.34,0Z" transform="translate(-4.426 -6.364)" fill="#0042db"/>
      <path id="Trazado_940242" data-name="Trazado 940242" d="M37.723,32a.723.723,0,0,0-.723.723V41.4a.723.723,0,0,0,1.447,0v-8.68A.723.723,0,0,0,37.723,32Z" transform="translate(-9.684 -8.3)" fill="#0042db"/>
      <circle id="Elipse_13507" data-name="Elipse 13507" cx="1" cy="1" r="1" transform="translate(27 38)" fill="#0042db"/>
      <path id="Trazado_940243" data-name="Trazado 940243" d="M23.68,3.447H22.233a.723.723,0,0,1-.579-.289,2.893,2.893,0,0,0-4.629,0,.723.723,0,0,1-.579.289H15V6.34h8.68Z" transform="translate(-3.597)" fill="#0042db"/>
      <path id="Trazado_940244" data-name="Trazado 940244" d="M3.447,39.719h8.8a4.155,4.155,0,0,1,.547-1.327l.077-.12H4.893a1.447,1.447,0,0,1-1.447-1.447V7.893A1.447,1.447,0,0,1,4.893,6.447H9.956V5H3.447A1.447,1.447,0,0,0,2,6.447V38.273A1.447,1.447,0,0,0,3.447,39.719Z" transform="translate(0 -0.83)" fill="#0042db"/>
    </g>
  </g>
</svg>
