<svg xmlns="http://www.w3.org/2000/svg" width="100" height="100" viewBox="0 0 100 100">
  <g id="Grupo_1115824" data-name="Grupo 1115824" transform="translate(-285.754 -8115.086)">
    <g id="Grupo_156312" data-name="Grupo 156312" transform="translate(285.754 8115.086)">
      <path id="Elipse_5845" data-name="Elipse 5845" d="M50,0A50,50,0,1,1,0,50,50,50,0,0,1,50,0Z" transform="translate(0 0)" fill="#66d16a"/>
    </g>
    <g id="Grupo_1115844" data-name="Grupo 1115844" transform="translate(296.114 8131.047)">
      <g id="Grupo_1115833" data-name="Grupo 1115833" transform="translate(35.98 11.152)">
        <g id="Grupo_1115832" data-name="Grupo 1115832">
          <path id="Trazado_940619" data-name="Trazado 940619" d="M232.1,83.9a.888.888,0,0,0-.249-.038.778.778,0,0,0-.382.1L229.135,85.2a1.09,1.09,0,0,0-.655.7,1.025,1.025,0,0,0,.032.657.734.734,0,0,0,.473.451.611.611,0,0,0,.166.022.789.789,0,0,0,.374-.1l.007,0,.539-.381-2.743,9.444c-.149.512.334.9.846,1.054a1.643,1.643,0,0,0,.452.066.783.783,0,0,0,.827-.5l3.392-11.679C232.979,84.466,232.565,84.037,232.1,83.9Z" transform="translate(-227.301 -83.866)" fill="#001a58"/>
        </g>
      </g>
      <g id="Grupo_1115835" data-name="Grupo 1115835" transform="translate(18.433 44.59)">
        <g id="Grupo_1115834" data-name="Grupo 1115834" transform="translate(0)">
          <path id="Trazado_940620" data-name="Trazado 940620" d="M104.813,347.268a.946.946,0,0,0-.831-.849.561.561,0,0,0-.091.007l-5.2.841-.09-.558c-.131-.813.774-1.694,1.822-2.715,1.45-1.412,3.255-3.169,2.88-5.49a3.744,3.744,0,0,0-3.866-3.152,4.73,4.73,0,0,0-.751.061c-2.194.355-3.617,2.059-3.308,3.964.114.7.441,1.058.973,1.058a1.412,1.412,0,0,0,.223-.019c.718-.116,1.076-.621,1.008-1.042a1.629,1.629,0,0,1,.287-1.342,1.806,1.806,0,0,1,1.144-.6,2.415,2.415,0,0,1,.384-.032,1.727,1.727,0,0,1,1.73,1.509c.212,1.312-1.011,2.55-2.305,3.86-1.333,1.349-2.712,2.745-2.46,4.3l.285,1.759a.9.9,0,0,0,.942.62,1.043,1.043,0,0,0,.166-.013l6.456-1.044A.957.957,0,0,0,104.813,347.268Z" transform="translate(-95.335 -335.353)" fill="#001a58"/>
        </g>
      </g>
      <g id="Grupo_1115837" data-name="Grupo 1115837" transform="translate(53.143 43.866)">
        <g id="Grupo_1115836" data-name="Grupo 1115836">
          <path id="Trazado_940621" data-name="Trazado 940621" d="M363.185,336.358a3.524,3.524,0,0,0,1.3-3.052c0-2.258-1.287-3.4-3.825-3.4-3.15,0-3.991,2.035-3.991,3.238,0,.811.246,1.033,1.143,1.033.7,0,1.051-.31,1.051-.923s.309-1.374,1.778-1.374c1.179,0,1.7.543,1.7,1.759,0,1.567-.711,1.888-1.778,1.888-.467,0-.758.354-.758.923s.29.9.758.9c1.419,0,2.108.612,2.108,1.869v.349c0,1.5-.625,2.145-2.09,2.145-1.406,0-2.035-.736-2.035-1.465,0-.624-.32-.868-1.143-.868-.753,0-1.033.26-1.033.96a3.152,3.152,0,0,0,1,2.257,4.518,4.518,0,0,0,3.2,1.109c3.76,0,4.321-2.592,4.321-4.138v-.349A2.944,2.944,0,0,0,363.185,336.358Z" transform="translate(-356.379 -329.903)" fill="#001a58"/>
        </g>
      </g>
      <g id="Grupo_1115839" data-name="Grupo 1115839" transform="translate(20.441 0)">
        <g id="Grupo_1115838" data-name="Grupo 1115838" transform="translate(0 0)">
          <path id="Trazado_940622" data-name="Trazado 940622" d="M144.523,8.385A7.353,7.353,0,0,0,140.1,4.843L124.449.3a7.4,7.4,0,0,0-9.173,5.044L113.8,10.422a1,1,0,1,0,1.914.556L117.19,5.9a5.409,5.409,0,0,1,6.7-3.686l15.652,4.546a5.409,5.409,0,0,1,3.686,6.7l-4.546,15.652a5.416,5.416,0,0,1-6.7,3.686L116.33,28.253a5.409,5.409,0,0,1-3.686-6.7L114.4,15.5a1,1,0,1,0-1.914-.556l-1.757,6.049a7.4,7.4,0,0,0,5.044,9.173l15.652,4.546a7.4,7.4,0,0,0,9.173-5.044l4.546-15.652A7.354,7.354,0,0,0,144.523,8.385Z" transform="translate(-110.433 0)" fill="#001a58"/>
        </g>
      </g>
      <g id="Grupo_1115841" data-name="Grupo 1115841" transform="translate(6.64 34.579)">
        <g id="Grupo_1115840" data-name="Grupo 1115840" transform="translate(0)">
          <path id="Trazado_940623" data-name="Trazado 940623" d="M40.044,282.369l-2.6-16.09a7.411,7.411,0,0,0-8.489-6.125l-16.09,2.6a7.4,7.4,0,0,0-6.125,8.489l.867,5.363a1,1,0,0,0,1.968-.318L8.7,270.927a5.409,5.409,0,0,1,4.476-6.2l16.09-2.6a5.415,5.415,0,0,1,6.2,4.476l2.6,16.09a5.409,5.409,0,0,1-4.476,6.2l-16.09,2.6a5.409,5.409,0,0,1-6.2-4.476l-.992-6.133a1,1,0,1,0-1.968.318l.992,6.133a7.406,7.406,0,0,0,7.292,6.222,7.506,7.506,0,0,0,1.2-.1l16.09-2.6a7.4,7.4,0,0,0,6.125-8.489Z" transform="translate(-6.64 -260.058)" fill="#001a58"/>
        </g>
      </g>
      <g id="Grupo_1115843" data-name="Grupo 1115843" transform="translate(41.848 35.216)">
        <g id="Grupo_1115842" data-name="Grupo 1115842">
          <path id="Trazado_940624" data-name="Trazado 940624" d="M295.135,264.853h-16.3a7.411,7.411,0,0,0-7.4,7.4v5.439a1,1,0,0,0,1.993,0v-5.439a5.415,5.415,0,0,1,5.409-5.409h16.3a5.415,5.415,0,0,1,5.409,5.409v16.3a5.415,5.415,0,0,1-5.409,5.409h-16.3a5.415,5.415,0,0,1-5.409-5.409v-6.209a1,1,0,0,0-1.993,0v6.209a7.411,7.411,0,0,0,7.4,7.4h16.3a7.411,7.411,0,0,0,7.4-7.4v-16.3A7.411,7.411,0,0,0,295.135,264.853Z" transform="translate(-271.434 -264.853)" fill="#001a58"/>
        </g>
      </g>
    </g>
  </g>
</svg>
