<svg xmlns="http://www.w3.org/2000/svg" width="120" height="120" viewBox="0 0 120 120">
  <g id="Grupo_1114813" data-name="Grupo 1114813" transform="translate(-64 -6445)">
    <rect id="Rect치ngulo_402033" data-name="Rect치ngulo 402033" width="120" height="120" rx="8" transform="translate(64 6445)" fill="#0042db"/>
    <g id="Rect치ngulo_412110" data-name="Rect치ngulo 412110" transform="translate(69 6450)" fill="none" stroke="#fff" stroke-width="1">
      <rect width="110" height="110" rx="6" stroke="none"/>
      <rect x="0.5" y="0.5" width="109" height="109" rx="5.5" fill="none"/>
    </g>
    <g id="Grupo_1115207" data-name="Grupo 1115207" transform="translate(83.711 6465.396)">
      <g id="Grupo_1115197" data-name="Grupo 1115197" transform="translate(55 66.25)">
        <path id="Trazado_938037" data-name="Trazado 938037" d="M46.5,55.5H44V53a2.518,2.518,0,0,0,2.5,2.5Z" transform="translate(-44 -53)" fill="#ff6d6f"/>
      </g>
      <path id="Trazado_938038" data-name="Trazado 938038" d="M55.75,55.013v2.5a6.7,6.7,0,0,1-.112,1.238,7.5,7.5,0,0,1-7.388,6.262H29.5a7.4,7.4,0,0,1-2.312-.363A7.5,7.5,0,0,1,22,57.513V54.95a3.418,3.418,0,0,0,.625.063H44.5v2.5a2.518,2.518,0,0,0,2.5,2.5,2.507,2.507,0,0,0,2.5-2.5v-2.5h6.25Z" transform="translate(5.5 13.738)" fill="#f4b18b"/>
      <g id="Grupo_1115198" data-name="Grupo 1115198" transform="translate(28.524 68.75)">
        <path id="Trazado_938039" data-name="Trazado 938039" d="M54.92,55H49.3v2.5A2.507,2.507,0,0,1,46.8,60a2.444,2.444,0,0,1-1.763-.738c-.02-.02-.034-.044-.054-.064a6.527,6.527,0,0,1-4.746,2.051H22.819a7.507,7.507,0,0,0,4.164,3.387A7.4,7.4,0,0,0,29.3,65h18.75a7.5,7.5,0,0,0,7.388-6.263,6.7,6.7,0,0,0,.112-1.238V55Z" transform="translate(-22.819 -55)" fill="#cc8964"/>
      </g>
      <path id="Trazado_938040" data-name="Trazado 938040" d="M35.5,28l-.787,13.75H34.25a7.506,7.506,0,0,0-7.5,7.5v2.5h-2.5a1.25,1.25,0,0,0,0,2.5h.837a1.286,1.286,0,0,1,.75.25l1.337,1-.012.012a3.069,3.069,0,0,0-2.062.975,3.121,3.121,0,0,0,1.65,5.2V64.25a7.5,7.5,0,0,0,5.188,7.138,2.572,2.572,0,0,1-1.3.362H7.863a2.507,2.507,0,0,1-2.5-2.362L3,28Z" transform="translate(0.75 7)" fill="#e52c55"/>
      <path id="Trazado_938041" data-name="Trazado 938041" d="M68,58v1.25a5,5,0,0,1-5,5H43a7.5,7.5,0,0,0,7.388-6.263L50.5,58Z" transform="translate(10.75 14.497)" fill="gray"/>
      <path id="Trazado_938042" data-name="Trazado 938042" d="M57.092,61.057A3.11,3.11,0,0,0,54,58H50.5l-.112-.012A7.5,7.5,0,0,1,43,64.253H54a3.079,3.079,0,0,0,3.094-3.133C57.094,61.1,57.092,61.079,57.092,61.057Z" transform="translate(10.75 14.498)" fill="#606060"/>
      <path id="Trazado_938043" data-name="Trazado 938043" d="M70,33.75v35H52.5l-.112-.012A6.7,6.7,0,0,0,52.5,67.5V65h-.625a3.127,3.127,0,0,0,.15-6.25l1.462-1.112a1.246,1.246,0,0,1,.563-.138H55A1.25,1.25,0,0,0,55,55H52.5V52.5A7.506,7.506,0,0,0,45,45H35V20a5,5,0,0,1,5-5H65a5,5,0,0,1,5,5Z" transform="translate(8.75 3.75)" fill="#64ddf3"/>
      <path id="Trazado_938044" data-name="Trazado 938044" d="M70,20a5,5,0,0,0-5-5H40a5,5,0,0,0-5,5V45h3.375V20A1.625,1.625,0,0,1,40,18.375H65A1.625,1.625,0,0,1,66.625,20a1.25,1.25,0,0,0,1.25,1.25h.875A1.25,1.25,0,0,0,70,20Z" transform="translate(8.75 3.75)" fill="#d5f4f8"/>
      <path id="Trazado_938045" data-name="Trazado 938045" d="M59.649,58.875H56.605a1.759,1.759,0,0,1-1.755-2.084,6.58,6.58,0,0,0-.2-3.543A4.624,4.624,0,0,0,52.474,45.2a10.631,10.631,0,0,0-.73-3.165A1.638,1.638,0,0,0,50.225,41h-.136a1.631,1.631,0,0,0-1.476,2.277A7.406,7.406,0,0,1,49.128,46v2.5h2.5a1.25,1.25,0,0,1,0,2.5h-.95a1.246,1.246,0,0,0-.562.138L48.653,52.25a3.127,3.127,0,0,1-.15,6.25h.625V61a6.7,6.7,0,0,1-.112,1.238l.112.012h17.5V46.438a1.688,1.688,0,0,0-3.375,0v8.834a3.6,3.6,0,0,1-3.6,3.6Z" transform="translate(12.122 10.25)" fill="#297da9"/>
      <path id="Trazado_938046" data-name="Trazado 938046" d="M59,47a1.25,1.25,0,0,1,0,2.5h-.95a1.246,1.246,0,0,0-.562.138L56.025,50.75l-.775.588v.012l-1.1.837a2.46,2.46,0,0,1-2.862.087l-1.213-.812a2.455,2.455,0,0,0-2.275-.237L45.25,52.25l-1,.4a2.457,2.457,0,0,1-2.65-.55l-.275-.275a2.468,2.468,0,0,0-2.512-.6l-4.625,1.55a2.468,2.468,0,0,1-2.512-.6,2.481,2.481,0,0,0-1.75-.725,2.444,2.444,0,0,0-1.35.413l-.625.425a2.441,2.441,0,0,1-2.837-.087l-1.937-1.45-1.337-1a1.286,1.286,0,0,0-.75-.25H20.25a1.25,1.25,0,0,1,0-2.5H59Z" transform="translate(4.75 11.75)" fill="#9bd76b"/>
      <path id="Trazado_938047" data-name="Trazado 938047" d="M49.275,50a3.127,3.127,0,0,1-.15,6.25H46a2.507,2.507,0,0,0,2.5-2.5V50.588Z" transform="translate(11.5 12.5)" fill="#e52c55"/>
      <path id="Trazado_938048" data-name="Trazado 938048" d="M55.75,46.5V49H22V46.5A7.506,7.506,0,0,1,29.5,39H48.25A7.506,7.506,0,0,1,55.75,46.5Z" transform="translate(5.5 9.75)" fill="#f4b18b"/>
      <g id="Grupo_1115199" data-name="Grupo 1115199" transform="translate(27.5 48.75)">
        <path id="Trazado_938049" data-name="Trazado 938049" d="M48.25,39H47.236a7.443,7.443,0,0,1,1.014,3.75,2.5,2.5,0,0,1-2.5,2.5H22.112A7.5,7.5,0,0,0,22,46.5V49H55.75V46.5A7.5,7.5,0,0,0,48.25,39Z" transform="translate(-22 -39)" fill="#cc8964"/>
      </g>
      <path id="Trazado_938050" data-name="Trazado 938050" d="M50,50.54v3.15a2.507,2.507,0,0,1-2.5,2.5,2.518,2.518,0,0,1-2.5-2.5v5a2.507,2.507,0,0,1-2.5,2.5,2.518,2.518,0,0,1-2.5-2.5V51.44l2.55-1.025a2.455,2.455,0,0,1,2.275.237l1.213.813a2.46,2.46,0,0,0,2.862-.088Z" transform="translate(10 12.56)" fill="#ffb92d"/>
      <path id="Trazado_938051" data-name="Trazado 938051" d="M45,51.5v4.75H23.125a3.418,3.418,0,0,1-.625-.062,3.121,3.121,0,0,1-1.65-5.2,3.069,3.069,0,0,1,2.063-.975L22.925,50l1.938,1.45a2.441,2.441,0,0,0,2.838.088l.625-.425a2.444,2.444,0,0,1,1.35-.413,2.481,2.481,0,0,1,1.75.725,2.468,2.468,0,0,0,2.513.6l4.625-1.55a2.468,2.468,0,0,1,2.512.6l.275.275A2.457,2.457,0,0,0,44,51.9Z" transform="translate(5 12.5)" fill="#ff6d6f"/>
      <path id="Trazado_938052" data-name="Trazado 938052" d="M38.5,24v5H1V24H38.5Z" transform="translate(0.25 6)" fill="#ffb92d"/>
      <g id="Grupo_1115200" data-name="Grupo 1115200" transform="translate(1.25 30)">
        <path id="Trazado_938053" data-name="Trazado 938053" d="M34.75,24a2.5,2.5,0,0,1-2.5,2.5H1V29H38.5V24Z" transform="translate(-1 -24)" fill="#f08616"/>
      </g>
      <g id="Grupo_1115201" data-name="Grupo 1115201" transform="translate(5.775 35)">
        <path id="Trazado_938054" data-name="Trazado 938054" d="M26.345,29.688a1.687,1.687,0,0,0,1.688,1.688h.544a2.781,2.781,0,0,1,2.776,2.939l-.1,1.658A4.4,4.4,0,0,1,28.835,39.6,10.9,10.9,0,0,0,23,48.451a4.625,4.625,0,0,0-2.17,8.051,6.429,6.429,0,0,0-.357,2.122,6.519,6.519,0,0,0,2.5,5.121v.5q0,.435.034.862a2.956,2.956,0,0,1-2.9,3.263h-8.07a3.973,3.973,0,0,1-3.966-3.746l-.074-1.286a1.688,1.688,0,1,0-3.37.191l.334,5.855a2.507,2.507,0,0,0,2.5,2.361H30.233a2.572,2.572,0,0,0,1.3-.363,7.5,7.5,0,0,1-5.187-7.137V61.688a3.121,3.121,0,0,1-1.65-5.2,3.069,3.069,0,0,1,2.063-.975l.013-.013-1.337-1a1.286,1.286,0,0,0-.75-.25h-.837a1.25,1.25,0,0,1,0-2.5h2.5v-2.5a7.5,7.5,0,0,1,7.5-7.5h.462L35.1,28H28.033a1.687,1.687,0,0,0-1.688,1.688Z" transform="translate(-4.62 -28)" fill="#c03"/>
      </g>
      <path id="Trazado_938055" data-name="Trazado 938055" d="M34,20.25v5H4v-5A1.254,1.254,0,0,1,5.25,19h27.5A1.254,1.254,0,0,1,34,20.25Z" transform="translate(1 4.75)" fill="#ece9ec"/>
      <g id="Grupo_1115202" data-name="Grupo 1115202" transform="translate(5 23.75)">
        <path id="Trazado_938056" data-name="Trazado 938056" d="M32.75,19h-2.5a2.5,2.5,0,0,1-2.5,2.5H4v3.75H34v-5A1.254,1.254,0,0,0,32.75,19Z" transform="translate(-4 -19)" fill="#b2a6b2"/>
      </g>
      <path id="Trazado_938057" data-name="Trazado 938057" d="M23.237,1a1.25,1.25,0,0,1,.875,2.138L18.75,8.5v15H15V7.25l5.887-5.888A1.261,1.261,0,0,1,21.763,1Z" transform="translate(3.75 0.25)" fill="gray"/>
      <g id="Grupo_1115203" data-name="Grupo 1115203" transform="translate(7.346 37.288)">
        <path id="Trazado_938058" data-name="Trazado 938058" d="M10.032,30.166a2.879,2.879,0,0,0-3.441.547c-1.071,1.149-.562,2.6-.714,3.98a1.251,1.251,0,0,0,2.5,0A2.513,2.513,0,0,1,9,32.864a1.293,1.293,0,0,0,.241-.408c1.209.111,2.064-1.647.786-2.29Z" transform="translate(-5.877 -29.83)" fill="#ffc0a7"/>
        <path id="Trazado_938059" data-name="Trazado 938059" d="M7.99,36.361a.537.537,0,0,0-.7-.426.626.626,0,0,0-.744.41A.793.793,0,0,0,7.249,37.4.808.808,0,0,0,7.99,36.361Z" transform="translate(-5.721 -28.31)" fill="#ffc0a7"/>
      </g>
      <g id="Grupo_1115204" data-name="Grupo 1115204" transform="translate(47.646 23.089)">
        <path id="Trazado_938060" data-name="Trazado 938060" d="M41.117,18.715a2.078,2.078,0,0,0-2.485.4c-.774.83-.406,1.876-.515,2.874a.9.9,0,0,0,1.805,0,1.817,1.817,0,0,1,.452-1.321.9.9,0,0,0,.174-.3c.874.081,1.491-1.189.569-1.653Z" transform="translate(-38.117 -18.472)" fill="#ece9ec"/>
        <path id="Trazado_938061" data-name="Trazado 938061" d="M39.253,22.992a.388.388,0,0,0-.509-.308.452.452,0,0,0-.538.3.572.572,0,0,0,.51.764A.583.583,0,0,0,39.253,22.992Z" transform="translate(-38.102 -17.422)" fill="#ece9ec"/>
      </g>
      <g id="Grupo_1115205" data-name="Grupo 1115205" transform="translate(25.837 58.75)">
        <path id="Trazado_938062" data-name="Trazado 938062" d="M58.583,47h-7.5v.416A2.083,2.083,0,0,1,49,49.5H20.67a1.286,1.286,0,0,1,.75.25l1.337,1,1.938,1.45a2.441,2.441,0,0,0,2.838.087l.625-.425a2.444,2.444,0,0,1,1.35-.413,2.481,2.481,0,0,1,1.75.725,2.468,2.468,0,0,0,2.513.6l4.625-1.55a2.468,2.468,0,0,1,2.512.6l.275.275a2.457,2.457,0,0,0,2.65.55l1-.4,2.55-1.025a2.455,2.455,0,0,1,2.275.237l1.213.813a2.46,2.46,0,0,0,2.862-.087l1.1-.837v-.012l.775-.588,1.462-1.112a1.246,1.246,0,0,1,.563-.138h.95a1.25,1.25,0,0,0,0-2.5Z" transform="translate(-20.67 -47)" fill="#5eb05a"/>
      </g>
      <g id="Grupo_1115206" data-name="Grupo 1115206" transform="translate(0 0)">
        <path id="Trazado_938063" data-name="Trazado 938063" d="M73.75,17.5h-25a6.257,6.257,0,0,0-6.25,6.25v20a1.25,1.25,0,0,0,2.5,0v-20A3.755,3.755,0,0,1,48.75,20h25a3.755,3.755,0,0,1,3.75,3.75v47.5H66.25a1.25,1.25,0,0,0,0,2.5H77.5a3.755,3.755,0,0,1-3.75,3.75H59.861A8.717,8.717,0,0,0,62.5,71.25V69.561A4.347,4.347,0,0,0,63.674,62.5h.076a2.5,2.5,0,0,0,0-5H62.5V56.25a8.76,8.76,0,0,0-8.75-8.75H36.787l.644-11.25H38.75A1.25,1.25,0,0,0,40,35V30a1.25,1.25,0,0,0-1.25-1.25h-2.5V25a2.5,2.5,0,0,0-2.5-2.5h-10V9.267l5-5A2.5,2.5,0,0,0,26.983,0H25.517A2.514,2.514,0,0,0,23.75.732L17.866,6.616A1.247,1.247,0,0,0,17.5,7.5v15H6.25A2.5,2.5,0,0,0,3.75,25v3.75H1.25A1.25,1.25,0,0,0,0,30v5a1.25,1.25,0,0,0,1.25,1.25H2.57l2.3,40.214A3.751,3.751,0,0,0,8.611,80H31.39a3.726,3.726,0,0,0,1.4-.307A8.76,8.76,0,0,0,35,80H73.75A6.257,6.257,0,0,0,80,73.75v-50A6.257,6.257,0,0,0,73.75,17.5Zm-45.625,50a1.873,1.873,0,0,1-.522-3.673l1.505,1.129a3.716,3.716,0,0,0,4.284.119l.625-.416a1.214,1.214,0,0,1,1.526.15,3.685,3.685,0,0,0,2.614,1.09,3.722,3.722,0,0,0,1.181-.192l4.615-1.539a1.207,1.207,0,0,1,1.239.294l.279.279a3.705,3.705,0,0,0,3.28,1.018V67.5ZM51.25,64.846l1.763-.705a1.209,1.209,0,0,1,1.12.118l1.213.808.011.006A1.213,1.213,0,0,0,55,65a1.25,1.25,0,0,0-1.25,1.25v5a1.25,1.25,0,0,1-2.5,0Zm5,1.4a1.243,1.243,0,0,0-.381-.894,3.712,3.712,0,0,0,2.881.071v.823a1.25,1.25,0,0,1-2.5,0Zm4.785,1.2a3.717,3.717,0,0,0,.215-1.2V63.865a1.868,1.868,0,0,1-.215,3.586ZM60,56.25V57.5H37.5a1.25,1.25,0,0,0,0,2.5H62.795a2.52,2.52,0,0,0-1.119.264,1.275,1.275,0,0,0-.2.125l-3.341,2.552a1.21,1.21,0,0,1-1.4.045l-1.213-.807a3.712,3.712,0,0,0-3.435-.359l-3.545,1.417a1.211,1.211,0,0,1-1.3-.269l-.279-.278a3.688,3.688,0,0,0-3.8-.9l-4.615,1.539a1.2,1.2,0,0,1-1.237-.293,3.723,3.723,0,0,0-4.68-.464L32,62.992a1.213,1.213,0,0,1-1.4-.037L27.334,60.5a2.515,2.515,0,0,0-1.5-.5H32.5a1.25,1.25,0,0,0,0-2.5H28.75V56.25A6.257,6.257,0,0,1,35,50H53.75A6.257,6.257,0,0,1,60,56.25ZM20,8.018,25.517,2.5h1.465L21.616,7.866a1.247,1.247,0,0,0-.366.884V22.5H20ZM2.5,31.25H8.75a1.25,1.25,0,1,0,0-2.5H6.25V25h27.5v3.75h-20a1.25,1.25,0,0,0,0,2.5H37.5v2.5H2.5ZM7.364,76.321,5.074,36.25H34.927l-.645,11.286A8.757,8.757,0,0,0,26.25,56.25V57.5H25a2.5,2.5,0,1,0,0,5h.087a4.337,4.337,0,0,0,1.163,7.061V71.25a8.724,8.724,0,0,0,2.629,6.25H8.611a1.25,1.25,0,0,1-1.248-1.179ZM52.5,77.5H35a6.242,6.242,0,0,1-6.25-6.25V70h20v1.25a3.75,3.75,0,0,0,7.5,0V70H60v1.25a6.257,6.257,0,0,1-6.25,6.25Z" transform="translate(0 0)"/>
        <path id="Trazado_938064" data-name="Trazado 938064" d="M53.75,20.5a1.25,1.25,0,0,0,0-2.5h-7.5a1.25,1.25,0,0,0,0,2.5Z" transform="translate(11.25 4.5)" fill="#333"/>
        <path id="Trazado_938065" data-name="Trazado 938065" d="M27.5,42H26.25a1.25,1.25,0,0,0,0,2.5H27.5a1.25,1.25,0,0,0,0-2.5Z" transform="translate(6.25 10.5)" fill="#333"/>
        <path id="Trazado_938066" data-name="Trazado 938066" d="M32.25,44.5H33.5a1.25,1.25,0,0,0,0-2.5H32.25a1.25,1.25,0,0,0,0,2.5Z" transform="translate(7.75 10.5)" fill="#333"/>
        <path id="Trazado_938067" data-name="Trazado 938067" d="M38.25,44.5H39.5a1.25,1.25,0,0,0,0-2.5H38.25a1.25,1.25,0,0,0,0,2.5Z" transform="translate(9.25 10.5)" fill="#333"/>
        <path id="Trazado_938068" data-name="Trazado 938068" d="M44.25,44.5H45.5a1.25,1.25,0,0,0,0-2.5H44.25a1.25,1.25,0,0,0,0,2.5Z" transform="translate(10.75 10.5)" fill="#333"/>
      </g>
    </g>
  </g>
</svg>
