<svg xmlns="http://www.w3.org/2000/svg" width="80" height="80" viewBox="0 0 80 80">
  <g id="Grupo_1114634" data-name="Grupo 1114634" transform="translate(-704.668 -6155)">
    <rect id="Rectángulo_402033" data-name="Rectángulo 402033" width="80" height="80" rx="8" transform="translate(704.668 6155)" fill="#0042db"/>
    <g id="Grupo_1115245" data-name="Grupo 1115245" transform="translate(683.586 6161.18)">
      <g id="Grupo_1115244" data-name="Grupo 1115244" transform="translate(34.348 3.344)">
        <g id="Grupo_1115237" data-name="Grupo 1115237" transform="translate(1.03 1.766)">
          <g id="Grupo_1115236" data-name="Grupo 1115236">
            <g id="Grupo_1115235" data-name="Grupo 1115235">
              <g id="Grupo_1115234" data-name="Grupo 1115234">
                <g id="Grupo_1115233" data-name="Grupo 1115233">
                  <g id="Grupo_1115232" data-name="Grupo 1115232">
                    <g id="Grupo_1115231" data-name="Grupo 1115231">
                      <g id="Grupo_1115228" data-name="Grupo 1115228" transform="translate(30.415 36.362)">
                        <path id="Trazado_938108" data-name="Trazado 938108" d="M291.653,323q2.843,1.366,5.688,2.728l6.8-7.6a2.524,2.524,0,0,0-3.615-3.518Z" transform="translate(-291.653 -313.913)" fill="#f89f8e"/>
                      </g>
                      <g id="Grupo_1115229" data-name="Grupo 1115229" transform="translate(34.55 38.856)">
                        <path id="Trazado_938109" data-name="Trazado 938109" d="M322.951,341.371q2.776,1.5,5.554,2.991l7.153-7.278a2.524,2.524,0,0,0-3.447-3.683Z" transform="translate(-322.951 -332.79)" fill="#fdb0a0"/>
                      </g>
                      <g id="Grupo_1115230" data-name="Grupo 1115230">
                        <circle id="Elipse_13480" data-name="Elipse 13480" cx="22.294" cy="22.294" r="22.294" transform="translate(1.409 0.001)" fill="#64b9fc"/>
                        <path id="Trazado_938110" data-name="Trazado 938110" d="M248.582,60.988a22.294,22.294,0,0,1-22.293,22.294c-.748,0-1.489-.036-2.218-.109a22.3,22.3,0,0,0,0-44.371c.729-.073,1.47-.109,2.218-.109A22.294,22.294,0,0,1,248.582,60.988Z" transform="translate(-202.585 -38.694)" fill="#31a7fb"/>
                        <path id="Trazado_938111" data-name="Trazado 938111" d="M176,61.874A22.187,22.187,0,0,1,172.013,74.6l-6.521-2.172a1.321,1.321,0,0,0-1.529.539l-1.4,2.177a1.322,1.322,0,0,1-.553.483l-3.789,1.767a1.321,1.321,0,0,1-1.318-.117l-4.669-3.282a1.321,1.321,0,0,1-.451-1.61l.7-1.593a1.321,1.321,0,0,1,.889-.752l5.08-1.275a1.321,1.321,0,0,0,.854-.679l1.718-3.354a1.321,1.321,0,0,0-.049-1.292l-1.848-3.023A1.321,1.321,0,0,0,158,59.783H156.53a1.321,1.321,0,0,0-1.112.607l-2.561,3.989a1.321,1.321,0,0,1-1.5.551l-2.071-.628a1.321,1.321,0,0,0-1.326.339L146.8,65.828a1.321,1.321,0,0,1-1.672.176L142.545,64.3a1.322,1.322,0,0,1-.494-.6l-1.515-3.709a1.321,1.321,0,0,1,.088-1.176l2.322-3.894a1.321,1.321,0,0,1,1.548-.578l3.927,1.295a1.321,1.321,0,0,0,1.019-.08l6.174-3.18a1.321,1.321,0,0,0,.713-1.264l-.187-2.747a1.321,1.321,0,0,0-.621-1.032l-1.342-.834a1.321,1.321,0,0,1-.49-1.7l2.471-5.076A22.3,22.3,0,0,1,176,61.874Z" transform="translate(-130.001 -39.58)" fill="#99d53b"/>
                        <path id="Trazado_938112" data-name="Trazado 938112" d="M276.626,61.872A22.187,22.187,0,0,1,272.641,74.6l-3.648-1.216a22.3,22.3,0,0,0-12.608-32.841l.4-.826a22.3,22.3,0,0,1,19.839,22.159Z" transform="translate(-230.63 -39.578)" fill="#8dc637"/>
                        <path id="Trazado_938113" data-name="Trazado 938113" d="M362.108,154.208a22.266,22.266,0,0,1-1.285,7.478c-2.3-.6-6.633-2.911-5.85-8.319a8.713,8.713,0,0,1,5.393-7.213.662.662,0,0,1,.224-.049A22.221,22.221,0,0,1,362.108,154.208Z" transform="translate(-316.111 -131.914)" fill="#8dc637"/>
                        <path id="Trazado_938114" data-name="Trazado 938114" d="M98.584,275.036a2.863,2.863,0,0,0-2.88.725c-.668.629-1.332,1.509-2.206,2.215a22.35,22.35,0,0,1-6.375-8.2,6.944,6.944,0,0,1,5.033-1.02,8.707,8.707,0,0,1,7.213,5.394A.659.659,0,0,1,98.584,275.036Z" transform="translate(-83.731 -238.28)" fill="#31a7fb"/>
                        <path id="Trazado_938115" data-name="Trazado 938115" d="M106.687,60.711a8.721,8.721,0,0,1-8.4-1.933,22.367,22.367,0,0,1,10.838-8.886q.506.061,1.041.139a2.354,2.354,0,0,1,.537.143,2.3,2.3,0,0,1,1.424,1.764C112.5,54.2,112.138,59.337,106.687,60.711Z" transform="translate(-93.415 -48.412)" fill="#31a7fb"/>
                        <path id="Trazado_938116" data-name="Trazado 938116" d="M115.4,345.587a2.524,2.524,0,0,0-3.111-.889l-8.576,3.8a3.364,3.364,0,0,0-3.326-2.859H93.132a13.237,13.237,0,0,1-4.2-.685l-6.122-2.049a5.483,5.483,0,0,0-3.272-.065L75.56,344a5.481,5.481,0,0,0-3.332,2.735,11.2,11.2,0,0,1-3.849,4.234l-6.931,4.488L70,364.012l8.928-6.825,17.22,1.158A5.2,5.2,0,0,0,99,357.717l15.525-8.5a2.524,2.524,0,0,0,.876-3.633Z" transform="translate(-61.448 -302.469)" fill="#ffcec0"/>
                        <path id="Trazado_938117" data-name="Trazado 938117" d="M153,361.623l-15.525,8.5a5.207,5.207,0,0,1-2.846.628l-17.221-1.158-8.928,6.826-2.7-2.7,9.321-7.125a.929.929,0,0,1,.626-.189l16.872,1.134a5.211,5.211,0,0,0,2.847-.627l15.525-8.5a2.512,2.512,0,0,0,1.209-1.5,2.524,2.524,0,0,1,.818,4.707Z" transform="translate(-99.925 -314.872)" fill="#fdb0a0"/>
                      </g>
                    </g>
                  </g>
                </g>
              </g>
            </g>
          </g>
        </g>
        <g id="Grupo_1115239" data-name="Grupo 1115239" transform="translate(0 29.466)">
          <g id="Grupo_1115238" data-name="Grupo 1115238">
            <path id="Trazado_938118" data-name="Trazado 938118" d="M54.358,256.663a2.308,2.308,0,0,1-.645-2.174c.517-2.236,2.8-6.848,8.366-6.043a8.709,8.709,0,0,1,7.213,5.393.659.659,0,0,1-.785.885,2.864,2.864,0,0,0-2.88.724C63.7,257.262,61.816,261.155,54.8,257a2.37,2.37,0,0,1-.442-.336Z" transform="translate(-53.654 -248.353)" fill="#99d53b"/>
            <path id="Trazado_938119" data-name="Trazado 938119" d="M68.511,274.127a2.866,2.866,0,0,0-2.881.724c-1.924,1.815-3.81,5.707-10.827,1.551a2.319,2.319,0,0,1-1.13-2.26c6.657,3.738,8.5-.028,10.388-1.8a2.862,2.862,0,0,1,2.881-.724.66.66,0,0,0,.785-.885l-.008-.019a8.781,8.781,0,0,1,1.577,2.532A.659.659,0,0,1,68.511,274.127Z" transform="translate(-53.658 -267.755)" fill="#8dc637"/>
          </g>
        </g>
        <g id="Grupo_1115241" data-name="Grupo 1115241" transform="translate(4.689)">
          <g id="Grupo_1115240" data-name="Grupo 1115240">
            <path id="Trazado_938120" data-name="Trazado 938120" d="M102.073,25.671a2.308,2.308,0,0,1,1.424,1.764c.373,2.264.016,7.4-5.435,8.773a8.709,8.709,0,0,1-8.723-2.24.659.659,0,0,1,.389-1.117,2.864,2.864,0,0,0,2.388-1.767c1.09-2.41,1.351-6.728,9.421-5.556A2.351,2.351,0,0,1,102.073,25.671Z" transform="translate(-89.148 -25.33)" fill="#a3e440"/>
            <path id="Trazado_938121" data-name="Trazado 938121" d="M107.232,36.537a8.791,8.791,0,0,1-7.518-1.217,9.612,9.612,0,0,0,4.514-.124c5.451-1.374,5.809-6.51,5.435-8.774a2.32,2.32,0,0,0-.243-.713c.4.033.833.081,1.287.147a2.44,2.44,0,0,1,.537.143,2.307,2.307,0,0,1,1.423,1.765C113.041,30.029,112.684,35.164,107.232,36.537Z" transform="translate(-98.318 -25.66)" fill="#8dc637"/>
          </g>
        </g>
        <g id="Grupo_1115243" data-name="Grupo 1115243" transform="translate(41.779 13.4)">
          <g id="Grupo_1115242" data-name="Grupo 1115242">
            <path id="Trazado_938122" data-name="Trazado 938122" d="M378.18,141.739a2.308,2.308,0,0,1-2.173.645c-2.236-.517-6.848-2.8-6.043-8.366a8.709,8.709,0,0,1,5.393-7.213.659.659,0,0,1,.885.785,2.864,2.864,0,0,0,.724,2.88c1.814,1.925,5.707,3.811,1.551,10.827A2.359,2.359,0,0,1,378.18,141.739Z" transform="translate(-369.87 -126.754)" fill="#a3e440"/>
            <path id="Trazado_938123" data-name="Trazado 938123" d="M395.645,127.59a2.866,2.866,0,0,0,.724,2.881c1.815,1.924,5.707,3.81,1.551,10.827a2.319,2.319,0,0,1-2.26,1.13c3.738-6.657-.028-8.5-1.8-10.388a2.862,2.862,0,0,1-.724-2.881.66.66,0,0,0-.885-.785l-.019.008a8.782,8.782,0,0,1,2.532-1.577A.659.659,0,0,1,395.645,127.59Z" transform="translate(-389.273 -126.754)" fill="#99d53b"/>
          </g>
        </g>
      </g>
      <path id="Trazado_938124" data-name="Trazado 938124" d="M90.149,47.671a3.514,3.514,0,0,0-4.333-1.238l-1.523.675a3.512,3.512,0,0,0-4.481-3.98,3.506,3.506,0,0,0-1.325-1.964,3.564,3.564,0,0,0-.428-.269,23.3,23.3,0,0,0,3.571-7.664c.14.04.279.077.411.108a3.243,3.243,0,0,0,.73.083,3.305,3.305,0,0,0,.669-.069A16.059,16.059,0,0,0,85.7,35.2a.991.991,0,0,0,1.112-1.641,14.156,14.156,0,0,1-1.579-1.239,3.379,3.379,0,0,0,.389-.53c4.006-6.764,1.046-9.478-.913-11.274-.283-.259-.55-.5-.769-.737a1.885,1.885,0,0,1-.492-1.931,1.65,1.65,0,0,0-2.213-1.972,9.959,9.959,0,0,0-1.5.772,23.336,23.336,0,0,0-2.971-4.394.991.991,0,0,0-1.5,1.29,21.339,21.339,0,0,1,2.886,4.347,10.063,10.063,0,0,0-2.9,5.974,9.806,9.806,0,0,0-.1,1.289.991.991,0,0,0,.979,1h.012a.991.991,0,0,0,.991-.979,7.832,7.832,0,0,1,.082-1.029,7.71,7.71,0,0,1,4.211-6.177A3.867,3.867,0,0,0,82.5,21.139c.269.286.562.554.873.839,1.836,1.683,3.734,3.424.547,8.8-.018.03-.038.058-.058.086A12.775,12.775,0,0,1,81.1,23.112a.991.991,0,1,0-1.981.04,14.877,14.877,0,0,0,2.481,7.984,7.526,7.526,0,0,1-3.336-2.375.991.991,0,0,0-1.577,1.2,9.168,9.168,0,0,0,3.09,2.526,21.282,21.282,0,0,1-2.788,6.46l-5.8-1.932a2.31,2.31,0,0,0-2.675.942l-1.4,2.177a.331.331,0,0,1-.138.121l-3.789,1.767a.33.33,0,0,1-.33-.029L58.18,38.711a.331.331,0,0,1-.113-.4l.7-1.593a.333.333,0,0,1,.222-.188l5.08-1.275a2.312,2.312,0,0,0,1.495-1.188l1.718-3.354a2.325,2.325,0,0,0-.085-2.26l-1.848-3.023a2.326,2.326,0,0,0-1.973-1.106H61.906a2.3,2.3,0,0,0-1.946,1.063L57.4,29.373a.331.331,0,0,1-.374.138l-2.071-.628a2.3,2.3,0,0,0-2.321.593l-1.165,1.187a.331.331,0,0,1-.418.044L48.468,29a.33.33,0,0,1-.124-.151l-1.515-3.709a.332.332,0,0,1,.022-.294l2.322-3.894a.328.328,0,0,1,.387-.145L53.488,22.1a2.326,2.326,0,0,0,1.783-.14l6.174-3.18a2.31,2.31,0,0,0,1.248-2.212l-.187-2.747a2.318,2.318,0,0,0-1.086-1.807l-1.342-.834a.33.33,0,0,1-.123-.425l2.161-4.44a21.048,21.048,0,0,1,10.1,4.318.991.991,0,1,0,1.223-1.559A23.051,23.051,0,0,0,59.081,4.119a23.433,23.433,0,0,0-4.9.516,3.3,3.3,0,0,0-.34-.647,16.04,16.04,0,0,0,.847-2.8.991.991,0,0,0-1.94-.4,14.146,14.146,0,0,1-.545,1.932,3.363,3.363,0,0,0-.638-.158C43.788,1.431,42.405,5.2,41.49,7.7c-.132.36-.257.7-.389.992A1.886,1.886,0,0,1,39.5,9.88a1.65,1.65,0,0,0-.981,2.8,9.941,9.941,0,0,0,1.548,1.279A23.052,23.052,0,0,0,35.8,27.4a23.327,23.327,0,0,0,.817,6.131,9.831,9.831,0,0,0-3.172,5.188,3.273,3.273,0,0,0-.013,1.4,16.051,16.051,0,0,0-1.849,2.265A.991.991,0,1,0,33.22,43.5a14.169,14.169,0,0,1,1.239-1.579,3.361,3.361,0,0,0,.53.389A11.858,11.858,0,0,0,40.9,44.3a5.836,5.836,0,0,0,1.859-.293,23.358,23.358,0,0,0,3.917,3.1,6.464,6.464,0,0,0-1.4,1.809,10.226,10.226,0,0,1-3.508,3.859l-6.931,4.488a.991.991,0,1,0,1.077,1.663l6.931-4.488a12.208,12.208,0,0,0,4.189-4.609,4.511,4.511,0,0,1,2.73-2.241l3.976-1.157a4.468,4.468,0,0,1,2.681.053l6.122,2.05a14.2,14.2,0,0,0,4.517.736h7.255a2.373,2.373,0,0,1,0,4.745H65.575a19.951,19.951,0,0,0-4.658.552.991.991,0,1,0,.463,1.927,17.979,17.979,0,0,1,4.195-.5h8.741a4.359,4.359,0,0,0,4.351-4.23l7.952-3.526a1.533,1.533,0,0,1,1.89.54,1.533,1.533,0,0,1-.532,2.207l-15.525,8.5a4.2,4.2,0,0,1-2.3.508l-17.22-1.158a.991.991,0,0,0-.668.2l-8.928,6.825a.991.991,0,1,0,1.2,1.574l8.632-6.6,16.848,1.132a6.194,6.194,0,0,0,3.389-.746l15.525-8.5a3.515,3.515,0,0,0,1.22-5.059ZM81.8,45.3a1.533,1.533,0,0,1,.128,2.267L80.914,48.6l-.015.017-2.646,1.173a4.384,4.384,0,0,0-1.54-1.773l3.12-2.685A1.533,1.533,0,0,1,81.8,45.3Zm-4.487-2.538a1.528,1.528,0,0,1,.574,1.628L74.508,47.3c-.064,0-.127,0-.191,0H71.191a23.44,23.44,0,0,0,5.484-4.636c.041-.047.079-.095.119-.142A1.523,1.523,0,0,1,77.312,42.761ZM42.907,9.506c.162-.358.3-.731.444-1.126.857-2.338,1.745-4.756,7.932-3.858.035.005.068.013.1.021a12.776,12.776,0,0,1-6.118,5.512.991.991,0,1,0,.792,1.817A14.876,14.876,0,0,0,52.5,6.54a7.98,7.98,0,0,1-.557,3.248,5.836,5.836,0,0,1-4.229,3.473,7.709,7.709,0,0,1-7.315-1.542A3.867,3.867,0,0,0,42.907,9.506Zm14.144,35.1a6.444,6.444,0,0,0-3.864-.077l-3.976,1.157a6.424,6.424,0,0,0-.662.234,21.354,21.354,0,0,1-3.964-2.91A13.427,13.427,0,0,0,46.263,41.4c.259-.283.5-.55.737-.769a1.886,1.886,0,0,1,1.931-.492A1.65,1.65,0,0,0,50.9,37.921a9.446,9.446,0,0,0-4.813-5.075.991.991,0,1,0-.837,1.8,7.437,7.437,0,0,1,3.552,3.452,3.861,3.861,0,0,0-3.165,1.09c-.286.269-.554.562-.839.873-1.683,1.836-3.423,3.734-8.8.547-.03-.018-.057-.038-.086-.057a12.777,12.777,0,0,1,7.756-2.767.991.991,0,0,0-.02-1.982h-.021a14.878,14.878,0,0,0-7.985,2.481A6.35,6.35,0,0,1,41.39,33.8a.991.991,0,0,0-.018-1.982h-.019a7.744,7.744,0,0,0-2.971.629,21.378,21.378,0,0,1-.6-5.046,21.091,21.091,0,0,1,4.063-12.516,9.463,9.463,0,0,0,3.519.662,11.568,11.568,0,0,0,2.833-.367,7.821,7.821,0,0,0,5.574-4.633,9.831,9.831,0,0,0,.71-3.949,21.438,21.438,0,0,1,4.6-.5q.464,0,.925.02L58.172,9.887a2.306,2.306,0,0,0,.858,2.976l1.342.834a.331.331,0,0,1,.155.258l.187,2.747a.33.33,0,0,1-.178.316L54.363,20.2a.332.332,0,0,1-.254.02l-3.927-1.295a2.3,2.3,0,0,0-2.71,1.012l-2.322,3.894a2.324,2.324,0,0,0-.155,2.059L46.509,29.6a2.305,2.305,0,0,0,.865,1.054l2.583,1.709a2.316,2.316,0,0,0,2.926-.308l1.166-1.187a.329.329,0,0,1,.331-.085l2.071.628a2.322,2.322,0,0,0,2.616-.964l2.561-3.989a.329.329,0,0,1,.278-.152h1.467a.332.332,0,0,1,.282.158L65.5,29.484a.332.332,0,0,1,.012.323L63.8,33.161a.331.331,0,0,1-.214.17L58.5,34.605a2.328,2.328,0,0,0-1.556,1.316l-.7,1.593a2.319,2.319,0,0,0,.789,2.818l4.669,3.282a2.317,2.317,0,0,0,2.307.2l3.789-1.767a2.309,2.309,0,0,0,.967-.844l1.4-2.177a.33.33,0,0,1,.382-.135l5.22,1.738c-.194.245-.392.487-.6.723a21.409,21.409,0,0,1-8.433,5.929,12.216,12.216,0,0,1-3.572-.627Z"/>
    </g>
  </g>
</svg>
