<svg xmlns="http://www.w3.org/2000/svg" width="120" height="120" viewBox="0 0 120 120">
  <g id="Grupo_1114806" data-name="Grupo 1114806" transform="translate(-64 -6445)">
    <rect id="Rectángulo_402033" data-name="Rectángulo 402033" width="120" height="120" rx="8" transform="translate(64 6445)" fill="#0042db"/>
    <g id="Rectángulo_412110" data-name="Rectángulo 412110" transform="translate(69 6450)" fill="none" stroke="#fff" stroke-width="1">
      <rect width="110" height="110" rx="6" stroke="none"/>
      <rect x="0.5" y="0.5" width="109" height="109" rx="5.5" fill="none"/>
    </g>
    <g id="Grupo_1115196" data-name="Grupo 1115196" transform="translate(80 6459.723)">
      <path id="Trazado_938023" data-name="Trazado 938023" d="M53.756,50.681,40.712,47.075V42.7a15.7,15.7,0,0,0,8.571-13.984V20.142H44.119A11.362,11.362,0,0,1,33.57,13a11.362,11.362,0,0,1-10.55,7.142H17.856v8.571A15.7,15.7,0,0,0,26.427,42.7v4.378L13.384,50.681A11.428,11.428,0,0,0,5,61.695V77.282H62.14V61.695a11.428,11.428,0,0,0-8.383-11.013Z" transform="translate(0.428 5.142)" fill="#fbe3bc"/>
      <path id="Trazado_938024" data-name="Trazado 938024" d="M40.712,36.854a9.757,9.757,0,0,1-6.9,2.857h-.491a9.756,9.756,0,0,1-6.9-2.856l-13.045,3.6A11.428,11.428,0,0,0,5,51.473V67.061H62.14V51.473A11.428,11.428,0,0,0,53.757,40.46Z" transform="translate(0.428 15.363)" fill="#4472b0"/>
      <path id="Trazado_938025" data-name="Trazado 938025" d="M58.675,51.473A11.428,11.428,0,0,0,50.292,40.46L37.247,36.854h0a9.757,9.757,0,0,1-6.9,2.857h-.491a9.756,9.756,0,0,1-6.9-2.856l-9.876,2.727C14.49,54.97,28.6,67.061,45.818,67.061H58.675Z" transform="translate(3.894 15.363)" fill="#698ec0"/>
      <circle id="Elipse_13475" data-name="Elipse 13475" cx="18.57" cy="18.57" r="18.57" transform="translate(45.426 50.997)" fill="#c7e2fb"/>
      <path id="Trazado_938026" data-name="Trazado 938026" d="M49.428,36a18.461,18.461,0,0,0-9.808,2.822A20.04,20.04,0,0,0,38,46.714,21.08,21.08,0,0,0,59.427,67.427a22.11,22.11,0,0,0,3.678-.327A18.548,18.548,0,0,0,49.428,36Z" transform="translate(14.569 14.997)" fill="#ebf7fe"/>
      <path id="Trazado_938027" data-name="Trazado 938027" d="M15.714,24.857V22H14.285a4.285,4.285,0,1,0,0,8.571H16.8a15.655,15.655,0,0,1-1.087-5.714Z" transform="translate(2.571 8.998)" fill="#fdeed7"/>
      <path id="Trazado_938028" data-name="Trazado 938028" d="M37.755,22H36.326v2.857a15.655,15.655,0,0,1-1.087,5.714h2.516a4.285,4.285,0,1,0,0-8.571Z" transform="translate(13.386 8.998)" fill="#fdeed7"/>
      <path id="Trazado_938029" data-name="Trazado 938029" d="M47.141,30.57h1.428a4.263,4.263,0,0,1,1.734.373l2-7.314a13.917,13.917,0,0,0,.357-6.2,14.079,14.079,0,0,0-5.337-8.817L44.7,6.6a22.473,22.473,0,0,0-28.251.8l-1.473,1.27a14.042,14.042,0,0,0-4.7,8.3l-.079.459a13.916,13.916,0,0,0,.357,6.2l2.321,7.2a4.25,4.25,0,0,1,1.413-.257h1.428V24.856h5.164a11.362,11.362,0,0,0,10.549-7.142,11.362,11.362,0,0,0,10.55,7.142h5.164Z" transform="translate(2.571 0.428)" fill="#666e77"/>
      <path id="Trazado_938030" data-name="Trazado 938030" d="M29.285,13a11.362,11.362,0,0,1-10.549,7.142H15v4.285a15.7,15.7,0,0,0,29.74,7.055A15.79,15.79,0,0,0,45,28.713V20.142H39.834A11.362,11.362,0,0,1,29.285,13Z" transform="translate(4.713 5.142)" fill="#fdeed7"/>
      <rect id="Rectángulo_412497" data-name="Rectángulo 412497" width="5.714" height="11.428" transform="translate(52.569 62.425)" fill="#4472b0"/>
      <path id="Trazado_938031" data-name="Trazado 938031" d="M42,52.571l4.285,2.857V62.57h0A5.714,5.714,0,0,0,52,56.856V54h4.285a2.857,2.857,0,0,0,2.857-2.857V46.857A2.857,2.857,0,0,0,56.285,44h-10L42,46.857Z" transform="translate(16.283 18.425)" fill="#fbe3bc"/>
      <path id="Trazado_938032" data-name="Trazado 938032" d="M29.571,32.714h2.857a5.714,5.714,0,0,0-11.428,0h2.857a2.857,2.857,0,1,1,5.714,0Z" transform="translate(7.284 11.141)"/>
      <path id="Trazado_938033" data-name="Trazado 938033" d="M25.571,25.285a4.285,4.285,0,0,0-8.571,0h2.857a1.428,1.428,0,0,1,2.857,0Z" transform="translate(5.57 8.57)"/>
      <path id="Trazado_938034" data-name="Trazado 938034" d="M31.285,23.857a1.428,1.428,0,0,1,1.428,1.428h2.857a4.285,4.285,0,0,0-8.571,0h2.857A1.428,1.428,0,0,1,31.285,23.857Z" transform="translate(9.855 8.57)"/>
      <path id="Trazado_938035" data-name="Trazado 938035" d="M58.427,43h-10a1.437,1.437,0,0,0-.793.24l-2.064,1.377v-.189A1.429,1.429,0,0,0,44.142,43H38.428A1.428,1.428,0,0,0,37,44.428V55.856a1.428,1.428,0,0,0,1.428,1.428h5.714a1.429,1.429,0,0,0,1.428-1.428v-.189L47,56.621V63a1.429,1.429,0,0,0,1.428,1.428,7.151,7.151,0,0,0,7.142-7.142V55.856h2.857a4.285,4.285,0,0,0,4.285-4.285V47.285A4.285,4.285,0,0,0,58.427,43ZM42.714,54.428H39.857V45.857h2.857Zm17.142-2.857A1.428,1.428,0,0,1,58.427,53H54.142a1.428,1.428,0,0,0-1.428,1.428v2.857a4.294,4.294,0,0,1-2.857,4.041v-5.47a1.429,1.429,0,0,0-.636-1.189l-3.65-2.433V48.05l3.286-2.193h9.571a1.428,1.428,0,0,1,1.428,1.428Z" transform="translate(14.14 17.997)"/>
      <path id="Trazado_938036" data-name="Trazado 938036" d="M64,49.569A19.863,19.863,0,0,0,51.875,53.7L42.569,51.13V48.677a17.243,17.243,0,0,0,7-7.68H51.14a5.7,5.7,0,0,0,3.31-10.354l1.8-6.191A15.393,15.393,0,0,0,50.762,7.911L48.141,5.9a23.9,23.9,0,0,0-30.051.857l-1.474,1.27a15.516,15.516,0,0,0-5.174,9.142l-.077.459a15.408,15.408,0,0,0,.391,6.831l1.8,6.19A5.7,5.7,0,0,0,16.856,41h1.578a17.243,17.243,0,0,0,6.992,7.68V51.13l-12,3.316A12.892,12.892,0,0,0,4,66.838V82.424a1.428,1.428,0,0,0,1.428,1.428h44.6A19.992,19.992,0,1,0,64,49.569ZM51.14,38.141h-.571a17.045,17.045,0,0,0,.571-4.285V32.427a2.857,2.857,0,0,1,0,5.714ZM14.494,23.659a12.531,12.531,0,0,1-.319-5.56l.077-.457a12.665,12.665,0,0,1,4.221-7.454l1.474-1.269A21.043,21.043,0,0,1,46.4,8.167l2.628,2.013A12.539,12.539,0,0,1,53.5,23.657l-1.734,5.975a5.677,5.677,0,0,0-.629-.063V25.284a1.428,1.428,0,0,0-1.428-1.428H44.548a9.888,9.888,0,0,1-9.224-6.245,1.428,1.428,0,0,0-2.651,0,9.888,9.888,0,0,1-9.224,6.245H18.285a1.428,1.428,0,0,0-1.428,1.428V29.57a5.676,5.676,0,0,0-.629.063Zm2.363,14.482a2.857,2.857,0,1,1,0-5.714v1.428a17.045,17.045,0,0,0,.564,4.285Zm2.857-4.285V26.713h3.736A12.722,12.722,0,0,0,34,21.163a12.722,12.722,0,0,0,10.549,5.55h3.736v7.142a14.285,14.285,0,0,1-28.57,0ZM34,51a17.03,17.03,0,0,0,5.714-1v1.588a8.261,8.261,0,0,1-5.468,2.06h-.491a8.258,8.258,0,0,1-5.468-2.06V50A17.03,17.03,0,0,0,34,51ZM6.857,66.838A10.027,10.027,0,0,1,14.192,57.2l12.285-3.4a11.1,11.1,0,0,0,7.272,2.7h.491a11.1,11.1,0,0,0,7.272-2.7l7.857,2.171A19.888,19.888,0,0,0,47.608,81H18.285V68.139H15.428V81H6.857ZM64,86.71A17.142,17.142,0,1,1,81.139,69.568,17.142,17.142,0,0,1,64,86.71Z" transform="translate(0 0)"/>
    </g>
  </g>
</svg>
