<svg xmlns="http://www.w3.org/2000/svg" width="120" height="120" viewBox="0 0 120 120">
  <g id="Grupo_1114778" data-name="Grupo 1114778" transform="translate(-1236.5 -460)">
    <g id="Elipse_12108" data-name="Elipse 12108" transform="translate(1241.5 465)" fill="#8bc34a" stroke="rgba(255,255,255,0.4)" stroke-width="5">
      <circle cx="55" cy="55" r="55" stroke="none"/>
      <circle cx="55" cy="55" r="57.5" fill="none"/>
    </g>
    <g id="Grupo_1114622" data-name="Grupo 1114622" transform="translate(1261.609 465.571)">
      <path id="Trazado_924144" data-name="Trazado 924144" d="M34.879,29.057H39.33a4.036,4.036,0,0,1,4.03,4.03v6.622a11.732,11.732,0,0,1,3.732,2.519l1.252,1.252L49.6,42.228A11.832,11.832,0,0,1,66.331,58.96L62,63.284a1.022,1.022,0,0,1-1.445-1.445l4.327-4.323A9.788,9.788,0,0,0,51.044,43.673l-1.978,1.974a1.024,1.024,0,0,1-1.445,0l-1.974-1.974A9.788,9.788,0,0,0,31.8,57.515L48.343,74.055l8.944-8.944a1.023,1.023,0,0,1,1.445,1.449l-9.666,9.663a1.024,1.024,0,0,1-1.445,0l-4.261-4.265V82.21a4.036,4.036,0,0,1-4.03,4.026H4.026A4.037,4.037,0,0,1,0,82.21V59.965a1.022,1.022,0,1,1,2.044,0V82.21a1.992,1.992,0,0,0,1.982,1.982h35.3a1.992,1.992,0,0,0,1.982-1.982v-12.3L30.359,58.961a11.834,11.834,0,0,1,10.953-19.9V33.087A1.991,1.991,0,0,0,39.33,31.1H34.879a4.264,4.264,0,0,1-4.115,3.222H24a1.024,1.024,0,1,1,0-2.048h6.769a2.2,2.2,0,0,0,0-4.4H27.206a1.053,1.053,0,0,1-1.113-1.016,2.2,2.2,0,0,0-2.2-2.2H19.46a2.2,2.2,0,0,0-2.194,2.2,1.022,1.022,0,0,1-1.024,1.02H12.595a2.2,2.2,0,0,0,0,4.393h6.769a1.024,1.024,0,1,1,0,2.048H12.595A4.264,4.264,0,0,1,8.48,31.1H4.026a1.991,1.991,0,0,0-1.982,1.986V55.333a1.022,1.022,0,1,1-2.044,0V33.087a4.037,4.037,0,0,1,4.026-4.03H8.48A4.256,4.256,0,0,1,12.6,25.839h2.751a4.255,4.255,0,0,1,4.115-3.218H23.9a4.253,4.253,0,0,1,4.119,3.222h2.751a4.247,4.247,0,0,1,4.114,3.214Zm.993,28.16a1.024,1.024,0,0,1,0-2.048h6.39l2.782-5.957a1.019,1.019,0,0,1,1.356-.491,1,1,0,0,1,.537.614l3.589,10.338L52,55.831a1.02,1.02,0,0,1,.954-.661h7.858a1.024,1.024,0,0,1,0,2.048H53.655l-2.221,5.791a1.019,1.019,0,0,1-1.916-.031l-3.69-10.632-1.955,4.2a1.026,1.026,0,0,1-.962.676H35.872ZM17.7,70.025a1.022,1.022,0,1,1,0-2.044H28.064a1.022,1.022,0,1,1,0,2.044Zm0,4.5a1.022,1.022,0,1,1,0-2.044h6.61a1.022,1.022,0,0,1,0,2.044Zm0-18.178a1.022,1.022,0,1,1,0-2.044h6.61a1.022,1.022,0,0,1,0,2.044Zm0,4.509a1.022,1.022,0,1,1,0-2.044h6.61a1.022,1.022,0,0,1,0,2.044Zm0-18.177a1.022,1.022,0,1,1,0-2.044h8.863a1.022,1.022,0,1,1,0,2.044Zm0,4.5a1.022,1.022,0,1,1,0-2.044h6.61a1.022,1.022,0,0,1,0,2.044ZM6.282,66.78H13.19a1.022,1.022,0,0,1,1.024,1.02v6.912a1.022,1.022,0,0,1-1.024,1.02H6.282a1.022,1.022,0,0,1-1.024-1.02V67.8A1.022,1.022,0,0,1,6.282,66.78Zm5.888,2.044H7.3v4.864H12.17ZM6.282,53.107H13.19a1.026,1.026,0,0,1,1.024,1.024v6.908a1.026,1.026,0,0,1-1.024,1.024H6.282a1.026,1.026,0,0,1-1.024-1.024V54.131a1.026,1.026,0,0,1,1.024-1.024Zm5.888,2.044H7.3v4.868H12.17ZM6.282,39.439H13.19a1.022,1.022,0,0,1,1.024,1.02V47.37a1.022,1.022,0,0,1-1.024,1.02H6.282a1.022,1.022,0,0,1-1.024-1.02V40.458a1.022,1.022,0,0,1,1.024-1.02Zm5.888,2.044H7.3v4.864H12.17Z" transform="translate(0)" fill="#001a58"/>
    </g>
  </g>
</svg>
