<svg xmlns="http://www.w3.org/2000/svg" width="120" height="120" viewBox="0 0 120 120">
  <g id="Grupo_1114770" data-name="Grupo 1114770" transform="translate(-64 -6445)">
    <rect id="Rect치ngulo_402033" data-name="Rect치ngulo 402033" width="120" height="120" rx="8" transform="translate(64 6445)" fill="#0042db"/>
    <g id="Rect치ngulo_412110" data-name="Rect치ngulo 412110" transform="translate(69 6450)" fill="none" stroke="#fff" stroke-width="1">
      <rect width="110" height="110" rx="6" stroke="none"/>
      <rect x="0.5" y="0.5" width="109" height="109" rx="5.5" fill="none"/>
    </g>
    <g id="Layer_15" transform="translate(84 6465.195)">
      <g id="Grupo_1115150" data-name="Grupo 1115150" transform="translate(0)">
        <g id="Grupo_1115032" data-name="Grupo 1115032" transform="translate(63.326 47.117)">
          <g id="Grupo_1115031" data-name="Grupo 1115031">
            <path id="Trazado_937766" data-name="Trazado 937766" d="M211.929,150.773a15.038,15.038,0,0,1-5.87,3.614,11.408,11.408,0,0,0-2.678,1.571h0c-.8,3.545-1.275,7.117.322,9.911,4.437,7.765.739,11.832,3.328,17.008h10.459a1.049,1.049,0,0,0,1.046-1.046V150.773h-6.606Z" transform="translate(-202.642 -150.773)" fill="#e7974e"/>
          </g>
        </g>
        <g id="Grupo_1115034" data-name="Grupo 1115034" transform="translate(0.781 47.116)">
          <g id="Grupo_1115033" data-name="Grupo 1115033">
            <path id="Trazado_937767" data-name="Trazado 937767" d="M53.718,164.572c-4.867-1.391-7.773-3.108-9.947-9.149a1.287,1.287,0,0,1,2.389-.956,9.993,9.993,0,0,0,7.373,5.852,24.481,24.481,0,0,1,6.347,2.09h0a47.326,47.326,0,0,0,3.448-11.639H23.584a12.256,12.256,0,0,0,6.991,7.811H14.9c1.329-2.659.8-4.991.868-7.811H2.5v31.056a1.049,1.049,0,0,0,1.046,1.046H51.869c6.566-2.569,8.281-9.432,8.723-12.429-.2-.615-.4-1.237-.57-1.852a16.855,16.855,0,0,0-6.3-4.02Z" transform="translate(-2.5 -150.772)" fill="#e7974e"/>
          </g>
        </g>
        <g id="Grupo_1115036" data-name="Grupo 1115036" transform="translate(57.655 31.068)">
          <g id="Grupo_1115035" data-name="Grupo 1115035">
            <path id="Trazado_937768" data-name="Trazado 937768" d="M194.554,147.567c-2.588-5.176,1.109-9.243-3.328-17.008-3.87-6.772,4.437-18.117,0-22.554a13.756,13.756,0,0,1-3.992-8.05.609.609,0,0,0-1.146-.208c-1.152,2.232-.871,5.865,1.81,9.738,2.381,3.439-1.479,14.79-2.958,17.747s1.109,8.5,2.218,12.2-1.479,8.134-1.479,8.134Z" transform="translate(-184.496 -99.416)" fill="#8c654b"/>
          </g>
        </g>
        <g id="Grupo_1115038" data-name="Grupo 1115038" transform="translate(41.974 50.034)">
          <g id="Grupo_1115037" data-name="Grupo 1115037">
            <path id="Trazado_937769" data-name="Trazado 937769" d="M150.444,168.958c.02-.039.041-.086.062-.128a24.454,24.454,0,0,0-6.347-2.09,9.993,9.993,0,0,1-7.373-5.852,1.287,1.287,0,0,0-2.389.956c2.174,6.041,5.08,7.758,9.947,9.149a16.853,16.853,0,0,1,6.3,4.021C150,172.711,149.679,170.488,150.444,168.958Z" transform="translate(-134.318 -160.109)" fill="#754e34"/>
          </g>
        </g>
        <g id="Grupo_1115040" data-name="Grupo 1115040" transform="translate(50.151 66.79)">
          <g id="Grupo_1115039" data-name="Grupo 1115039">
            <path id="Trazado_937770" data-name="Trazado 937770" d="M170.651,218.022c-.382-1.273-.939-2.765-1.445-4.295-.442,3-2.158,9.86-8.723,12.429h8.689S171.76,221.719,170.651,218.022Z" transform="translate(-160.483 -213.727)" fill="#754e34"/>
          </g>
        </g>
        <g id="Grupo_1115042" data-name="Grupo 1115042" transform="translate(64.065 39.035)">
          <g id="Grupo_1115041" data-name="Grupo 1115041">
            <path id="Trazado_937771" data-name="Trazado 937771" d="M215.779,124.958a1.282,1.282,0,0,0-1.567.85,9.993,9.993,0,0,1-6.762,6.549c-.41.135-.8.268-1.179.4-.344,1.722-.848,3.566-1.265,5.418a11.419,11.419,0,0,1,2.678-1.571c4.707-1.863,7.43-3.858,9-10.083A1.292,1.292,0,0,0,215.779,124.958Z" transform="translate(-205.007 -124.912)" fill="#754e34"/>
          </g>
        </g>
        <g id="Grupo_1115044" data-name="Grupo 1115044" transform="translate(46.966 35.554)">
          <g id="Grupo_1115043" data-name="Grupo 1115043">
            <path id="Trazado_937772" data-name="Trazado 937772" d="M164.384,119.354a13.325,13.325,0,0,1-2.354-5.581,2.483,2.483,0,0,0-.179.288l-1.689,3.191a2.463,2.463,0,0,1-1.284,1.143l-4.126,1.6a2.464,2.464,0,0,0-1.064.8l-3.136,4.1a2.449,2.449,0,0,0-.259.435h14.644C165.286,122.827,165.235,120.584,164.384,119.354Z" transform="translate(-150.292 -113.773)" fill="#feb872"/>
          </g>
        </g>
        <g id="Grupo_1115046" data-name="Grupo 1115046" transform="translate(61.103 27.656)">
          <g id="Grupo_1115045" data-name="Grupo 1115045">
            <path id="Trazado_937773" data-name="Trazado 937773" d="M209,88.5a2.464,2.464,0,0,0-2.026,1.061l-1.85,2.673a2.456,2.456,0,0,1-.548.568l-2.773,2.08a2.465,2.465,0,0,1-1.478.493h-4.795a13.933,13.933,0,0,0,3.283,5.125c1.65,1.65,1.537,4.256.944,7.226.379-.134.768-.268,1.178-.4a9.993,9.993,0,0,0,6.762-6.549,1.287,1.287,0,0,1,2.472.716,14.389,14.389,0,0,1-3.129,6.469h6.606V88.5Z" transform="translate(-195.528 -88.5)" fill="#feb872"/>
          </g>
        </g>
        <g id="Grupo_1115048" data-name="Grupo 1115048" transform="translate(21.07 40.063)">
          <g id="Grupo_1115047" data-name="Grupo 1115047">
            <path id="Trazado_937774" data-name="Trazado 937774" d="M79.128,134.821l-3.136-4.1a2.467,2.467,0,0,0-1.064-.8l-4.126-1.6a2.487,2.487,0,0,1-.245-.113,21.491,21.491,0,0,0-2.625,2.117c-.154.55-.327,1.1-.509,1.653a18.617,18.617,0,0,0,.8,3.283H79.388A2.487,2.487,0,0,0,79.128,134.821Z" transform="translate(-67.423 -128.203)" fill="#feb872"/>
          </g>
        </g>
        <g id="Grupo_1115050" data-name="Grupo 1115050" transform="translate(0.781 27.656)">
          <g id="Grupo_1115049" data-name="Grupo 1115049">
            <path id="Trazado_937775" data-name="Trazado 937775" d="M18.761,95.375H15.821a2.462,2.462,0,0,1-1.478-.493L11.57,92.8a2.469,2.469,0,0,1-.548-.568l-1.85-2.673A2.464,2.464,0,0,0,7.147,88.5H2.5v19.46H15.766a14.706,14.706,0,0,1,2.1-7.37,8.846,8.846,0,0,0,.892-5.215Z" transform="translate(-2.5 -88.5)" fill="#feb872"/>
          </g>
        </g>
        <g id="Grupo_1115052" data-name="Grupo 1115052" transform="translate(13.179 11.947)">
          <g id="Grupo_1115051" data-name="Grupo 1115051">
            <path id="Trazado_937776" data-name="Trazado 937776" d="M48.773,73.951c.99-3.3,3.3-8.251,1.98-10.891s-4.766-12.772-2.64-15.842c2.393-3.457,2.644-6.7,1.615-8.692a.543.543,0,0,0-1.022.186A12.279,12.279,0,0,1,45.142,45.9c-3.96,3.96,3.454,14.088,0,20.132-3.96,6.931-.66,10.561-2.97,15.182h7.921s-2.31-3.961-1.32-7.261Z" transform="translate(-42.172 -38.232)" fill="#8c654b"/>
          </g>
        </g>
        <g id="Grupo_1115054" data-name="Grupo 1115054" transform="translate(21.578 28.877)">
          <g id="Grupo_1115053" data-name="Grupo 1115053">
            <path id="Trazado_937777" data-name="Trazado 937777" d="M82.891,92.484a1.144,1.144,0,0,0-1.467.618,8.92,8.92,0,0,1-6.581,5.224,21.834,21.834,0,0,0-5.666,1.866c.018.038.037.079.055.114.683,1.366.393,3.35-.181,5.4a15.042,15.042,0,0,1,5.627-3.589c4.345-1.241,6.938-2.774,8.879-8.166a1.154,1.154,0,0,0-.666-1.471Z" transform="translate(-69.051 -92.407)" fill="#754e34"/>
          </g>
        </g>
        <g id="Grupo_1115056" data-name="Grupo 1115056" transform="translate(19.533 43.833)">
          <g id="Grupo_1115055" data-name="Grupo 1115055">
            <path id="Trazado_937778" data-name="Trazado 937778" d="M64.041,140.267c-.452,1.366-.949,2.7-1.29,3.833-.99,3.3,1.32,7.261,1.32,7.261h7.756C65.967,149.068,64.435,142.942,64.041,140.267Z" transform="translate(-62.505 -140.267)" fill="#754e34"/>
          </g>
        </g>
        <g id="Grupo_1115058" data-name="Grupo 1115058" transform="translate(5.977 19.059)">
          <g id="Grupo_1115057" data-name="Grupo 1115057">
            <path id="Trazado_937779" data-name="Trazado 937779" d="M28.457,67.994c-.338-.119-.686-.239-1.052-.359a8.92,8.92,0,0,1-6.035-5.846,1.149,1.149,0,0,0-2.206.639c1.4,5.557,3.831,7.337,8.032,9a10.191,10.191,0,0,1,2.39,1.4c-.372-1.653-.822-3.3-1.129-4.836Z" transform="translate(-19.128 -60.989)" fill="#754e34"/>
          </g>
        </g>
        <g id="Grupo_1115060" data-name="Grupo 1115060" transform="translate(66.932 46.335)">
          <g id="Grupo_1115059" data-name="Grupo 1115059">
            <path id="Trazado_937780" data-name="Trazado 937780" d="M226.469,148.272h-6.484a.781.781,0,0,0,0,1.563h5.7v30.275a.268.268,0,0,1-.265.265H214.963a.781.781,0,0,0,0,1.563h10.459a1.829,1.829,0,0,0,1.827-1.827V149.053A.781.781,0,0,0,226.469,148.272Z" transform="translate(-214.182 -148.272)"/>
          </g>
        </g>
        <g id="Grupo_1115062" data-name="Grupo 1115062" transform="translate(26.754 26.259)">
          <g id="Grupo_1115061" data-name="Grupo 1115061">
            <path id="Trazado_937781" data-name="Trazado 937781" d="M89.374,84.407a.782.782,0,0,0-1.072-.268,4.437,4.437,0,0,0-2.029,3.64,22.778,22.778,0,0,1-.637,4.431.781.781,0,0,0,1.516.379,23.944,23.944,0,0,0,.683-4.81,2.852,2.852,0,0,1,1.275-2.3A.781.781,0,0,0,89.374,84.407Z" transform="translate(-85.612 -84.028)"/>
          </g>
        </g>
        <g id="Grupo_1115064" data-name="Grupo 1115064" transform="translate(13.718 12.232)">
          <g id="Grupo_1115063" data-name="Grupo 1115063">
            <path id="Trazado_937782" data-name="Trazado 937782" d="M46.991,45.451l-.464-.743a7.011,7.011,0,0,1-1.067-3.72V39.924a.781.781,0,0,0-1.562,0v1.063a8.57,8.57,0,0,0,1.3,4.548l.464.743a.781.781,0,1,0,1.325-.828Z" transform="translate(-43.897 -39.143)"/>
          </g>
        </g>
        <g id="Grupo_1115066" data-name="Grupo 1115066" transform="translate(10.601 54.147)">
          <g id="Grupo_1115065" data-name="Grupo 1115065">
            <path id="Trazado_937783" data-name="Trazado 937783" d="M53.19,173.269H34.705a.781.781,0,0,0,0,1.563H53.19a.781.781,0,0,0,0-1.562Z" transform="translate(-33.924 -173.269)"/>
          </g>
        </g>
        <g id="Grupo_1115068" data-name="Grupo 1115068" transform="translate(50.126 51.133)">
          <g id="Grupo_1115067" data-name="Grupo 1115067">
            <path id="Trazado_937784" data-name="Trazado 937784" d="M162.665,168.782a27.65,27.65,0,0,1-.7-4.417.781.781,0,0,0-.78-.741h-.041a.781.781,0,0,0-.74.821,28.877,28.877,0,0,0,.745,4.715.781.781,0,0,0,1.516-.379Z" transform="translate(-160.403 -163.624)"/>
          </g>
        </g>
        <g id="Grupo_1115070" data-name="Grupo 1115070" transform="translate(63.604 31.48)">
          <g id="Grupo_1115069" data-name="Grupo 1115069">
            <path id="Trazado_937785" data-name="Trazado 937785" d="M206.164,100.737a.781.781,0,0,0-.781.781v1.192a7.949,7.949,0,0,1-1.209,4.217l-.521.833a.781.781,0,1,0,1.325.828l.521-.833a9.511,9.511,0,0,0,1.447-5.045v-1.192A.781.781,0,0,0,206.164,100.737Z" transform="translate(-203.534 -100.737)"/>
          </g>
        </g>
        <g id="Grupo_1115072" data-name="Grupo 1115072" transform="translate(29.743 0.781)">
          <g id="Grupo_1115071" data-name="Grupo 1115071">
            <circle id="Elipse_13473" data-name="Elipse 13473" cx="10.257" cy="10.257" r="10.257" fill="#fcdd86"/>
          </g>
        </g>
        <g id="Grupo_1115074" data-name="Grupo 1115074" transform="translate(34.405 5.444)">
          <g id="Grupo_1115073" data-name="Grupo 1115073">
            <circle id="Elipse_13474" data-name="Elipse 13474" cx="5.595" cy="5.595" r="5.595" fill="#f5c84c"/>
          </g>
        </g>
        <g id="Grupo_1115077" data-name="Grupo 1115077" transform="translate(28.962)">
          <g id="Grupo_1115076" data-name="Grupo 1115076">
            <g id="Grupo_1115075" data-name="Grupo 1115075">
              <path id="Trazado_937786" data-name="Trazado 937786" d="M103.716,0a11.038,11.038,0,1,0,11.038,11.038A11.051,11.051,0,0,0,103.716,0Zm0,20.514a9.476,9.476,0,1,1,9.476-9.476A9.486,9.486,0,0,1,103.716,20.514Z" transform="translate(-92.678)"/>
            </g>
          </g>
        </g>
        <g id="Grupo_1115080" data-name="Grupo 1115080" transform="translate(33.624 4.662)">
          <g id="Grupo_1115079" data-name="Grupo 1115079">
            <g id="Grupo_1115078" data-name="Grupo 1115078">
              <path id="Trazado_937787" data-name="Trazado 937787" d="M113.973,14.919a6.376,6.376,0,1,0,6.376,6.376A6.383,6.383,0,0,0,113.973,14.919Zm0,11.19a4.813,4.813,0,1,1,4.813-4.813A4.819,4.819,0,0,1,113.973,26.109Z" transform="translate(-107.597 -14.919)"/>
            </g>
          </g>
        </g>
        <g id="Grupo_1115082" data-name="Grupo 1115082" transform="translate(58.125 20.43)">
          <g id="Grupo_1115081" data-name="Grupo 1115081">
            <path id="Trazado_937788" data-name="Trazado 937788" d="M191.723,67.133l-2.653-1.641a.781.781,0,0,0-.925.076l-1.878,1.641a.781.781,0,1,0,1.028,1.177l1.444-1.261,2.163,1.337a.781.781,0,1,0,.822-1.329Z" transform="translate(-186 -65.375)"/>
          </g>
        </g>
        <g id="Grupo_1115084" data-name="Grupo 1115084" transform="translate(53.594 20.43)">
          <g id="Grupo_1115083" data-name="Grupo 1115083">
            <path id="Trazado_937789" data-name="Trazado 937789" d="M177.327,67.208l-1.878-1.641a.781.781,0,0,0-.925-.076l-2.653,1.641a.781.781,0,1,0,.822,1.329l2.163-1.337,1.444,1.261a.781.781,0,0,0,1.028-1.177Z" transform="translate(-171.5 -65.375)"/>
          </g>
        </g>
        <g id="Grupo_1115086" data-name="Grupo 1115086" transform="translate(65.312 12.617)">
          <g id="Grupo_1115085" data-name="Grupo 1115085">
            <path id="Trazado_937790" data-name="Trazado 937790" d="M214.723,42.133l-2.653-1.641a.781.781,0,0,0-.925.076l-1.878,1.641a.781.781,0,0,0,1.028,1.177l1.444-1.261,2.163,1.337a.781.781,0,1,0,.822-1.329Z" transform="translate(-209 -40.375)"/>
          </g>
        </g>
        <g id="Grupo_1115088" data-name="Grupo 1115088" transform="translate(60.781 12.617)">
          <g id="Grupo_1115087" data-name="Grupo 1115087">
            <path id="Trazado_937791" data-name="Trazado 937791" d="M200.327,42.208l-1.878-1.641a.781.781,0,0,0-.925-.076l-2.653,1.641a.781.781,0,1,0,.822,1.329l2.163-1.337,1.444,1.261a.781.781,0,0,0,1.028-1.177Z" transform="translate(-194.5 -40.374)"/>
          </g>
        </g>
        <g id="Grupo_1115090" data-name="Grupo 1115090" transform="translate(8.125 30.313)">
          <g id="Grupo_1115089" data-name="Grupo 1115089">
            <path id="Trazado_937792" data-name="Trazado 937792" d="M26.781,97a.781.781,0,0,0-.781.781v10.313a.781.781,0,0,0,1.563,0V97.781A.781.781,0,0,0,26.781,97Z" transform="translate(-26 -97)"/>
          </g>
        </g>
        <g id="Grupo_1115092" data-name="Grupo 1115092" transform="translate(72.5 27.604)">
          <g id="Grupo_1115091" data-name="Grupo 1115091">
            <path id="Trazado_937793" data-name="Trazado 937793" d="M232.781,88.333a.781.781,0,0,0-.781.781v6.667a.781.781,0,0,0,1.563,0V89.114A.781.781,0,0,0,232.781,88.333Z" transform="translate(-232 -88.333)"/>
          </g>
        </g>
        <g id="Grupo_1115094" data-name="Grupo 1115094" transform="translate(11.563 36.769)">
          <g id="Grupo_1115093" data-name="Grupo 1115093">
            <path id="Trazado_937794" data-name="Trazado 937794" d="M37.781,117.66a.781.781,0,0,0-.781.781v2.037a.781.781,0,0,0,1.563,0v-2.037A.781.781,0,0,0,37.781,117.66Z" transform="translate(-37 -117.66)"/>
          </g>
        </g>
        <g id="Grupo_1115096" data-name="Grupo 1115096" transform="translate(55.938 42.305)">
          <g id="Grupo_1115095" data-name="Grupo 1115095">
            <path id="Trazado_937795" data-name="Trazado 937795" d="M179.781,135.375a.781.781,0,0,0-.781.781v1.19a.781.781,0,0,0,1.563,0v-1.19A.781.781,0,0,0,179.781,135.375Z" transform="translate(-179 -135.375)"/>
          </g>
        </g>
        <g id="Grupo_1115098" data-name="Grupo 1115098" transform="translate(16.886 54.147)">
          <g id="Grupo_1115097" data-name="Grupo 1115097">
            <path id="Trazado_937796" data-name="Trazado 937796" d="M92.15,188.029l-3.75-2.812a.781.781,0,0,0-.669-.13L77.366,187.83l-5.937-2.545L70.572,181a.781.781,0,0,0-.641-.618l-12.962-2.11-1.406-4.457a.781.781,0,1,0-1.49.47l1.551,4.916a.781.781,0,0,0,.619.536l12.9,2.1.831,4.157a.782.782,0,0,0,.458.565L77,189.372a.782.782,0,0,0,.507.037l10.259-2.716,3.448,2.585a.781.781,0,1,0,.938-1.25Z" transform="translate(-54.036 -173.269)"/>
          </g>
        </g>
        <g id="Grupo_1115100" data-name="Grupo 1115100" transform="translate(5.938 64.063)">
          <g id="Grupo_1115099" data-name="Grupo 1115099">
            <path id="Trazado_937797" data-name="Trazado 937797" d="M46.151,205.546a.782.782,0,0,0-.98-.51l-11.66,3.682-6.97-1.818a.781.781,0,0,0-.689.149l-6.562,5.313a.781.781,0,0,0,.333,1.372l7.888,1.632-.865,1.211a.781.781,0,1,0,1.271.908L29.48,215.3A.781.781,0,0,0,29,214.078l-7.447-1.541,4.973-4.026,6.806,1.775a.78.78,0,0,0,.432-.011l11.875-3.75a.78.78,0,0,0,.51-.98Z" transform="translate(-19 -205)"/>
          </g>
        </g>
        <g id="Grupo_1115102" data-name="Grupo 1115102" transform="translate(24.063 46.335)">
          <g id="Grupo_1115101" data-name="Grupo 1115101">
            <path id="Trazado_937798" data-name="Trazado 937798" d="M91.693,154.348l-4.3-1.911,4.249-2.726A.781.781,0,1,0,90.8,148.4L85.329,151.9a.781.781,0,0,0,.1,1.372l5.069,2.253-.57,3.307-7.8.289a.778.778,0,0,0-.358.1l-4.375,2.5a.781.781,0,1,0,.775,1.357l4.208-2.4,8.246-.306a.781.781,0,0,0,.741-.648l.781-4.531a.782.782,0,0,0-.453-.847Z" transform="translate(-77.001 -148.272)"/>
          </g>
        </g>
        <g id="Grupo_1115104" data-name="Grupo 1115104" transform="translate(22.409 66.953)">
          <g id="Grupo_1115103" data-name="Grupo 1115103">
            <path id="Trazado_937799" data-name="Trazado 937799" d="M77.95,217.077l-5.091-2.734a.781.781,0,0,0-.739,1.377l3.944,2.118-1.729,1.153a.781.781,0,1,0,.867,1.3l2.813-1.875a.782.782,0,0,0-.064-1.339Z" transform="translate(-71.708 -214.249)"/>
          </g>
        </g>
        <g id="Grupo_1115106" data-name="Grupo 1115106" transform="translate(67.245 49.549)">
          <g id="Grupo_1115105" data-name="Grupo 1115105">
            <path id="Trazado_937800" data-name="Trazado 937800" d="M224.718,169.415l-5.8-3.161,3.7-2.71a.781.781,0,0,0-.071-1.307l-6.193-3.576a.781.781,0,0,0-.781,1.353l5.156,2.978-3.722,2.729a.781.781,0,0,0,.088,1.316l6.875,3.75a.781.781,0,0,0,.748-1.372Z" transform="translate(-215.183 -158.555)"/>
          </g>
        </g>
        <g id="Grupo_1115108" data-name="Grupo 1115108" transform="translate(68.75 59.062)">
          <g id="Grupo_1115107" data-name="Grupo 1115107">
            <path id="Trazado_937801" data-name="Trazado 937801" d="M225.156,189.312a.781.781,0,0,0-1.094-.156l-3.75,2.813a.781.781,0,1,0,.938,1.25l3.75-2.812A.782.782,0,0,0,225.156,189.312Z" transform="translate(-220 -189)"/>
          </g>
        </g>
        <g id="Grupo_1115110" data-name="Grupo 1115110" transform="translate(21.318 46.335)">
          <g id="Grupo_1115109" data-name="Grupo 1115109">
            <path id="Trazado_937802" data-name="Trazado 937802" d="M108.307,148.272H69a.781.781,0,0,0,0,1.563h39.307a.781.781,0,1,0,0-1.562Z" transform="translate(-68.219 -148.272)"/>
          </g>
        </g>
        <g id="Grupo_1115112" data-name="Grupo 1115112" transform="translate(0 46.335)">
          <g id="Grupo_1115111" data-name="Grupo 1115111">
            <path id="Trazado_937803" data-name="Trazado 937803" d="M50.151,180.375H1.827a.269.269,0,0,1-.265-.265V149.836H13.75a.781.781,0,0,0,0-1.562H.781a.781.781,0,0,0-.781.781v31.056a1.829,1.829,0,0,0,1.827,1.827H50.151a.781.781,0,1,0,0-1.562Z" transform="translate(0 -148.273)"/>
          </g>
        </g>
        <g id="Grupo_1115115" data-name="Grupo 1115115" transform="translate(56.873 30.286)">
          <g id="Grupo_1115114" data-name="Grupo 1115114">
            <g id="Grupo_1115113" data-name="Grupo 1115113">
              <path id="Trazado_937804" data-name="Trazado 937804" d="M193.532,145.5c-1.035-2.07-.979-3.952-.915-6.132a18.254,18.254,0,0,0-2.433-10.915c-1.781-3.116-.726-7.42.294-11.582,1.085-4.427,2.109-8.608-.42-11.137a13.048,13.048,0,0,1-3.769-7.593,1.39,1.39,0,0,0-2.615-.472c-1.432,2.774-.719,6.813,1.862,10.541.88,1.271.827,4.265-.15,8.432a46.569,46.569,0,0,1-2.865,8.522c-1.317,2.634.1,6.7,1.341,10.288.309.89.6,1.731.828,2.487,1,3.322-1.382,7.475-1.405,7.516a.781.781,0,0,0,.675,1.175h8.874a.782.782,0,0,0,.7-1.131Zm-8.309-.432c.738-1.652,1.807-4.766.964-7.577-.237-.788-.534-1.645-.849-2.551-1.088-3.132-2.442-7.031-1.419-9.077,1.343-2.687,5.634-14.594,2.9-18.542-2.434-3.515-2.651-6.532-1.994-8.387a14.671,14.671,0,0,0,4.127,7.9c1.907,1.907.984,5.673.007,9.66-1.042,4.252-2.223,9.072-.133,12.729a16.715,16.715,0,0,1,2.228,10.093,14.872,14.872,0,0,0,.6,5.746Z" transform="translate(-181.993 -96.916)"/>
            </g>
          </g>
        </g>
        <g id="Grupo_1115117" data-name="Grupo 1115117" transform="translate(41.195 49.251)">
          <g id="Grupo_1115116" data-name="Grupo 1115116">
            <path id="Trazado_937805" data-name="Trazado 937805" d="M149.383,172.641a17.054,17.054,0,0,0-6.539-4.124c-4.764-1.361-7.39-3-9.427-8.662a.508.508,0,0,1,.292-.653.5.5,0,0,1,.643.267,10.75,10.75,0,0,0,7.923,6.31,24.428,24.428,0,0,1,6.012,1.943.781.781,0,0,0,.737-1.378,25.465,25.465,0,0,0-6.411-2.09,9.223,9.223,0,0,1-6.823-5.394,2.055,2.055,0,0,0-2.643-1.117,2.086,2.086,0,0,0-1.2,2.641c2.253,6.261,5.293,8.157,10.468,9.635a15.577,15.577,0,0,1,5.906,3.767.781.781,0,1,0,1.062-1.146Z" transform="translate(-131.825 -157.602)"/>
          </g>
        </g>
        <g id="Grupo_1115119" data-name="Grupo 1115119" transform="translate(49.369 66.111)">
          <g id="Grupo_1115118" data-name="Grupo 1115118">
            <path id="Trazado_937806" data-name="Trazado 937806" d="M168.242,212.456a.781.781,0,0,0-1.545-.236c-.415,2.718-2.047,9.3-8.22,11.717a.781.781,0,0,0,.285,1.509h8.689a.781.781,0,0,0,0-1.562h-5.6C166.493,220.59,167.855,214.99,168.242,212.456Z" transform="translate(-157.98 -211.557)"/>
          </g>
        </g>
        <g id="Grupo_1115121" data-name="Grupo 1115121" transform="translate(63.487 38.252)">
          <g id="Grupo_1115120" data-name="Grupo 1115120">
            <path id="Trazado_937807" data-name="Trazado 937807" d="M214.715,122.483a2.054,2.054,0,0,0-2.52,1.371,9.222,9.222,0,0,1-6.259,6.039c-.319.1-.626.209-.925.313a.781.781,0,1,0,.514,1.476c.291-.1.589-.2.9-.3a10.747,10.747,0,0,0,7.264-7.059.5.5,0,0,1,.614-.329.509.509,0,0,1,.354.622c-1.47,5.83-3.921,7.724-8.529,9.548a11.892,11.892,0,0,0-2.652,1.517.781.781,0,0,0,.928,1.257,10.365,10.365,0,0,1,2.3-1.32c5-1.98,7.842-4.167,9.469-10.618a2.087,2.087,0,0,0-1.455-2.51Z" transform="translate(-203.157 -122.407)"/>
          </g>
        </g>
        <g id="Grupo_1115123" data-name="Grupo 1115123" transform="translate(46.304 34.885)">
          <g id="Grupo_1115122" data-name="Grupo 1115122">
            <path id="Trazado_937808" data-name="Trazado 937808" d="M160.918,111.756a.781.781,0,0,0-1.079.237c-.048.075-.094.153-.135.231l-1.689,3.191a1.683,1.683,0,0,1-.877.781l-4.126,1.6a3.247,3.247,0,0,0-1.4,1.053l-3.136,4.1a2.793,2.793,0,0,0-.192.287.781.781,0,1,0,1.346.794,1.333,1.333,0,0,1,.087-.131l3.136-4.1a1.684,1.684,0,0,1,.727-.546l4.126-1.6a3.246,3.246,0,0,0,1.692-1.506l1.69-3.192c.021-.041.045-.08.069-.119A.781.781,0,0,0,160.918,111.756Z" transform="translate(-148.174 -111.633)"/>
          </g>
        </g>
        <g id="Grupo_1115125" data-name="Grupo 1115125" transform="translate(60.547 26.875)">
          <g id="Grupo_1115124" data-name="Grupo 1115124">
            <path id="Trazado_937809" data-name="Trazado 937809" d="M212.974,86.229a.781.781,0,0,0-.553-.229h-4.647a3.245,3.245,0,0,0-2.668,1.4l-1.85,2.673a1.671,1.671,0,0,1-.374.388l-2.773,2.08a1.692,1.692,0,0,1-1.009.337h-4.57a.781.781,0,1,0,0,1.563H199.1a3.264,3.264,0,0,0,1.947-.649l2.773-2.08a3.248,3.248,0,0,0,.721-.749l1.85-2.673a1.683,1.683,0,0,1,1.383-.725h3.865v18.679a.781.781,0,1,0,1.563,0V86.781A.783.783,0,0,0,212.974,86.229Z" transform="translate(-193.75 -86)"/>
          </g>
        </g>
        <g id="Grupo_1115127" data-name="Grupo 1115127" transform="translate(23.668 39.394)">
          <g id="Grupo_1115126" data-name="Grupo 1115126">
            <path id="Trazado_937810" data-name="Trazado 937810" d="M85.7,133.237a2.955,2.955,0,0,0-.236-.363l-3.136-4.1a3.246,3.246,0,0,0-1.4-1.053l-4.126-1.6a.781.781,0,0,0-.566,1.456l4.126,1.6a1.679,1.679,0,0,1,.727.546l3.135,4.1a1.482,1.482,0,0,1,.112.174.781.781,0,1,0,1.365-.759Z" transform="translate(-75.737 -126.062)"/>
          </g>
        </g>
        <g id="Grupo_1115129" data-name="Grupo 1115129" transform="translate(0 26.875)">
          <g id="Grupo_1115128" data-name="Grupo 1115128">
            <path id="Trazado_937811" data-name="Trazado 937811" d="M16.719,92.875H14.1a1.691,1.691,0,0,1-1.009-.337l-2.773-2.08a1.676,1.676,0,0,1-.374-.388L8.1,87.4A3.247,3.247,0,0,0,5.428,86H.781A.781.781,0,0,0,0,86.781v19.46a.781.781,0,0,0,1.563,0V87.563H5.428a1.683,1.683,0,0,1,1.383.725l1.85,2.673a3.249,3.249,0,0,0,.721.749l2.773,2.08a3.266,3.266,0,0,0,1.947.649h2.616a.781.781,0,0,0,0-1.562Z" transform="translate(0 -86)"/>
          </g>
        </g>
        <g id="Grupo_1115131" data-name="Grupo 1115131" transform="translate(12.545 11.166)">
          <g id="Grupo_1115130" data-name="Grupo 1115130">
            <path id="Trazado_937812" data-name="Trazado 937812" d="M48.127,72.456c.2-.674.463-1.424.738-2.217,1.117-3.217,2.384-6.864,1.192-9.247-1.633-3.265-4.412-12.57-2.7-15.048,2.321-3.353,2.96-6.991,1.667-9.495a1.325,1.325,0,0,0-2.493.45,11.563,11.563,0,0,1-3.34,6.728c-2.291,2.291-1.371,6.045-.4,10.02.906,3.7,1.843,7.524.271,10.277a16.367,16.367,0,0,0-2.183,9.787,10.887,10.887,0,0,1-.673,5.15.781.781,0,1,0,1.424.642,12.265,12.265,0,0,0,.81-5.838A14.846,14.846,0,0,1,44.426,64.7c1.882-3.294.824-7.613-.11-11.424-.866-3.535-1.684-6.875-.016-8.543a13.2,13.2,0,0,0,3.645-6.767c.447,1.65.15,4.173-1.869,7.09-2.461,3.554,1.38,14.228,2.584,16.636.9,1.794-.305,5.255-1.271,8.036-.281.81-.547,1.575-.759,2.281-.881,2.936.534,6.214,1.183,7.487a.781.781,0,0,0,1.392-.71c-.439-.862-1.817-3.867-1.078-6.328Z" transform="translate(-40.145 -35.731)"/>
          </g>
        </g>
        <g id="Grupo_1115133" data-name="Grupo 1115133" transform="translate(20.907 28.094)">
          <g id="Grupo_1115132" data-name="Grupo 1115132">
            <path id="Trazado_937813" data-name="Trazado 937813" d="M81.694,90.033a1.918,1.918,0,0,0-2.467,1.042A8.15,8.15,0,0,1,73.2,95.84a23.242,23.242,0,0,0-5.645,1.822.781.781,0,0,0,.722,1.386,22.178,22.178,0,0,1,5.263-1.683,9.678,9.678,0,0,0,7.132-5.682.361.361,0,0,1,.467-.193.37.37,0,0,1,.211.476c-1.8,5.015-4.134,6.472-8.358,7.68a15.247,15.247,0,0,0-5.832,3.664.781.781,0,1,0,1.059,1.148,13.772,13.772,0,0,1,5.2-3.31c4.647-1.327,7.376-3.03,9.4-8.653a1.946,1.946,0,0,0-1.121-2.464Z" transform="translate(-66.902 -89.901)"/>
          </g>
        </g>
        <g id="Grupo_1115135" data-name="Grupo 1115135" transform="translate(20.316 43.237)">
          <g id="Grupo_1115134" data-name="Grupo 1115134">
            <path id="Trazado_937814" data-name="Trazado 937814" d="M73.731,149.28c-2.212-.893-6.083-3.412-7.166-10.262a.781.781,0,0,0-1.543.244c.416,2.63,2.039,9.012,8.124,11.467a.781.781,0,1,0,.585-1.449Z" transform="translate(-65.012 -138.358)"/>
          </g>
        </g>
        <g id="Grupo_1115139" data-name="Grupo 1115139" transform="translate(5.198 18.276)">
          <g id="Grupo_1115138" data-name="Grupo 1115138">
            <g id="Grupo_1115137" data-name="Grupo 1115137">
              <g id="Grupo_1115136" data-name="Grupo 1115136">
                <path id="Trazado_937815" data-name="Trazado 937815" d="M28.632,70.936c-.151-.672-.316-1.343-.478-2.006-.241-.983-.467-1.911-.647-2.811A.781.781,0,0,0,27,65.535c-.344-.122-.7-.243-1.068-.365A8.151,8.151,0,0,1,20.4,59.835a1.917,1.917,0,0,0-2.352-1.28h0A1.946,1.946,0,0,0,16.69,60.9c1.46,5.794,4.009,7.757,8.5,9.536a9.414,9.414,0,0,1,2.2,1.3.781.781,0,0,0,1.236-.793Zm-2.865-1.957c-4.086-1.617-6.26-3.3-7.562-8.465a.371.371,0,0,1,.257-.453.362.362,0,0,1,.446.238,9.676,9.676,0,0,0,6.538,6.356c.213.07.419.139.62.208.168.791.365,1.594.571,2.437.007.031.015.062.022.092A8.888,8.888,0,0,0,25.768,68.979Z" transform="translate(-16.632 -58.484)"/>
              </g>
            </g>
          </g>
        </g>
        <g id="Grupo_1115141" data-name="Grupo 1115141" transform="translate(71.25 18.948)">
          <g id="Grupo_1115140" data-name="Grupo 1115140">
            <path id="Trazado_937816" data-name="Trazado 937816" d="M232.024,62.572a2.433,2.433,0,0,1-1.952-1.907c0-.044-.088-.044-.088,0a2.433,2.433,0,0,1-1.952,1.907c-.044,0-.044.066,0,.088a2.433,2.433,0,0,1,1.952,1.908c0,.044.088.044.088,0a2.433,2.433,0,0,1,1.952-1.908c.044-.022.044-.088,0-.088Z" transform="translate(-228 -60.632)" fill="#70d6f9"/>
          </g>
        </g>
        <g id="Grupo_1115143" data-name="Grupo 1115143" transform="translate(42.083 34.903)">
          <g id="Grupo_1115142" data-name="Grupo 1115142">
            <path id="Trazado_937817" data-name="Trazado 937817" d="M139.1,113.408h-.719v-.719a1.007,1.007,0,0,0-1-1,.987.987,0,0,0-1,1v.719h-.719a1.007,1.007,0,0,0-1,1,.987.987,0,0,0,1,1h.719v.719a1.007,1.007,0,0,0,1,1,.987.987,0,0,0,1-1v-.719h.719a1.007,1.007,0,0,0,1-1,.987.987,0,0,0-1-1Z" transform="translate(-134.667 -111.689)" fill="#fc657e"/>
          </g>
        </g>
        <g id="Grupo_1115145" data-name="Grupo 1115145" transform="translate(15.583)">
          <g id="Grupo_1115144" data-name="Grupo 1115144">
            <path id="Trazado_937818" data-name="Trazado 937818" d="M50.929,0a1.063,1.063,0,1,0,1.063,1.063A1.062,1.062,0,0,0,50.929,0Z" transform="translate(-49.867)" fill="#87d147"/>
          </g>
        </g>
        <g id="Grupo_1115147" data-name="Grupo 1115147" transform="translate(50.583 31.25)">
          <g id="Grupo_1115146" data-name="Grupo 1115146">
            <path id="Trazado_937819" data-name="Trazado 937819" d="M162.93,100a1.063,1.063,0,1,0,1.063,1.063A1.062,1.062,0,0,0,162.93,100Z" transform="translate(-161.867 -100)" fill="#f5c84c"/>
          </g>
        </g>
        <g id="Grupo_1115149" data-name="Grupo 1115149" transform="translate(20.167 3.541)">
          <g id="Grupo_1115148" data-name="Grupo 1115148">
            <path id="Trazado_937820" data-name="Trazado 937820" d="M70.268,14.1a3.468,3.468,0,0,1-2.781-2.719c0-.062-.125-.062-.125,0A3.468,3.468,0,0,1,64.581,14.1c-.062,0-.062.094,0,.125a3.468,3.468,0,0,1,2.781,2.719c0,.063.125.063.125,0a3.468,3.468,0,0,1,2.781-2.719c.063-.031.063-.125,0-.125Z" transform="translate(-64.534 -11.331)" fill="#f5c84c"/>
          </g>
        </g>
      </g>
    </g>
  </g>
</svg>
