<svg xmlns="http://www.w3.org/2000/svg" width="60" height="60" viewBox="0 0 60 60">
  <g id="Grupo_1115799" data-name="Grupo 1115799" transform="translate(-175 -833)">
    <g id="Grupo_1114828" data-name="Grupo 1114828" transform="translate(-1061.5 373)">
      <g id="Elipse_12108" data-name="Elipse 12108" transform="translate(1241.5 465)" fill="#8bc34a" stroke="rgba(255,255,255,0.4)" stroke-width="5">
        <circle cx="25" cy="25" r="25" stroke="none"/>
        <circle cx="25" cy="25" r="27.5" fill="none"/>
      </g>
      <g id="Grupo_1115225" data-name="Grupo 1115225" transform="translate(1251.352 475.396)">
        <path id="Trazado_938094" data-name="Trazado 938094" d="M22.215,16.429A8.215,8.215,0,1,0,14,8.215,8.215,8.215,0,0,0,22.215,16.429ZM28.4,4.357a7.256,7.256,0,0,1-.6,8.55l-1.851-2.515L26.27,9.37,27.56,8.081a.456.456,0,0,0,.131-.323V6.389a.459.459,0,0,0-.077-.253l-.641-.962ZM22.215.913a7.29,7.29,0,0,1,5.658,2.695L26.094,4.624h0a.456.456,0,0,0-.153.649h0l.838,1.253V7.568L25.543,8.8a.456.456,0,0,0-.113.188l-.418,1.35a.456.456,0,0,0,.068.406l2.079,2.825a7.313,7.313,0,0,1-2.194,1.4L24.5,14.04V12.322a.456.456,0,0,0-.046-.2l-.913-1.825a.453.453,0,0,0-.5-.243l-2.042.408-.476-.475.705-1.058a.456.456,0,0,0-.013-.527L20.073,6.88l1.5-1.584a.456.456,0,0,0,.125-.314V3.689a.46.46,0,0,0-.08-.259L20.1,1.226A7.278,7.278,0,0,1,22.215.913Zm-7.3,7.3A7.307,7.307,0,0,1,19.225,1.56l1.563,2.271V4.8L19.146,6.532a.456.456,0,0,0-.034.588l1.175,1.567-.733,1.1a.456.456,0,0,0,.057.576l.913.913a.456.456,0,0,0,.411.125l1.94-.388.71,1.417v1.718a.456.456,0,0,0,.046.2l.456.913a7.218,7.218,0,0,1-6.572-1.47l.867-.651a.456.456,0,0,0,.106-.618l-.766-1.149.8-1.589a.456.456,0,0,0-.137-.569L16.556,7.85a.456.456,0,0,0-.443-.059l-1.2.479C14.915,8.251,14.913,8.233,14.913,8.215Zm1.3.519,1.315.987-.743,1.485a.456.456,0,0,0,.029.456l.674,1.01-.639.479A7.269,7.269,0,0,1,14.99,9.222Z" transform="translate(-7.067)" fill="#001a58"/>
        <path id="Trazado_938095" data-name="Trazado 938095" d="M29,47.322a2.282,2.282,0,0,0-1.633-1.871l-1.725-.494v-.58a2.271,2.271,0,0,0,.913-1.814V40.9l.879-1.055A1.126,1.126,0,0,0,26.568,38H23.362a2.741,2.741,0,0,0-2.738,2.738v.456a2.262,2.262,0,0,0,1.512,2.138,2.3,2.3,0,0,0,.77,1.045v.58l-1.726.493a2.279,2.279,0,0,0-1.472,1.31,2.3,2.3,0,0,0-.716-.929,1.817,1.817,0,0,0,.719-1.442.456.456,0,0,0-.252-.411,1.187,1.187,0,0,1-.66-1.066V41.651a3.651,3.651,0,1,0-7.3,0v1.261a1.187,1.187,0,0,1-.66,1.068.456.456,0,0,0-.252.408,1.817,1.817,0,0,0,.72,1.443,2.294,2.294,0,0,0-.716.93A2.277,2.277,0,0,0,9.114,45.45l-1.725-.493v-.58A2.271,2.271,0,0,0,8.3,42.564V41.12A1.593,1.593,0,0,0,7.846,38H5.107a2.741,2.741,0,0,0-2.738,2.738v.456a2.262,2.262,0,0,0,1.512,2.138,2.3,2.3,0,0,0,.77,1.046v.58l-1.725.493a2.282,2.282,0,0,0-1.632,1.871L1,49.345a.456.456,0,0,0,.452.521H28.838a.456.456,0,0,0,.453-.523ZM7.389,42.564a1.369,1.369,0,0,1-2.738,0v-.913a.456.456,0,0,1,.456-.456H7.389ZM6.476,44.8v.5a.456.456,0,1,1-.913,0v-.508a2.244,2.244,0,0,0,.456.052,2.282,2.282,0,0,0,.456-.046ZM3.738,41.651v.563a1.36,1.36,0,0,1-.456-1.02v-.456a1.825,1.825,0,0,1,1.825-1.825H7.846a.685.685,0,0,1,0,1.369H5.107A1.369,1.369,0,0,0,3.738,41.651Zm-1.756,7.3.214-1.5a1.369,1.369,0,0,1,.979-1.123l1.6-.456a1.364,1.364,0,0,0,2.484,0l1.6.456a1.369,1.369,0,0,1,.979,1.123l.214,1.5Zm10.427-6.04V41.651a2.738,2.738,0,1,1,5.476,0v1.261a2.092,2.092,0,0,0,.882,1.715.915.915,0,0,1-.882.675h-.163l-1.206-.345v-.58a2.271,2.271,0,0,0,.913-1.814v-.349a1.362,1.362,0,0,0-.757-1.224l-1.321-.661a.456.456,0,0,0-.408,0l-1.321.661a1.362,1.362,0,0,0-.757,1.224v.349a2.271,2.271,0,0,0,.913,1.814v.58l-1.206.345h-.163a.915.915,0,0,1-.882-.675,2.094,2.094,0,0,0,.882-1.715Zm2.738,1.02a1.369,1.369,0,0,1-1.369-1.369v-.349a.453.453,0,0,1,.252-.408l1.117-.559,1.117.559a.453.453,0,0,1,.252.408v.349A1.369,1.369,0,0,1,15.147,43.933Zm.456.867v.5a.456.456,0,0,1-.913,0v-.5A2.282,2.282,0,0,0,15.6,44.8ZM11.11,48.953l.214-1.5a1.369,1.369,0,0,1,.979-1.123l1.6-.456a1.364,1.364,0,0,0,2.484,0l1.6.456a1.369,1.369,0,0,1,.979,1.123l.214,1.5Zm14.534-6.389a1.369,1.369,0,0,1-2.738,0v-.913a.456.456,0,0,1,.456-.456h2.282ZM24.731,44.8v.5a.456.456,0,0,1-.913,0v-.508a2.244,2.244,0,0,0,.456.052,2.282,2.282,0,0,0,.456-.046Zm-2.738-3.149v.563a1.36,1.36,0,0,1-.456-1.02v-.456a1.825,1.825,0,0,1,1.825-1.825h3.209a.214.214,0,0,1,.164.351l-.849,1.018H23.362a1.369,1.369,0,0,0-1.369,1.369Zm-1.756,7.3.214-1.5a1.369,1.369,0,0,1,.979-1.123l1.6-.456a1.364,1.364,0,0,0,2.484,0l1.6.456a1.369,1.369,0,0,1,.979,1.123l.214,1.5Z" transform="translate(0 -20.658)" fill="#001a58"/>
      </g>
    </g>
  </g>
</svg>
