<svg xmlns="http://www.w3.org/2000/svg" width="100" height="100" viewBox="0 0 100 100">
  <g id="Grupo_1115224" data-name="Grupo 1115224" transform="translate(-210 -517)">
    <rect id="Image_Place_Holder" data-name="Image Place Holder" width="100" height="100" transform="translate(210 517)" fill="#0042db"/>
    <g id="Grupo_1115223" data-name="Grupo 1115223" transform="translate(221.853 528.62)">
      <circle id="Elipse_13476" data-name="Elipse 13476" cx="21.576" cy="21.576" r="21.576" transform="translate(16.583 17.675)" fill="#cbe1ff"/>
      <path id="Trazado_938084" data-name="Trazado 938084" d="M40.073,52.133l-.9,5.394a21.58,21.58,0,0,1-16.158-3.68l1.331-5.25a3.6,3.6,0,0,0-.491-2.865l-1.834-2.745a3.649,3.649,0,0,1-.5-2.865l.5-2a3.573,3.573,0,0,0-2.793-4.375l-5-1.019a21.541,21.541,0,0,1,12.5-16.146l5.778,2.313a3.111,3.111,0,0,1,1.69,4.147L29.381,33.889A3.109,3.109,0,0,0,30.5,37.737l1.247.815a3.078,3.078,0,0,1,1.223,3.56l-.875,2.649a3.117,3.117,0,0,0,3.944,3.932,3.108,3.108,0,0,1,4.04,3.452Z" transform="translate(2.629 2.989)" fill="#6ed974"/>
      <circle id="Elipse_13477" data-name="Elipse 13477" cx="4.495" cy="4.495" r="4.495" transform="translate(62.432 48.841)" fill="#ffd098"/>
      <path id="Trazado_938085" data-name="Trazado 938085" d="M44,59.689l7.192-3.6v8.391H65.576V53.7a4.2,4.2,0,0,0-4.2-4.2H53.194a6,6,0,0,0-3.6,1.2l-5.6,4.2Z" transform="translate(8.543 9.529)" fill="#ff8080"/>
      <circle id="Elipse_13478" data-name="Elipse 13478" cx="4.495" cy="4.495" r="4.495" transform="translate(33.664 48.841)" fill="#ffd098"/>
      <path id="Trazado_938086" data-name="Trazado 938086" d="M20,59.689l7.192-3.6v8.391H41.576V56.093l7.192,3.6V54.894l-4.951-3.716A8.389,8.389,0,0,0,38.783,49.5H29.194a6,6,0,0,0-3.6,1.2l-5.6,4.2Z" transform="translate(3.775 9.529)" fill="#4d99ff"/>
      <circle id="Elipse_13479" data-name="Elipse 13479" cx="4.495" cy="4.495" r="4.495" transform="translate(4.896 48.841)" fill="#ffd098"/>
      <path id="Trazado_938087" data-name="Trazado 938087" d="M23.576,54.894l-5.6-4.2a6,6,0,0,0-3.6-1.2H6.2A4.2,4.2,0,0,0,2,53.7V64.483H16.384V56.093l7.192,3.6Z" transform="translate(0.199 9.529)" fill="#ffde66"/>
      <path id="Trazado_938088" data-name="Trazado 938088" d="M33.3,3.938c2.11-2.11,6.353-1.271,6.353-1.271S40.49,6.923,38.38,9.02s-6.353,1.271-6.353,1.271S31.188,6.036,33.3,3.938Z" transform="translate(6.132 0.192)" fill="#9ae674"/>
      <path id="Trazado_938089" data-name="Trazado 938089" d="M27.626,8.869C25.756,7,26.355,3.355,26.355,3.355s3.632-.6,5.514,1.271S33.14,10.14,33.14,10.14,29.508,10.739,27.626,8.869Z" transform="translate(5.019 0.343)" fill="#9ae674"/>
      <path id="Trazado_938090" data-name="Trazado 938090" d="M51.421,28.855l-8,6.473a1.581,1.581,0,0,1-2.577-1.462l.444-2.709a1.6,1.6,0,0,0-1.558-1.87,1.541,1.541,0,0,0-.935.336,1.582,1.582,0,0,1-2.445-1.774L40.19,16.64a21.654,21.654,0,0,1,11.232,12.2Z" transform="translate(7.007 3.001)" fill="#6ed974"/>
      <path id="Trazado_938091" data-name="Trazado 938091" d="M20.592,52.832A20.343,20.343,0,0,1,15.4,39.251a20.608,20.608,0,0,1,.108-2.122l3.74.755a2.43,2.43,0,0,1,1.57,1.079,2.359,2.359,0,0,1,.3,1.834l-.527,2.038a4.9,4.9,0,0,0,.683,3.812L23.1,49.38a2.388,2.388,0,0,1,.384,1.031l2.373-.324a4.737,4.737,0,0,0-.767-2.038l-1.822-2.733a2.423,2.423,0,0,1-.348-1.918l.515-2.014a4.8,4.8,0,0,0-3.716-5.85L15.9,34.768A20.4,20.4,0,0,1,27.04,20.875l5.274,2.1a1.983,1.983,0,0,1,1.079,1.079,1.936,1.936,0,0,1-.012,1.486L28.551,36.374a4.346,4.346,0,0,0,1.558,5.346l1.235.815a1.838,1.838,0,0,1,.827,1.786l2.373.3a4.229,4.229,0,0,0-1.894-4.087l-1.235-.8a1.93,1.93,0,0,1-.7-2.373l4.831-10.848a4.293,4.293,0,0,0,.048-3.356,4.357,4.357,0,0,0-2.4-2.4l-2.829-1.127a20.491,20.491,0,0,1,5.394-.743,20.191,20.191,0,0,1,7.528,1.462L39.83,30.5a2.78,2.78,0,0,0,4.3,3.1.367.367,0,0,1,.527.072.357.357,0,0,1,.072.312L44.289,36.7a2.779,2.779,0,0,0,2.745,3.248,2.792,2.792,0,0,0,1.762-.635l6.629-5.346a20.106,20.106,0,0,1,.731,5.334,20.343,20.343,0,0,1-5.19,13.581l1.786,1.594a22.755,22.755,0,0,0-15.775-37.9V11.861c.228.012.467.024.719.024A7.423,7.423,0,0,0,42.971,10.1C45.5,7.57,44.613,2.871,44.565,2.667a1.2,1.2,0,0,0-.947-.947c-.2-.036-4.9-.935-7.432,1.594a4.961,4.961,0,0,0-.743.971c-.036-.036-.072-.084-.108-.12-2.289-2.277-6.377-1.63-6.557-1.606a1.2,1.2,0,0,0-.983.983c-.024.168-.671,4.267,1.606,6.557a7.152,7.152,0,0,0,5.034,1.714h.12v4.771a22.755,22.755,0,0,0-15.775,37.9l1.786-1.594ZM54.61,31.484l-7.336,5.921a.365.365,0,0,1-.444.036.369.369,0,0,1-.18-.4l.444-2.709a2.781,2.781,0,0,0-.6-2.254,2.832,2.832,0,0,0-3.8-.444.331.331,0,0,1-.444,0,.355.355,0,0,1-.144-.432l3.38-9.9A20.531,20.531,0,0,1,54.61,31.46ZM37.889,4.969c1.067-1.067,3.129-1.163,4.435-1.055.108,1.307.024,3.368-1.055,4.435-1.007,1.007-2.913,1.139-4.219,1.067a10.006,10.006,0,0,0-.168-2.134,4.139,4.139,0,0,1,.995-2.325ZM31.1,8.361A5.037,5.037,0,0,1,30.1,4.8a5.155,5.155,0,0,1,3.56,1.007,5.037,5.037,0,0,1,1.007,3.56A5.155,5.155,0,0,1,31.1,8.361Z" transform="translate(2.38)"/>
      <path id="Trazado_938092" data-name="Trazado 938092" d="M70.332,50.225a5.694,5.694,0,1,0-6.856-.036H61.737a7.262,7.262,0,0,0-4.315,1.438l-4.879,3.656-4.231-3.176a9.674,9.674,0,0,0-5.754-1.918h-.947a5.694,5.694,0,1,0-6.9,0H32.969a7.262,7.262,0,0,0-4.315,1.438l-4.879,3.656L18.9,51.627a7.262,7.262,0,0,0-4.315-1.438H12.843a5.694,5.694,0,1,0-6.856.036A5.387,5.387,0,0,0,1,55.583V66.371a1.2,1.2,0,0,0,1.2,1.2H16.583a1.2,1.2,0,0,0,1.2-1.2V59.922l5.454,2.733a1.233,1.233,0,0,0,1.067,0l5.454-2.733v6.449a1.2,1.2,0,0,0,1.2,1.2H45.339a1.2,1.2,0,0,0,1.2-1.2V59.922l5.454,2.733a1.233,1.233,0,0,0,1.067,0c.336-.156,5.454-2.721,5.454-2.721v6.449a1.2,1.2,0,0,0,1.2,1.2H74.1a1.2,1.2,0,0,0,1.2-1.2V55.595a5.387,5.387,0,0,0-4.986-5.358ZM9.391,42.4a3.3,3.3,0,1,1-3.3,3.3A3.294,3.294,0,0,1,9.391,42.4ZM22.576,59.634,17.122,56.9a1.214,1.214,0,0,0-1.163.048,1.2,1.2,0,0,0-.563,1.019V65.16H3.4V55.571a3,3,0,0,1,3-3h8.187a4.8,4.8,0,0,1,2.877.959l5.118,3.836v2.254ZM38.159,42.4a3.3,3.3,0,1,1-3.3,3.3A3.294,3.294,0,0,1,38.159,42.4ZM51.344,59.634,45.89,56.9a1.214,1.214,0,0,0-1.163.048,1.2,1.2,0,0,0-.563,1.019V65.16H32.178V57.968a1.2,1.2,0,0,0-.563-1.019,1.182,1.182,0,0,0-1.163-.048L25,59.634V57.381l5.118-3.836a4.8,4.8,0,0,1,2.877-.959h9.589A7.262,7.262,0,0,1,46.9,54.025l4.471,3.356v2.254ZM66.927,42.4a3.3,3.3,0,1,1-3.3,3.3A3.294,3.294,0,0,1,66.927,42.4Zm5.993,22.775H60.934V57.98a1.2,1.2,0,0,0-.563-1.019,1.182,1.182,0,0,0-1.163-.048l-5.454,2.733V57.393l5.118-3.836a4.8,4.8,0,0,1,2.877-.959h8.187a3,3,0,0,1,3,3v9.589Z" transform="translate(0 7.642)"/>
    </g>
  </g>
</svg>
