<svg xmlns="http://www.w3.org/2000/svg" width="120" height="120" viewBox="0 0 120 120">
  <g id="Grupo_1114763" data-name="Grupo 1114763" transform="translate(-64 -6445)">
    <rect id="Rect치ngulo_402033" data-name="Rect치ngulo 402033" width="120" height="120" rx="8" transform="translate(64 6445)" fill="#0042db"/>
    <g id="Rect치ngulo_412110" data-name="Rect치ngulo 412110" transform="translate(69 6450)" fill="none" stroke="#fff" stroke-width="1">
      <rect width="110" height="110" rx="6" stroke="none"/>
      <rect x="0.5" y="0.5" width="109" height="109" rx="5.5" fill="none"/>
    </g>
    <g id="Grupo_1115030" data-name="Grupo 1115030" transform="translate(84 6465.031)">
      <g id="Grupo_1114988" data-name="Grupo 1114988" transform="translate(0.8 0.779)">
        <circle id="Elipse_13471" data-name="Elipse 13471" cx="39.192" cy="39.192" r="39.192" fill="#8ceef9"/>
      </g>
      <g id="Grupo_1114989" data-name="Grupo 1114989" transform="translate(23.86 24.794)">
        <path id="Trazado_937726" data-name="Trazado 937726" d="M171.047,163.81l-2.4,4.847-15.6-7.726a9.444,9.444,0,0,1-3.567-3.071l-.016-.016a1.723,1.723,0,0,1,1.312-2.7,9.7,9.7,0,0,1,4.735.976Z" transform="translate(-149.156 -155.128)" fill="#ffece9"/>
      </g>
      <g id="Grupo_1114990" data-name="Grupo 1114990" transform="translate(23.055 24.007)">
        <path id="Trazado_937727" data-name="Trazado 937727" d="M164.419,165.322a.872.872,0,0,1-.352-.08l-15.6-7.726a10.375,10.375,0,0,1-3.871-3.327l-.016-.016a2.506,2.506,0,0,1-.208-2.543,2.473,2.473,0,0,1,2.128-1.408,10.342,10.342,0,0,1,5.135,1.056l15.533,7.694a.8.8,0,0,1,.368,1.072l-2.4,4.847a.767.767,0,0,1-.464.4,1.243,1.243,0,0,1-.256.032Zm-17.373-13.517a4.5,4.5,0,0,0-.464.016.91.91,0,0,0-.688,1.44l.016.016a8.722,8.722,0,0,0,3.279,2.815l14.877,7.359,1.68-3.407-14.829-7.327A8.557,8.557,0,0,0,147.046,151.805Z" transform="translate(-144.123 -150.207)" fill="#1c1d21"/>
      </g>
      <g id="Grupo_1114991" data-name="Grupo 1114991" transform="translate(0 -0.021)">
        <path id="Trazado_937728" data-name="Trazado 937728" d="M39.992,79.984A40,40,0,0,1,11.71,11.71,40,40,0,0,1,68.274,68.274a39.736,39.736,0,0,1-28.282,11.71Zm0-78.384A38.392,38.392,0,1,0,78.384,39.992,38.443,38.443,0,0,0,39.992,1.6Z" transform="translate(0 0)" fill="#1c1d21"/>
      </g>
      <g id="Grupo_1114992" data-name="Grupo 1114992" transform="translate(30.069 18.667)">
        <path id="Trazado_937729" data-name="Trazado 937729" d="M205.4,132.994l-4.143,3.487-11.2-13.325a9.536,9.536,0,0,1-2.048-4.239v-.032a1.724,1.724,0,0,1,2.288-1.952,9.586,9.586,0,0,1,3.951,2.783Z" transform="translate(-187.972 -116.826)" fill="#ffece9"/>
      </g>
      <g id="Grupo_1114993" data-name="Grupo 1114993" transform="translate(0.8 37.587)">
        <path id="Trazado_937730" data-name="Trazado 937730" d="M5.08,235.1c-.048.8-.08,1.584-.08,2.384a39.192,39.192,0,0,0,78.384,0c0-.8-.032-1.584-.08-2.384H5.08Z" transform="translate(-5 -235.1)" fill="#ffc5b3"/>
      </g>
      <g id="Grupo_1114994" data-name="Grupo 1114994" transform="translate(29.251 17.878)">
        <path id="Trazado_937731" data-name="Trazado 937731" d="M196.957,133.137h-.064a.769.769,0,0,1-.544-.288L185.135,119.54a10.52,10.52,0,0,1-2.224-4.591v-.032a2.519,2.519,0,0,1,3.343-2.863,10.4,10.4,0,0,1,4.287,3.023.795.795,0,1,1-1.216,1.024,8.66,8.66,0,0,0-3.615-2.559.873.873,0,0,0-.912.16.9.9,0,0,0-.3.88v.032a8.892,8.892,0,0,0,1.872,3.887l10.686,12.7,2.911-2.448-6.415-7.63a.795.795,0,1,1,1.216-1.024l6.927,8.238a.789.789,0,0,1-.1,1.12l-4.127,3.471A.7.7,0,0,1,196.957,133.137Z" transform="translate(-182.857 -111.892)" fill="#1c1d21"/>
      </g>
      <g id="Grupo_1114995" data-name="Grupo 1114995" transform="translate(37.499 23.113)">
        <path id="Trazado_937732" data-name="Trazado 937732" d="M235.695,146.791a.788.788,0,0,1-.608-.288l-.48-.576a.795.795,0,0,1,1.216-1.024l.48.576a.8.8,0,0,1-.608,1.312Z" transform="translate(-234.418 -144.618)" fill="#1c1d21"/>
      </g>
      <g id="Grupo_1114996" data-name="Grupo 1114996" transform="translate(0 36.788)">
        <path id="Trazado_937733" data-name="Trazado 937733" d="M39.992,273.275A39.979,39.979,0,0,1,0,233.283c0-.784.032-1.584.08-2.432a.8.8,0,0,1,.8-.752H79.12a.816.816,0,0,1,.8.752c.048.848.08,1.632.08,2.432a39.979,39.979,0,0,1-40.008,39.992ZM1.632,231.7c-.016.544-.032,1.056-.032,1.584a38.392,38.392,0,0,0,76.785,0c0-.512-.016-1.04-.032-1.584Z" transform="translate(0 -230.1)" fill="#1c1d21"/>
      </g>
      <g id="Grupo_1114997" data-name="Grupo 1114997" transform="translate(18.582 29.057)">
        <path id="Trazado_937734" data-name="Trazado 937734" d="M124.5,183.186l-7.055-1.392a1.083,1.083,0,0,0-.656,2.048l.928.432a17.142,17.142,0,0,1,7.343,6.431,10.193,10.193,0,0,0,11.006,4.559,10.44,10.44,0,0,1,6.783.736l1.072.5,1.632-3.5Z" transform="translate(-116.158 -181.775)" fill="#ff3e63"/>
      </g>
      <g id="Grupo_1114998" data-name="Grupo 1114998" transform="translate(53.657 41.528)">
        <circle id="Elipse_13472" data-name="Elipse 13472" cx="2.943" cy="2.943" r="2.943" transform="matrix(0.423, -0.906, 0.906, 0.423, 0, 5.333)" fill="#c67552"/>
      </g>
      <g id="Grupo_1114999" data-name="Grupo 1114999" transform="translate(53.85 41.706)">
        <path id="Trazado_937735" data-name="Trazado 937735" d="M340.35,268.307a3.613,3.613,0,0,1-1.568-.352,3.723,3.723,0,1,1,1.568.352Zm0-5.887a2.128,2.128,0,1,0,.912.192A2.661,2.661,0,0,0,340.35,262.42Z" transform="translate(-336.627 -260.844)" fill="#1c1d21"/>
      </g>
      <g id="Grupo_1115000" data-name="Grupo 1115000" transform="translate(57.977 47.302)">
        <path id="Trazado_937736" data-name="Trazado 937736" d="M365.414,301.613a.78.78,0,0,1-.7-.432l-2.192-4.191a.794.794,0,1,1,1.408-.736l2.176,4.191a.788.788,0,0,1-.336,1.072A.729.729,0,0,1,365.414,301.613Z" transform="translate(-362.427 -295.827)" fill="#1c1d21"/>
      </g>
      <g id="Grupo_1115001" data-name="Grupo 1115001" transform="translate(44.111 41.547)">
        <path id="Trazado_937737" data-name="Trazado 937737" d="M283.324,271.391h-1.2a3.075,3.075,0,0,1-2.879-1.952l-3.439-8.494a.8.8,0,0,1,1.488-.592l3.439,8.494a1.513,1.513,0,0,0,1.408.944h1.2a.792.792,0,0,1,.8.8A.806.806,0,0,1,283.324,271.391Z" transform="translate(-275.749 -259.849)" fill="#1c1d21"/>
      </g>
      <g id="Grupo_1115002" data-name="Grupo 1115002" transform="translate(32.95 35.008)">
        <path id="Trazado_937738" data-name="Trazado 937738" d="M206.781,227.331a.784.784,0,0,1-.448-.144.8.8,0,0,1-.224-1.1l4.543-6.751a.8.8,0,0,1,1.328.88l-4.543,6.767A.806.806,0,0,1,206.781,227.331Z" transform="translate(-205.977 -218.977)" fill="#ffaec3"/>
      </g>
      <g id="Grupo_1115003" data-name="Grupo 1115003" transform="translate(28.503 32.801)">
        <path id="Trazado_937739" data-name="Trazado 937739" d="M178.981,213.435a.784.784,0,0,1-.448-.144.8.8,0,0,1-.224-1.1l4.5-6.655a.8.8,0,1,1,1.328.88l-4.5,6.655A.763.763,0,0,1,178.981,213.435Z" transform="translate(-178.177 -205.177)" fill="#ffaec3"/>
      </g>
      <g id="Grupo_1115004" data-name="Grupo 1115004" transform="translate(39.125 36.832)">
        <path id="Trazado_937740" data-name="Trazado 937740" d="M245.381,236.588a.784.784,0,0,1-.448-.144.8.8,0,0,1-.224-1.1l3.1-4.607a.8.8,0,0,1,1.328.88l-3.087,4.623a.774.774,0,0,1-.672.352Z" transform="translate(-244.577 -230.377)" fill="#ffaec3"/>
      </g>
      <g id="Grupo_1115005" data-name="Grupo 1115005" transform="translate(25.303 30.753)">
        <path id="Trazado_937741" data-name="Trazado 937741" d="M158.981,198.556a.784.784,0,0,1-.448-.144.8.8,0,0,1-.224-1.1l3.087-4.575a.8.8,0,0,1,1.328.88l-3.087,4.575A.73.73,0,0,1,158.981,198.556Z" transform="translate(-158.177 -192.377)" fill="#ffaec3"/>
      </g>
      <g id="Grupo_1115006" data-name="Grupo 1115006" transform="translate(21.56 29.186)">
        <path id="Trazado_937742" data-name="Trazado 937742" d="M135.581,187.012a.784.784,0,0,1-.448-.144.8.8,0,0,1-.224-1.1l1.9-2.831a.8.8,0,0,1,1.328.88l-1.888,2.847A.835.835,0,0,1,135.581,187.012Z" transform="translate(-134.777 -182.577)" fill="#ffaec3"/>
      </g>
      <g id="Grupo_1115007" data-name="Grupo 1115007" transform="translate(17.791 28.276)">
        <path id="Trazado_937743" data-name="Trazado 937743" d="M139.767,193.211a.86.86,0,0,1-.336-.08l-1.072-.5a9.67,9.67,0,0,0-6.255-.688,11.006,11.006,0,0,1-11.886-4.911,16.207,16.207,0,0,0-6.991-6.127l-.928-.432a1.881,1.881,0,0,1,1.152-3.551l7.055,1.392a.9.9,0,0,1,.192.064l21.036,9.806a.788.788,0,0,1,.384,1.056l-1.632,3.5a.8.8,0,0,1-.72.464Zm-5.583-3.1a11.435,11.435,0,0,1,4.831,1.088l.352.16.96-2.048-20.236-9.454-6.959-1.376a.28.28,0,0,0-.32.16.3.3,0,0,0,.144.384l.928.432a17.728,17.728,0,0,1,7.678,6.751A9.388,9.388,0,0,0,131.72,190.4,10.585,10.585,0,0,1,134.184,190.108Z" transform="translate(-111.215 -176.893)" fill="#1c1d21"/>
      </g>
      <g id="Grupo_1115008" data-name="Grupo 1115008" transform="translate(21.228 38.22)">
        <path id="Trazado_937744" data-name="Trazado 937744" d="M136.235,253.92H133.5a.8.8,0,0,1,0-1.6h2.735a3.8,3.8,0,0,0,3.151-1.68l7.311-10.894a1.593,1.593,0,0,1,1.152-.688,1.569,1.569,0,0,1,1.264.464l2.975,3.055a.8.8,0,0,1-1.152,1.12l-2.943-3.007L140.7,251.537A5.33,5.33,0,0,1,136.235,253.92Z" transform="translate(-132.7 -239.051)" fill="#1c1d21"/>
      </g>
      <g id="Grupo_1115009" data-name="Grupo 1115009" transform="translate(10.542 36.26)">
        <path id="Trazado_937745" data-name="Trazado 937745" d="M69.435,243.63H66.7a.8.8,0,1,1,0-1.6h2.735a3.8,3.8,0,0,0,3.151-1.68l8.942-13.2a.794.794,0,0,1,1.312.9l-8.926,13.2A5.358,5.358,0,0,1,69.435,243.63Z" transform="translate(-65.9 -226.802)" fill="#1c1d21"/>
      </g>
      <g id="Grupo_1115010" data-name="Grupo 1115010" transform="translate(42.949 33.353)">
        <path id="Trazado_937746" data-name="Trazado 937746" d="M268.693,213.246l1.92,4.511a2.529,2.529,0,0,0,1.264,1.312l2.24,1.04a2.483,2.483,0,0,0,1.824.128l4.463-1.36a2.545,2.545,0,0,0,1.808-2.511,7.959,7.959,0,0,0-12.733-6.143A2.529,2.529,0,0,0,268.693,213.246Z" transform="translate(-268.483 -208.628)" fill="#c67552"/>
      </g>
      <g id="Grupo_1115011" data-name="Grupo 1115011" transform="translate(44.167 39.968)">
        <path id="Trazado_937747" data-name="Trazado 937747" d="M280.515,254.865a2.483,2.483,0,0,0,1.824.128l2.016-.624A6.309,6.309,0,0,0,276.1,250.4l.9,2.112a2.529,2.529,0,0,0,1.264,1.312Z" transform="translate(-276.1 -249.984)" fill="#ff8939"/>
      </g>
      <g id="Grupo_1115012" data-name="Grupo 1115012" transform="translate(42.134 32.578)">
        <path id="Trazado_937748" data-name="Trazado 937748" d="M270.911,217.1a3.42,3.42,0,0,1-1.424-.32l-2.24-1.04a3.31,3.31,0,0,1-1.664-1.728l-1.92-4.511a3.315,3.315,0,0,1,1.04-3.967,8.764,8.764,0,0,1,14.013,6.751,3.337,3.337,0,0,1-2.368,3.3l-4.463,1.36a2.9,2.9,0,0,1-.976.16Zm-5.759-8.238,1.92,4.511a1.749,1.749,0,0,0,.864.9l2.24,1.04a1.865,1.865,0,0,0,1.248.1l4.463-1.36a1.771,1.771,0,0,0,1.248-1.728,7.166,7.166,0,0,0-11.454-5.535A1.736,1.736,0,0,0,265.153,208.858Z" transform="translate(-263.392 -203.784)" fill="#1c1d21"/>
      </g>
      <g id="Grupo_1115013" data-name="Grupo 1115013" transform="translate(52.083 38.225)">
        <path id="Trazado_937749" data-name="Trazado 937749" d="M326.594,241.1a.8.8,0,0,1-.736-.48,2.4,2.4,0,0,0-.176-.352.8.8,0,0,1,1.408-.768,3.515,3.515,0,0,1,.24.5.811.811,0,0,1-.416,1.056A1.2,1.2,0,0,1,326.594,241.1Z" transform="translate(-325.584 -239.084)" fill="#ffa364"/>
      </g>
      <g id="Grupo_1115014" data-name="Grupo 1115014" transform="translate(45.513 35.764)">
        <path id="Trazado_937750" data-name="Trazado 937750" d="M285.309,225.956a.8.8,0,0,1-.4-1.488,5.639,5.639,0,0,1,2.815-.768,5.484,5.484,0,0,1,2.352.528.794.794,0,1,1-.672,1.44,4,4,0,0,0-1.664-.368,4.1,4.1,0,0,0-2.016.544A.857.857,0,0,1,285.309,225.956Z" transform="translate(-284.511 -223.7)" fill="#ffa364"/>
      </g>
      <g id="Grupo_1115015" data-name="Grupo 1115015" transform="translate(43.371 39.17)">
        <path id="Trazado_937751" data-name="Trazado 937751" d="M277.408,251.713a3.42,3.42,0,0,1-1.424-.32l-2.24-1.04a3.31,3.31,0,0,1-1.664-1.728l-.9-2.112a.841.841,0,0,1,0-.624.792.792,0,0,1,.448-.432,7.1,7.1,0,0,1,9.278,4.479.8.8,0,0,1-.528,1.008l-2.016.624A3.169,3.169,0,0,1,277.408,251.713Zm-4.4-5.007.544,1.28a1.749,1.749,0,0,0,.864.9l2.24,1.04a1.865,1.865,0,0,0,1.248.1l1.184-.368a5.473,5.473,0,0,0-2.607-2.559,5.632,5.632,0,0,0-3.471-.384Z" transform="translate(-271.125 -244.993)" fill="#1c1d21"/>
      </g>
      <g id="Grupo_1115016" data-name="Grupo 1115016" transform="translate(0.8 0.779)">
        <path id="Trazado_937752" data-name="Trazado 937752" d="M44.192,5A39.192,39.192,0,1,0,83.384,44.192,39.194,39.194,0,0,0,44.192,5Zm0,73.681A34.489,34.489,0,1,1,78.681,44.192,34.483,34.483,0,0,1,44.192,78.681Z" transform="translate(-5 -5)" fill="#ff3e63"/>
      </g>
      <g id="Grupo_1115017" data-name="Grupo 1115017" transform="translate(0 -0.021)">
        <path id="Trazado_937753" data-name="Trazado 937753" d="M39.992,79.984A40,40,0,0,1,11.71,11.71,40,40,0,0,1,68.274,68.274a39.736,39.736,0,0,1-28.282,11.71Zm0-78.384A38.392,38.392,0,1,0,78.384,39.992,38.443,38.443,0,0,0,39.992,1.6Zm0,73.681A35.292,35.292,0,0,1,15.037,15.037a35.292,35.292,0,0,1,49.91,49.91A35.12,35.12,0,0,1,39.992,75.281Zm0-68.978A33.689,33.689,0,1,0,73.681,39.992,33.733,33.733,0,0,0,39.992,6.3Z" transform="translate(0 0)" fill="#1c1d21"/>
      </g>
      <g id="Grupo_1115018" data-name="Grupo 1115018" transform="translate(37.512 0.779)">
        <path id="Trazado_937754" data-name="Trazado 937754" d="M236.98,5c-.832,0-1.664.032-2.48.08v8.27a2.48,2.48,0,0,0,4.959,0V5.08c-.816-.048-1.648-.08-2.48-.08Z" transform="translate(-234.5 -5)" fill="#ff3e63"/>
      </g>
      <g id="Grupo_1115019" data-name="Grupo 1115019" transform="translate(36.713 -0.025)">
        <path id="Trazado_937755" data-name="Trazado 937755" d="M232.779,12.409A3.284,3.284,0,0,1,229.5,9.129V.859a.816.816,0,0,1,.752-.8,38.316,38.316,0,0,1,5.071,0,.816.816,0,0,1,.752.8v8.27A3.308,3.308,0,0,1,232.779,12.409Zm-1.68-10.8v7.5a1.68,1.68,0,1,0,3.359,0v-7.5C233.307,1.563,232.251,1.563,231.1,1.611Z" transform="translate(-229.5 0.025)" fill="#1c1d21"/>
      </g>
      <g id="Grupo_1115020" data-name="Grupo 1115020" transform="translate(37.512 68.333)">
        <path id="Trazado_937756" data-name="Trazado 937756" d="M236.98,438.13c.832,0,1.664-.032,2.48-.08v-8.27a2.48,2.48,0,0,0-4.959,0v8.27C235.316,438.1,236.148,438.13,236.98,438.13Z" transform="translate(-234.5 -427.3)" fill="#ff3e63"/>
      </g>
      <g id="Grupo_1115021" data-name="Grupo 1115021" transform="translate(36.697 67.533)">
        <path id="Trazado_937757" data-name="Trazado 937757" d="M232.7,434.73c-.816,0-1.648-.032-2.544-.08a.816.816,0,0,1-.752-.8v-8.27a3.279,3.279,0,1,1,6.559,0v8.27a.816.816,0,0,1-.752.8C234.343,434.7,233.511,434.73,232.7,434.73Zm-1.68-1.632c1.152.048,2.224.048,3.375,0v-7.5a1.68,1.68,0,0,0-3.359,0v7.5Z" transform="translate(-229.4 -422.3)" fill="#1c1d21"/>
      </g>
      <g id="Grupo_1115022" data-name="Grupo 1115022" transform="translate(68.354 37.491)">
        <path id="Trazado_937758" data-name="Trazado 937758" d="M438.13,236.98c0-.832-.032-1.664-.08-2.48h-8.27a2.48,2.48,0,0,0,0,4.959h8.27C438.1,238.643,438.13,237.811,438.13,236.98Z" transform="translate(-427.3 -234.5)" fill="#ff3e63"/>
      </g>
      <g id="Grupo_1115023" data-name="Grupo 1115023" transform="translate(67.554 36.692)">
        <path id="Trazado_937759" data-name="Trazado 937759" d="M433.85,236.059h-8.27a3.279,3.279,0,1,1,0-6.559h8.27a.816.816,0,0,1,.8.752c.048.864.08,1.728.08,2.543s-.032,1.664-.08,2.544A.8.8,0,0,1,433.85,236.059Zm-8.27-4.959a1.68,1.68,0,0,0,0,3.359h7.5c.032-.576.032-1.136.032-1.68s-.016-1.1-.032-1.68Z" transform="translate(-422.3 -229.5)" fill="#1c1d21"/>
      </g>
      <g id="Grupo_1115024" data-name="Grupo 1115024" transform="translate(0.8 37.491)">
        <path id="Trazado_937760" data-name="Trazado 937760" d="M5,236.98c0,.832.032,1.664.08,2.48h8.27a2.48,2.48,0,0,0,0-4.959H5.08c-.048.816-.08,1.648-.08,2.48Z" transform="translate(-5 -234.5)" fill="#ff3e63"/>
      </g>
      <g id="Grupo_1115025" data-name="Grupo 1115025" transform="translate(0 36.676)">
        <path id="Trazado_937761" data-name="Trazado 937761" d="M9.15,235.975H.88a.816.816,0,0,1-.8-.752C.032,234.359,0,233.511,0,232.7s.032-1.664.08-2.543a.816.816,0,0,1,.8-.752H9.15a3.287,3.287,0,0,1,0,6.575Zm-7.518-1.6h7.5a1.68,1.68,0,0,0,0-3.359h-7.5c-.032.576-.032,1.136-.032,1.68s.016,1.1.032,1.68Z" transform="translate(0 -229.4)" fill="#1c1d21"/>
      </g>
      <g id="Grupo_1115026" data-name="Grupo 1115026" transform="translate(55.397 52.289)">
        <path id="Trazado_937762" data-name="Trazado 937762" d="M346.3,332.567a5.567,5.567,0,0,1,11.134,0" transform="translate(-346.3 -327)" fill="#ff3e63"/>
      </g>
      <g id="Grupo_1115027" data-name="Grupo 1115027" transform="translate(51.622 51.489)">
        <path id="Trazado_937763" data-name="Trazado 937763" d="M340.568,329.167h-1.1a2.985,2.985,0,0,1-2.847-2.128,4.769,4.769,0,0,0-9.15,0,2.985,2.985,0,0,1-2.847,2.128H323.5a.8.8,0,0,1,0-1.6h1.12a1.358,1.358,0,0,0,1.312-.976,6.362,6.362,0,0,1,12.222,0,1.358,1.358,0,0,0,1.312.976h1.1a.8.8,0,0,1,0,1.6Z" transform="translate(-322.7 -322)" fill="#1c1d21"/>
      </g>
      <g id="Grupo_1115028" data-name="Grupo 1115028" transform="translate(46.103 57.056)">
        <path id="Trazado_937764" data-name="Trazado 937764" d="M290.615,358.4H289a.8.8,0,0,1,0-1.6h1.616a.8.8,0,1,1,0,1.6Z" transform="translate(-288.2 -356.8)" fill="#1c1d21"/>
      </g>
      <g id="Grupo_1115029" data-name="Grupo 1115029" transform="translate(42.791 57.056)">
        <path id="Trazado_937765" data-name="Trazado 937765" d="M268.876,358.4H268.3a.8.8,0,0,1,0-1.6h.576a.8.8,0,0,1,0,1.6Z" transform="translate(-267.5 -356.8)" fill="#1c1d21"/>
      </g>
    </g>
  </g>
</svg>
