<svg xmlns="http://www.w3.org/2000/svg" width="85" height="85" viewBox="0 0 85 85">
  <g id="Grupo_1114861" data-name="Grupo 1114861" transform="translate(-64 -6445)">
    <rect id="Rect치ngulo_402033" data-name="Rect치ngulo 402033" width="85" height="85" rx="8" transform="translate(64 6445)" fill="#0042db"/>
    <g id="Rect치ngulo_412110" data-name="Rect치ngulo 412110" transform="translate(67.542 6448.542)" fill="none" stroke="#fff" stroke-width="1">
      <rect width="77.917" height="77.917" rx="6" stroke="none"/>
      <rect x="0.5" y="0.5" width="76.917" height="76.917" rx="5.5" fill="none"/>
    </g>
    <g id="Grupo_1115252" data-name="Grupo 1115252" transform="translate(76.498 6457.076)">
      <path id="Trazado_938141" data-name="Trazado 938141" d="M60.4,31.89v.1A28.981,28.981,0,0,1,43.863,58.176h-5.9a1.876,1.876,0,0,1-1.87-1.87v-1.87a1.876,1.876,0,0,0-1.87-1.87H30.013a3.289,3.289,0,0,1-3.273-3.273,3.277,3.277,0,0,1,3.273-3.273h.935a2.338,2.338,0,0,0,0-4.676H27.722a4.727,4.727,0,0,1,0-9.454Z" transform="translate(-1.492 -2.069)" fill="#81cc50"/>
      <path id="Trazado_938142" data-name="Trazado 938142" d="M58.978,26v5.508H26.531a4.915,4.915,0,0,0-4.957,4.852,4.725,4.725,0,0,0,4.72,4.6h3.077a2.44,2.44,0,0,1,2.483,2.48,2.329,2.329,0,0,1-2.332,2.2h-.752a3.413,3.413,0,0,0-3.454,3.4,3.29,3.29,0,0,0,3.271,3.15h4.208a1.876,1.876,0,0,1,1.87,1.87v1.87a1.876,1.876,0,0,0,1.87,1.87h5.9A29,29,0,0,1,4.123,44.7h8.1a1.876,1.876,0,0,0,1.87-1.87V41.9a1.876,1.876,0,0,0-1.87-1.87h-1.87a1.882,1.882,0,0,1-1.863-2.036,1.94,1.94,0,0,1,1.967-1.7h4.1a3.29,3.29,0,0,0,3.271-3.15,3.413,3.413,0,0,0-3.454-3.4H1V26H58.978Z" transform="translate(-0.065 -1.687)" fill="#5fb8d3"/>
      <path id="Trazado_938143" data-name="Trazado 938143" d="M62.353,26H53.029c.043,1.8.113,3.667.049,5.508h9.275Z" transform="translate(-3.44 -1.687)" fill="#34889b"/>
      <path id="Trazado_938144" data-name="Trazado 938144" d="M61.331,31.89v.1A28.981,28.981,0,0,1,44.788,58.176h-5.9a1.882,1.882,0,0,1-.729-.15.942.942,0,0,1-.215-.112,1.025,1.025,0,0,1-.2-.131.943.943,0,0,1-.178-.159,1.671,1.671,0,0,1-.122-.131c-.028-.037-.056-.065-.084-.1s-.065-.1-.094-.15A28.953,28.953,0,0,0,52.017,31.993v-.1Z" transform="translate(-2.418 -2.069)" fill="#61993c"/>
      <path id="Trazado_938145" data-name="Trazado 938145" d="M38.223,59.935h5.9A28.75,28.75,0,0,1,31.678,62.74a29.312,29.312,0,0,1-4.648-.374,28.463,28.463,0,0,0,7.78-2.431c.608-.29,1.206-.6,1.8-.935.028.047.065.1.094.15s.056.065.084.1a1.671,1.671,0,0,0,.122.131.943.943,0,0,0,.178.159,1.025,1.025,0,0,0,.2.131.942.942,0,0,0,.215.112,1.882,1.882,0,0,0,.729.15Z" transform="translate(-1.754 -3.828)" fill="#34889b"/>
      <path id="Trazado_938146" data-name="Trazado 938146" d="M28.309,53.2A2.907,2.907,0,0,1,28,52.934a2.87,2.87,0,0,1-.421-.524,1.765,1.765,0,0,1,.729.795Z" transform="translate(-1.789 -3.4)" fill="#81cc50"/>
      <path id="Trazado_938147" data-name="Trazado 938147" d="M28.309,53.2A2.907,2.907,0,0,1,28,52.934a2.87,2.87,0,0,1-.421-.524,1.765,1.765,0,0,1,.729.795Z" transform="translate(-1.789 -3.4)" fill="#5fb8d3"/>
      <path id="Trazado_938148" data-name="Trazado 938148" d="M55.8,8.74a3.74,3.74,0,0,1,0,7.481c0,2.067-1.674,2.805-3.74,2.805a3.42,3.42,0,0,1-.935-.122V16.221a1.884,1.884,0,0,0-1.87-1.87,1.876,1.876,0,0,0-1.87,1.87v2.3a3.638,3.638,0,0,1-1.87.5c-2.067,0-3.74-2.805-3.74-2.805a3.718,3.718,0,0,1-3.338-2.067,2.6,2.6,0,0,0,.533-1.674A3.739,3.739,0,0,0,42.7,8.74a3.678,3.678,0,0,0-.468-1.8,3.735,3.735,0,0,1,6.546,0A3.738,3.738,0,0,1,55.8,8.74Z" transform="translate(-2.493 -0.324)" fill="#81cc50"/>
      <path id="Trazado_938149" data-name="Trazado 938149" d="M60.384,12.481a3.739,3.739,0,0,1-3.74,3.74c0,2.067-1.674,2.805-3.74,2.805a3.42,3.42,0,0,1-.935-.122v-.14a2.484,2.484,0,0,0,1.88-2.544,3.74,3.74,0,0,0,0-7.481,3.71,3.71,0,0,0-2.338-3.46A3.467,3.467,0,0,1,52.9,5a3.739,3.739,0,0,1,3.74,3.74,3.739,3.739,0,0,1,3.74,3.74Z" transform="translate(-3.342 -0.324)" fill="#61993c"/>
      <path id="Trazado_938150" data-name="Trazado 938150" d="M51.74,19.554v5.732H48V16.87A1.876,1.876,0,0,1,49.87,15a1.884,1.884,0,0,1,1.87,1.87Z" transform="translate(-3.114 -0.973)" fill="#d9ab82"/>
      <path id="Trazado_938151" data-name="Trazado 938151" d="M41.04,6.676a3.678,3.678,0,0,1,.468,1.8,3.739,3.739,0,0,1-3.74,3.74,2.6,2.6,0,0,1-.533,1.674,4,4,0,0,1-3.207,1.131,3.42,3.42,0,0,1-.935-.122V12.221a1.884,1.884,0,0,0-1.87-1.87,1.876,1.876,0,0,0-1.87,1.87v2.3a3.638,3.638,0,0,1-1.87.5,4.331,4.331,0,0,1-2.964-1.749,8.649,8.649,0,0,1-.776-1.057A3.739,3.739,0,0,1,20,8.481a3.678,3.678,0,0,1,.468-1.8A3.72,3.72,0,0,1,23.74,4.74a3.738,3.738,0,0,1,7.013-1.8,3.738,3.738,0,0,1,7.013,1.8A3.72,3.72,0,0,1,41.04,6.676Z" transform="translate(-1.298 -0.065)" fill="#81cc50"/>
      <path id="Trazado_938152" data-name="Trazado 938152" d="M42.337,8.481a3.739,3.739,0,0,1-3.74,3.74,2.6,2.6,0,0,1-.533,1.674,4,4,0,0,1-3.207,1.131,3.42,3.42,0,0,1-.935-.122V13.839a2.567,2.567,0,0,0,.5-1.618,3.739,3.739,0,0,0,3.74-3.74,3.678,3.678,0,0,0-.468-1.8A3.72,3.72,0,0,0,34.416,4.74a3.755,3.755,0,0,0-1.636-3.1A3.681,3.681,0,0,1,34.856,1,3.739,3.739,0,0,1,38.6,4.74a3.72,3.72,0,0,1,3.273,1.936A3.678,3.678,0,0,1,42.337,8.481Z" transform="translate(-2.127 -0.065)" fill="#61993c"/>
      <path id="Trazado_938153" data-name="Trazado 938153" d="M40.767,25.681H23c1.842-1.562,3.254-3.843,6.546-4.442a9.613,9.613,0,0,1,1.945-.15,13.083,13.083,0,0,1,1.8.14C37.41,21.81,38.86,24.073,40.767,25.681Z" transform="translate(-1.492 -1.368)" fill="#a38062"/>
      <path id="Trazado_938154" data-name="Trazado 938154" d="M33.74,15.554v5.022a13.083,13.083,0,0,0-1.8-.14,9.613,9.613,0,0,0-1.945.15V12.87A1.876,1.876,0,0,1,31.87,11a1.884,1.884,0,0,1,1.87,1.87Z" transform="translate(-1.946 -0.714)" fill="#d9ab82"/>
      <path id="Trazado_938155" data-name="Trazado 938155" d="M22.573,12.481a8.649,8.649,0,0,0,.776,1.057,3.722,3.722,0,0,1-3.582,2.684c0,2.067-1.674,2.805-3.74,2.805a3.42,3.42,0,0,1-.935-.122V16.221a1.884,1.884,0,0,0-1.87-1.87,1.876,1.876,0,0,0-1.87,1.87v2.3a3.638,3.638,0,0,1-1.87.5c-2.067,0-3.74-2.805-3.74-2.805a3.74,3.74,0,0,1,0-7.481,3.738,3.738,0,0,1,7.013-1.8,3.735,3.735,0,0,1,6.546,0,3.678,3.678,0,0,0-.468,1.8A3.739,3.739,0,0,0,22.573,12.481Z" transform="translate(-0.13 -0.324)" fill="#81cc50"/>
      <path id="Trazado_938156" data-name="Trazado 938156" d="M24.257,13.538a3.722,3.722,0,0,1-3.582,2.684c0,2.067-1.674,2.805-3.74,2.805A3.42,3.42,0,0,1,16,18.905V18.11A2.538,2.538,0,0,0,18.085,15.5a3.724,3.724,0,0,0,3.2-1.8,1.316,1.316,0,0,0-.065-1.449l-.01-.014a1.224,1.224,0,0,0-.823-.507,3.743,3.743,0,0,1-3.115-4.655,1.853,1.853,0,0,0-.553-1.937c-.046-.037-.092-.073-.139-.108A2.3,2.3,0,0,1,16.935,5a3.72,3.72,0,0,1,3.273,1.936,3.678,3.678,0,0,0-.468,1.8,3.739,3.739,0,0,0,3.74,3.74A8.649,8.649,0,0,0,24.257,13.538Z" transform="translate(-1.038 -0.324)" fill="#61993c"/>
      <path id="Trazado_938157" data-name="Trazado 938157" d="M14.559,30a3.277,3.277,0,0,1,3.273,3.273,3.289,3.289,0,0,1-3.273,3.273H10.351a1.876,1.876,0,0,0-1.87,1.87,1.884,1.884,0,0,0,1.87,1.87h1.87a1.876,1.876,0,0,1,1.87,1.87v.935a1.876,1.876,0,0,1-1.87,1.87h-8.1A28.756,28.756,0,0,1,1,31.87V30H14.559Z" transform="translate(-0.065 -1.946)" fill="#81cc50"/>
      <path id="Trazado_938158" data-name="Trazado 938158" d="M15.74,19.554v5.732H12V16.87A1.876,1.876,0,0,1,13.87,15a1.884,1.884,0,0,1,1.87,1.87Z" transform="translate(-0.779 -0.973)" fill="#d9ab82"/>
      <g id="Grupo_1115251" data-name="Grupo 1115251" transform="translate(0 0)">
        <path id="Trazado_938159" data-name="Trazado 938159" d="M58.913,23.378H49.561v-3.74c2.551,0,4.205-1.061,4.59-2.883a4.676,4.676,0,0,0,.007-9.2,4.676,4.676,0,0,0-7.87-2.482,4.665,4.665,0,0,0-6.555.017,4.661,4.661,0,0,0-2.407-1.276,4.676,4.676,0,0,0-7.87-2.482,4.676,4.676,0,0,0-7.87,2.482,4.644,4.644,0,0,0-2.407,1.276,4.665,4.665,0,0,0-6.555-.017A4.676,4.676,0,0,0,4.754,7.56,4.676,4.676,0,0,0,5.085,16.8c.63.9,2.216,2.834,4.266,2.834a4.719,4.719,0,0,0,.935-.1v3.844H.935A.935.935,0,0,0,0,24.313v5.611A29.925,29.925,0,0,0,29.915,59.848q.424,0,.848-.012a28.9,28.9,0,0,0,11.6-2.793h.292V56.9A30.8,30.8,0,0,0,59.848,29.321V24.313A.935.935,0,0,0,58.913,23.378Zm-13.092,0V15.9a.936.936,0,0,1,.935-.935.915.915,0,0,1,.667.286.9.9,0,0,1,.268.649v7.481ZM15.9,19.638c2.551,0,4.206-1.061,4.59-2.884a4.7,4.7,0,0,0,3-1.964,4.3,4.3,0,0,0,2.7,1.107,4.719,4.719,0,0,0,.935-.1v3.33a10.86,10.86,0,0,0-4.972,3.3c-.341.34-.669.658-1,.958H15.9Zm14.962-.81c-.271-.019-.551-.032-.841-.037l-.237,0c-.281,0-.531.03-.793.049V12.157a.936.936,0,0,1,.935-.935.915.915,0,0,1,.667.286.9.9,0,0,1,.268.649Zm-.876,1.833A9.276,9.276,0,0,1,36.9,23.378H23.836a7.661,7.661,0,0,1,6.147-2.717Zm9.656,2.717c-.287-.255-.57-.514-.855-.787a11.527,11.527,0,0,0-6.055-3.507V15.9a5.872,5.872,0,0,0,3-.7A4.623,4.623,0,0,0,38.75,16.8c.63.905,2.216,2.834,4.265,2.834a4.719,4.719,0,0,0,.935-.1v3.844ZM43.016,5.611a2.794,2.794,0,0,1,2.453,1.45.974.974,0,0,0,1.64,0,2.8,2.8,0,0,1,5.258,1.355.935.935,0,0,0,.935.935,2.805,2.805,0,1,1,0,5.611.935.935,0,0,0-.935.935c0,.463,0,1.87-2.805,1.87V15.9a2.819,2.819,0,0,0-2.805-2.805A2.809,2.809,0,0,0,43.951,15.9v1.69a2.734,2.734,0,0,1-.935.18c-1.244,0-2.572-1.741-2.939-2.351a.937.937,0,0,0-.8-.454,2.769,2.769,0,0,1-2.248-1.14,3.363,3.363,0,0,0,.293-.808,4.683,4.683,0,0,0,3.826-4.6,4.635,4.635,0,0,0-.327-1.7,2.778,2.778,0,0,1,2.2-1.1Zm-20.573,0a.935.935,0,0,0,.935-.935,2.8,2.8,0,0,1,5.258-1.355.974.974,0,0,0,1.64,0,2.8,2.8,0,0,1,5.258,1.355.935.935,0,0,0,.935.935,2.805,2.805,0,0,1,0,5.611.935.935,0,0,0-.935.935c0,.463,0,1.87-2.805,1.87v-1.87a2.819,2.819,0,0,0-2.805-2.805,2.809,2.809,0,0,0-2.805,2.805v1.69a2.734,2.734,0,0,1-.935.18c-1.244,0-2.572-1.741-2.939-2.351a.937.937,0,0,0-.8-.454,2.805,2.805,0,1,1,0-5.611ZM9.351,17.767c-1.244,0-2.572-1.741-2.939-2.351a.937.937,0,0,0-.8-.454,2.805,2.805,0,1,1,0-5.611.935.935,0,0,0,.935-.935A2.8,2.8,0,0,1,11.8,7.061a.974.974,0,0,0,1.64,0,2.771,2.771,0,0,1,4.65-.346,4.635,4.635,0,0,0-.327,1.7,4.682,4.682,0,0,0,4.15,4.647c.066.1.15.208.237.323a2.807,2.807,0,0,1-2.516,1.577.935.935,0,0,0-.935.935c0,.463,0,1.87-2.805,1.87V15.9a2.819,2.819,0,0,0-2.805-2.805A2.809,2.809,0,0,0,10.286,15.9v1.69A2.734,2.734,0,0,1,9.351,17.767Zm2.805-1.87a.936.936,0,0,1,.935-.935.915.915,0,0,1,.667.286.9.9,0,0,1,.268.649v7.481h-1.87ZM1.87,28.989H14.494a2.338,2.338,0,1,1,0,4.676H10.286a2.805,2.805,0,1,0,0,5.611h1.87a.936.936,0,0,1,.935.935v.935a.936.936,0,0,1-.935.935H4.621A27.936,27.936,0,0,1,1.87,29.924ZM30.713,57.966a27.934,27.934,0,0,1-20.351-7.934,28.251,28.251,0,0,1-4.741-6.082h6.536a2.809,2.809,0,0,0,2.805-2.805V40.21A2.809,2.809,0,0,0,12.157,37.4h-1.87a.935.935,0,1,1,0-1.87h4.208a4.208,4.208,0,1,0,0-8.416H1.87v-1.87H57.978v3.638H26.23a5.669,5.669,0,0,0-5.657,5.667A5.662,5.662,0,0,0,26.23,40.21h3.226a1.4,1.4,0,1,1,0,2.805h-.935a4.213,4.213,0,0,0-4.208,4.208,4.222,4.222,0,0,0,4.208,4.208h4.208a.936.936,0,0,1,.935.935v1.87a2.809,2.809,0,0,0,2.805,2.805h.511a26.9,26.9,0,0,1-6.267.924Zm11.23-2.794H36.47a.936.936,0,0,1-.935-.935v-1.87a2.809,2.809,0,0,0-2.805-2.805H28.521a2.353,2.353,0,0,1-2.338-2.338,2.34,2.34,0,0,1,2.338-2.338h.935a3.293,3.293,0,0,0,2.316-.957,3.276,3.276,0,0,0-2.316-5.589H26.23a3.791,3.791,0,0,1-3.787-3.787,3.8,3.8,0,0,1,3.787-3.8H57.942a28.923,28.923,0,0,1-16,24.416Z" transform="translate(0 0)"/>
      </g>
    </g>
  </g>
</svg>
